<?xml version="1.0" encoding="utf-8" standalone="no"?>
<!DOCTYPE svg PUBLIC "-//W3C//DTD SVG 1.1//EN"
  "http://www.w3.org/Graphics/SVG/1.1/DTD/svg11.dtd">
<svg xmlns:xlink="http://www.w3.org/1999/xlink" width="1440pt" height="360pt" viewBox="0 0 1440 360" xmlns="http://www.w3.org/2000/svg" version="1.1">
 <metadata>
  <rdf:RDF xmlns:dc="http://purl.org/dc/elements/1.1/" xmlns:cc="http://creativecommons.org/ns#" xmlns:rdf="http://www.w3.org/1999/02/22-rdf-syntax-ns#">
   <cc:Work>
    <dc:type rdf:resource="http://purl.org/dc/dcmitype/StillImage"/>
    <dc:date>2021-12-18T01:23:30.970835</dc:date>
    <dc:format>image/svg+xml</dc:format>
    <dc:creator>
     <cc:Agent>
      <dc:title>Matplotlib v3.5.0, https://matplotlib.org/</dc:title>
     </cc:Agent>
    </dc:creator>
   </cc:Work>
  </rdf:RDF>
 </metadata>
 <defs>
  <style type="text/css">*{stroke-linejoin: round; stroke-linecap: butt}</style>
 </defs>
 <g id="figure_1">
  <g id="patch_1">
   <path d="M 0 360 
L 1440 360 
L 1440 0 
L 0 0 
L 0 360 
z
" style="fill: none"/>
  </g>
  <g id="axes_1">
   <g id="patch_2">
    <path d="M 180 315 
L 508.235294 315 
L 508.235294 43.2 
L 180 43.2 
z
" style="fill: #ffffff"/>
   </g>
   <g id="patch_3">
    <path d="M 180 314.4564 
L 492.605042 314.4564 
L 492.605042 310.1076 
L 180 310.1076 
z
" clip-path="url(#pbb11e6c896)" style="fill: #0000ff"/>
   </g>
   <g id="patch_4">
    <path d="M 180 309.0204 
L 492.605042 309.0204 
L 492.605042 304.6716 
L 180 304.6716 
z
" clip-path="url(#pbb11e6c896)" style="fill: #0000ff"/>
   </g>
   <g id="patch_5">
    <path d="M 180 303.5844 
L 492.605042 303.5844 
L 492.605042 299.2356 
L 180 299.2356 
z
" clip-path="url(#pbb11e6c896)" style="fill: #0000ff"/>
   </g>
   <g id="patch_6">
    <path d="M 180 298.1484 
L 492.605042 298.1484 
L 492.605042 293.7996 
L 180 293.7996 
z
" clip-path="url(#pbb11e6c896)" style="fill: #0000ff"/>
   </g>
   <g id="patch_7">
    <path d="M 180 292.7124 
L 492.605042 292.7124 
L 492.605042 288.3636 
L 180 288.3636 
z
" clip-path="url(#pbb11e6c896)" style="fill: #0000ff"/>
   </g>
   <g id="patch_8">
    <path d="M 180 287.2764 
L 492.605042 287.2764 
L 492.605042 282.9276 
L 180 282.9276 
z
" clip-path="url(#pbb11e6c896)" style="fill: #0000ff"/>
   </g>
   <g id="patch_9">
    <path d="M 180 281.8404 
L 492.605042 281.8404 
L 492.605042 277.4916 
L 180 277.4916 
z
" clip-path="url(#pbb11e6c896)" style="fill: #0000ff"/>
   </g>
   <g id="patch_10">
    <path d="M 180 276.4044 
L 492.605042 276.4044 
L 492.605042 272.0556 
L 180 272.0556 
z
" clip-path="url(#pbb11e6c896)" style="fill: #0000ff"/>
   </g>
   <g id="patch_11">
    <path d="M 180 270.9684 
L 492.605042 270.9684 
L 492.605042 266.6196 
L 180 266.6196 
z
" clip-path="url(#pbb11e6c896)" style="fill: #0000ff"/>
   </g>
   <g id="patch_12">
    <path d="M 180 265.5324 
L 492.605042 265.5324 
L 492.605042 261.1836 
L 180 261.1836 
z
" clip-path="url(#pbb11e6c896)" style="fill: #0000ff"/>
   </g>
   <g id="patch_13">
    <path d="M 180 260.0964 
L 492.605042 260.0964 
L 492.605042 255.7476 
L 180 255.7476 
z
" clip-path="url(#pbb11e6c896)" style="fill: #0000ff"/>
   </g>
   <g id="patch_14">
    <path d="M 180 254.6604 
L 492.605042 254.6604 
L 492.605042 250.3116 
L 180 250.3116 
z
" clip-path="url(#pbb11e6c896)" style="fill: #0000ff"/>
   </g>
   <g id="patch_15">
    <path d="M 180 249.2244 
L 492.605042 249.2244 
L 492.605042 244.8756 
L 180 244.8756 
z
" clip-path="url(#pbb11e6c896)" style="fill: #0000ff"/>
   </g>
   <g id="patch_16">
    <path d="M 180 243.7884 
L 492.605042 243.7884 
L 492.605042 239.4396 
L 180 239.4396 
z
" clip-path="url(#pbb11e6c896)" style="fill: #0000ff"/>
   </g>
   <g id="patch_17">
    <path d="M 180 238.3524 
L 492.605042 238.3524 
L 492.605042 234.0036 
L 180 234.0036 
z
" clip-path="url(#pbb11e6c896)" style="fill: #0000ff"/>
   </g>
   <g id="patch_18">
    <path d="M 180 232.9164 
L 492.605042 232.9164 
L 492.605042 228.5676 
L 180 228.5676 
z
" clip-path="url(#pbb11e6c896)" style="fill: #0000ff"/>
   </g>
   <g id="patch_19">
    <path d="M 180 227.4804 
L 492.605042 227.4804 
L 492.605042 223.1316 
L 180 223.1316 
z
" clip-path="url(#pbb11e6c896)" style="fill: #0000ff"/>
   </g>
   <g id="patch_20">
    <path d="M 180 222.0444 
L 492.605042 222.0444 
L 492.605042 217.6956 
L 180 217.6956 
z
" clip-path="url(#pbb11e6c896)" style="fill: #0000ff"/>
   </g>
   <g id="patch_21">
    <path d="M 180 216.6084 
L 492.605042 216.6084 
L 492.605042 212.2596 
L 180 212.2596 
z
" clip-path="url(#pbb11e6c896)" style="fill: #0000ff"/>
   </g>
   <g id="patch_22">
    <path d="M 180 211.1724 
L 492.605042 211.1724 
L 492.605042 206.8236 
L 180 206.8236 
z
" clip-path="url(#pbb11e6c896)" style="fill: #0000ff"/>
   </g>
   <g id="patch_23">
    <path d="M 180 205.7364 
L 492.605042 205.7364 
L 492.605042 201.3876 
L 180 201.3876 
z
" clip-path="url(#pbb11e6c896)" style="fill: #0000ff"/>
   </g>
   <g id="patch_24">
    <path d="M 180 200.3004 
L 492.605042 200.3004 
L 492.605042 195.9516 
L 180 195.9516 
z
" clip-path="url(#pbb11e6c896)" style="fill: #0000ff"/>
   </g>
   <g id="patch_25">
    <path d="M 180 194.8644 
L 492.605042 194.8644 
L 492.605042 190.5156 
L 180 190.5156 
z
" clip-path="url(#pbb11e6c896)" style="fill: #0000ff"/>
   </g>
   <g id="patch_26">
    <path d="M 180 189.4284 
L 492.605042 189.4284 
L 492.605042 185.0796 
L 180 185.0796 
z
" clip-path="url(#pbb11e6c896)" style="fill: #0000ff"/>
   </g>
   <g id="patch_27">
    <path d="M 180 183.9924 
L 492.605042 183.9924 
L 492.605042 179.6436 
L 180 179.6436 
z
" clip-path="url(#pbb11e6c896)" style="fill: #0000ff"/>
   </g>
   <g id="patch_28">
    <path d="M 180 178.5564 
L 492.605042 178.5564 
L 492.605042 174.2076 
L 180 174.2076 
z
" clip-path="url(#pbb11e6c896)" style="fill: #0000ff"/>
   </g>
   <g id="patch_29">
    <path d="M 180 173.1204 
L 492.605042 173.1204 
L 492.605042 168.7716 
L 180 168.7716 
z
" clip-path="url(#pbb11e6c896)" style="fill: #0000ff"/>
   </g>
   <g id="patch_30">
    <path d="M 180 167.6844 
L 492.605042 167.6844 
L 492.605042 163.3356 
L 180 163.3356 
z
" clip-path="url(#pbb11e6c896)" style="fill: #0000ff"/>
   </g>
   <g id="patch_31">
    <path d="M 180 162.2484 
L 492.605042 162.2484 
L 492.605042 157.8996 
L 180 157.8996 
z
" clip-path="url(#pbb11e6c896)" style="fill: #0000ff"/>
   </g>
   <g id="patch_32">
    <path d="M 180 156.8124 
L 492.605042 156.8124 
L 492.605042 152.4636 
L 180 152.4636 
z
" clip-path="url(#pbb11e6c896)" style="fill: #0000ff"/>
   </g>
   <g id="patch_33">
    <path d="M 180 151.3764 
L 492.605042 151.3764 
L 492.605042 147.0276 
L 180 147.0276 
z
" clip-path="url(#pbb11e6c896)" style="fill: #0000ff"/>
   </g>
   <g id="patch_34">
    <path d="M 180 145.9404 
L 492.605042 145.9404 
L 492.605042 141.5916 
L 180 141.5916 
z
" clip-path="url(#pbb11e6c896)" style="fill: #0000ff"/>
   </g>
   <g id="patch_35">
    <path d="M 180 140.5044 
L 492.605042 140.5044 
L 492.605042 136.1556 
L 180 136.1556 
z
" clip-path="url(#pbb11e6c896)" style="fill: #0000ff"/>
   </g>
   <g id="patch_36">
    <path d="M 180 135.0684 
L 492.605042 135.0684 
L 492.605042 130.7196 
L 180 130.7196 
z
" clip-path="url(#pbb11e6c896)" style="fill: #0000ff"/>
   </g>
   <g id="patch_37">
    <path d="M 180 129.6324 
L 492.605042 129.6324 
L 492.605042 125.2836 
L 180 125.2836 
z
" clip-path="url(#pbb11e6c896)" style="fill: #0000ff"/>
   </g>
   <g id="patch_38">
    <path d="M 180 124.1964 
L 492.605042 124.1964 
L 492.605042 119.8476 
L 180 119.8476 
z
" clip-path="url(#pbb11e6c896)" style="fill: #0000ff"/>
   </g>
   <g id="patch_39">
    <path d="M 180 118.7604 
L 492.605042 118.7604 
L 492.605042 114.4116 
L 180 114.4116 
z
" clip-path="url(#pbb11e6c896)" style="fill: #0000ff"/>
   </g>
   <g id="patch_40">
    <path d="M 180 113.3244 
L 492.605042 113.3244 
L 492.605042 108.9756 
L 180 108.9756 
z
" clip-path="url(#pbb11e6c896)" style="fill: #0000ff"/>
   </g>
   <g id="patch_41">
    <path d="M 180 107.8884 
L 492.605042 107.8884 
L 492.605042 103.5396 
L 180 103.5396 
z
" clip-path="url(#pbb11e6c896)" style="fill: #0000ff"/>
   </g>
   <g id="patch_42">
    <path d="M 180 102.4524 
L 492.605042 102.4524 
L 492.605042 98.1036 
L 180 98.1036 
z
" clip-path="url(#pbb11e6c896)" style="fill: #0000ff"/>
   </g>
   <g id="patch_43">
    <path d="M 180 97.0164 
L 492.605042 97.0164 
L 492.605042 92.6676 
L 180 92.6676 
z
" clip-path="url(#pbb11e6c896)" style="fill: #0000ff"/>
   </g>
   <g id="patch_44">
    <path d="M 180 91.5804 
L 492.605042 91.5804 
L 492.605042 87.2316 
L 180 87.2316 
z
" clip-path="url(#pbb11e6c896)" style="fill: #0000ff"/>
   </g>
   <g id="patch_45">
    <path d="M 180 86.1444 
L 492.605042 86.1444 
L 492.605042 81.7956 
L 180 81.7956 
z
" clip-path="url(#pbb11e6c896)" style="fill: #0000ff"/>
   </g>
   <g id="patch_46">
    <path d="M 180 80.7084 
L 492.605042 80.7084 
L 492.605042 76.3596 
L 180 76.3596 
z
" clip-path="url(#pbb11e6c896)" style="fill: #0000ff"/>
   </g>
   <g id="patch_47">
    <path d="M 180 75.2724 
L 492.605042 75.2724 
L 492.605042 70.9236 
L 180 70.9236 
z
" clip-path="url(#pbb11e6c896)" style="fill: #0000ff"/>
   </g>
   <g id="patch_48">
    <path d="M 180 69.8364 
L 492.605042 69.8364 
L 492.605042 65.4876 
L 180 65.4876 
z
" clip-path="url(#pbb11e6c896)" style="fill: #0000ff"/>
   </g>
   <g id="patch_49">
    <path d="M 180 64.4004 
L 492.605042 64.4004 
L 492.605042 60.0516 
L 180 60.0516 
z
" clip-path="url(#pbb11e6c896)" style="fill: #0000ff"/>
   </g>
   <g id="patch_50">
    <path d="M 180 58.9644 
L 492.605042 58.9644 
L 492.605042 54.6156 
L 180 54.6156 
z
" clip-path="url(#pbb11e6c896)" style="fill: #0000ff"/>
   </g>
   <g id="patch_51">
    <path d="M 180 53.5284 
L 492.605042 53.5284 
L 492.605042 49.1796 
L 180 49.1796 
z
" clip-path="url(#pbb11e6c896)" style="fill: #0000ff"/>
   </g>
   <g id="patch_52">
    <path d="M 180 48.0924 
L 492.605042 48.0924 
L 492.605042 43.7436 
L 180 43.7436 
z
" clip-path="url(#pbb11e6c896)" style="fill: #0000ff"/>
   </g>
   <g id="matplotlib.axis_1">
    <g id="xtick_1">
     <g id="line2d_1">
      <defs>
       <path id="m0b8e8f99ef" d="M 0 0 
L 0 3.5 
" style="stroke: #000000; stroke-width: 0.8"/>
      </defs>
      <g>
       <use xlink:href="#m0b8e8f99ef" x="180" y="315" style="stroke: #000000; stroke-width: 0.8"/>
      </g>
     </g>
     <g id="text_1">
      <!-- 0 -->
      <g transform="translate(176.81875 329.598437)scale(0.1 -0.1)">
       <defs>
        <path id="DejaVuSans-30" d="M 2034 4250 
Q 1547 4250 1301 3770 
Q 1056 3291 1056 2328 
Q 1056 1369 1301 889 
Q 1547 409 2034 409 
Q 2525 409 2770 889 
Q 3016 1369 3016 2328 
Q 3016 3291 2770 3770 
Q 2525 4250 2034 4250 
z
M 2034 4750 
Q 2819 4750 3233 4129 
Q 3647 3509 3647 2328 
Q 3647 1150 3233 529 
Q 2819 -91 2034 -91 
Q 1250 -91 836 529 
Q 422 1150 422 2328 
Q 422 3509 836 4129 
Q 1250 4750 2034 4750 
z
" transform="scale(0.015625)"/>
       </defs>
       <use xlink:href="#DejaVuSans-30"/>
      </g>
     </g>
    </g>
    <g id="xtick_2">
     <g id="line2d_2">
      <g>
       <use xlink:href="#m0b8e8f99ef" x="242.521008" y="315" style="stroke: #000000; stroke-width: 0.8"/>
      </g>
     </g>
     <g id="text_2">
      <!-- 1000 -->
      <g transform="translate(229.796008 329.598437)scale(0.1 -0.1)">
       <defs>
        <path id="DejaVuSans-31" d="M 794 531 
L 1825 531 
L 1825 4091 
L 703 3866 
L 703 4441 
L 1819 4666 
L 2450 4666 
L 2450 531 
L 3481 531 
L 3481 0 
L 794 0 
L 794 531 
z
" transform="scale(0.015625)"/>
       </defs>
       <use xlink:href="#DejaVuSans-31"/>
       <use xlink:href="#DejaVuSans-30" x="63.623047"/>
       <use xlink:href="#DejaVuSans-30" x="127.246094"/>
       <use xlink:href="#DejaVuSans-30" x="190.869141"/>
      </g>
     </g>
    </g>
    <g id="xtick_3">
     <g id="line2d_3">
      <g>
       <use xlink:href="#m0b8e8f99ef" x="305.042017" y="315" style="stroke: #000000; stroke-width: 0.8"/>
      </g>
     </g>
     <g id="text_3">
      <!-- 2000 -->
      <g transform="translate(292.317017 329.598437)scale(0.1 -0.1)">
       <defs>
        <path id="DejaVuSans-32" d="M 1228 531 
L 3431 531 
L 3431 0 
L 469 0 
L 469 531 
Q 828 903 1448 1529 
Q 2069 2156 2228 2338 
Q 2531 2678 2651 2914 
Q 2772 3150 2772 3378 
Q 2772 3750 2511 3984 
Q 2250 4219 1831 4219 
Q 1534 4219 1204 4116 
Q 875 4013 500 3803 
L 500 4441 
Q 881 4594 1212 4672 
Q 1544 4750 1819 4750 
Q 2544 4750 2975 4387 
Q 3406 4025 3406 3419 
Q 3406 3131 3298 2873 
Q 3191 2616 2906 2266 
Q 2828 2175 2409 1742 
Q 1991 1309 1228 531 
z
" transform="scale(0.015625)"/>
       </defs>
       <use xlink:href="#DejaVuSans-32"/>
       <use xlink:href="#DejaVuSans-30" x="63.623047"/>
       <use xlink:href="#DejaVuSans-30" x="127.246094"/>
       <use xlink:href="#DejaVuSans-30" x="190.869141"/>
      </g>
     </g>
    </g>
    <g id="xtick_4">
     <g id="line2d_4">
      <g>
       <use xlink:href="#m0b8e8f99ef" x="367.563025" y="315" style="stroke: #000000; stroke-width: 0.8"/>
      </g>
     </g>
     <g id="text_4">
      <!-- 3000 -->
      <g transform="translate(354.838025 329.598437)scale(0.1 -0.1)">
       <defs>
        <path id="DejaVuSans-33" d="M 2597 2516 
Q 3050 2419 3304 2112 
Q 3559 1806 3559 1356 
Q 3559 666 3084 287 
Q 2609 -91 1734 -91 
Q 1441 -91 1130 -33 
Q 819 25 488 141 
L 488 750 
Q 750 597 1062 519 
Q 1375 441 1716 441 
Q 2309 441 2620 675 
Q 2931 909 2931 1356 
Q 2931 1769 2642 2001 
Q 2353 2234 1838 2234 
L 1294 2234 
L 1294 2753 
L 1863 2753 
Q 2328 2753 2575 2939 
Q 2822 3125 2822 3475 
Q 2822 3834 2567 4026 
Q 2313 4219 1838 4219 
Q 1578 4219 1281 4162 
Q 984 4106 628 3988 
L 628 4550 
Q 988 4650 1302 4700 
Q 1616 4750 1894 4750 
Q 2613 4750 3031 4423 
Q 3450 4097 3450 3541 
Q 3450 3153 3228 2886 
Q 3006 2619 2597 2516 
z
" transform="scale(0.015625)"/>
       </defs>
       <use xlink:href="#DejaVuSans-33"/>
       <use xlink:href="#DejaVuSans-30" x="63.623047"/>
       <use xlink:href="#DejaVuSans-30" x="127.246094"/>
       <use xlink:href="#DejaVuSans-30" x="190.869141"/>
      </g>
     </g>
    </g>
    <g id="xtick_5">
     <g id="line2d_5">
      <g>
       <use xlink:href="#m0b8e8f99ef" x="430.084034" y="315" style="stroke: #000000; stroke-width: 0.8"/>
      </g>
     </g>
     <g id="text_5">
      <!-- 4000 -->
      <g transform="translate(417.359034 329.598437)scale(0.1 -0.1)">
       <defs>
        <path id="DejaVuSans-34" d="M 2419 4116 
L 825 1625 
L 2419 1625 
L 2419 4116 
z
M 2253 4666 
L 3047 4666 
L 3047 1625 
L 3713 1625 
L 3713 1100 
L 3047 1100 
L 3047 0 
L 2419 0 
L 2419 1100 
L 313 1100 
L 313 1709 
L 2253 4666 
z
" transform="scale(0.015625)"/>
       </defs>
       <use xlink:href="#DejaVuSans-34"/>
       <use xlink:href="#DejaVuSans-30" x="63.623047"/>
       <use xlink:href="#DejaVuSans-30" x="127.246094"/>
       <use xlink:href="#DejaVuSans-30" x="190.869141"/>
      </g>
     </g>
    </g>
    <g id="xtick_6">
     <g id="line2d_6">
      <g>
       <use xlink:href="#m0b8e8f99ef" x="492.605042" y="315" style="stroke: #000000; stroke-width: 0.8"/>
      </g>
     </g>
     <g id="text_6">
      <!-- 5000 -->
      <g transform="translate(479.880042 329.598437)scale(0.1 -0.1)">
       <defs>
        <path id="DejaVuSans-35" d="M 691 4666 
L 3169 4666 
L 3169 4134 
L 1269 4134 
L 1269 2991 
Q 1406 3038 1543 3061 
Q 1681 3084 1819 3084 
Q 2600 3084 3056 2656 
Q 3513 2228 3513 1497 
Q 3513 744 3044 326 
Q 2575 -91 1722 -91 
Q 1428 -91 1123 -41 
Q 819 9 494 109 
L 494 744 
Q 775 591 1075 516 
Q 1375 441 1709 441 
Q 2250 441 2565 725 
Q 2881 1009 2881 1497 
Q 2881 1984 2565 2268 
Q 2250 2553 1709 2553 
Q 1456 2553 1204 2497 
Q 953 2441 691 2322 
L 691 4666 
z
" transform="scale(0.015625)"/>
       </defs>
       <use xlink:href="#DejaVuSans-35"/>
       <use xlink:href="#DejaVuSans-30" x="63.623047"/>
       <use xlink:href="#DejaVuSans-30" x="127.246094"/>
       <use xlink:href="#DejaVuSans-30" x="190.869141"/>
      </g>
     </g>
    </g>
   </g>
   <g id="matplotlib.axis_2">
    <g id="ytick_1">
     <g id="line2d_7">
      <defs>
       <path id="mb235cd24e3" d="M 0 0 
L -3.5 0 
" style="stroke: #000000; stroke-width: 0.8"/>
      </defs>
      <g>
       <use xlink:href="#mb235cd24e3" x="180" y="263.358" style="stroke: #000000; stroke-width: 0.8"/>
      </g>
     </g>
     <g id="text_7">
      <!-- 10 -->
      <g transform="translate(160.275 267.157219)scale(0.1 -0.1)">
       <use xlink:href="#DejaVuSans-31"/>
       <use xlink:href="#DejaVuSans-30" x="63.623047"/>
      </g>
     </g>
    </g>
    <g id="ytick_2">
     <g id="line2d_8">
      <g>
       <use xlink:href="#mb235cd24e3" x="180" y="208.998" style="stroke: #000000; stroke-width: 0.8"/>
      </g>
     </g>
     <g id="text_8">
      <!-- 20 -->
      <g transform="translate(160.275 212.797219)scale(0.1 -0.1)">
       <use xlink:href="#DejaVuSans-32"/>
       <use xlink:href="#DejaVuSans-30" x="63.623047"/>
      </g>
     </g>
    </g>
    <g id="ytick_3">
     <g id="line2d_9">
      <g>
       <use xlink:href="#mb235cd24e3" x="180" y="154.638" style="stroke: #000000; stroke-width: 0.8"/>
      </g>
     </g>
     <g id="text_9">
      <!-- 30 -->
      <g transform="translate(160.275 158.437219)scale(0.1 -0.1)">
       <use xlink:href="#DejaVuSans-33"/>
       <use xlink:href="#DejaVuSans-30" x="63.623047"/>
      </g>
     </g>
    </g>
    <g id="ytick_4">
     <g id="line2d_10">
      <g>
       <use xlink:href="#mb235cd24e3" x="180" y="100.278" style="stroke: #000000; stroke-width: 0.8"/>
      </g>
     </g>
     <g id="text_10">
      <!-- 40 -->
      <g transform="translate(160.275 104.077219)scale(0.1 -0.1)">
       <use xlink:href="#DejaVuSans-34"/>
       <use xlink:href="#DejaVuSans-30" x="63.623047"/>
      </g>
     </g>
    </g>
    <g id="ytick_5">
     <g id="line2d_11">
      <g>
       <use xlink:href="#mb235cd24e3" x="180" y="45.918" style="stroke: #000000; stroke-width: 0.8"/>
      </g>
     </g>
     <g id="text_11">
      <!-- 50 -->
      <g transform="translate(160.275 49.717219)scale(0.1 -0.1)">
       <use xlink:href="#DejaVuSans-35"/>
       <use xlink:href="#DejaVuSans-30" x="63.623047"/>
      </g>
     </g>
    </g>
   </g>
   <g id="patch_53">
    <path d="M 180 315 
L 180 43.2 
" style="fill: none; stroke: #000000; stroke-width: 0.8; stroke-linejoin: miter; stroke-linecap: square"/>
   </g>
   <g id="patch_54">
    <path d="M 508.235294 315 
L 508.235294 43.2 
" style="fill: none; stroke: #000000; stroke-width: 0.8; stroke-linejoin: miter; stroke-linecap: square"/>
   </g>
   <g id="patch_55">
    <path d="M 180 315 
L 508.235294 315 
" style="fill: none; stroke: #000000; stroke-width: 0.8; stroke-linejoin: miter; stroke-linecap: square"/>
   </g>
   <g id="patch_56">
    <path d="M 180 43.2 
L 508.235294 43.2 
" style="fill: none; stroke: #000000; stroke-width: 0.8; stroke-linejoin: miter; stroke-linecap: square"/>
   </g>
  </g>
  <g id="axes_2">
   <g id="patch_57">
    <path d="M 573.882353 315 
L 902.117647 315 
L 902.117647 43.2 
L 573.882353 43.2 
z
" style="fill: #ffffff"/>
   </g>
   <g id="patch_58">
    <path d="M 573.882353 314.4564 
L 799.434622 314.4564 
L 799.434622 310.1076 
L 573.882353 310.1076 
z
" clip-path="url(#pd9314fca05)" style="fill: #008000"/>
   </g>
   <g id="patch_59">
    <path d="M 573.882353 309.0204 
L 743.590339 309.0204 
L 743.590339 304.6716 
L 573.882353 304.6716 
z
" clip-path="url(#pd9314fca05)" style="fill: #008000"/>
   </g>
   <g id="patch_60">
    <path d="M 573.882353 303.5844 
L 802.413614 303.5844 
L 802.413614 299.2356 
L 573.882353 299.2356 
z
" clip-path="url(#pd9314fca05)" style="fill: #008000"/>
   </g>
   <g id="patch_61">
    <path d="M 573.882353 298.1484 
L 773.427547 298.1484 
L 773.427547 293.7996 
L 573.882353 293.7996 
z
" clip-path="url(#pd9314fca05)" style="fill: #008000"/>
   </g>
   <g id="patch_62">
    <path d="M 573.882353 292.7124 
L 748.83904 292.7124 
L 748.83904 288.3636 
L 573.882353 288.3636 
z
" clip-path="url(#pd9314fca05)" style="fill: #008000"/>
   </g>
   <g id="patch_63">
    <path d="M 573.882353 287.2764 
L 790.734073 287.2764 
L 790.734073 282.9276 
L 573.882353 282.9276 
z
" clip-path="url(#pd9314fca05)" style="fill: #008000"/>
   </g>
   <g id="patch_64">
    <path d="M 573.882353 281.8404 
L 756.262877 281.8404 
L 756.262877 277.4916 
L 573.882353 277.4916 
z
" clip-path="url(#pd9314fca05)" style="fill: #008000"/>
   </g>
   <g id="patch_65">
    <path d="M 573.882353 276.4044 
L 843.504793 276.4044 
L 843.504793 272.0556 
L 573.882353 272.0556 
z
" clip-path="url(#pd9314fca05)" style="fill: #008000"/>
   </g>
   <g id="patch_66">
    <path d="M 573.882353 270.9684 
L 777.352251 270.9684 
L 777.352251 266.6196 
L 573.882353 266.6196 
z
" clip-path="url(#pd9314fca05)" style="fill: #008000"/>
   </g>
   <g id="patch_67">
    <path d="M 573.882353 265.5324 
L 792.48364 265.5324 
L 792.48364 261.1836 
L 573.882353 261.1836 
z
" clip-path="url(#pd9314fca05)" style="fill: #008000"/>
   </g>
   <g id="patch_68">
    <path d="M 573.882353 260.0964 
L 771.725266 260.0964 
L 771.725266 255.7476 
L 573.882353 255.7476 
z
" clip-path="url(#pd9314fca05)" style="fill: #008000"/>
   </g>
   <g id="patch_69">
    <path d="M 573.882353 254.6604 
L 832.723678 254.6604 
L 832.723678 250.3116 
L 573.882353 250.3116 
z
" clip-path="url(#pd9314fca05)" style="fill: #008000"/>
   </g>
   <g id="patch_70">
    <path d="M 573.882353 249.2244 
L 824.779699 249.2244 
L 824.779699 244.8756 
L 573.882353 244.8756 
z
" clip-path="url(#pd9314fca05)" style="fill: #008000"/>
   </g>
   <g id="patch_71">
    <path d="M 573.882353 243.7884 
L 821.564279 243.7884 
L 821.564279 239.4396 
L 573.882353 239.4396 
z
" clip-path="url(#pd9314fca05)" style="fill: #008000"/>
   </g>
   <g id="patch_72">
    <path d="M 573.882353 238.3524 
L 885.494398 238.3524 
L 885.494398 234.0036 
L 573.882353 234.0036 
z
" clip-path="url(#pd9314fca05)" style="fill: #008000"/>
   </g>
   <g id="patch_73">
    <path d="M 573.882353 232.9164 
L 748.791754 232.9164 
L 748.791754 228.5676 
L 573.882353 228.5676 
z
" clip-path="url(#pd9314fca05)" style="fill: #008000"/>
   </g>
   <g id="patch_74">
    <path d="M 573.882353 227.4804 
L 833.432962 227.4804 
L 833.432962 223.1316 
L 573.882353 223.1316 
z
" clip-path="url(#pd9314fca05)" style="fill: #008000"/>
   </g>
   <g id="patch_75">
    <path d="M 573.882353 222.0444 
L 750.115751 222.0444 
L 750.115751 217.6956 
L 573.882353 217.6956 
z
" clip-path="url(#pd9314fca05)" style="fill: #008000"/>
   </g>
   <g id="patch_76">
    <path d="M 573.882353 216.6084 
L 818.869 216.6084 
L 818.869 212.2596 
L 573.882353 212.2596 
z
" clip-path="url(#pd9314fca05)" style="fill: #008000"/>
   </g>
   <g id="patch_77">
    <path d="M 573.882353 211.1724 
L 868.897155 211.1724 
L 868.897155 206.8236 
L 573.882353 206.8236 
z
" clip-path="url(#pd9314fca05)" style="fill: #008000"/>
   </g>
   <g id="patch_78">
    <path d="M 573.882353 205.7364 
L 814.376869 205.7364 
L 814.376869 201.3876 
L 573.882353 201.3876 
z
" clip-path="url(#pd9314fca05)" style="fill: #008000"/>
   </g>
   <g id="patch_79">
    <path d="M 573.882353 200.3004 
L 756.87759 200.3004 
L 756.87759 195.9516 
L 573.882353 195.9516 
z
" clip-path="url(#pd9314fca05)" style="fill: #008000"/>
   </g>
   <g id="patch_80">
    <path d="M 573.882353 194.8644 
L 788.889935 194.8644 
L 788.889935 190.5156 
L 573.882353 190.5156 
z
" clip-path="url(#pd9314fca05)" style="fill: #008000"/>
   </g>
   <g id="patch_81">
    <path d="M 573.882353 189.4284 
L 816.788434 189.4284 
L 816.788434 185.0796 
L 573.882353 185.0796 
z
" clip-path="url(#pd9314fca05)" style="fill: #008000"/>
   </g>
   <g id="patch_82">
    <path d="M 573.882353 183.9924 
L 755.979164 183.9924 
L 755.979164 179.6436 
L 573.882353 179.6436 
z
" clip-path="url(#pd9314fca05)" style="fill: #008000"/>
   </g>
   <g id="patch_83">
    <path d="M 573.882353 178.5564 
L 886.10911 178.5564 
L 886.10911 174.2076 
L 573.882353 174.2076 
z
" clip-path="url(#pd9314fca05)" style="fill: #008000"/>
   </g>
   <g id="patch_84">
    <path d="M 573.882353 173.1204 
L 807.331316 173.1204 
L 807.331316 168.7716 
L 573.882353 168.7716 
z
" clip-path="url(#pd9314fca05)" style="fill: #008000"/>
   </g>
   <g id="patch_85">
    <path d="M 573.882353 167.6844 
L 881.049552 167.6844 
L 881.049552 163.3356 
L 573.882353 163.3356 
z
" clip-path="url(#pd9314fca05)" style="fill: #008000"/>
   </g>
   <g id="patch_86">
    <path d="M 573.882353 162.2484 
L 746.096475 162.2484 
L 746.096475 157.8996 
L 573.882353 157.8996 
z
" clip-path="url(#pd9314fca05)" style="fill: #008000"/>
   </g>
   <g id="patch_87">
    <path d="M 573.882353 156.8124 
L 877.644989 156.8124 
L 877.644989 152.4636 
L 573.882353 152.4636 
z
" clip-path="url(#pd9314fca05)" style="fill: #008000"/>
   </g>
   <g id="patch_88">
    <path d="M 573.882353 151.3764 
L 746.663902 151.3764 
L 746.663902 147.0276 
L 573.882353 147.0276 
z
" clip-path="url(#pd9314fca05)" style="fill: #008000"/>
   </g>
   <g id="patch_89">
    <path d="M 573.882353 145.9404 
L 817.214004 145.9404 
L 817.214004 141.5916 
L 573.882353 141.5916 
z
" clip-path="url(#pd9314fca05)" style="fill: #008000"/>
   </g>
   <g id="patch_90">
    <path d="M 573.882353 140.5044 
L 828.940831 140.5044 
L 828.940831 136.1556 
L 573.882353 136.1556 
z
" clip-path="url(#pd9314fca05)" style="fill: #008000"/>
   </g>
   <g id="patch_91">
    <path d="M 573.882353 135.0684 
L 834.425959 135.0684 
L 834.425959 130.7196 
L 573.882353 130.7196 
z
" clip-path="url(#pd9314fca05)" style="fill: #008000"/>
   </g>
   <g id="patch_92">
    <path d="M 573.882353 129.6324 
L 842.984651 129.6324 
L 842.984651 125.2836 
L 573.882353 125.2836 
z
" clip-path="url(#pd9314fca05)" style="fill: #008000"/>
   </g>
   <g id="patch_93">
    <path d="M 573.882353 124.1964 
L 880.907695 124.1964 
L 880.907695 119.8476 
L 573.882353 119.8476 
z
" clip-path="url(#pd9314fca05)" style="fill: #008000"/>
   </g>
   <g id="patch_94">
    <path d="M 573.882353 118.7604 
L 799.434622 118.7604 
L 799.434622 114.4116 
L 573.882353 114.4116 
z
" clip-path="url(#pd9314fca05)" style="fill: #008000"/>
   </g>
   <g id="patch_95">
    <path d="M 573.882353 113.3244 
L 784.965231 113.3244 
L 784.965231 108.9756 
L 573.882353 108.9756 
z
" clip-path="url(#pd9314fca05)" style="fill: #008000"/>
   </g>
   <g id="patch_96">
    <path d="M 573.882353 107.8884 
L 884.690543 107.8884 
L 884.690543 103.5396 
L 573.882353 103.5396 
z
" clip-path="url(#pd9314fca05)" style="fill: #008000"/>
   </g>
   <g id="patch_97">
    <path d="M 573.882353 102.4524 
L 862.277172 102.4524 
L 862.277172 98.1036 
L 573.882353 98.1036 
z
" clip-path="url(#pd9314fca05)" style="fill: #008000"/>
   </g>
   <g id="patch_98">
    <path d="M 573.882353 97.0164 
L 823.644845 97.0164 
L 823.644845 92.6676 
L 573.882353 92.6676 
z
" clip-path="url(#pd9314fca05)" style="fill: #008000"/>
   </g>
   <g id="patch_99">
    <path d="M 573.882353 91.5804 
L 807.378601 91.5804 
L 807.378601 87.2316 
L 573.882353 87.2316 
z
" clip-path="url(#pd9314fca05)" style="fill: #008000"/>
   </g>
   <g id="patch_100">
    <path d="M 573.882353 86.1444 
L 813.052872 86.1444 
L 813.052872 81.7956 
L 573.882353 81.7956 
z
" clip-path="url(#pd9314fca05)" style="fill: #008000"/>
   </g>
   <g id="patch_101">
    <path d="M 573.882353 80.7084 
L 741.462487 80.7084 
L 741.462487 76.3596 
L 573.882353 76.3596 
z
" clip-path="url(#pd9314fca05)" style="fill: #008000"/>
   </g>
   <g id="patch_102">
    <path d="M 573.882353 75.2724 
L 762.88286 75.2724 
L 762.88286 70.9236 
L 573.882353 70.9236 
z
" clip-path="url(#pd9314fca05)" style="fill: #008000"/>
   </g>
   <g id="patch_103">
    <path d="M 573.882353 69.8364 
L 876.226422 69.8364 
L 876.226422 65.4876 
L 573.882353 65.4876 
z
" clip-path="url(#pd9314fca05)" style="fill: #008000"/>
   </g>
   <g id="patch_104">
    <path d="M 573.882353 64.4004 
L 800.900475 64.4004 
L 800.900475 60.0516 
L 573.882353 60.0516 
z
" clip-path="url(#pd9314fca05)" style="fill: #008000"/>
   </g>
   <g id="patch_105">
    <path d="M 573.882353 58.9644 
L 886.487395 58.9644 
L 886.487395 54.6156 
L 573.882353 54.6156 
z
" clip-path="url(#pd9314fca05)" style="fill: #008000"/>
   </g>
   <g id="patch_106">
    <path d="M 573.882353 53.5284 
L 831.683395 53.5284 
L 831.683395 49.1796 
L 573.882353 49.1796 
z
" clip-path="url(#pd9314fca05)" style="fill: #008000"/>
   </g>
   <g id="patch_107">
    <path d="M 573.882353 48.0924 
L 773.71126 48.0924 
L 773.71126 43.7436 
L 573.882353 43.7436 
z
" clip-path="url(#pd9314fca05)" style="fill: #008000"/>
   </g>
   <g id="matplotlib.axis_3">
    <g id="xtick_7">
     <g id="line2d_12">
      <g>
       <use xlink:href="#m0b8e8f99ef" x="573.882353" y="315" style="stroke: #000000; stroke-width: 0.8"/>
      </g>
     </g>
     <g id="text_12">
      <!-- 0 -->
      <g transform="translate(570.701103 329.598437)scale(0.1 -0.1)">
       <use xlink:href="#DejaVuSans-30"/>
      </g>
     </g>
    </g>
    <g id="xtick_8">
     <g id="line2d_13">
      <g>
       <use xlink:href="#m0b8e8f99ef" x="621.167944" y="315" style="stroke: #000000; stroke-width: 0.8"/>
      </g>
     </g>
     <g id="text_13">
      <!-- 1000 -->
      <g transform="translate(608.442944 329.598437)scale(0.1 -0.1)">
       <use xlink:href="#DejaVuSans-31"/>
       <use xlink:href="#DejaVuSans-30" x="63.623047"/>
       <use xlink:href="#DejaVuSans-30" x="127.246094"/>
       <use xlink:href="#DejaVuSans-30" x="190.869141"/>
      </g>
     </g>
    </g>
    <g id="xtick_9">
     <g id="line2d_14">
      <g>
       <use xlink:href="#m0b8e8f99ef" x="668.453535" y="315" style="stroke: #000000; stroke-width: 0.8"/>
      </g>
     </g>
     <g id="text_14">
      <!-- 2000 -->
      <g transform="translate(655.728535 329.598437)scale(0.1 -0.1)">
       <use xlink:href="#DejaVuSans-32"/>
       <use xlink:href="#DejaVuSans-30" x="63.623047"/>
       <use xlink:href="#DejaVuSans-30" x="127.246094"/>
       <use xlink:href="#DejaVuSans-30" x="190.869141"/>
      </g>
     </g>
    </g>
    <g id="xtick_10">
     <g id="line2d_15">
      <g>
       <use xlink:href="#m0b8e8f99ef" x="715.739126" y="315" style="stroke: #000000; stroke-width: 0.8"/>
      </g>
     </g>
     <g id="text_15">
      <!-- 3000 -->
      <g transform="translate(703.014126 329.598437)scale(0.1 -0.1)">
       <use xlink:href="#DejaVuSans-33"/>
       <use xlink:href="#DejaVuSans-30" x="63.623047"/>
       <use xlink:href="#DejaVuSans-30" x="127.246094"/>
       <use xlink:href="#DejaVuSans-30" x="190.869141"/>
      </g>
     </g>
    </g>
    <g id="xtick_11">
     <g id="line2d_16">
      <g>
       <use xlink:href="#m0b8e8f99ef" x="763.024717" y="315" style="stroke: #000000; stroke-width: 0.8"/>
      </g>
     </g>
     <g id="text_16">
      <!-- 4000 -->
      <g transform="translate(750.299717 329.598437)scale(0.1 -0.1)">
       <use xlink:href="#DejaVuSans-34"/>
       <use xlink:href="#DejaVuSans-30" x="63.623047"/>
       <use xlink:href="#DejaVuSans-30" x="127.246094"/>
       <use xlink:href="#DejaVuSans-30" x="190.869141"/>
      </g>
     </g>
    </g>
    <g id="xtick_12">
     <g id="line2d_17">
      <g>
       <use xlink:href="#m0b8e8f99ef" x="810.310308" y="315" style="stroke: #000000; stroke-width: 0.8"/>
      </g>
     </g>
     <g id="text_17">
      <!-- 5000 -->
      <g transform="translate(797.585308 329.598437)scale(0.1 -0.1)">
       <use xlink:href="#DejaVuSans-35"/>
       <use xlink:href="#DejaVuSans-30" x="63.623047"/>
       <use xlink:href="#DejaVuSans-30" x="127.246094"/>
       <use xlink:href="#DejaVuSans-30" x="190.869141"/>
      </g>
     </g>
    </g>
    <g id="xtick_13">
     <g id="line2d_18">
      <g>
       <use xlink:href="#m0b8e8f99ef" x="857.595899" y="315" style="stroke: #000000; stroke-width: 0.8"/>
      </g>
     </g>
     <g id="text_18">
      <!-- 6000 -->
      <g transform="translate(844.870899 329.598437)scale(0.1 -0.1)">
       <defs>
        <path id="DejaVuSans-36" d="M 2113 2584 
Q 1688 2584 1439 2293 
Q 1191 2003 1191 1497 
Q 1191 994 1439 701 
Q 1688 409 2113 409 
Q 2538 409 2786 701 
Q 3034 994 3034 1497 
Q 3034 2003 2786 2293 
Q 2538 2584 2113 2584 
z
M 3366 4563 
L 3366 3988 
Q 3128 4100 2886 4159 
Q 2644 4219 2406 4219 
Q 1781 4219 1451 3797 
Q 1122 3375 1075 2522 
Q 1259 2794 1537 2939 
Q 1816 3084 2150 3084 
Q 2853 3084 3261 2657 
Q 3669 2231 3669 1497 
Q 3669 778 3244 343 
Q 2819 -91 2113 -91 
Q 1303 -91 875 529 
Q 447 1150 447 2328 
Q 447 3434 972 4092 
Q 1497 4750 2381 4750 
Q 2619 4750 2861 4703 
Q 3103 4656 3366 4563 
z
" transform="scale(0.015625)"/>
       </defs>
       <use xlink:href="#DejaVuSans-36"/>
       <use xlink:href="#DejaVuSans-30" x="63.623047"/>
       <use xlink:href="#DejaVuSans-30" x="127.246094"/>
       <use xlink:href="#DejaVuSans-30" x="190.869141"/>
      </g>
     </g>
    </g>
   </g>
   <g id="matplotlib.axis_4">
    <g id="ytick_6">
     <g id="line2d_19">
      <g>
       <use xlink:href="#mb235cd24e3" x="573.882353" y="263.358" style="stroke: #000000; stroke-width: 0.8"/>
      </g>
     </g>
     <g id="text_19">
      <!-- 10 -->
      <g transform="translate(554.157353 267.157219)scale(0.1 -0.1)">
       <use xlink:href="#DejaVuSans-31"/>
       <use xlink:href="#DejaVuSans-30" x="63.623047"/>
      </g>
     </g>
    </g>
    <g id="ytick_7">
     <g id="line2d_20">
      <g>
       <use xlink:href="#mb235cd24e3" x="573.882353" y="208.998" style="stroke: #000000; stroke-width: 0.8"/>
      </g>
     </g>
     <g id="text_20">
      <!-- 20 -->
      <g transform="translate(554.157353 212.797219)scale(0.1 -0.1)">
       <use xlink:href="#DejaVuSans-32"/>
       <use xlink:href="#DejaVuSans-30" x="63.623047"/>
      </g>
     </g>
    </g>
    <g id="ytick_8">
     <g id="line2d_21">
      <g>
       <use xlink:href="#mb235cd24e3" x="573.882353" y="154.638" style="stroke: #000000; stroke-width: 0.8"/>
      </g>
     </g>
     <g id="text_21">
      <!-- 30 -->
      <g transform="translate(554.157353 158.437219)scale(0.1 -0.1)">
       <use xlink:href="#DejaVuSans-33"/>
       <use xlink:href="#DejaVuSans-30" x="63.623047"/>
      </g>
     </g>
    </g>
    <g id="ytick_9">
     <g id="line2d_22">
      <g>
       <use xlink:href="#mb235cd24e3" x="573.882353" y="100.278" style="stroke: #000000; stroke-width: 0.8"/>
      </g>
     </g>
     <g id="text_22">
      <!-- 40 -->
      <g transform="translate(554.157353 104.077219)scale(0.1 -0.1)">
       <use xlink:href="#DejaVuSans-34"/>
       <use xlink:href="#DejaVuSans-30" x="63.623047"/>
      </g>
     </g>
    </g>
    <g id="ytick_10">
     <g id="line2d_23">
      <g>
       <use xlink:href="#mb235cd24e3" x="573.882353" y="45.918" style="stroke: #000000; stroke-width: 0.8"/>
      </g>
     </g>
     <g id="text_23">
      <!-- 50 -->
      <g transform="translate(554.157353 49.717219)scale(0.1 -0.1)">
       <use xlink:href="#DejaVuSans-35"/>
       <use xlink:href="#DejaVuSans-30" x="63.623047"/>
      </g>
     </g>
    </g>
   </g>
   <g id="patch_108">
    <path d="M 573.882353 315 
L 573.882353 43.2 
" style="fill: none; stroke: #000000; stroke-width: 0.8; stroke-linejoin: miter; stroke-linecap: square"/>
   </g>
   <g id="patch_109">
    <path d="M 902.117647 315 
L 902.117647 43.2 
" style="fill: none; stroke: #000000; stroke-width: 0.8; stroke-linejoin: miter; stroke-linecap: square"/>
   </g>
   <g id="patch_110">
    <path d="M 573.882353 315 
L 902.117647 315 
" style="fill: none; stroke: #000000; stroke-width: 0.8; stroke-linejoin: miter; stroke-linecap: square"/>
   </g>
   <g id="patch_111">
    <path d="M 573.882353 43.2 
L 902.117647 43.2 
" style="fill: none; stroke: #000000; stroke-width: 0.8; stroke-linejoin: miter; stroke-linecap: square"/>
   </g>
  </g>
  <g id="axes_3">
   <g id="patch_112">
    <path d="M 967.764706 315 
L 1296 315 
L 1296 43.2 
L 967.764706 43.2 
z
" style="fill: #ffffff"/>
   </g>
   <g id="patch_113">
    <path d="M 967.764706 314.4564 
L 1115.477006 314.4564 
L 1115.477006 310.1076 
L 967.764706 310.1076 
z
" clip-path="url(#p234b01351b)" style="fill: #800080"/>
   </g>
   <g id="patch_114">
    <path d="M 967.764706 309.0204 
L 1119.110571 309.0204 
L 1119.110571 304.6716 
L 967.764706 304.6716 
z
" clip-path="url(#p234b01351b)" style="fill: #800080"/>
   </g>
   <g id="patch_115">
    <path d="M 967.764706 303.5844 
L 1116.10893 303.5844 
L 1116.10893 299.2356 
L 967.764706 299.2356 
z
" clip-path="url(#p234b01351b)" style="fill: #800080"/>
   </g>
   <g id="patch_116">
    <path d="M 967.764706 298.1484 
L 1119.229057 298.1484 
L 1119.229057 293.7996 
L 967.764706 293.7996 
z
" clip-path="url(#p234b01351b)" style="fill: #800080"/>
   </g>
   <g id="patch_117">
    <path d="M 967.764706 292.7124 
L 1124.837385 292.7124 
L 1124.837385 288.3636 
L 967.764706 288.3636 
z
" clip-path="url(#p234b01351b)" style="fill: #800080"/>
   </g>
   <g id="patch_118">
    <path d="M 967.764706 287.2764 
L 1119.979467 287.2764 
L 1119.979467 282.9276 
L 967.764706 282.9276 
z
" clip-path="url(#p234b01351b)" style="fill: #800080"/>
   </g>
   <g id="patch_119">
    <path d="M 967.764706 281.8404 
L 1124.481927 281.8404 
L 1124.481927 277.4916 
L 967.764706 277.4916 
z
" clip-path="url(#p234b01351b)" style="fill: #800080"/>
   </g>
   <g id="patch_120">
    <path d="M 967.764706 276.4044 
L 1137.47587 276.4044 
L 1137.47587 272.0556 
L 967.764706 272.0556 
z
" clip-path="url(#p234b01351b)" style="fill: #800080"/>
   </g>
   <g id="patch_121">
    <path d="M 967.764706 270.9684 
L 1121.164325 270.9684 
L 1121.164325 266.6196 
L 967.764706 266.6196 
z
" clip-path="url(#p234b01351b)" style="fill: #800080"/>
   </g>
   <g id="patch_122">
    <path d="M 967.764706 265.5324 
L 1125.666785 265.5324 
L 1125.666785 261.1836 
L 967.764706 261.1836 
z
" clip-path="url(#p234b01351b)" style="fill: #800080"/>
   </g>
   <g id="patch_123">
    <path d="M 967.764706 260.0964 
L 1127.79953 260.0964 
L 1127.79953 255.7476 
L 967.764706 255.7476 
z
" clip-path="url(#p234b01351b)" style="fill: #800080"/>
   </g>
   <g id="patch_124">
    <path d="M 967.764706 254.6604 
L 1120.097953 254.6604 
L 1120.097953 250.3116 
L 967.764706 250.3116 
z
" clip-path="url(#p234b01351b)" style="fill: #800080"/>
   </g>
   <g id="patch_125">
    <path d="M 967.764706 249.2244 
L 1138.8977 249.2244 
L 1138.8977 244.8756 
L 967.764706 244.8756 
z
" clip-path="url(#p234b01351b)" style="fill: #800080"/>
   </g>
   <g id="patch_126">
    <path d="M 967.764706 243.7884 
L 1125.587795 243.7884 
L 1125.587795 239.4396 
L 967.764706 239.4396 
z
" clip-path="url(#p234b01351b)" style="fill: #800080"/>
   </g>
   <g id="patch_127">
    <path d="M 967.764706 238.3524 
L 1130.169246 238.3524 
L 1130.169246 234.0036 
L 967.764706 234.0036 
z
" clip-path="url(#p234b01351b)" style="fill: #800080"/>
   </g>
   <g id="patch_128">
    <path d="M 967.764706 232.9164 
L 1159.000791 232.9164 
L 1159.000791 228.5676 
L 967.764706 228.5676 
z
" clip-path="url(#p234b01351b)" style="fill: #800080"/>
   </g>
   <g id="patch_129">
    <path d="M 967.764706 227.4804 
L 1142.64975 227.4804 
L 1142.64975 223.1316 
L 967.764706 223.1316 
z
" clip-path="url(#p234b01351b)" style="fill: #800080"/>
   </g>
   <g id="patch_130">
    <path d="M 967.764706 222.0444 
L 1131.591075 222.0444 
L 1131.591075 217.6956 
L 967.764706 217.6956 
z
" clip-path="url(#p234b01351b)" style="fill: #800080"/>
   </g>
   <g id="patch_131">
    <path d="M 967.764706 216.6084 
L 1125.982747 216.6084 
L 1125.982747 212.2596 
L 967.764706 212.2596 
z
" clip-path="url(#p234b01351b)" style="fill: #800080"/>
   </g>
   <g id="patch_132">
    <path d="M 967.764706 211.1724 
L 1129.418836 211.1724 
L 1129.418836 206.8236 
L 967.764706 206.8236 
z
" clip-path="url(#p234b01351b)" style="fill: #800080"/>
   </g>
   <g id="patch_133">
    <path d="M 967.764706 205.7364 
L 1147.626154 205.7364 
L 1147.626154 201.3876 
L 967.764706 201.3876 
z
" clip-path="url(#p234b01351b)" style="fill: #800080"/>
   </g>
   <g id="patch_134">
    <path d="M 967.764706 200.3004 
L 1198.022115 200.3004 
L 1198.022115 195.9516 
L 967.764706 195.9516 
z
" clip-path="url(#p234b01351b)" style="fill: #800080"/>
   </g>
   <g id="patch_135">
    <path d="M 967.764706 194.8644 
L 1243.836625 194.8644 
L 1243.836625 190.5156 
L 967.764706 190.5156 
z
" clip-path="url(#p234b01351b)" style="fill: #800080"/>
   </g>
   <g id="patch_136">
    <path d="M 967.764706 189.4284 
L 1125.943252 189.4284 
L 1125.943252 185.0796 
L 967.764706 185.0796 
z
" clip-path="url(#p234b01351b)" style="fill: #800080"/>
   </g>
   <g id="patch_137">
    <path d="M 967.764706 183.9924 
L 1127.87852 183.9924 
L 1127.87852 179.6436 
L 967.764706 179.6436 
z
" clip-path="url(#p234b01351b)" style="fill: #800080"/>
   </g>
   <g id="patch_138">
    <path d="M 967.764706 178.5564 
L 1145.967353 178.5564 
L 1145.967353 174.2076 
L 967.764706 174.2076 
z
" clip-path="url(#p234b01351b)" style="fill: #800080"/>
   </g>
   <g id="patch_139">
    <path d="M 967.764706 173.1204 
L 1216.861358 173.1204 
L 1216.861358 168.7716 
L 967.764706 168.7716 
z
" clip-path="url(#p234b01351b)" style="fill: #800080"/>
   </g>
   <g id="patch_140">
    <path d="M 967.764706 167.6844 
L 1145.809372 167.6844 
L 1145.809372 163.3356 
L 967.764706 163.3356 
z
" clip-path="url(#p234b01351b)" style="fill: #800080"/>
   </g>
   <g id="patch_141">
    <path d="M 967.764706 162.2484 
L 1149.008488 162.2484 
L 1149.008488 157.8996 
L 967.764706 157.8996 
z
" clip-path="url(#p234b01351b)" style="fill: #800080"/>
   </g>
   <g id="patch_142">
    <path d="M 967.764706 156.8124 
L 1280.369748 156.8124 
L 1280.369748 152.4636 
L 967.764706 152.4636 
z
" clip-path="url(#p234b01351b)" style="fill: #800080"/>
   </g>
   <g id="patch_143">
    <path d="M 967.764706 151.3764 
L 1137.673347 151.3764 
L 1137.673347 147.0276 
L 967.764706 147.0276 
z
" clip-path="url(#p234b01351b)" style="fill: #800080"/>
   </g>
   <g id="patch_144">
    <path d="M 967.764706 145.9404 
L 1180.920664 145.9404 
L 1180.920664 141.5916 
L 967.764706 141.5916 
z
" clip-path="url(#p234b01351b)" style="fill: #800080"/>
   </g>
   <g id="patch_145">
    <path d="M 967.764706 140.5044 
L 1263.110316 140.5044 
L 1263.110316 136.1556 
L 967.764706 136.1556 
z
" clip-path="url(#p234b01351b)" style="fill: #800080"/>
   </g>
   <g id="patch_146">
    <path d="M 967.764706 135.0684 
L 1224.918392 135.0684 
L 1224.918392 130.7196 
L 967.764706 130.7196 
z
" clip-path="url(#p234b01351b)" style="fill: #800080"/>
   </g>
   <g id="patch_147">
    <path d="M 967.764706 129.6324 
L 1265.795994 129.6324 
L 1265.795994 125.2836 
L 967.764706 125.2836 
z
" clip-path="url(#p234b01351b)" style="fill: #800080"/>
   </g>
   <g id="patch_148">
    <path d="M 967.764706 124.1964 
L 1168.598141 124.1964 
L 1168.598141 119.8476 
L 967.764706 119.8476 
z
" clip-path="url(#p234b01351b)" style="fill: #800080"/>
   </g>
   <g id="patch_149">
    <path d="M 967.764706 118.7604 
L 1138.739719 118.7604 
L 1138.739719 114.4116 
L 967.764706 114.4116 
z
" clip-path="url(#p234b01351b)" style="fill: #800080"/>
   </g>
   <g id="patch_150">
    <path d="M 967.764706 113.3244 
L 1126.535681 113.3244 
L 1126.535681 108.9756 
L 967.764706 108.9756 
z
" clip-path="url(#p234b01351b)" style="fill: #800080"/>
   </g>
   <g id="patch_151">
    <path d="M 967.764706 107.8884 
L 1175.825775 107.8884 
L 1175.825775 103.5396 
L 967.764706 103.5396 
z
" clip-path="url(#p234b01351b)" style="fill: #800080"/>
   </g>
   <g id="patch_152">
    <path d="M 967.764706 102.4524 
L 1190.6365 102.4524 
L 1190.6365 98.1036 
L 967.764706 98.1036 
z
" clip-path="url(#p234b01351b)" style="fill: #800080"/>
   </g>
   <g id="patch_153">
    <path d="M 967.764706 97.0164 
L 1163.898204 97.0164 
L 1163.898204 92.6676 
L 967.764706 92.6676 
z
" clip-path="url(#p234b01351b)" style="fill: #800080"/>
   </g>
   <g id="patch_154">
    <path d="M 967.764706 91.5804 
L 1161.528488 91.5804 
L 1161.528488 87.2316 
L 967.764706 87.2316 
z
" clip-path="url(#p234b01351b)" style="fill: #800080"/>
   </g>
   <g id="patch_155">
    <path d="M 967.764706 86.1444 
L 1275.590821 86.1444 
L 1275.590821 81.7956 
L 967.764706 81.7956 
z
" clip-path="url(#p234b01351b)" style="fill: #800080"/>
   </g>
   <g id="patch_156">
    <path d="M 967.764706 80.7084 
L 1200.075869 80.7084 
L 1200.075869 76.3596 
L 967.764706 76.3596 
z
" clip-path="url(#p234b01351b)" style="fill: #800080"/>
   </g>
   <g id="patch_157">
    <path d="M 967.764706 75.2724 
L 1238.504764 75.2724 
L 1238.504764 70.9236 
L 967.764706 70.9236 
z
" clip-path="url(#p234b01351b)" style="fill: #800080"/>
   </g>
   <g id="patch_158">
    <path d="M 967.764706 69.8364 
L 1248.181105 69.8364 
L 1248.181105 65.4876 
L 967.764706 65.4876 
z
" clip-path="url(#p234b01351b)" style="fill: #800080"/>
   </g>
   <g id="patch_159">
    <path d="M 967.764706 64.4004 
L 1273.537067 64.4004 
L 1273.537067 60.0516 
L 967.764706 60.0516 
z
" clip-path="url(#p234b01351b)" style="fill: #800080"/>
   </g>
   <g id="patch_160">
    <path d="M 967.764706 58.9644 
L 1171.678772 58.9644 
L 1171.678772 54.6156 
L 967.764706 54.6156 
z
" clip-path="url(#p234b01351b)" style="fill: #800080"/>
   </g>
   <g id="patch_161">
    <path d="M 967.764706 53.5284 
L 1174.798898 53.5284 
L 1174.798898 49.1796 
L 967.764706 49.1796 
z
" clip-path="url(#p234b01351b)" style="fill: #800080"/>
   </g>
   <g id="patch_162">
    <path d="M 967.764706 48.0924 
L 1145.453914 48.0924 
L 1145.453914 43.7436 
L 967.764706 43.7436 
z
" clip-path="url(#p234b01351b)" style="fill: #800080"/>
   </g>
   <g id="matplotlib.axis_5">
    <g id="xtick_14">
     <g id="line2d_24">
      <g>
       <use xlink:href="#m0b8e8f99ef" x="967.764706" y="315" style="stroke: #000000; stroke-width: 0.8"/>
      </g>
     </g>
     <g id="text_24">
      <!-- 0 -->
      <g transform="translate(964.583456 329.598437)scale(0.1 -0.1)">
       <use xlink:href="#DejaVuSans-30"/>
      </g>
     </g>
    </g>
    <g id="xtick_15">
     <g id="line2d_25">
      <g>
       <use xlink:href="#m0b8e8f99ef" x="1007.259973" y="315" style="stroke: #000000; stroke-width: 0.8"/>
      </g>
     </g>
     <g id="text_25">
      <!-- 1000 -->
      <g transform="translate(994.534973 329.598437)scale(0.1 -0.1)">
       <use xlink:href="#DejaVuSans-31"/>
       <use xlink:href="#DejaVuSans-30" x="63.623047"/>
       <use xlink:href="#DejaVuSans-30" x="127.246094"/>
       <use xlink:href="#DejaVuSans-30" x="190.869141"/>
      </g>
     </g>
    </g>
    <g id="xtick_16">
     <g id="line2d_26">
      <g>
       <use xlink:href="#m0b8e8f99ef" x="1046.755241" y="315" style="stroke: #000000; stroke-width: 0.8"/>
      </g>
     </g>
     <g id="text_26">
      <!-- 2000 -->
      <g transform="translate(1034.030241 329.598437)scale(0.1 -0.1)">
       <use xlink:href="#DejaVuSans-32"/>
       <use xlink:href="#DejaVuSans-30" x="63.623047"/>
       <use xlink:href="#DejaVuSans-30" x="127.246094"/>
       <use xlink:href="#DejaVuSans-30" x="190.869141"/>
      </g>
     </g>
    </g>
    <g id="xtick_17">
     <g id="line2d_27">
      <g>
       <use xlink:href="#m0b8e8f99ef" x="1086.250508" y="315" style="stroke: #000000; stroke-width: 0.8"/>
      </g>
     </g>
     <g id="text_27">
      <!-- 3000 -->
      <g transform="translate(1073.525508 329.598437)scale(0.1 -0.1)">
       <use xlink:href="#DejaVuSans-33"/>
       <use xlink:href="#DejaVuSans-30" x="63.623047"/>
       <use xlink:href="#DejaVuSans-30" x="127.246094"/>
       <use xlink:href="#DejaVuSans-30" x="190.869141"/>
      </g>
     </g>
    </g>
    <g id="xtick_18">
     <g id="line2d_28">
      <g>
       <use xlink:href="#m0b8e8f99ef" x="1125.745776" y="315" style="stroke: #000000; stroke-width: 0.8"/>
      </g>
     </g>
     <g id="text_28">
      <!-- 4000 -->
      <g transform="translate(1113.020776 329.598437)scale(0.1 -0.1)">
       <use xlink:href="#DejaVuSans-34"/>
       <use xlink:href="#DejaVuSans-30" x="63.623047"/>
       <use xlink:href="#DejaVuSans-30" x="127.246094"/>
       <use xlink:href="#DejaVuSans-30" x="190.869141"/>
      </g>
     </g>
    </g>
    <g id="xtick_19">
     <g id="line2d_29">
      <g>
       <use xlink:href="#m0b8e8f99ef" x="1165.241043" y="315" style="stroke: #000000; stroke-width: 0.8"/>
      </g>
     </g>
     <g id="text_29">
      <!-- 5000 -->
      <g transform="translate(1152.516043 329.598437)scale(0.1 -0.1)">
       <use xlink:href="#DejaVuSans-35"/>
       <use xlink:href="#DejaVuSans-30" x="63.623047"/>
       <use xlink:href="#DejaVuSans-30" x="127.246094"/>
       <use xlink:href="#DejaVuSans-30" x="190.869141"/>
      </g>
     </g>
    </g>
    <g id="xtick_20">
     <g id="line2d_30">
      <g>
       <use xlink:href="#m0b8e8f99ef" x="1204.736311" y="315" style="stroke: #000000; stroke-width: 0.8"/>
      </g>
     </g>
     <g id="text_30">
      <!-- 6000 -->
      <g transform="translate(1192.011311 329.598437)scale(0.1 -0.1)">
       <use xlink:href="#DejaVuSans-36"/>
       <use xlink:href="#DejaVuSans-30" x="63.623047"/>
       <use xlink:href="#DejaVuSans-30" x="127.246094"/>
       <use xlink:href="#DejaVuSans-30" x="190.869141"/>
      </g>
     </g>
    </g>
    <g id="xtick_21">
     <g id="line2d_31">
      <g>
       <use xlink:href="#m0b8e8f99ef" x="1244.231578" y="315" style="stroke: #000000; stroke-width: 0.8"/>
      </g>
     </g>
     <g id="text_31">
      <!-- 7000 -->
      <g transform="translate(1231.506578 329.598437)scale(0.1 -0.1)">
       <defs>
        <path id="DejaVuSans-37" d="M 525 4666 
L 3525 4666 
L 3525 4397 
L 1831 0 
L 1172 0 
L 2766 4134 
L 525 4134 
L 525 4666 
z
" transform="scale(0.015625)"/>
       </defs>
       <use xlink:href="#DejaVuSans-37"/>
       <use xlink:href="#DejaVuSans-30" x="63.623047"/>
       <use xlink:href="#DejaVuSans-30" x="127.246094"/>
       <use xlink:href="#DejaVuSans-30" x="190.869141"/>
      </g>
     </g>
    </g>
    <g id="xtick_22">
     <g id="line2d_32">
      <g>
       <use xlink:href="#m0b8e8f99ef" x="1283.726846" y="315" style="stroke: #000000; stroke-width: 0.8"/>
      </g>
     </g>
     <g id="text_32">
      <!-- 8000 -->
      <g transform="translate(1271.001846 329.598437)scale(0.1 -0.1)">
       <defs>
        <path id="DejaVuSans-38" d="M 2034 2216 
Q 1584 2216 1326 1975 
Q 1069 1734 1069 1313 
Q 1069 891 1326 650 
Q 1584 409 2034 409 
Q 2484 409 2743 651 
Q 3003 894 3003 1313 
Q 3003 1734 2745 1975 
Q 2488 2216 2034 2216 
z
M 1403 2484 
Q 997 2584 770 2862 
Q 544 3141 544 3541 
Q 544 4100 942 4425 
Q 1341 4750 2034 4750 
Q 2731 4750 3128 4425 
Q 3525 4100 3525 3541 
Q 3525 3141 3298 2862 
Q 3072 2584 2669 2484 
Q 3125 2378 3379 2068 
Q 3634 1759 3634 1313 
Q 3634 634 3220 271 
Q 2806 -91 2034 -91 
Q 1263 -91 848 271 
Q 434 634 434 1313 
Q 434 1759 690 2068 
Q 947 2378 1403 2484 
z
M 1172 3481 
Q 1172 3119 1398 2916 
Q 1625 2713 2034 2713 
Q 2441 2713 2670 2916 
Q 2900 3119 2900 3481 
Q 2900 3844 2670 4047 
Q 2441 4250 2034 4250 
Q 1625 4250 1398 4047 
Q 1172 3844 1172 3481 
z
" transform="scale(0.015625)"/>
       </defs>
       <use xlink:href="#DejaVuSans-38"/>
       <use xlink:href="#DejaVuSans-30" x="63.623047"/>
       <use xlink:href="#DejaVuSans-30" x="127.246094"/>
       <use xlink:href="#DejaVuSans-30" x="190.869141"/>
      </g>
     </g>
    </g>
   </g>
   <g id="matplotlib.axis_6">
    <g id="ytick_11">
     <g id="line2d_33">
      <g>
       <use xlink:href="#mb235cd24e3" x="967.764706" y="263.358" style="stroke: #000000; stroke-width: 0.8"/>
      </g>
     </g>
     <g id="text_33">
      <!-- 10 -->
      <g transform="translate(948.039706 267.157219)scale(0.1 -0.1)">
       <use xlink:href="#DejaVuSans-31"/>
       <use xlink:href="#DejaVuSans-30" x="63.623047"/>
      </g>
     </g>
    </g>
    <g id="ytick_12">
     <g id="line2d_34">
      <g>
       <use xlink:href="#mb235cd24e3" x="967.764706" y="208.998" style="stroke: #000000; stroke-width: 0.8"/>
      </g>
     </g>
     <g id="text_34">
      <!-- 20 -->
      <g transform="translate(948.039706 212.797219)scale(0.1 -0.1)">
       <use xlink:href="#DejaVuSans-32"/>
       <use xlink:href="#DejaVuSans-30" x="63.623047"/>
      </g>
     </g>
    </g>
    <g id="ytick_13">
     <g id="line2d_35">
      <g>
       <use xlink:href="#mb235cd24e3" x="967.764706" y="154.638" style="stroke: #000000; stroke-width: 0.8"/>
      </g>
     </g>
     <g id="text_35">
      <!-- 30 -->
      <g transform="translate(948.039706 158.437219)scale(0.1 -0.1)">
       <use xlink:href="#DejaVuSans-33"/>
       <use xlink:href="#DejaVuSans-30" x="63.623047"/>
      </g>
     </g>
    </g>
    <g id="ytick_14">
     <g id="line2d_36">
      <g>
       <use xlink:href="#mb235cd24e3" x="967.764706" y="100.278" style="stroke: #000000; stroke-width: 0.8"/>
      </g>
     </g>
     <g id="text_36">
      <!-- 40 -->
      <g transform="translate(948.039706 104.077219)scale(0.1 -0.1)">
       <use xlink:href="#DejaVuSans-34"/>
       <use xlink:href="#DejaVuSans-30" x="63.623047"/>
      </g>
     </g>
    </g>
    <g id="ytick_15">
     <g id="line2d_37">
      <g>
       <use xlink:href="#mb235cd24e3" x="967.764706" y="45.918" style="stroke: #000000; stroke-width: 0.8"/>
      </g>
     </g>
     <g id="text_37">
      <!-- 50 -->
      <g transform="translate(948.039706 49.717219)scale(0.1 -0.1)">
       <use xlink:href="#DejaVuSans-35"/>
       <use xlink:href="#DejaVuSans-30" x="63.623047"/>
      </g>
     </g>
    </g>
   </g>
   <g id="patch_163">
    <path d="M 967.764706 315 
L 967.764706 43.2 
" style="fill: none; stroke: #000000; stroke-width: 0.8; stroke-linejoin: miter; stroke-linecap: square"/>
   </g>
   <g id="patch_164">
    <path d="M 1296 315 
L 1296 43.2 
" style="fill: none; stroke: #000000; stroke-width: 0.8; stroke-linejoin: miter; stroke-linecap: square"/>
   </g>
   <g id="patch_165">
    <path d="M 967.764706 315 
L 1296 315 
" style="fill: none; stroke: #000000; stroke-width: 0.8; stroke-linejoin: miter; stroke-linecap: square"/>
   </g>
   <g id="patch_166">
    <path d="M 967.764706 43.2 
L 1296 43.2 
" style="fill: none; stroke: #000000; stroke-width: 0.8; stroke-linejoin: miter; stroke-linecap: square"/>
   </g>
  </g>
  <g id="text_38">
   <!-- nProc - 50   nTask - 200 -->
   <g transform="translate(649.86375 16.318125)scale(0.12 -0.12)">
    <defs>
     <path id="DejaVuSans-6e" d="M 3513 2113 
L 3513 0 
L 2938 0 
L 2938 2094 
Q 2938 2591 2744 2837 
Q 2550 3084 2163 3084 
Q 1697 3084 1428 2787 
Q 1159 2491 1159 1978 
L 1159 0 
L 581 0 
L 581 3500 
L 1159 3500 
L 1159 2956 
Q 1366 3272 1645 3428 
Q 1925 3584 2291 3584 
Q 2894 3584 3203 3211 
Q 3513 2838 3513 2113 
z
" transform="scale(0.015625)"/>
     <path id="DejaVuSans-50" d="M 1259 4147 
L 1259 2394 
L 2053 2394 
Q 2494 2394 2734 2622 
Q 2975 2850 2975 3272 
Q 2975 3691 2734 3919 
Q 2494 4147 2053 4147 
L 1259 4147 
z
M 628 4666 
L 2053 4666 
Q 2838 4666 3239 4311 
Q 3641 3956 3641 3272 
Q 3641 2581 3239 2228 
Q 2838 1875 2053 1875 
L 1259 1875 
L 1259 0 
L 628 0 
L 628 4666 
z
" transform="scale(0.015625)"/>
     <path id="DejaVuSans-72" d="M 2631 2963 
Q 2534 3019 2420 3045 
Q 2306 3072 2169 3072 
Q 1681 3072 1420 2755 
Q 1159 2438 1159 1844 
L 1159 0 
L 581 0 
L 581 3500 
L 1159 3500 
L 1159 2956 
Q 1341 3275 1631 3429 
Q 1922 3584 2338 3584 
Q 2397 3584 2469 3576 
Q 2541 3569 2628 3553 
L 2631 2963 
z
" transform="scale(0.015625)"/>
     <path id="DejaVuSans-6f" d="M 1959 3097 
Q 1497 3097 1228 2736 
Q 959 2375 959 1747 
Q 959 1119 1226 758 
Q 1494 397 1959 397 
Q 2419 397 2687 759 
Q 2956 1122 2956 1747 
Q 2956 2369 2687 2733 
Q 2419 3097 1959 3097 
z
M 1959 3584 
Q 2709 3584 3137 3096 
Q 3566 2609 3566 1747 
Q 3566 888 3137 398 
Q 2709 -91 1959 -91 
Q 1206 -91 779 398 
Q 353 888 353 1747 
Q 353 2609 779 3096 
Q 1206 3584 1959 3584 
z
" transform="scale(0.015625)"/>
     <path id="DejaVuSans-63" d="M 3122 3366 
L 3122 2828 
Q 2878 2963 2633 3030 
Q 2388 3097 2138 3097 
Q 1578 3097 1268 2742 
Q 959 2388 959 1747 
Q 959 1106 1268 751 
Q 1578 397 2138 397 
Q 2388 397 2633 464 
Q 2878 531 3122 666 
L 3122 134 
Q 2881 22 2623 -34 
Q 2366 -91 2075 -91 
Q 1284 -91 818 406 
Q 353 903 353 1747 
Q 353 2603 823 3093 
Q 1294 3584 2113 3584 
Q 2378 3584 2631 3529 
Q 2884 3475 3122 3366 
z
" transform="scale(0.015625)"/>
     <path id="DejaVuSans-20" transform="scale(0.015625)"/>
     <path id="DejaVuSans-2d" d="M 313 2009 
L 1997 2009 
L 1997 1497 
L 313 1497 
L 313 2009 
z
" transform="scale(0.015625)"/>
     <path id="DejaVuSans-54" d="M -19 4666 
L 3928 4666 
L 3928 4134 
L 2272 4134 
L 2272 0 
L 1638 0 
L 1638 4134 
L -19 4134 
L -19 4666 
z
" transform="scale(0.015625)"/>
     <path id="DejaVuSans-61" d="M 2194 1759 
Q 1497 1759 1228 1600 
Q 959 1441 959 1056 
Q 959 750 1161 570 
Q 1363 391 1709 391 
Q 2188 391 2477 730 
Q 2766 1069 2766 1631 
L 2766 1759 
L 2194 1759 
z
M 3341 1997 
L 3341 0 
L 2766 0 
L 2766 531 
Q 2569 213 2275 61 
Q 1981 -91 1556 -91 
Q 1019 -91 701 211 
Q 384 513 384 1019 
Q 384 1609 779 1909 
Q 1175 2209 1959 2209 
L 2766 2209 
L 2766 2266 
Q 2766 2663 2505 2880 
Q 2244 3097 1772 3097 
Q 1472 3097 1187 3025 
Q 903 2953 641 2809 
L 641 3341 
Q 956 3463 1253 3523 
Q 1550 3584 1831 3584 
Q 2591 3584 2966 3190 
Q 3341 2797 3341 1997 
z
" transform="scale(0.015625)"/>
     <path id="DejaVuSans-73" d="M 2834 3397 
L 2834 2853 
Q 2591 2978 2328 3040 
Q 2066 3103 1784 3103 
Q 1356 3103 1142 2972 
Q 928 2841 928 2578 
Q 928 2378 1081 2264 
Q 1234 2150 1697 2047 
L 1894 2003 
Q 2506 1872 2764 1633 
Q 3022 1394 3022 966 
Q 3022 478 2636 193 
Q 2250 -91 1575 -91 
Q 1294 -91 989 -36 
Q 684 19 347 128 
L 347 722 
Q 666 556 975 473 
Q 1284 391 1588 391 
Q 1994 391 2212 530 
Q 2431 669 2431 922 
Q 2431 1156 2273 1281 
Q 2116 1406 1581 1522 
L 1381 1569 
Q 847 1681 609 1914 
Q 372 2147 372 2553 
Q 372 3047 722 3315 
Q 1072 3584 1716 3584 
Q 2034 3584 2315 3537 
Q 2597 3491 2834 3397 
z
" transform="scale(0.015625)"/>
     <path id="DejaVuSans-6b" d="M 581 4863 
L 1159 4863 
L 1159 1991 
L 2875 3500 
L 3609 3500 
L 1753 1863 
L 3688 0 
L 2938 0 
L 1159 1709 
L 1159 0 
L 581 0 
L 581 4863 
z
" transform="scale(0.015625)"/>
    </defs>
    <use xlink:href="#DejaVuSans-6e"/>
    <use xlink:href="#DejaVuSans-50" x="63.378906"/>
    <use xlink:href="#DejaVuSans-72" x="121.931641"/>
    <use xlink:href="#DejaVuSans-6f" x="160.794922"/>
    <use xlink:href="#DejaVuSans-63" x="221.976562"/>
    <use xlink:href="#DejaVuSans-20" x="276.957031"/>
    <use xlink:href="#DejaVuSans-2d" x="308.744141"/>
    <use xlink:href="#DejaVuSans-20" x="344.828125"/>
    <use xlink:href="#DejaVuSans-35" x="376.615234"/>
    <use xlink:href="#DejaVuSans-30" x="440.238281"/>
    <use xlink:href="#DejaVuSans-20" x="503.861328"/>
    <use xlink:href="#DejaVuSans-20" x="535.648438"/>
    <use xlink:href="#DejaVuSans-20" x="567.435547"/>
    <use xlink:href="#DejaVuSans-6e" x="599.222656"/>
    <use xlink:href="#DejaVuSans-54" x="662.601562"/>
    <use xlink:href="#DejaVuSans-61" x="707.185547"/>
    <use xlink:href="#DejaVuSans-73" x="768.464844"/>
    <use xlink:href="#DejaVuSans-6b" x="820.564453"/>
    <use xlink:href="#DejaVuSans-20" x="878.474609"/>
    <use xlink:href="#DejaVuSans-2d" x="910.261719"/>
    <use xlink:href="#DejaVuSans-20" x="946.345703"/>
    <use xlink:href="#DejaVuSans-32" x="978.132812"/>
    <use xlink:href="#DejaVuSans-30" x="1041.755859"/>
    <use xlink:href="#DejaVuSans-30" x="1105.378906"/>
   </g>
  </g>
 </g>
 <defs>
  <clipPath id="pbb11e6c896">
   <rect x="180" y="43.2" width="328.235294" height="271.8"/>
  </clipPath>
  <clipPath id="pd9314fca05">
   <rect x="573.882353" y="43.2" width="328.235294" height="271.8"/>
  </clipPath>
  <clipPath id="p234b01351b">
   <rect x="967.764706" y="43.2" width="328.235294" height="271.8"/>
  </clipPath>
 </defs>
</svg>
