<?xml version="1.0" encoding="utf-8" standalone="no"?>
<!DOCTYPE svg PUBLIC "-//W3C//DTD SVG 1.1//EN"
  "http://www.w3.org/Graphics/SVG/1.1/DTD/svg11.dtd">
<svg xmlns:xlink="http://www.w3.org/1999/xlink" width="1440pt" height="360pt" viewBox="0 0 1440 360" xmlns="http://www.w3.org/2000/svg" version="1.1">
 <metadata>
  <rdf:RDF xmlns:dc="http://purl.org/dc/elements/1.1/" xmlns:cc="http://creativecommons.org/ns#" xmlns:rdf="http://www.w3.org/1999/02/22-rdf-syntax-ns#">
   <cc:Work>
    <dc:type rdf:resource="http://purl.org/dc/dcmitype/StillImage"/>
    <dc:date>2021-12-18T01:23:34.339892</dc:date>
    <dc:format>image/svg+xml</dc:format>
    <dc:creator>
     <cc:Agent>
      <dc:title>Matplotlib v3.5.0, https://matplotlib.org/</dc:title>
     </cc:Agent>
    </dc:creator>
   </cc:Work>
  </rdf:RDF>
 </metadata>
 <defs>
  <style type="text/css">*{stroke-linejoin: round; stroke-linecap: butt}</style>
 </defs>
 <g id="figure_1">
  <g id="patch_1">
   <path d="M 0 360 
L 1440 360 
L 1440 0 
L 0 0 
L 0 360 
z
" style="fill: none"/>
  </g>
  <g id="axes_1">
   <g id="patch_2">
    <path d="M 180 315 
L 508.235294 315 
L 508.235294 43.2 
L 180 43.2 
z
" style="fill: #ffffff"/>
   </g>
   <g id="patch_3">
    <path d="M 180 314.094 
L 492.605042 314.094 
L 492.605042 306.846 
L 180 306.846 
z
" clip-path="url(#pfc3ac23a76)" style="fill: #0000ff"/>
   </g>
   <g id="patch_4">
    <path d="M 180 305.034 
L 492.605042 305.034 
L 492.605042 297.786 
L 180 297.786 
z
" clip-path="url(#pfc3ac23a76)" style="fill: #0000ff"/>
   </g>
   <g id="patch_5">
    <path d="M 180 295.974 
L 492.605042 295.974 
L 492.605042 288.726 
L 180 288.726 
z
" clip-path="url(#pfc3ac23a76)" style="fill: #0000ff"/>
   </g>
   <g id="patch_6">
    <path d="M 180 286.914 
L 492.605042 286.914 
L 492.605042 279.666 
L 180 279.666 
z
" clip-path="url(#pfc3ac23a76)" style="fill: #0000ff"/>
   </g>
   <g id="patch_7">
    <path d="M 180 277.854 
L 492.605042 277.854 
L 492.605042 270.606 
L 180 270.606 
z
" clip-path="url(#pfc3ac23a76)" style="fill: #0000ff"/>
   </g>
   <g id="patch_8">
    <path d="M 180 268.794 
L 492.605042 268.794 
L 492.605042 261.546 
L 180 261.546 
z
" clip-path="url(#pfc3ac23a76)" style="fill: #0000ff"/>
   </g>
   <g id="patch_9">
    <path d="M 180 259.734 
L 492.605042 259.734 
L 492.605042 252.486 
L 180 252.486 
z
" clip-path="url(#pfc3ac23a76)" style="fill: #0000ff"/>
   </g>
   <g id="patch_10">
    <path d="M 180 250.674 
L 492.605042 250.674 
L 492.605042 243.426 
L 180 243.426 
z
" clip-path="url(#pfc3ac23a76)" style="fill: #0000ff"/>
   </g>
   <g id="patch_11">
    <path d="M 180 241.614 
L 492.605042 241.614 
L 492.605042 234.366 
L 180 234.366 
z
" clip-path="url(#pfc3ac23a76)" style="fill: #0000ff"/>
   </g>
   <g id="patch_12">
    <path d="M 180 232.554 
L 492.605042 232.554 
L 492.605042 225.306 
L 180 225.306 
z
" clip-path="url(#pfc3ac23a76)" style="fill: #0000ff"/>
   </g>
   <g id="patch_13">
    <path d="M 180 223.494 
L 492.605042 223.494 
L 492.605042 216.246 
L 180 216.246 
z
" clip-path="url(#pfc3ac23a76)" style="fill: #0000ff"/>
   </g>
   <g id="patch_14">
    <path d="M 180 214.434 
L 492.605042 214.434 
L 492.605042 207.186 
L 180 207.186 
z
" clip-path="url(#pfc3ac23a76)" style="fill: #0000ff"/>
   </g>
   <g id="patch_15">
    <path d="M 180 205.374 
L 492.605042 205.374 
L 492.605042 198.126 
L 180 198.126 
z
" clip-path="url(#pfc3ac23a76)" style="fill: #0000ff"/>
   </g>
   <g id="patch_16">
    <path d="M 180 196.314 
L 492.605042 196.314 
L 492.605042 189.066 
L 180 189.066 
z
" clip-path="url(#pfc3ac23a76)" style="fill: #0000ff"/>
   </g>
   <g id="patch_17">
    <path d="M 180 187.254 
L 492.605042 187.254 
L 492.605042 180.006 
L 180 180.006 
z
" clip-path="url(#pfc3ac23a76)" style="fill: #0000ff"/>
   </g>
   <g id="patch_18">
    <path d="M 180 178.194 
L 492.605042 178.194 
L 492.605042 170.946 
L 180 170.946 
z
" clip-path="url(#pfc3ac23a76)" style="fill: #0000ff"/>
   </g>
   <g id="patch_19">
    <path d="M 180 169.134 
L 492.605042 169.134 
L 492.605042 161.886 
L 180 161.886 
z
" clip-path="url(#pfc3ac23a76)" style="fill: #0000ff"/>
   </g>
   <g id="patch_20">
    <path d="M 180 160.074 
L 492.605042 160.074 
L 492.605042 152.826 
L 180 152.826 
z
" clip-path="url(#pfc3ac23a76)" style="fill: #0000ff"/>
   </g>
   <g id="patch_21">
    <path d="M 180 151.014 
L 492.605042 151.014 
L 492.605042 143.766 
L 180 143.766 
z
" clip-path="url(#pfc3ac23a76)" style="fill: #0000ff"/>
   </g>
   <g id="patch_22">
    <path d="M 180 141.954 
L 492.605042 141.954 
L 492.605042 134.706 
L 180 134.706 
z
" clip-path="url(#pfc3ac23a76)" style="fill: #0000ff"/>
   </g>
   <g id="patch_23">
    <path d="M 180 132.894 
L 492.605042 132.894 
L 492.605042 125.646 
L 180 125.646 
z
" clip-path="url(#pfc3ac23a76)" style="fill: #0000ff"/>
   </g>
   <g id="patch_24">
    <path d="M 180 123.834 
L 492.605042 123.834 
L 492.605042 116.586 
L 180 116.586 
z
" clip-path="url(#pfc3ac23a76)" style="fill: #0000ff"/>
   </g>
   <g id="patch_25">
    <path d="M 180 114.774 
L 492.605042 114.774 
L 492.605042 107.526 
L 180 107.526 
z
" clip-path="url(#pfc3ac23a76)" style="fill: #0000ff"/>
   </g>
   <g id="patch_26">
    <path d="M 180 105.714 
L 492.605042 105.714 
L 492.605042 98.466 
L 180 98.466 
z
" clip-path="url(#pfc3ac23a76)" style="fill: #0000ff"/>
   </g>
   <g id="patch_27">
    <path d="M 180 96.654 
L 492.605042 96.654 
L 492.605042 89.406 
L 180 89.406 
z
" clip-path="url(#pfc3ac23a76)" style="fill: #0000ff"/>
   </g>
   <g id="patch_28">
    <path d="M 180 87.594 
L 492.605042 87.594 
L 492.605042 80.346 
L 180 80.346 
z
" clip-path="url(#pfc3ac23a76)" style="fill: #0000ff"/>
   </g>
   <g id="patch_29">
    <path d="M 180 78.534 
L 492.605042 78.534 
L 492.605042 71.286 
L 180 71.286 
z
" clip-path="url(#pfc3ac23a76)" style="fill: #0000ff"/>
   </g>
   <g id="patch_30">
    <path d="M 180 69.474 
L 492.605042 69.474 
L 492.605042 62.226 
L 180 62.226 
z
" clip-path="url(#pfc3ac23a76)" style="fill: #0000ff"/>
   </g>
   <g id="patch_31">
    <path d="M 180 60.414 
L 492.605042 60.414 
L 492.605042 53.166 
L 180 53.166 
z
" clip-path="url(#pfc3ac23a76)" style="fill: #0000ff"/>
   </g>
   <g id="patch_32">
    <path d="M 180 51.354 
L 492.605042 51.354 
L 492.605042 44.106 
L 180 44.106 
z
" clip-path="url(#pfc3ac23a76)" style="fill: #0000ff"/>
   </g>
   <g id="matplotlib.axis_1">
    <g id="xtick_1">
     <g id="line2d_1">
      <defs>
       <path id="m9afb150dba" d="M 0 0 
L 0 3.5 
" style="stroke: #000000; stroke-width: 0.8"/>
      </defs>
      <g>
       <use xlink:href="#m9afb150dba" x="180" y="315" style="stroke: #000000; stroke-width: 0.8"/>
      </g>
     </g>
     <g id="text_1">
      <!-- 0 -->
      <g transform="translate(176.81875 329.598437)scale(0.1 -0.1)">
       <defs>
        <path id="DejaVuSans-30" d="M 2034 4250 
Q 1547 4250 1301 3770 
Q 1056 3291 1056 2328 
Q 1056 1369 1301 889 
Q 1547 409 2034 409 
Q 2525 409 2770 889 
Q 3016 1369 3016 2328 
Q 3016 3291 2770 3770 
Q 2525 4250 2034 4250 
z
M 2034 4750 
Q 2819 4750 3233 4129 
Q 3647 3509 3647 2328 
Q 3647 1150 3233 529 
Q 2819 -91 2034 -91 
Q 1250 -91 836 529 
Q 422 1150 422 2328 
Q 422 3509 836 4129 
Q 1250 4750 2034 4750 
z
" transform="scale(0.015625)"/>
       </defs>
       <use xlink:href="#DejaVuSans-30"/>
      </g>
     </g>
    </g>
    <g id="xtick_2">
     <g id="line2d_2">
      <g>
       <use xlink:href="#m9afb150dba" x="219.07563" y="315" style="stroke: #000000; stroke-width: 0.8"/>
      </g>
     </g>
     <g id="text_2">
      <!-- 25 -->
      <g transform="translate(212.71313 329.598437)scale(0.1 -0.1)">
       <defs>
        <path id="DejaVuSans-32" d="M 1228 531 
L 3431 531 
L 3431 0 
L 469 0 
L 469 531 
Q 828 903 1448 1529 
Q 2069 2156 2228 2338 
Q 2531 2678 2651 2914 
Q 2772 3150 2772 3378 
Q 2772 3750 2511 3984 
Q 2250 4219 1831 4219 
Q 1534 4219 1204 4116 
Q 875 4013 500 3803 
L 500 4441 
Q 881 4594 1212 4672 
Q 1544 4750 1819 4750 
Q 2544 4750 2975 4387 
Q 3406 4025 3406 3419 
Q 3406 3131 3298 2873 
Q 3191 2616 2906 2266 
Q 2828 2175 2409 1742 
Q 1991 1309 1228 531 
z
" transform="scale(0.015625)"/>
        <path id="DejaVuSans-35" d="M 691 4666 
L 3169 4666 
L 3169 4134 
L 1269 4134 
L 1269 2991 
Q 1406 3038 1543 3061 
Q 1681 3084 1819 3084 
Q 2600 3084 3056 2656 
Q 3513 2228 3513 1497 
Q 3513 744 3044 326 
Q 2575 -91 1722 -91 
Q 1428 -91 1123 -41 
Q 819 9 494 109 
L 494 744 
Q 775 591 1075 516 
Q 1375 441 1709 441 
Q 2250 441 2565 725 
Q 2881 1009 2881 1497 
Q 2881 1984 2565 2268 
Q 2250 2553 1709 2553 
Q 1456 2553 1204 2497 
Q 953 2441 691 2322 
L 691 4666 
z
" transform="scale(0.015625)"/>
       </defs>
       <use xlink:href="#DejaVuSans-32"/>
       <use xlink:href="#DejaVuSans-35" x="63.623047"/>
      </g>
     </g>
    </g>
    <g id="xtick_3">
     <g id="line2d_3">
      <g>
       <use xlink:href="#m9afb150dba" x="258.151261" y="315" style="stroke: #000000; stroke-width: 0.8"/>
      </g>
     </g>
     <g id="text_3">
      <!-- 50 -->
      <g transform="translate(251.788761 329.598437)scale(0.1 -0.1)">
       <use xlink:href="#DejaVuSans-35"/>
       <use xlink:href="#DejaVuSans-30" x="63.623047"/>
      </g>
     </g>
    </g>
    <g id="xtick_4">
     <g id="line2d_4">
      <g>
       <use xlink:href="#m9afb150dba" x="297.226891" y="315" style="stroke: #000000; stroke-width: 0.8"/>
      </g>
     </g>
     <g id="text_4">
      <!-- 75 -->
      <g transform="translate(290.864391 329.598437)scale(0.1 -0.1)">
       <defs>
        <path id="DejaVuSans-37" d="M 525 4666 
L 3525 4666 
L 3525 4397 
L 1831 0 
L 1172 0 
L 2766 4134 
L 525 4134 
L 525 4666 
z
" transform="scale(0.015625)"/>
       </defs>
       <use xlink:href="#DejaVuSans-37"/>
       <use xlink:href="#DejaVuSans-35" x="63.623047"/>
      </g>
     </g>
    </g>
    <g id="xtick_5">
     <g id="line2d_5">
      <g>
       <use xlink:href="#m9afb150dba" x="336.302521" y="315" style="stroke: #000000; stroke-width: 0.8"/>
      </g>
     </g>
     <g id="text_5">
      <!-- 100 -->
      <g transform="translate(326.758771 329.598437)scale(0.1 -0.1)">
       <defs>
        <path id="DejaVuSans-31" d="M 794 531 
L 1825 531 
L 1825 4091 
L 703 3866 
L 703 4441 
L 1819 4666 
L 2450 4666 
L 2450 531 
L 3481 531 
L 3481 0 
L 794 0 
L 794 531 
z
" transform="scale(0.015625)"/>
       </defs>
       <use xlink:href="#DejaVuSans-31"/>
       <use xlink:href="#DejaVuSans-30" x="63.623047"/>
       <use xlink:href="#DejaVuSans-30" x="127.246094"/>
      </g>
     </g>
    </g>
    <g id="xtick_6">
     <g id="line2d_6">
      <g>
       <use xlink:href="#m9afb150dba" x="375.378151" y="315" style="stroke: #000000; stroke-width: 0.8"/>
      </g>
     </g>
     <g id="text_6">
      <!-- 125 -->
      <g transform="translate(365.834401 329.598437)scale(0.1 -0.1)">
       <use xlink:href="#DejaVuSans-31"/>
       <use xlink:href="#DejaVuSans-32" x="63.623047"/>
       <use xlink:href="#DejaVuSans-35" x="127.246094"/>
      </g>
     </g>
    </g>
    <g id="xtick_7">
     <g id="line2d_7">
      <g>
       <use xlink:href="#m9afb150dba" x="414.453782" y="315" style="stroke: #000000; stroke-width: 0.8"/>
      </g>
     </g>
     <g id="text_7">
      <!-- 150 -->
      <g transform="translate(404.910032 329.598437)scale(0.1 -0.1)">
       <use xlink:href="#DejaVuSans-31"/>
       <use xlink:href="#DejaVuSans-35" x="63.623047"/>
       <use xlink:href="#DejaVuSans-30" x="127.246094"/>
      </g>
     </g>
    </g>
    <g id="xtick_8">
     <g id="line2d_8">
      <g>
       <use xlink:href="#m9afb150dba" x="453.529412" y="315" style="stroke: #000000; stroke-width: 0.8"/>
      </g>
     </g>
     <g id="text_8">
      <!-- 175 -->
      <g transform="translate(443.985662 329.598437)scale(0.1 -0.1)">
       <use xlink:href="#DejaVuSans-31"/>
       <use xlink:href="#DejaVuSans-37" x="63.623047"/>
       <use xlink:href="#DejaVuSans-35" x="127.246094"/>
      </g>
     </g>
    </g>
    <g id="xtick_9">
     <g id="line2d_9">
      <g>
       <use xlink:href="#m9afb150dba" x="492.605042" y="315" style="stroke: #000000; stroke-width: 0.8"/>
      </g>
     </g>
     <g id="text_9">
      <!-- 200 -->
      <g transform="translate(483.061292 329.598437)scale(0.1 -0.1)">
       <use xlink:href="#DejaVuSans-32"/>
       <use xlink:href="#DejaVuSans-30" x="63.623047"/>
       <use xlink:href="#DejaVuSans-30" x="127.246094"/>
      </g>
     </g>
    </g>
   </g>
   <g id="matplotlib.axis_2">
    <g id="ytick_1">
     <g id="line2d_10">
      <defs>
       <path id="me74f56b2ef" d="M 0 0 
L -3.5 0 
" style="stroke: #000000; stroke-width: 0.8"/>
      </defs>
      <g>
       <use xlink:href="#me74f56b2ef" x="180" y="274.23" style="stroke: #000000; stroke-width: 0.8"/>
      </g>
     </g>
     <g id="text_10">
      <!-- 5 -->
      <g transform="translate(166.6375 278.029219)scale(0.1 -0.1)">
       <use xlink:href="#DejaVuSans-35"/>
      </g>
     </g>
    </g>
    <g id="ytick_2">
     <g id="line2d_11">
      <g>
       <use xlink:href="#me74f56b2ef" x="180" y="228.93" style="stroke: #000000; stroke-width: 0.8"/>
      </g>
     </g>
     <g id="text_11">
      <!-- 10 -->
      <g transform="translate(160.275 232.729219)scale(0.1 -0.1)">
       <use xlink:href="#DejaVuSans-31"/>
       <use xlink:href="#DejaVuSans-30" x="63.623047"/>
      </g>
     </g>
    </g>
    <g id="ytick_3">
     <g id="line2d_12">
      <g>
       <use xlink:href="#me74f56b2ef" x="180" y="183.63" style="stroke: #000000; stroke-width: 0.8"/>
      </g>
     </g>
     <g id="text_12">
      <!-- 15 -->
      <g transform="translate(160.275 187.429219)scale(0.1 -0.1)">
       <use xlink:href="#DejaVuSans-31"/>
       <use xlink:href="#DejaVuSans-35" x="63.623047"/>
      </g>
     </g>
    </g>
    <g id="ytick_4">
     <g id="line2d_13">
      <g>
       <use xlink:href="#me74f56b2ef" x="180" y="138.33" style="stroke: #000000; stroke-width: 0.8"/>
      </g>
     </g>
     <g id="text_13">
      <!-- 20 -->
      <g transform="translate(160.275 142.129219)scale(0.1 -0.1)">
       <use xlink:href="#DejaVuSans-32"/>
       <use xlink:href="#DejaVuSans-30" x="63.623047"/>
      </g>
     </g>
    </g>
    <g id="ytick_5">
     <g id="line2d_14">
      <g>
       <use xlink:href="#me74f56b2ef" x="180" y="93.03" style="stroke: #000000; stroke-width: 0.8"/>
      </g>
     </g>
     <g id="text_14">
      <!-- 25 -->
      <g transform="translate(160.275 96.829219)scale(0.1 -0.1)">
       <use xlink:href="#DejaVuSans-32"/>
       <use xlink:href="#DejaVuSans-35" x="63.623047"/>
      </g>
     </g>
    </g>
    <g id="ytick_6">
     <g id="line2d_15">
      <g>
       <use xlink:href="#me74f56b2ef" x="180" y="47.73" style="stroke: #000000; stroke-width: 0.8"/>
      </g>
     </g>
     <g id="text_15">
      <!-- 30 -->
      <g transform="translate(160.275 51.529219)scale(0.1 -0.1)">
       <defs>
        <path id="DejaVuSans-33" d="M 2597 2516 
Q 3050 2419 3304 2112 
Q 3559 1806 3559 1356 
Q 3559 666 3084 287 
Q 2609 -91 1734 -91 
Q 1441 -91 1130 -33 
Q 819 25 488 141 
L 488 750 
Q 750 597 1062 519 
Q 1375 441 1716 441 
Q 2309 441 2620 675 
Q 2931 909 2931 1356 
Q 2931 1769 2642 2001 
Q 2353 2234 1838 2234 
L 1294 2234 
L 1294 2753 
L 1863 2753 
Q 2328 2753 2575 2939 
Q 2822 3125 2822 3475 
Q 2822 3834 2567 4026 
Q 2313 4219 1838 4219 
Q 1578 4219 1281 4162 
Q 984 4106 628 3988 
L 628 4550 
Q 988 4650 1302 4700 
Q 1616 4750 1894 4750 
Q 2613 4750 3031 4423 
Q 3450 4097 3450 3541 
Q 3450 3153 3228 2886 
Q 3006 2619 2597 2516 
z
" transform="scale(0.015625)"/>
       </defs>
       <use xlink:href="#DejaVuSans-33"/>
       <use xlink:href="#DejaVuSans-30" x="63.623047"/>
      </g>
     </g>
    </g>
   </g>
   <g id="patch_33">
    <path d="M 180 315 
L 180 43.2 
" style="fill: none; stroke: #000000; stroke-width: 0.8; stroke-linejoin: miter; stroke-linecap: square"/>
   </g>
   <g id="patch_34">
    <path d="M 508.235294 315 
L 508.235294 43.2 
" style="fill: none; stroke: #000000; stroke-width: 0.8; stroke-linejoin: miter; stroke-linecap: square"/>
   </g>
   <g id="patch_35">
    <path d="M 180 315 
L 508.235294 315 
" style="fill: none; stroke: #000000; stroke-width: 0.8; stroke-linejoin: miter; stroke-linecap: square"/>
   </g>
   <g id="patch_36">
    <path d="M 180 43.2 
L 508.235294 43.2 
" style="fill: none; stroke: #000000; stroke-width: 0.8; stroke-linejoin: miter; stroke-linecap: square"/>
   </g>
  </g>
  <g id="axes_2">
   <g id="patch_37">
    <path d="M 573.882353 315 
L 902.117647 315 
L 902.117647 43.2 
L 573.882353 43.2 
z
" style="fill: #ffffff"/>
   </g>
   <g id="patch_38">
    <path d="M 573.882353 314.094 
L 820.602027 314.094 
L 820.602027 306.846 
L 573.882353 306.846 
z
" clip-path="url(#p3eadffe3fd)" style="fill: #008000"/>
   </g>
   <g id="patch_39">
    <path d="M 573.882353 305.034 
L 850.04017 305.034 
L 850.04017 297.786 
L 573.882353 297.786 
z
" clip-path="url(#p3eadffe3fd)" style="fill: #008000"/>
   </g>
   <g id="patch_40">
    <path d="M 573.882353 295.974 
L 879.478313 295.974 
L 879.478313 288.726 
L 573.882353 288.726 
z
" clip-path="url(#p3eadffe3fd)" style="fill: #008000"/>
   </g>
   <g id="patch_41">
    <path d="M 573.882353 286.914 
L 816.396578 286.914 
L 816.396578 279.666 
L 573.882353 279.666 
z
" clip-path="url(#p3eadffe3fd)" style="fill: #008000"/>
   </g>
   <g id="patch_42">
    <path d="M 573.882353 277.854 
L 823.40566 277.854 
L 823.40566 270.606 
L 573.882353 270.606 
z
" clip-path="url(#p3eadffe3fd)" style="fill: #008000"/>
   </g>
   <g id="patch_43">
    <path d="M 573.882353 268.794 
L 848.638354 268.794 
L 848.638354 261.546 
L 573.882353 261.546 
z
" clip-path="url(#p3eadffe3fd)" style="fill: #008000"/>
   </g>
   <g id="patch_44">
    <path d="M 573.882353 259.734 
L 814.994762 259.734 
L 814.994762 252.486 
L 573.882353 252.486 
z
" clip-path="url(#p3eadffe3fd)" style="fill: #008000"/>
   </g>
   <g id="patch_45">
    <path d="M 573.882353 250.674 
L 886.487395 250.674 
L 886.487395 243.426 
L 573.882353 243.426 
z
" clip-path="url(#p3eadffe3fd)" style="fill: #008000"/>
   </g>
   <g id="patch_46">
    <path d="M 573.882353 241.614 
L 885.085579 241.614 
L 885.085579 234.366 
L 573.882353 234.366 
z
" clip-path="url(#p3eadffe3fd)" style="fill: #008000"/>
   </g>
   <g id="patch_47">
    <path d="M 573.882353 232.554 
L 885.085579 232.554 
L 885.085579 225.306 
L 573.882353 225.306 
z
" clip-path="url(#p3eadffe3fd)" style="fill: #008000"/>
   </g>
   <g id="patch_48">
    <path d="M 573.882353 223.494 
L 883.683762 223.494 
L 883.683762 216.246 
L 573.882353 216.246 
z
" clip-path="url(#p3eadffe3fd)" style="fill: #008000"/>
   </g>
   <g id="patch_49">
    <path d="M 573.882353 214.434 
L 840.227456 214.434 
L 840.227456 207.186 
L 573.882353 207.186 
z
" clip-path="url(#p3eadffe3fd)" style="fill: #008000"/>
   </g>
   <g id="patch_50">
    <path d="M 573.882353 205.374 
L 840.227456 205.374 
L 840.227456 198.126 
L 573.882353 198.126 
z
" clip-path="url(#p3eadffe3fd)" style="fill: #008000"/>
   </g>
   <g id="patch_51">
    <path d="M 573.882353 196.314 
L 824.807476 196.314 
L 824.807476 189.066 
L 573.882353 189.066 
z
" clip-path="url(#p3eadffe3fd)" style="fill: #008000"/>
   </g>
   <g id="patch_52">
    <path d="M 573.882353 187.254 
L 845.834721 187.254 
L 845.834721 180.006 
L 573.882353 180.006 
z
" clip-path="url(#p3eadffe3fd)" style="fill: #008000"/>
   </g>
   <g id="patch_53">
    <path d="M 573.882353 178.194 
L 879.478313 178.194 
L 879.478313 170.946 
L 573.882353 170.946 
z
" clip-path="url(#p3eadffe3fd)" style="fill: #008000"/>
   </g>
   <g id="patch_54">
    <path d="M 573.882353 169.134 
L 885.085579 169.134 
L 885.085579 161.886 
L 573.882353 161.886 
z
" clip-path="url(#p3eadffe3fd)" style="fill: #008000"/>
   </g>
   <g id="patch_55">
    <path d="M 573.882353 160.074 
L 886.487395 160.074 
L 886.487395 152.826 
L 573.882353 152.826 
z
" clip-path="url(#p3eadffe3fd)" style="fill: #008000"/>
   </g>
   <g id="patch_56">
    <path d="M 573.882353 151.014 
L 834.620191 151.014 
L 834.620191 143.766 
L 573.882353 143.766 
z
" clip-path="url(#p3eadffe3fd)" style="fill: #008000"/>
   </g>
   <g id="patch_57">
    <path d="M 573.882353 141.954 
L 875.272864 141.954 
L 875.272864 134.706 
L 573.882353 134.706 
z
" clip-path="url(#p3eadffe3fd)" style="fill: #008000"/>
   </g>
   <g id="patch_58">
    <path d="M 573.882353 132.894 
L 876.674681 132.894 
L 876.674681 125.646 
L 573.882353 125.646 
z
" clip-path="url(#p3eadffe3fd)" style="fill: #008000"/>
   </g>
   <g id="patch_59">
    <path d="M 573.882353 123.834 
L 816.396578 123.834 
L 816.396578 116.586 
L 573.882353 116.586 
z
" clip-path="url(#p3eadffe3fd)" style="fill: #008000"/>
   </g>
   <g id="patch_60">
    <path d="M 573.882353 114.774 
L 857.049252 114.774 
L 857.049252 107.526 
L 573.882353 107.526 
z
" clip-path="url(#p3eadffe3fd)" style="fill: #008000"/>
   </g>
   <g id="patch_61">
    <path d="M 573.882353 105.714 
L 880.88013 105.714 
L 880.88013 98.466 
L 573.882353 98.466 
z
" clip-path="url(#p3eadffe3fd)" style="fill: #008000"/>
   </g>
   <g id="patch_62">
    <path d="M 573.882353 96.654 
L 879.478313 96.654 
L 879.478313 89.406 
L 573.882353 89.406 
z
" clip-path="url(#p3eadffe3fd)" style="fill: #008000"/>
   </g>
   <g id="patch_63">
    <path d="M 573.882353 87.594 
L 850.04017 87.594 
L 850.04017 80.346 
L 573.882353 80.346 
z
" clip-path="url(#p3eadffe3fd)" style="fill: #008000"/>
   </g>
   <g id="patch_64">
    <path d="M 573.882353 78.534 
L 866.861966 78.534 
L 866.861966 71.286 
L 573.882353 71.286 
z
" clip-path="url(#p3eadffe3fd)" style="fill: #008000"/>
   </g>
   <g id="patch_65">
    <path d="M 573.882353 69.474 
L 822.003844 69.474 
L 822.003844 62.226 
L 573.882353 62.226 
z
" clip-path="url(#p3eadffe3fd)" style="fill: #008000"/>
   </g>
   <g id="patch_66">
    <path d="M 573.882353 60.414 
L 858.451068 60.414 
L 858.451068 53.166 
L 573.882353 53.166 
z
" clip-path="url(#p3eadffe3fd)" style="fill: #008000"/>
   </g>
   <g id="patch_67">
    <path d="M 573.882353 51.354 
L 813.592946 51.354 
L 813.592946 44.106 
L 573.882353 44.106 
z
" clip-path="url(#p3eadffe3fd)" style="fill: #008000"/>
   </g>
   <g id="matplotlib.axis_3">
    <g id="xtick_10">
     <g id="line2d_16">
      <g>
       <use xlink:href="#m9afb150dba" x="573.882353" y="315" style="stroke: #000000; stroke-width: 0.8"/>
      </g>
     </g>
     <g id="text_16">
      <!-- 0 -->
      <g transform="translate(570.701103 329.598437)scale(0.1 -0.1)">
       <use xlink:href="#DejaVuSans-30"/>
      </g>
     </g>
    </g>
    <g id="xtick_11">
     <g id="line2d_17">
      <g>
       <use xlink:href="#m9afb150dba" x="643.97317" y="315" style="stroke: #000000; stroke-width: 0.8"/>
      </g>
     </g>
     <g id="text_17">
      <!-- 50 -->
      <g transform="translate(637.61067 329.598437)scale(0.1 -0.1)">
       <use xlink:href="#DejaVuSans-35"/>
       <use xlink:href="#DejaVuSans-30" x="63.623047"/>
      </g>
     </g>
    </g>
    <g id="xtick_12">
     <g id="line2d_18">
      <g>
       <use xlink:href="#m9afb150dba" x="714.063986" y="315" style="stroke: #000000; stroke-width: 0.8"/>
      </g>
     </g>
     <g id="text_18">
      <!-- 100 -->
      <g transform="translate(704.520236 329.598437)scale(0.1 -0.1)">
       <use xlink:href="#DejaVuSans-31"/>
       <use xlink:href="#DejaVuSans-30" x="63.623047"/>
       <use xlink:href="#DejaVuSans-30" x="127.246094"/>
      </g>
     </g>
    </g>
    <g id="xtick_13">
     <g id="line2d_19">
      <g>
       <use xlink:href="#m9afb150dba" x="784.154803" y="315" style="stroke: #000000; stroke-width: 0.8"/>
      </g>
     </g>
     <g id="text_19">
      <!-- 150 -->
      <g transform="translate(774.611053 329.598437)scale(0.1 -0.1)">
       <use xlink:href="#DejaVuSans-31"/>
       <use xlink:href="#DejaVuSans-35" x="63.623047"/>
       <use xlink:href="#DejaVuSans-30" x="127.246094"/>
      </g>
     </g>
    </g>
    <g id="xtick_14">
     <g id="line2d_20">
      <g>
       <use xlink:href="#m9afb150dba" x="854.245619" y="315" style="stroke: #000000; stroke-width: 0.8"/>
      </g>
     </g>
     <g id="text_20">
      <!-- 200 -->
      <g transform="translate(844.701869 329.598437)scale(0.1 -0.1)">
       <use xlink:href="#DejaVuSans-32"/>
       <use xlink:href="#DejaVuSans-30" x="63.623047"/>
       <use xlink:href="#DejaVuSans-30" x="127.246094"/>
      </g>
     </g>
    </g>
   </g>
   <g id="matplotlib.axis_4">
    <g id="ytick_7">
     <g id="line2d_21">
      <g>
       <use xlink:href="#me74f56b2ef" x="573.882353" y="274.23" style="stroke: #000000; stroke-width: 0.8"/>
      </g>
     </g>
     <g id="text_21">
      <!-- 5 -->
      <g transform="translate(560.519853 278.029219)scale(0.1 -0.1)">
       <use xlink:href="#DejaVuSans-35"/>
      </g>
     </g>
    </g>
    <g id="ytick_8">
     <g id="line2d_22">
      <g>
       <use xlink:href="#me74f56b2ef" x="573.882353" y="228.93" style="stroke: #000000; stroke-width: 0.8"/>
      </g>
     </g>
     <g id="text_22">
      <!-- 10 -->
      <g transform="translate(554.157353 232.729219)scale(0.1 -0.1)">
       <use xlink:href="#DejaVuSans-31"/>
       <use xlink:href="#DejaVuSans-30" x="63.623047"/>
      </g>
     </g>
    </g>
    <g id="ytick_9">
     <g id="line2d_23">
      <g>
       <use xlink:href="#me74f56b2ef" x="573.882353" y="183.63" style="stroke: #000000; stroke-width: 0.8"/>
      </g>
     </g>
     <g id="text_23">
      <!-- 15 -->
      <g transform="translate(554.157353 187.429219)scale(0.1 -0.1)">
       <use xlink:href="#DejaVuSans-31"/>
       <use xlink:href="#DejaVuSans-35" x="63.623047"/>
      </g>
     </g>
    </g>
    <g id="ytick_10">
     <g id="line2d_24">
      <g>
       <use xlink:href="#me74f56b2ef" x="573.882353" y="138.33" style="stroke: #000000; stroke-width: 0.8"/>
      </g>
     </g>
     <g id="text_24">
      <!-- 20 -->
      <g transform="translate(554.157353 142.129219)scale(0.1 -0.1)">
       <use xlink:href="#DejaVuSans-32"/>
       <use xlink:href="#DejaVuSans-30" x="63.623047"/>
      </g>
     </g>
    </g>
    <g id="ytick_11">
     <g id="line2d_25">
      <g>
       <use xlink:href="#me74f56b2ef" x="573.882353" y="93.03" style="stroke: #000000; stroke-width: 0.8"/>
      </g>
     </g>
     <g id="text_25">
      <!-- 25 -->
      <g transform="translate(554.157353 96.829219)scale(0.1 -0.1)">
       <use xlink:href="#DejaVuSans-32"/>
       <use xlink:href="#DejaVuSans-35" x="63.623047"/>
      </g>
     </g>
    </g>
    <g id="ytick_12">
     <g id="line2d_26">
      <g>
       <use xlink:href="#me74f56b2ef" x="573.882353" y="47.73" style="stroke: #000000; stroke-width: 0.8"/>
      </g>
     </g>
     <g id="text_26">
      <!-- 30 -->
      <g transform="translate(554.157353 51.529219)scale(0.1 -0.1)">
       <use xlink:href="#DejaVuSans-33"/>
       <use xlink:href="#DejaVuSans-30" x="63.623047"/>
      </g>
     </g>
    </g>
   </g>
   <g id="patch_68">
    <path d="M 573.882353 315 
L 573.882353 43.2 
" style="fill: none; stroke: #000000; stroke-width: 0.8; stroke-linejoin: miter; stroke-linecap: square"/>
   </g>
   <g id="patch_69">
    <path d="M 902.117647 315 
L 902.117647 43.2 
" style="fill: none; stroke: #000000; stroke-width: 0.8; stroke-linejoin: miter; stroke-linecap: square"/>
   </g>
   <g id="patch_70">
    <path d="M 573.882353 315 
L 902.117647 315 
" style="fill: none; stroke: #000000; stroke-width: 0.8; stroke-linejoin: miter; stroke-linecap: square"/>
   </g>
   <g id="patch_71">
    <path d="M 573.882353 43.2 
L 902.117647 43.2 
" style="fill: none; stroke: #000000; stroke-width: 0.8; stroke-linejoin: miter; stroke-linecap: square"/>
   </g>
  </g>
  <g id="axes_3">
   <g id="patch_72">
    <path d="M 967.764706 315 
L 1296 315 
L 1296 43.2 
L 967.764706 43.2 
z
" style="fill: #ffffff"/>
   </g>
   <g id="patch_73">
    <path d="M 967.764706 314.094 
L 1135.684306 314.094 
L 1135.684306 306.846 
L 967.764706 306.846 
z
" clip-path="url(#p8ae1e10675)" style="fill: #800080"/>
   </g>
   <g id="patch_74">
    <path d="M 967.764706 305.034 
L 1137.796502 305.034 
L 1137.796502 297.786 
L 967.764706 297.786 
z
" clip-path="url(#p8ae1e10675)" style="fill: #800080"/>
   </g>
   <g id="patch_75">
    <path d="M 967.764706 295.974 
L 1137.796502 295.974 
L 1137.796502 288.726 
L 967.764706 288.726 
z
" clip-path="url(#p8ae1e10675)" style="fill: #800080"/>
   </g>
   <g id="patch_76">
    <path d="M 967.764706 286.914 
L 1147.301385 286.914 
L 1147.301385 279.666 
L 967.764706 279.666 
z
" clip-path="url(#p8ae1e10675)" style="fill: #800080"/>
   </g>
   <g id="patch_77">
    <path d="M 967.764706 277.854 
L 1137.796502 277.854 
L 1137.796502 270.606 
L 967.764706 270.606 
z
" clip-path="url(#p8ae1e10675)" style="fill: #800080"/>
   </g>
   <g id="patch_78">
    <path d="M 967.764706 268.794 
L 1148.357484 268.794 
L 1148.357484 261.546 
L 967.764706 261.546 
z
" clip-path="url(#p8ae1e10675)" style="fill: #800080"/>
   </g>
   <g id="patch_79">
    <path d="M 967.764706 259.734 
L 1140.964797 259.734 
L 1140.964797 252.486 
L 967.764706 252.486 
z
" clip-path="url(#p8ae1e10675)" style="fill: #800080"/>
   </g>
   <g id="patch_80">
    <path d="M 967.764706 250.674 
L 1156.806268 250.674 
L 1156.806268 243.426 
L 967.764706 243.426 
z
" clip-path="url(#p8ae1e10675)" style="fill: #800080"/>
   </g>
   <g id="patch_81">
    <path d="M 967.764706 241.614 
L 1150.46968 241.614 
L 1150.46968 234.366 
L 967.764706 234.366 
z
" clip-path="url(#p8ae1e10675)" style="fill: #800080"/>
   </g>
   <g id="patch_82">
    <path d="M 967.764706 232.554 
L 1161.030661 232.554 
L 1161.030661 225.306 
L 967.764706 225.306 
z
" clip-path="url(#p8ae1e10675)" style="fill: #800080"/>
   </g>
   <g id="patch_83">
    <path d="M 967.764706 223.494 
L 1157.862367 223.494 
L 1157.862367 216.246 
L 967.764706 216.246 
z
" clip-path="url(#p8ae1e10675)" style="fill: #800080"/>
   </g>
   <g id="patch_84">
    <path d="M 967.764706 214.434 
L 1173.703838 214.434 
L 1173.703838 207.186 
L 967.764706 207.186 
z
" clip-path="url(#p8ae1e10675)" style="fill: #800080"/>
   </g>
   <g id="patch_85">
    <path d="M 967.764706 205.374 
L 1164.198955 205.374 
L 1164.198955 198.126 
L 967.764706 198.126 
z
" clip-path="url(#p8ae1e10675)" style="fill: #800080"/>
   </g>
   <g id="patch_86">
    <path d="M 967.764706 196.314 
L 1154.694072 196.314 
L 1154.694072 189.066 
L 967.764706 189.066 
z
" clip-path="url(#p8ae1e10675)" style="fill: #800080"/>
   </g>
   <g id="patch_87">
    <path d="M 967.764706 187.254 
L 1144.133091 187.254 
L 1144.133091 180.006 
L 967.764706 180.006 
z
" clip-path="url(#p8ae1e10675)" style="fill: #800080"/>
   </g>
   <g id="patch_88">
    <path d="M 967.764706 178.194 
L 1222.284352 178.194 
L 1222.284352 170.946 
L 967.764706 170.946 
z
" clip-path="url(#p8ae1e10675)" style="fill: #800080"/>
   </g>
   <g id="patch_89">
    <path d="M 967.764706 169.134 
L 1162.086759 169.134 
L 1162.086759 161.886 
L 967.764706 161.886 
z
" clip-path="url(#p8ae1e10675)" style="fill: #800080"/>
   </g>
   <g id="patch_90">
    <path d="M 967.764706 160.074 
L 1154.694072 160.074 
L 1154.694072 152.826 
L 967.764706 152.826 
z
" clip-path="url(#p8ae1e10675)" style="fill: #800080"/>
   </g>
   <g id="patch_91">
    <path d="M 967.764706 151.014 
L 1255.023393 151.014 
L 1255.023393 143.766 
L 967.764706 143.766 
z
" clip-path="url(#p8ae1e10675)" style="fill: #800080"/>
   </g>
   <g id="patch_92">
    <path d="M 967.764706 141.954 
L 1227.564842 141.954 
L 1227.564842 134.706 
L 967.764706 134.706 
z
" clip-path="url(#p8ae1e10675)" style="fill: #800080"/>
   </g>
   <g id="patch_93">
    <path d="M 967.764706 132.894 
L 1176.872133 132.894 
L 1176.872133 125.646 
L 967.764706 125.646 
z
" clip-path="url(#p8ae1e10675)" style="fill: #800080"/>
   </g>
   <g id="patch_94">
    <path d="M 967.764706 123.834 
L 1195.881899 123.834 
L 1195.881899 116.586 
L 967.764706 116.586 
z
" clip-path="url(#p8ae1e10675)" style="fill: #800080"/>
   </g>
   <g id="patch_95">
    <path d="M 967.764706 114.774 
L 1178.984329 114.774 
L 1178.984329 107.526 
L 967.764706 107.526 
z
" clip-path="url(#p8ae1e10675)" style="fill: #800080"/>
   </g>
   <g id="patch_96">
    <path d="M 967.764706 105.714 
L 1263.472178 105.714 
L 1263.472178 98.466 
L 967.764706 98.466 
z
" clip-path="url(#p8ae1e10675)" style="fill: #800080"/>
   </g>
   <g id="patch_97">
    <path d="M 967.764706 96.654 
L 1280.369748 96.654 
L 1280.369748 89.406 
L 967.764706 89.406 
z
" clip-path="url(#p8ae1e10675)" style="fill: #800080"/>
   </g>
   <g id="patch_98">
    <path d="M 967.764706 87.594 
L 1212.779469 87.594 
L 1212.779469 80.346 
L 967.764706 80.346 
z
" clip-path="url(#p8ae1e10675)" style="fill: #800080"/>
   </g>
   <g id="patch_99">
    <path d="M 967.764706 78.534 
L 1201.162389 78.534 
L 1201.162389 71.286 
L 967.764706 71.286 
z
" clip-path="url(#p8ae1e10675)" style="fill: #800080"/>
   </g>
   <g id="patch_100">
    <path d="M 967.764706 69.474 
L 1203.274586 69.474 
L 1203.274586 62.226 
L 967.764706 62.226 
z
" clip-path="url(#p8ae1e10675)" style="fill: #800080"/>
   </g>
   <g id="patch_101">
    <path d="M 967.764706 60.414 
L 1229.677038 60.414 
L 1229.677038 53.166 
L 967.764706 53.166 
z
" clip-path="url(#p8ae1e10675)" style="fill: #800080"/>
   </g>
   <g id="patch_102">
    <path d="M 967.764706 51.354 
L 1156.806268 51.354 
L 1156.806268 44.106 
L 967.764706 44.106 
z
" clip-path="url(#p8ae1e10675)" style="fill: #800080"/>
   </g>
   <g id="matplotlib.axis_5">
    <g id="xtick_15">
     <g id="line2d_27">
      <g>
       <use xlink:href="#m9afb150dba" x="967.764706" y="315" style="stroke: #000000; stroke-width: 0.8"/>
      </g>
     </g>
     <g id="text_27">
      <!-- 0 -->
      <g transform="translate(964.583456 329.598437)scale(0.1 -0.1)">
       <use xlink:href="#DejaVuSans-30"/>
      </g>
     </g>
    </g>
    <g id="xtick_16">
     <g id="line2d_28">
      <g>
       <use xlink:href="#m9afb150dba" x="1020.569612" y="315" style="stroke: #000000; stroke-width: 0.8"/>
      </g>
     </g>
     <g id="text_28">
      <!-- 50 -->
      <g transform="translate(1014.207112 329.598437)scale(0.1 -0.1)">
       <use xlink:href="#DejaVuSans-35"/>
       <use xlink:href="#DejaVuSans-30" x="63.623047"/>
      </g>
     </g>
    </g>
    <g id="xtick_17">
     <g id="line2d_29">
      <g>
       <use xlink:href="#m9afb150dba" x="1073.374517" y="315" style="stroke: #000000; stroke-width: 0.8"/>
      </g>
     </g>
     <g id="text_29">
      <!-- 100 -->
      <g transform="translate(1063.830767 329.598437)scale(0.1 -0.1)">
       <use xlink:href="#DejaVuSans-31"/>
       <use xlink:href="#DejaVuSans-30" x="63.623047"/>
       <use xlink:href="#DejaVuSans-30" x="127.246094"/>
      </g>
     </g>
    </g>
    <g id="xtick_18">
     <g id="line2d_30">
      <g>
       <use xlink:href="#m9afb150dba" x="1126.179423" y="315" style="stroke: #000000; stroke-width: 0.8"/>
      </g>
     </g>
     <g id="text_30">
      <!-- 150 -->
      <g transform="translate(1116.635673 329.598437)scale(0.1 -0.1)">
       <use xlink:href="#DejaVuSans-31"/>
       <use xlink:href="#DejaVuSans-35" x="63.623047"/>
       <use xlink:href="#DejaVuSans-30" x="127.246094"/>
      </g>
     </g>
    </g>
    <g id="xtick_19">
     <g id="line2d_31">
      <g>
       <use xlink:href="#m9afb150dba" x="1178.984329" y="315" style="stroke: #000000; stroke-width: 0.8"/>
      </g>
     </g>
     <g id="text_31">
      <!-- 200 -->
      <g transform="translate(1169.440579 329.598437)scale(0.1 -0.1)">
       <use xlink:href="#DejaVuSans-32"/>
       <use xlink:href="#DejaVuSans-30" x="63.623047"/>
       <use xlink:href="#DejaVuSans-30" x="127.246094"/>
      </g>
     </g>
    </g>
    <g id="xtick_20">
     <g id="line2d_32">
      <g>
       <use xlink:href="#m9afb150dba" x="1231.789235" y="315" style="stroke: #000000; stroke-width: 0.8"/>
      </g>
     </g>
     <g id="text_32">
      <!-- 250 -->
      <g transform="translate(1222.245485 329.598437)scale(0.1 -0.1)">
       <use xlink:href="#DejaVuSans-32"/>
       <use xlink:href="#DejaVuSans-35" x="63.623047"/>
       <use xlink:href="#DejaVuSans-30" x="127.246094"/>
      </g>
     </g>
    </g>
    <g id="xtick_21">
     <g id="line2d_33">
      <g>
       <use xlink:href="#m9afb150dba" x="1284.59414" y="315" style="stroke: #000000; stroke-width: 0.8"/>
      </g>
     </g>
     <g id="text_33">
      <!-- 300 -->
      <g transform="translate(1275.05039 329.598437)scale(0.1 -0.1)">
       <use xlink:href="#DejaVuSans-33"/>
       <use xlink:href="#DejaVuSans-30" x="63.623047"/>
       <use xlink:href="#DejaVuSans-30" x="127.246094"/>
      </g>
     </g>
    </g>
   </g>
   <g id="matplotlib.axis_6">
    <g id="ytick_13">
     <g id="line2d_34">
      <g>
       <use xlink:href="#me74f56b2ef" x="967.764706" y="274.23" style="stroke: #000000; stroke-width: 0.8"/>
      </g>
     </g>
     <g id="text_34">
      <!-- 5 -->
      <g transform="translate(954.402206 278.029219)scale(0.1 -0.1)">
       <use xlink:href="#DejaVuSans-35"/>
      </g>
     </g>
    </g>
    <g id="ytick_14">
     <g id="line2d_35">
      <g>
       <use xlink:href="#me74f56b2ef" x="967.764706" y="228.93" style="stroke: #000000; stroke-width: 0.8"/>
      </g>
     </g>
     <g id="text_35">
      <!-- 10 -->
      <g transform="translate(948.039706 232.729219)scale(0.1 -0.1)">
       <use xlink:href="#DejaVuSans-31"/>
       <use xlink:href="#DejaVuSans-30" x="63.623047"/>
      </g>
     </g>
    </g>
    <g id="ytick_15">
     <g id="line2d_36">
      <g>
       <use xlink:href="#me74f56b2ef" x="967.764706" y="183.63" style="stroke: #000000; stroke-width: 0.8"/>
      </g>
     </g>
     <g id="text_36">
      <!-- 15 -->
      <g transform="translate(948.039706 187.429219)scale(0.1 -0.1)">
       <use xlink:href="#DejaVuSans-31"/>
       <use xlink:href="#DejaVuSans-35" x="63.623047"/>
      </g>
     </g>
    </g>
    <g id="ytick_16">
     <g id="line2d_37">
      <g>
       <use xlink:href="#me74f56b2ef" x="967.764706" y="138.33" style="stroke: #000000; stroke-width: 0.8"/>
      </g>
     </g>
     <g id="text_37">
      <!-- 20 -->
      <g transform="translate(948.039706 142.129219)scale(0.1 -0.1)">
       <use xlink:href="#DejaVuSans-32"/>
       <use xlink:href="#DejaVuSans-30" x="63.623047"/>
      </g>
     </g>
    </g>
    <g id="ytick_17">
     <g id="line2d_38">
      <g>
       <use xlink:href="#me74f56b2ef" x="967.764706" y="93.03" style="stroke: #000000; stroke-width: 0.8"/>
      </g>
     </g>
     <g id="text_38">
      <!-- 25 -->
      <g transform="translate(948.039706 96.829219)scale(0.1 -0.1)">
       <use xlink:href="#DejaVuSans-32"/>
       <use xlink:href="#DejaVuSans-35" x="63.623047"/>
      </g>
     </g>
    </g>
    <g id="ytick_18">
     <g id="line2d_39">
      <g>
       <use xlink:href="#me74f56b2ef" x="967.764706" y="47.73" style="stroke: #000000; stroke-width: 0.8"/>
      </g>
     </g>
     <g id="text_39">
      <!-- 30 -->
      <g transform="translate(948.039706 51.529219)scale(0.1 -0.1)">
       <use xlink:href="#DejaVuSans-33"/>
       <use xlink:href="#DejaVuSans-30" x="63.623047"/>
      </g>
     </g>
    </g>
   </g>
   <g id="patch_103">
    <path d="M 967.764706 315 
L 967.764706 43.2 
" style="fill: none; stroke: #000000; stroke-width: 0.8; stroke-linejoin: miter; stroke-linecap: square"/>
   </g>
   <g id="patch_104">
    <path d="M 1296 315 
L 1296 43.2 
" style="fill: none; stroke: #000000; stroke-width: 0.8; stroke-linejoin: miter; stroke-linecap: square"/>
   </g>
   <g id="patch_105">
    <path d="M 967.764706 315 
L 1296 315 
" style="fill: none; stroke: #000000; stroke-width: 0.8; stroke-linejoin: miter; stroke-linecap: square"/>
   </g>
   <g id="patch_106">
    <path d="M 967.764706 43.2 
L 1296 43.2 
" style="fill: none; stroke: #000000; stroke-width: 0.8; stroke-linejoin: miter; stroke-linecap: square"/>
   </g>
  </g>
  <g id="text_40">
   <!-- nProc - 30   nTask - 210 -->
   <g transform="translate(649.86375 16.318125)scale(0.12 -0.12)">
    <defs>
     <path id="DejaVuSans-6e" d="M 3513 2113 
L 3513 0 
L 2938 0 
L 2938 2094 
Q 2938 2591 2744 2837 
Q 2550 3084 2163 3084 
Q 1697 3084 1428 2787 
Q 1159 2491 1159 1978 
L 1159 0 
L 581 0 
L 581 3500 
L 1159 3500 
L 1159 2956 
Q 1366 3272 1645 3428 
Q 1925 3584 2291 3584 
Q 2894 3584 3203 3211 
Q 3513 2838 3513 2113 
z
" transform="scale(0.015625)"/>
     <path id="DejaVuSans-50" d="M 1259 4147 
L 1259 2394 
L 2053 2394 
Q 2494 2394 2734 2622 
Q 2975 2850 2975 3272 
Q 2975 3691 2734 3919 
Q 2494 4147 2053 4147 
L 1259 4147 
z
M 628 4666 
L 2053 4666 
Q 2838 4666 3239 4311 
Q 3641 3956 3641 3272 
Q 3641 2581 3239 2228 
Q 2838 1875 2053 1875 
L 1259 1875 
L 1259 0 
L 628 0 
L 628 4666 
z
" transform="scale(0.015625)"/>
     <path id="DejaVuSans-72" d="M 2631 2963 
Q 2534 3019 2420 3045 
Q 2306 3072 2169 3072 
Q 1681 3072 1420 2755 
Q 1159 2438 1159 1844 
L 1159 0 
L 581 0 
L 581 3500 
L 1159 3500 
L 1159 2956 
Q 1341 3275 1631 3429 
Q 1922 3584 2338 3584 
Q 2397 3584 2469 3576 
Q 2541 3569 2628 3553 
L 2631 2963 
z
" transform="scale(0.015625)"/>
     <path id="DejaVuSans-6f" d="M 1959 3097 
Q 1497 3097 1228 2736 
Q 959 2375 959 1747 
Q 959 1119 1226 758 
Q 1494 397 1959 397 
Q 2419 397 2687 759 
Q 2956 1122 2956 1747 
Q 2956 2369 2687 2733 
Q 2419 3097 1959 3097 
z
M 1959 3584 
Q 2709 3584 3137 3096 
Q 3566 2609 3566 1747 
Q 3566 888 3137 398 
Q 2709 -91 1959 -91 
Q 1206 -91 779 398 
Q 353 888 353 1747 
Q 353 2609 779 3096 
Q 1206 3584 1959 3584 
z
" transform="scale(0.015625)"/>
     <path id="DejaVuSans-63" d="M 3122 3366 
L 3122 2828 
Q 2878 2963 2633 3030 
Q 2388 3097 2138 3097 
Q 1578 3097 1268 2742 
Q 959 2388 959 1747 
Q 959 1106 1268 751 
Q 1578 397 2138 397 
Q 2388 397 2633 464 
Q 2878 531 3122 666 
L 3122 134 
Q 2881 22 2623 -34 
Q 2366 -91 2075 -91 
Q 1284 -91 818 406 
Q 353 903 353 1747 
Q 353 2603 823 3093 
Q 1294 3584 2113 3584 
Q 2378 3584 2631 3529 
Q 2884 3475 3122 3366 
z
" transform="scale(0.015625)"/>
     <path id="DejaVuSans-20" transform="scale(0.015625)"/>
     <path id="DejaVuSans-2d" d="M 313 2009 
L 1997 2009 
L 1997 1497 
L 313 1497 
L 313 2009 
z
" transform="scale(0.015625)"/>
     <path id="DejaVuSans-54" d="M -19 4666 
L 3928 4666 
L 3928 4134 
L 2272 4134 
L 2272 0 
L 1638 0 
L 1638 4134 
L -19 4134 
L -19 4666 
z
" transform="scale(0.015625)"/>
     <path id="DejaVuSans-61" d="M 2194 1759 
Q 1497 1759 1228 1600 
Q 959 1441 959 1056 
Q 959 750 1161 570 
Q 1363 391 1709 391 
Q 2188 391 2477 730 
Q 2766 1069 2766 1631 
L 2766 1759 
L 2194 1759 
z
M 3341 1997 
L 3341 0 
L 2766 0 
L 2766 531 
Q 2569 213 2275 61 
Q 1981 -91 1556 -91 
Q 1019 -91 701 211 
Q 384 513 384 1019 
Q 384 1609 779 1909 
Q 1175 2209 1959 2209 
L 2766 2209 
L 2766 2266 
Q 2766 2663 2505 2880 
Q 2244 3097 1772 3097 
Q 1472 3097 1187 3025 
Q 903 2953 641 2809 
L 641 3341 
Q 956 3463 1253 3523 
Q 1550 3584 1831 3584 
Q 2591 3584 2966 3190 
Q 3341 2797 3341 1997 
z
" transform="scale(0.015625)"/>
     <path id="DejaVuSans-73" d="M 2834 3397 
L 2834 2853 
Q 2591 2978 2328 3040 
Q 2066 3103 1784 3103 
Q 1356 3103 1142 2972 
Q 928 2841 928 2578 
Q 928 2378 1081 2264 
Q 1234 2150 1697 2047 
L 1894 2003 
Q 2506 1872 2764 1633 
Q 3022 1394 3022 966 
Q 3022 478 2636 193 
Q 2250 -91 1575 -91 
Q 1294 -91 989 -36 
Q 684 19 347 128 
L 347 722 
Q 666 556 975 473 
Q 1284 391 1588 391 
Q 1994 391 2212 530 
Q 2431 669 2431 922 
Q 2431 1156 2273 1281 
Q 2116 1406 1581 1522 
L 1381 1569 
Q 847 1681 609 1914 
Q 372 2147 372 2553 
Q 372 3047 722 3315 
Q 1072 3584 1716 3584 
Q 2034 3584 2315 3537 
Q 2597 3491 2834 3397 
z
" transform="scale(0.015625)"/>
     <path id="DejaVuSans-6b" d="M 581 4863 
L 1159 4863 
L 1159 1991 
L 2875 3500 
L 3609 3500 
L 1753 1863 
L 3688 0 
L 2938 0 
L 1159 1709 
L 1159 0 
L 581 0 
L 581 4863 
z
" transform="scale(0.015625)"/>
    </defs>
    <use xlink:href="#DejaVuSans-6e"/>
    <use xlink:href="#DejaVuSans-50" x="63.378906"/>
    <use xlink:href="#DejaVuSans-72" x="121.931641"/>
    <use xlink:href="#DejaVuSans-6f" x="160.794922"/>
    <use xlink:href="#DejaVuSans-63" x="221.976562"/>
    <use xlink:href="#DejaVuSans-20" x="276.957031"/>
    <use xlink:href="#DejaVuSans-2d" x="308.744141"/>
    <use xlink:href="#DejaVuSans-20" x="344.828125"/>
    <use xlink:href="#DejaVuSans-33" x="376.615234"/>
    <use xlink:href="#DejaVuSans-30" x="440.238281"/>
    <use xlink:href="#DejaVuSans-20" x="503.861328"/>
    <use xlink:href="#DejaVuSans-20" x="535.648438"/>
    <use xlink:href="#DejaVuSans-20" x="567.435547"/>
    <use xlink:href="#DejaVuSans-6e" x="599.222656"/>
    <use xlink:href="#DejaVuSans-54" x="662.601562"/>
    <use xlink:href="#DejaVuSans-61" x="707.185547"/>
    <use xlink:href="#DejaVuSans-73" x="768.464844"/>
    <use xlink:href="#DejaVuSans-6b" x="820.564453"/>
    <use xlink:href="#DejaVuSans-20" x="878.474609"/>
    <use xlink:href="#DejaVuSans-2d" x="910.261719"/>
    <use xlink:href="#DejaVuSans-20" x="946.345703"/>
    <use xlink:href="#DejaVuSans-32" x="978.132812"/>
    <use xlink:href="#DejaVuSans-31" x="1041.755859"/>
    <use xlink:href="#DejaVuSans-30" x="1105.378906"/>
   </g>
  </g>
 </g>
 <defs>
  <clipPath id="pfc3ac23a76">
   <rect x="180" y="43.2" width="328.235294" height="271.8"/>
  </clipPath>
  <clipPath id="p3eadffe3fd">
   <rect x="573.882353" y="43.2" width="328.235294" height="271.8"/>
  </clipPath>
  <clipPath id="p8ae1e10675">
   <rect x="967.764706" y="43.2" width="328.235294" height="271.8"/>
  </clipPath>
 </defs>
</svg>
