<?xml version="1.0" encoding="utf-8" standalone="no"?>
<!DOCTYPE svg PUBLIC "-//W3C//DTD SVG 1.1//EN"
  "http://www.w3.org/Graphics/SVG/1.1/DTD/svg11.dtd">
<svg xmlns:xlink="http://www.w3.org/1999/xlink" width="1440pt" height="360pt" viewBox="0 0 1440 360" xmlns="http://www.w3.org/2000/svg" version="1.1">
 <metadata>
  <rdf:RDF xmlns:dc="http://purl.org/dc/elements/1.1/" xmlns:cc="http://creativecommons.org/ns#" xmlns:rdf="http://www.w3.org/1999/02/22-rdf-syntax-ns#">
   <cc:Work>
    <dc:type rdf:resource="http://purl.org/dc/dcmitype/StillImage"/>
    <dc:date>2021-12-18T01:23:32.804121</dc:date>
    <dc:format>image/svg+xml</dc:format>
    <dc:creator>
     <cc:Agent>
      <dc:title>Matplotlib v3.5.0, https://matplotlib.org/</dc:title>
     </cc:Agent>
    </dc:creator>
   </cc:Work>
  </rdf:RDF>
 </metadata>
 <defs>
  <style type="text/css">*{stroke-linejoin: round; stroke-linecap: butt}</style>
 </defs>
 <g id="figure_1">
  <g id="patch_1">
   <path d="M 0 360 
L 1440 360 
L 1440 0 
L 0 0 
L 0 360 
z
" style="fill: none"/>
  </g>
  <g id="axes_1">
   <g id="patch_2">
    <path d="M 180 315 
L 508.235294 315 
L 508.235294 43.2 
L 180 43.2 
z
" style="fill: #ffffff"/>
   </g>
   <g id="patch_3">
    <path d="M 180 314.611714 
L 492.605042 314.611714 
L 492.605042 311.505429 
L 180 311.505429 
z
" clip-path="url(#p5c77b25007)" style="fill: #0000ff"/>
   </g>
   <g id="patch_4">
    <path d="M 180 310.728857 
L 492.605042 310.728857 
L 492.605042 307.622571 
L 180 307.622571 
z
" clip-path="url(#p5c77b25007)" style="fill: #0000ff"/>
   </g>
   <g id="patch_5">
    <path d="M 180 306.846 
L 492.605042 306.846 
L 492.605042 303.739714 
L 180 303.739714 
z
" clip-path="url(#p5c77b25007)" style="fill: #0000ff"/>
   </g>
   <g id="patch_6">
    <path d="M 180 302.963143 
L 492.605042 302.963143 
L 492.605042 299.856857 
L 180 299.856857 
z
" clip-path="url(#p5c77b25007)" style="fill: #0000ff"/>
   </g>
   <g id="patch_7">
    <path d="M 180 299.080286 
L 492.605042 299.080286 
L 492.605042 295.974 
L 180 295.974 
z
" clip-path="url(#p5c77b25007)" style="fill: #0000ff"/>
   </g>
   <g id="patch_8">
    <path d="M 180 295.197429 
L 492.605042 295.197429 
L 492.605042 292.091143 
L 180 292.091143 
z
" clip-path="url(#p5c77b25007)" style="fill: #0000ff"/>
   </g>
   <g id="patch_9">
    <path d="M 180 291.314571 
L 492.605042 291.314571 
L 492.605042 288.208286 
L 180 288.208286 
z
" clip-path="url(#p5c77b25007)" style="fill: #0000ff"/>
   </g>
   <g id="patch_10">
    <path d="M 180 287.431714 
L 492.605042 287.431714 
L 492.605042 284.325429 
L 180 284.325429 
z
" clip-path="url(#p5c77b25007)" style="fill: #0000ff"/>
   </g>
   <g id="patch_11">
    <path d="M 180 283.548857 
L 492.605042 283.548857 
L 492.605042 280.442571 
L 180 280.442571 
z
" clip-path="url(#p5c77b25007)" style="fill: #0000ff"/>
   </g>
   <g id="patch_12">
    <path d="M 180 279.666 
L 492.605042 279.666 
L 492.605042 276.559714 
L 180 276.559714 
z
" clip-path="url(#p5c77b25007)" style="fill: #0000ff"/>
   </g>
   <g id="patch_13">
    <path d="M 180 275.783143 
L 492.605042 275.783143 
L 492.605042 272.676857 
L 180 272.676857 
z
" clip-path="url(#p5c77b25007)" style="fill: #0000ff"/>
   </g>
   <g id="patch_14">
    <path d="M 180 271.900286 
L 492.605042 271.900286 
L 492.605042 268.794 
L 180 268.794 
z
" clip-path="url(#p5c77b25007)" style="fill: #0000ff"/>
   </g>
   <g id="patch_15">
    <path d="M 180 268.017429 
L 492.605042 268.017429 
L 492.605042 264.911143 
L 180 264.911143 
z
" clip-path="url(#p5c77b25007)" style="fill: #0000ff"/>
   </g>
   <g id="patch_16">
    <path d="M 180 264.134571 
L 492.605042 264.134571 
L 492.605042 261.028286 
L 180 261.028286 
z
" clip-path="url(#p5c77b25007)" style="fill: #0000ff"/>
   </g>
   <g id="patch_17">
    <path d="M 180 260.251714 
L 492.605042 260.251714 
L 492.605042 257.145429 
L 180 257.145429 
z
" clip-path="url(#p5c77b25007)" style="fill: #0000ff"/>
   </g>
   <g id="patch_18">
    <path d="M 180 256.368857 
L 492.605042 256.368857 
L 492.605042 253.262571 
L 180 253.262571 
z
" clip-path="url(#p5c77b25007)" style="fill: #0000ff"/>
   </g>
   <g id="patch_19">
    <path d="M 180 252.486 
L 492.605042 252.486 
L 492.605042 249.379714 
L 180 249.379714 
z
" clip-path="url(#p5c77b25007)" style="fill: #0000ff"/>
   </g>
   <g id="patch_20">
    <path d="M 180 248.603143 
L 492.605042 248.603143 
L 492.605042 245.496857 
L 180 245.496857 
z
" clip-path="url(#p5c77b25007)" style="fill: #0000ff"/>
   </g>
   <g id="patch_21">
    <path d="M 180 244.720286 
L 492.605042 244.720286 
L 492.605042 241.614 
L 180 241.614 
z
" clip-path="url(#p5c77b25007)" style="fill: #0000ff"/>
   </g>
   <g id="patch_22">
    <path d="M 180 240.837429 
L 492.605042 240.837429 
L 492.605042 237.731143 
L 180 237.731143 
z
" clip-path="url(#p5c77b25007)" style="fill: #0000ff"/>
   </g>
   <g id="patch_23">
    <path d="M 180 236.954571 
L 492.605042 236.954571 
L 492.605042 233.848286 
L 180 233.848286 
z
" clip-path="url(#p5c77b25007)" style="fill: #0000ff"/>
   </g>
   <g id="patch_24">
    <path d="M 180 233.071714 
L 492.605042 233.071714 
L 492.605042 229.965429 
L 180 229.965429 
z
" clip-path="url(#p5c77b25007)" style="fill: #0000ff"/>
   </g>
   <g id="patch_25">
    <path d="M 180 229.188857 
L 492.605042 229.188857 
L 492.605042 226.082571 
L 180 226.082571 
z
" clip-path="url(#p5c77b25007)" style="fill: #0000ff"/>
   </g>
   <g id="patch_26">
    <path d="M 180 225.306 
L 492.605042 225.306 
L 492.605042 222.199714 
L 180 222.199714 
z
" clip-path="url(#p5c77b25007)" style="fill: #0000ff"/>
   </g>
   <g id="patch_27">
    <path d="M 180 221.423143 
L 492.605042 221.423143 
L 492.605042 218.316857 
L 180 218.316857 
z
" clip-path="url(#p5c77b25007)" style="fill: #0000ff"/>
   </g>
   <g id="patch_28">
    <path d="M 180 217.540286 
L 492.605042 217.540286 
L 492.605042 214.434 
L 180 214.434 
z
" clip-path="url(#p5c77b25007)" style="fill: #0000ff"/>
   </g>
   <g id="patch_29">
    <path d="M 180 213.657429 
L 492.605042 213.657429 
L 492.605042 210.551143 
L 180 210.551143 
z
" clip-path="url(#p5c77b25007)" style="fill: #0000ff"/>
   </g>
   <g id="patch_30">
    <path d="M 180 209.774571 
L 492.605042 209.774571 
L 492.605042 206.668286 
L 180 206.668286 
z
" clip-path="url(#p5c77b25007)" style="fill: #0000ff"/>
   </g>
   <g id="patch_31">
    <path d="M 180 205.891714 
L 492.605042 205.891714 
L 492.605042 202.785429 
L 180 202.785429 
z
" clip-path="url(#p5c77b25007)" style="fill: #0000ff"/>
   </g>
   <g id="patch_32">
    <path d="M 180 202.008857 
L 492.605042 202.008857 
L 492.605042 198.902571 
L 180 198.902571 
z
" clip-path="url(#p5c77b25007)" style="fill: #0000ff"/>
   </g>
   <g id="patch_33">
    <path d="M 180 198.126 
L 492.605042 198.126 
L 492.605042 195.019714 
L 180 195.019714 
z
" clip-path="url(#p5c77b25007)" style="fill: #0000ff"/>
   </g>
   <g id="patch_34">
    <path d="M 180 194.243143 
L 492.605042 194.243143 
L 492.605042 191.136857 
L 180 191.136857 
z
" clip-path="url(#p5c77b25007)" style="fill: #0000ff"/>
   </g>
   <g id="patch_35">
    <path d="M 180 190.360286 
L 492.605042 190.360286 
L 492.605042 187.254 
L 180 187.254 
z
" clip-path="url(#p5c77b25007)" style="fill: #0000ff"/>
   </g>
   <g id="patch_36">
    <path d="M 180 186.477429 
L 492.605042 186.477429 
L 492.605042 183.371143 
L 180 183.371143 
z
" clip-path="url(#p5c77b25007)" style="fill: #0000ff"/>
   </g>
   <g id="patch_37">
    <path d="M 180 182.594571 
L 492.605042 182.594571 
L 492.605042 179.488286 
L 180 179.488286 
z
" clip-path="url(#p5c77b25007)" style="fill: #0000ff"/>
   </g>
   <g id="patch_38">
    <path d="M 180 178.711714 
L 492.605042 178.711714 
L 492.605042 175.605429 
L 180 175.605429 
z
" clip-path="url(#p5c77b25007)" style="fill: #0000ff"/>
   </g>
   <g id="patch_39">
    <path d="M 180 174.828857 
L 492.605042 174.828857 
L 492.605042 171.722571 
L 180 171.722571 
z
" clip-path="url(#p5c77b25007)" style="fill: #0000ff"/>
   </g>
   <g id="patch_40">
    <path d="M 180 170.946 
L 492.605042 170.946 
L 492.605042 167.839714 
L 180 167.839714 
z
" clip-path="url(#p5c77b25007)" style="fill: #0000ff"/>
   </g>
   <g id="patch_41">
    <path d="M 180 167.063143 
L 492.605042 167.063143 
L 492.605042 163.956857 
L 180 163.956857 
z
" clip-path="url(#p5c77b25007)" style="fill: #0000ff"/>
   </g>
   <g id="patch_42">
    <path d="M 180 163.180286 
L 492.605042 163.180286 
L 492.605042 160.074 
L 180 160.074 
z
" clip-path="url(#p5c77b25007)" style="fill: #0000ff"/>
   </g>
   <g id="patch_43">
    <path d="M 180 159.297429 
L 492.605042 159.297429 
L 492.605042 156.191143 
L 180 156.191143 
z
" clip-path="url(#p5c77b25007)" style="fill: #0000ff"/>
   </g>
   <g id="patch_44">
    <path d="M 180 155.414571 
L 492.605042 155.414571 
L 492.605042 152.308286 
L 180 152.308286 
z
" clip-path="url(#p5c77b25007)" style="fill: #0000ff"/>
   </g>
   <g id="patch_45">
    <path d="M 180 151.531714 
L 492.605042 151.531714 
L 492.605042 148.425429 
L 180 148.425429 
z
" clip-path="url(#p5c77b25007)" style="fill: #0000ff"/>
   </g>
   <g id="patch_46">
    <path d="M 180 147.648857 
L 492.605042 147.648857 
L 492.605042 144.542571 
L 180 144.542571 
z
" clip-path="url(#p5c77b25007)" style="fill: #0000ff"/>
   </g>
   <g id="patch_47">
    <path d="M 180 143.766 
L 492.605042 143.766 
L 492.605042 140.659714 
L 180 140.659714 
z
" clip-path="url(#p5c77b25007)" style="fill: #0000ff"/>
   </g>
   <g id="patch_48">
    <path d="M 180 139.883143 
L 492.605042 139.883143 
L 492.605042 136.776857 
L 180 136.776857 
z
" clip-path="url(#p5c77b25007)" style="fill: #0000ff"/>
   </g>
   <g id="patch_49">
    <path d="M 180 136.000286 
L 492.605042 136.000286 
L 492.605042 132.894 
L 180 132.894 
z
" clip-path="url(#p5c77b25007)" style="fill: #0000ff"/>
   </g>
   <g id="patch_50">
    <path d="M 180 132.117429 
L 492.605042 132.117429 
L 492.605042 129.011143 
L 180 129.011143 
z
" clip-path="url(#p5c77b25007)" style="fill: #0000ff"/>
   </g>
   <g id="patch_51">
    <path d="M 180 128.234571 
L 492.605042 128.234571 
L 492.605042 125.128286 
L 180 125.128286 
z
" clip-path="url(#p5c77b25007)" style="fill: #0000ff"/>
   </g>
   <g id="patch_52">
    <path d="M 180 124.351714 
L 492.605042 124.351714 
L 492.605042 121.245429 
L 180 121.245429 
z
" clip-path="url(#p5c77b25007)" style="fill: #0000ff"/>
   </g>
   <g id="patch_53">
    <path d="M 180 120.468857 
L 492.605042 120.468857 
L 492.605042 117.362571 
L 180 117.362571 
z
" clip-path="url(#p5c77b25007)" style="fill: #0000ff"/>
   </g>
   <g id="patch_54">
    <path d="M 180 116.586 
L 492.605042 116.586 
L 492.605042 113.479714 
L 180 113.479714 
z
" clip-path="url(#p5c77b25007)" style="fill: #0000ff"/>
   </g>
   <g id="patch_55">
    <path d="M 180 112.703143 
L 492.605042 112.703143 
L 492.605042 109.596857 
L 180 109.596857 
z
" clip-path="url(#p5c77b25007)" style="fill: #0000ff"/>
   </g>
   <g id="patch_56">
    <path d="M 180 108.820286 
L 492.605042 108.820286 
L 492.605042 105.714 
L 180 105.714 
z
" clip-path="url(#p5c77b25007)" style="fill: #0000ff"/>
   </g>
   <g id="patch_57">
    <path d="M 180 104.937429 
L 492.605042 104.937429 
L 492.605042 101.831143 
L 180 101.831143 
z
" clip-path="url(#p5c77b25007)" style="fill: #0000ff"/>
   </g>
   <g id="patch_58">
    <path d="M 180 101.054571 
L 492.605042 101.054571 
L 492.605042 97.948286 
L 180 97.948286 
z
" clip-path="url(#p5c77b25007)" style="fill: #0000ff"/>
   </g>
   <g id="patch_59">
    <path d="M 180 97.171714 
L 492.605042 97.171714 
L 492.605042 94.065429 
L 180 94.065429 
z
" clip-path="url(#p5c77b25007)" style="fill: #0000ff"/>
   </g>
   <g id="patch_60">
    <path d="M 180 93.288857 
L 492.605042 93.288857 
L 492.605042 90.182571 
L 180 90.182571 
z
" clip-path="url(#p5c77b25007)" style="fill: #0000ff"/>
   </g>
   <g id="patch_61">
    <path d="M 180 89.406 
L 492.605042 89.406 
L 492.605042 86.299714 
L 180 86.299714 
z
" clip-path="url(#p5c77b25007)" style="fill: #0000ff"/>
   </g>
   <g id="patch_62">
    <path d="M 180 85.523143 
L 492.605042 85.523143 
L 492.605042 82.416857 
L 180 82.416857 
z
" clip-path="url(#p5c77b25007)" style="fill: #0000ff"/>
   </g>
   <g id="patch_63">
    <path d="M 180 81.640286 
L 492.605042 81.640286 
L 492.605042 78.534 
L 180 78.534 
z
" clip-path="url(#p5c77b25007)" style="fill: #0000ff"/>
   </g>
   <g id="patch_64">
    <path d="M 180 77.757429 
L 492.605042 77.757429 
L 492.605042 74.651143 
L 180 74.651143 
z
" clip-path="url(#p5c77b25007)" style="fill: #0000ff"/>
   </g>
   <g id="patch_65">
    <path d="M 180 73.874571 
L 492.605042 73.874571 
L 492.605042 70.768286 
L 180 70.768286 
z
" clip-path="url(#p5c77b25007)" style="fill: #0000ff"/>
   </g>
   <g id="patch_66">
    <path d="M 180 69.991714 
L 492.605042 69.991714 
L 492.605042 66.885429 
L 180 66.885429 
z
" clip-path="url(#p5c77b25007)" style="fill: #0000ff"/>
   </g>
   <g id="patch_67">
    <path d="M 180 66.108857 
L 492.605042 66.108857 
L 492.605042 63.002571 
L 180 63.002571 
z
" clip-path="url(#p5c77b25007)" style="fill: #0000ff"/>
   </g>
   <g id="patch_68">
    <path d="M 180 62.226 
L 492.605042 62.226 
L 492.605042 59.119714 
L 180 59.119714 
z
" clip-path="url(#p5c77b25007)" style="fill: #0000ff"/>
   </g>
   <g id="patch_69">
    <path d="M 180 58.343143 
L 492.605042 58.343143 
L 492.605042 55.236857 
L 180 55.236857 
z
" clip-path="url(#p5c77b25007)" style="fill: #0000ff"/>
   </g>
   <g id="patch_70">
    <path d="M 180 54.460286 
L 492.605042 54.460286 
L 492.605042 51.354 
L 180 51.354 
z
" clip-path="url(#p5c77b25007)" style="fill: #0000ff"/>
   </g>
   <g id="patch_71">
    <path d="M 180 50.577429 
L 492.605042 50.577429 
L 492.605042 47.471143 
L 180 47.471143 
z
" clip-path="url(#p5c77b25007)" style="fill: #0000ff"/>
   </g>
   <g id="patch_72">
    <path d="M 180 46.694571 
L 492.605042 46.694571 
L 492.605042 43.588286 
L 180 43.588286 
z
" clip-path="url(#p5c77b25007)" style="fill: #0000ff"/>
   </g>
   <g id="matplotlib.axis_1">
    <g id="xtick_1">
     <g id="line2d_1">
      <defs>
       <path id="ma1b8e5e452" d="M 0 0 
L 0 3.5 
" style="stroke: #000000; stroke-width: 0.8"/>
      </defs>
      <g>
       <use xlink:href="#ma1b8e5e452" x="180" y="315" style="stroke: #000000; stroke-width: 0.8"/>
      </g>
     </g>
     <g id="text_1">
      <!-- 0 -->
      <g transform="translate(176.81875 329.598437)scale(0.1 -0.1)">
       <defs>
        <path id="DejaVuSans-30" d="M 2034 4250 
Q 1547 4250 1301 3770 
Q 1056 3291 1056 2328 
Q 1056 1369 1301 889 
Q 1547 409 2034 409 
Q 2525 409 2770 889 
Q 3016 1369 3016 2328 
Q 3016 3291 2770 3770 
Q 2525 4250 2034 4250 
z
M 2034 4750 
Q 2819 4750 3233 4129 
Q 3647 3509 3647 2328 
Q 3647 1150 3233 529 
Q 2819 -91 2034 -91 
Q 1250 -91 836 529 
Q 422 1150 422 2328 
Q 422 3509 836 4129 
Q 1250 4750 2034 4750 
z
" transform="scale(0.015625)"/>
       </defs>
       <use xlink:href="#DejaVuSans-30"/>
      </g>
     </g>
    </g>
    <g id="xtick_2">
     <g id="line2d_2">
      <g>
       <use xlink:href="#ma1b8e5e452" x="242.521008" y="315" style="stroke: #000000; stroke-width: 0.8"/>
      </g>
     </g>
     <g id="text_2">
      <!-- 100 -->
      <g transform="translate(232.977258 329.598437)scale(0.1 -0.1)">
       <defs>
        <path id="DejaVuSans-31" d="M 794 531 
L 1825 531 
L 1825 4091 
L 703 3866 
L 703 4441 
L 1819 4666 
L 2450 4666 
L 2450 531 
L 3481 531 
L 3481 0 
L 794 0 
L 794 531 
z
" transform="scale(0.015625)"/>
       </defs>
       <use xlink:href="#DejaVuSans-31"/>
       <use xlink:href="#DejaVuSans-30" x="63.623047"/>
       <use xlink:href="#DejaVuSans-30" x="127.246094"/>
      </g>
     </g>
    </g>
    <g id="xtick_3">
     <g id="line2d_3">
      <g>
       <use xlink:href="#ma1b8e5e452" x="305.042017" y="315" style="stroke: #000000; stroke-width: 0.8"/>
      </g>
     </g>
     <g id="text_3">
      <!-- 200 -->
      <g transform="translate(295.498267 329.598437)scale(0.1 -0.1)">
       <defs>
        <path id="DejaVuSans-32" d="M 1228 531 
L 3431 531 
L 3431 0 
L 469 0 
L 469 531 
Q 828 903 1448 1529 
Q 2069 2156 2228 2338 
Q 2531 2678 2651 2914 
Q 2772 3150 2772 3378 
Q 2772 3750 2511 3984 
Q 2250 4219 1831 4219 
Q 1534 4219 1204 4116 
Q 875 4013 500 3803 
L 500 4441 
Q 881 4594 1212 4672 
Q 1544 4750 1819 4750 
Q 2544 4750 2975 4387 
Q 3406 4025 3406 3419 
Q 3406 3131 3298 2873 
Q 3191 2616 2906 2266 
Q 2828 2175 2409 1742 
Q 1991 1309 1228 531 
z
" transform="scale(0.015625)"/>
       </defs>
       <use xlink:href="#DejaVuSans-32"/>
       <use xlink:href="#DejaVuSans-30" x="63.623047"/>
       <use xlink:href="#DejaVuSans-30" x="127.246094"/>
      </g>
     </g>
    </g>
    <g id="xtick_4">
     <g id="line2d_4">
      <g>
       <use xlink:href="#ma1b8e5e452" x="367.563025" y="315" style="stroke: #000000; stroke-width: 0.8"/>
      </g>
     </g>
     <g id="text_4">
      <!-- 300 -->
      <g transform="translate(358.019275 329.598437)scale(0.1 -0.1)">
       <defs>
        <path id="DejaVuSans-33" d="M 2597 2516 
Q 3050 2419 3304 2112 
Q 3559 1806 3559 1356 
Q 3559 666 3084 287 
Q 2609 -91 1734 -91 
Q 1441 -91 1130 -33 
Q 819 25 488 141 
L 488 750 
Q 750 597 1062 519 
Q 1375 441 1716 441 
Q 2309 441 2620 675 
Q 2931 909 2931 1356 
Q 2931 1769 2642 2001 
Q 2353 2234 1838 2234 
L 1294 2234 
L 1294 2753 
L 1863 2753 
Q 2328 2753 2575 2939 
Q 2822 3125 2822 3475 
Q 2822 3834 2567 4026 
Q 2313 4219 1838 4219 
Q 1578 4219 1281 4162 
Q 984 4106 628 3988 
L 628 4550 
Q 988 4650 1302 4700 
Q 1616 4750 1894 4750 
Q 2613 4750 3031 4423 
Q 3450 4097 3450 3541 
Q 3450 3153 3228 2886 
Q 3006 2619 2597 2516 
z
" transform="scale(0.015625)"/>
       </defs>
       <use xlink:href="#DejaVuSans-33"/>
       <use xlink:href="#DejaVuSans-30" x="63.623047"/>
       <use xlink:href="#DejaVuSans-30" x="127.246094"/>
      </g>
     </g>
    </g>
    <g id="xtick_5">
     <g id="line2d_5">
      <g>
       <use xlink:href="#ma1b8e5e452" x="430.084034" y="315" style="stroke: #000000; stroke-width: 0.8"/>
      </g>
     </g>
     <g id="text_5">
      <!-- 400 -->
      <g transform="translate(420.540284 329.598437)scale(0.1 -0.1)">
       <defs>
        <path id="DejaVuSans-34" d="M 2419 4116 
L 825 1625 
L 2419 1625 
L 2419 4116 
z
M 2253 4666 
L 3047 4666 
L 3047 1625 
L 3713 1625 
L 3713 1100 
L 3047 1100 
L 3047 0 
L 2419 0 
L 2419 1100 
L 313 1100 
L 313 1709 
L 2253 4666 
z
" transform="scale(0.015625)"/>
       </defs>
       <use xlink:href="#DejaVuSans-34"/>
       <use xlink:href="#DejaVuSans-30" x="63.623047"/>
       <use xlink:href="#DejaVuSans-30" x="127.246094"/>
      </g>
     </g>
    </g>
    <g id="xtick_6">
     <g id="line2d_6">
      <g>
       <use xlink:href="#ma1b8e5e452" x="492.605042" y="315" style="stroke: #000000; stroke-width: 0.8"/>
      </g>
     </g>
     <g id="text_6">
      <!-- 500 -->
      <g transform="translate(483.061292 329.598437)scale(0.1 -0.1)">
       <defs>
        <path id="DejaVuSans-35" d="M 691 4666 
L 3169 4666 
L 3169 4134 
L 1269 4134 
L 1269 2991 
Q 1406 3038 1543 3061 
Q 1681 3084 1819 3084 
Q 2600 3084 3056 2656 
Q 3513 2228 3513 1497 
Q 3513 744 3044 326 
Q 2575 -91 1722 -91 
Q 1428 -91 1123 -41 
Q 819 9 494 109 
L 494 744 
Q 775 591 1075 516 
Q 1375 441 1709 441 
Q 2250 441 2565 725 
Q 2881 1009 2881 1497 
Q 2881 1984 2565 2268 
Q 2250 2553 1709 2553 
Q 1456 2553 1204 2497 
Q 953 2441 691 2322 
L 691 4666 
z
" transform="scale(0.015625)"/>
       </defs>
       <use xlink:href="#DejaVuSans-35"/>
       <use xlink:href="#DejaVuSans-30" x="63.623047"/>
       <use xlink:href="#DejaVuSans-30" x="127.246094"/>
      </g>
     </g>
    </g>
   </g>
   <g id="matplotlib.axis_2">
    <g id="ytick_1">
     <g id="line2d_7">
      <defs>
       <path id="mefc46e47e8" d="M 0 0 
L -3.5 0 
" style="stroke: #000000; stroke-width: 0.8"/>
      </defs>
      <g>
       <use xlink:href="#mefc46e47e8" x="180" y="278.112857" style="stroke: #000000; stroke-width: 0.8"/>
      </g>
     </g>
     <g id="text_7">
      <!-- 10 -->
      <g transform="translate(160.275 281.912076)scale(0.1 -0.1)">
       <use xlink:href="#DejaVuSans-31"/>
       <use xlink:href="#DejaVuSans-30" x="63.623047"/>
      </g>
     </g>
    </g>
    <g id="ytick_2">
     <g id="line2d_8">
      <g>
       <use xlink:href="#mefc46e47e8" x="180" y="239.284286" style="stroke: #000000; stroke-width: 0.8"/>
      </g>
     </g>
     <g id="text_8">
      <!-- 20 -->
      <g transform="translate(160.275 243.083504)scale(0.1 -0.1)">
       <use xlink:href="#DejaVuSans-32"/>
       <use xlink:href="#DejaVuSans-30" x="63.623047"/>
      </g>
     </g>
    </g>
    <g id="ytick_3">
     <g id="line2d_9">
      <g>
       <use xlink:href="#mefc46e47e8" x="180" y="200.455714" style="stroke: #000000; stroke-width: 0.8"/>
      </g>
     </g>
     <g id="text_9">
      <!-- 30 -->
      <g transform="translate(160.275 204.254933)scale(0.1 -0.1)">
       <use xlink:href="#DejaVuSans-33"/>
       <use xlink:href="#DejaVuSans-30" x="63.623047"/>
      </g>
     </g>
    </g>
    <g id="ytick_4">
     <g id="line2d_10">
      <g>
       <use xlink:href="#mefc46e47e8" x="180" y="161.627143" style="stroke: #000000; stroke-width: 0.8"/>
      </g>
     </g>
     <g id="text_10">
      <!-- 40 -->
      <g transform="translate(160.275 165.426362)scale(0.1 -0.1)">
       <use xlink:href="#DejaVuSans-34"/>
       <use xlink:href="#DejaVuSans-30" x="63.623047"/>
      </g>
     </g>
    </g>
    <g id="ytick_5">
     <g id="line2d_11">
      <g>
       <use xlink:href="#mefc46e47e8" x="180" y="122.798571" style="stroke: #000000; stroke-width: 0.8"/>
      </g>
     </g>
     <g id="text_11">
      <!-- 50 -->
      <g transform="translate(160.275 126.59779)scale(0.1 -0.1)">
       <use xlink:href="#DejaVuSans-35"/>
       <use xlink:href="#DejaVuSans-30" x="63.623047"/>
      </g>
     </g>
    </g>
    <g id="ytick_6">
     <g id="line2d_12">
      <g>
       <use xlink:href="#mefc46e47e8" x="180" y="83.97" style="stroke: #000000; stroke-width: 0.8"/>
      </g>
     </g>
     <g id="text_12">
      <!-- 60 -->
      <g transform="translate(160.275 87.769219)scale(0.1 -0.1)">
       <defs>
        <path id="DejaVuSans-36" d="M 2113 2584 
Q 1688 2584 1439 2293 
Q 1191 2003 1191 1497 
Q 1191 994 1439 701 
Q 1688 409 2113 409 
Q 2538 409 2786 701 
Q 3034 994 3034 1497 
Q 3034 2003 2786 2293 
Q 2538 2584 2113 2584 
z
M 3366 4563 
L 3366 3988 
Q 3128 4100 2886 4159 
Q 2644 4219 2406 4219 
Q 1781 4219 1451 3797 
Q 1122 3375 1075 2522 
Q 1259 2794 1537 2939 
Q 1816 3084 2150 3084 
Q 2853 3084 3261 2657 
Q 3669 2231 3669 1497 
Q 3669 778 3244 343 
Q 2819 -91 2113 -91 
Q 1303 -91 875 529 
Q 447 1150 447 2328 
Q 447 3434 972 4092 
Q 1497 4750 2381 4750 
Q 2619 4750 2861 4703 
Q 3103 4656 3366 4563 
z
" transform="scale(0.015625)"/>
       </defs>
       <use xlink:href="#DejaVuSans-36"/>
       <use xlink:href="#DejaVuSans-30" x="63.623047"/>
      </g>
     </g>
    </g>
    <g id="ytick_7">
     <g id="line2d_13">
      <g>
       <use xlink:href="#mefc46e47e8" x="180" y="45.141429" style="stroke: #000000; stroke-width: 0.8"/>
      </g>
     </g>
     <g id="text_13">
      <!-- 70 -->
      <g transform="translate(160.275 48.940647)scale(0.1 -0.1)">
       <defs>
        <path id="DejaVuSans-37" d="M 525 4666 
L 3525 4666 
L 3525 4397 
L 1831 0 
L 1172 0 
L 2766 4134 
L 525 4134 
L 525 4666 
z
" transform="scale(0.015625)"/>
       </defs>
       <use xlink:href="#DejaVuSans-37"/>
       <use xlink:href="#DejaVuSans-30" x="63.623047"/>
      </g>
     </g>
    </g>
   </g>
   <g id="patch_73">
    <path d="M 180 315 
L 180 43.2 
" style="fill: none; stroke: #000000; stroke-width: 0.8; stroke-linejoin: miter; stroke-linecap: square"/>
   </g>
   <g id="patch_74">
    <path d="M 508.235294 315 
L 508.235294 43.2 
" style="fill: none; stroke: #000000; stroke-width: 0.8; stroke-linejoin: miter; stroke-linecap: square"/>
   </g>
   <g id="patch_75">
    <path d="M 180 315 
L 508.235294 315 
" style="fill: none; stroke: #000000; stroke-width: 0.8; stroke-linejoin: miter; stroke-linecap: square"/>
   </g>
   <g id="patch_76">
    <path d="M 180 43.2 
L 508.235294 43.2 
" style="fill: none; stroke: #000000; stroke-width: 0.8; stroke-linejoin: miter; stroke-linecap: square"/>
   </g>
  </g>
  <g id="axes_2">
   <g id="patch_77">
    <path d="M 573.882353 315 
L 902.117647 315 
L 902.117647 43.2 
L 573.882353 43.2 
z
" style="fill: #ffffff"/>
   </g>
   <g id="patch_78">
    <path d="M 573.882353 314.611714 
L 860.300585 314.611714 
L 860.300585 311.505429 
L 573.882353 311.505429 
z
" clip-path="url(#pdb091752fd)" style="fill: #008000"/>
   </g>
   <g id="patch_79">
    <path d="M 573.882353 310.728857 
L 811.745875 310.728857 
L 811.745875 307.622571 
L 573.882353 307.622571 
z
" clip-path="url(#pdb091752fd)" style="fill: #008000"/>
   </g>
   <g id="patch_80">
    <path d="M 573.882353 306.846 
L 884.305161 306.846 
L 884.305161 303.739714 
L 573.882353 303.739714 
z
" clip-path="url(#pdb091752fd)" style="fill: #008000"/>
   </g>
   <g id="patch_81">
    <path d="M 573.882353 302.963143 
L 818.838136 302.963143 
L 818.838136 299.856857 
L 573.882353 299.856857 
z
" clip-path="url(#pdb091752fd)" style="fill: #008000"/>
   </g>
   <g id="patch_82">
    <path d="M 573.882353 299.080286 
L 822.657046 299.080286 
L 822.657046 295.974 
L 573.882353 295.974 
z
" clip-path="url(#pdb091752fd)" style="fill: #008000"/>
   </g>
   <g id="patch_83">
    <path d="M 573.882353 295.197429 
L 880.486251 295.197429 
L 880.486251 292.091143 
L 573.882353 292.091143 
z
" clip-path="url(#pdb091752fd)" style="fill: #008000"/>
   </g>
   <g id="patch_84">
    <path d="M 573.882353 291.314571 
L 827.021514 291.314571 
L 827.021514 288.208286 
L 573.882353 288.208286 
z
" clip-path="url(#pdb091752fd)" style="fill: #008000"/>
   </g>
   <g id="patch_85">
    <path d="M 573.882353 287.431714 
L 845.024946 287.431714 
L 845.024946 284.325429 
L 573.882353 284.325429 
z
" clip-path="url(#pdb091752fd)" style="fill: #008000"/>
   </g>
   <g id="patch_86">
    <path d="M 573.882353 283.548857 
L 821.02037 283.548857 
L 821.02037 280.442571 
L 573.882353 280.442571 
z
" clip-path="url(#pdb091752fd)" style="fill: #008000"/>
   </g>
   <g id="patch_87">
    <path d="M 573.882353 279.666 
L 818.292578 279.666 
L 818.292578 276.559714 
L 573.882353 276.559714 
z
" clip-path="url(#pdb091752fd)" style="fill: #008000"/>
   </g>
   <g id="patch_88">
    <path d="M 573.882353 275.783143 
L 816.655902 275.783143 
L 816.655902 272.676857 
L 573.882353 272.676857 
z
" clip-path="url(#pdb091752fd)" style="fill: #008000"/>
   </g>
   <g id="patch_89">
    <path d="M 573.882353 271.900286 
L 844.479388 271.900286 
L 844.479388 268.794 
L 573.882353 268.794 
z
" clip-path="url(#pdb091752fd)" style="fill: #008000"/>
   </g>
   <g id="patch_90">
    <path d="M 573.882353 268.017429 
L 880.486251 268.017429 
L 880.486251 264.911143 
L 573.882353 264.911143 
z
" clip-path="url(#pdb091752fd)" style="fill: #008000"/>
   </g>
   <g id="patch_91">
    <path d="M 573.882353 264.134571 
L 845.570505 264.134571 
L 845.570505 261.028286 
L 573.882353 261.028286 
z
" clip-path="url(#pdb091752fd)" style="fill: #008000"/>
   </g>
   <g id="patch_92">
    <path d="M 573.882353 260.251714 
L 871.757314 260.251714 
L 871.757314 257.145429 
L 573.882353 257.145429 
z
" clip-path="url(#pdb091752fd)" style="fill: #008000"/>
   </g>
   <g id="patch_93">
    <path d="M 573.882353 256.368857 
L 866.301729 256.368857 
L 866.301729 253.262571 
L 573.882353 253.262571 
z
" clip-path="url(#pdb091752fd)" style="fill: #008000"/>
   </g>
   <g id="patch_94">
    <path d="M 573.882353 252.486 
L 861.391702 252.486 
L 861.391702 249.379714 
L 573.882353 249.379714 
z
" clip-path="url(#pdb091752fd)" style="fill: #008000"/>
   </g>
   <g id="patch_95">
    <path d="M 573.882353 248.603143 
L 824.293722 248.603143 
L 824.293722 245.496857 
L 573.882353 245.496857 
z
" clip-path="url(#pdb091752fd)" style="fill: #008000"/>
   </g>
   <g id="patch_96">
    <path d="M 573.882353 244.720286 
L 849.934973 244.720286 
L 849.934973 241.614 
L 573.882353 241.614 
z
" clip-path="url(#pdb091752fd)" style="fill: #008000"/>
   </g>
   <g id="patch_97">
    <path d="M 573.882353 240.837429 
L 807.926966 240.837429 
L 807.926966 237.731143 
L 573.882353 237.731143 
z
" clip-path="url(#pdb091752fd)" style="fill: #008000"/>
   </g>
   <g id="patch_98">
    <path d="M 573.882353 236.954571 
L 861.937261 236.954571 
L 861.937261 233.848286 
L 573.882353 233.848286 
z
" clip-path="url(#pdb091752fd)" style="fill: #008000"/>
   </g>
   <g id="patch_99">
    <path d="M 573.882353 233.071714 
L 825.930397 233.071714 
L 825.930397 229.965429 
L 573.882353 229.965429 
z
" clip-path="url(#pdb091752fd)" style="fill: #008000"/>
   </g>
   <g id="patch_100">
    <path d="M 573.882353 229.188857 
L 878.849575 229.188857 
L 878.849575 226.082571 
L 573.882353 226.082571 
z
" clip-path="url(#pdb091752fd)" style="fill: #008000"/>
   </g>
   <g id="patch_101">
    <path d="M 573.882353 225.306 
L 811.200317 225.306 
L 811.200317 222.199714 
L 573.882353 222.199714 
z
" clip-path="url(#pdb091752fd)" style="fill: #008000"/>
   </g>
   <g id="patch_102">
    <path d="M 573.882353 221.423143 
L 828.112631 221.423143 
L 828.112631 218.316857 
L 573.882353 218.316857 
z
" clip-path="url(#pdb091752fd)" style="fill: #008000"/>
   </g>
   <g id="patch_103">
    <path d="M 573.882353 217.540286 
L 824.83928 217.540286 
L 824.83928 214.434 
L 573.882353 214.434 
z
" clip-path="url(#pdb091752fd)" style="fill: #008000"/>
   </g>
   <g id="patch_104">
    <path d="M 573.882353 213.657429 
L 882.668485 213.657429 
L 882.668485 210.551143 
L 573.882353 210.551143 
z
" clip-path="url(#pdb091752fd)" style="fill: #008000"/>
   </g>
   <g id="patch_105">
    <path d="M 573.882353 209.774571 
L 820.474812 209.774571 
L 820.474812 206.668286 
L 573.882353 206.668286 
z
" clip-path="url(#pdb091752fd)" style="fill: #008000"/>
   </g>
   <g id="patch_106">
    <path d="M 573.882353 205.891714 
L 852.662766 205.891714 
L 852.662766 202.785429 
L 573.882353 202.785429 
z
" clip-path="url(#pdb091752fd)" style="fill: #008000"/>
   </g>
   <g id="patch_107">
    <path d="M 573.882353 202.008857 
L 833.022658 202.008857 
L 833.022658 198.902571 
L 573.882353 198.902571 
z
" clip-path="url(#pdb091752fd)" style="fill: #008000"/>
   </g>
   <g id="patch_108">
    <path d="M 573.882353 198.126 
L 864.119495 198.126 
L 864.119495 195.019714 
L 573.882353 195.019714 
z
" clip-path="url(#pdb091752fd)" style="fill: #008000"/>
   </g>
   <g id="patch_109">
    <path d="M 573.882353 194.243143 
L 845.570505 194.243143 
L 845.570505 191.136857 
L 573.882353 191.136857 
z
" clip-path="url(#pdb091752fd)" style="fill: #008000"/>
   </g>
   <g id="patch_110">
    <path d="M 573.882353 190.360286 
L 815.564785 190.360286 
L 815.564785 187.254 
L 573.882353 187.254 
z
" clip-path="url(#pdb091752fd)" style="fill: #008000"/>
   </g>
   <g id="patch_111">
    <path d="M 573.882353 186.477429 
L 872.302873 186.477429 
L 872.302873 183.371143 
L 573.882353 183.371143 
z
" clip-path="url(#pdb091752fd)" style="fill: #008000"/>
   </g>
   <g id="patch_112">
    <path d="M 573.882353 182.594571 
L 840.660478 182.594571 
L 840.660478 179.488286 
L 573.882353 179.488286 
z
" clip-path="url(#pdb091752fd)" style="fill: #008000"/>
   </g>
   <g id="patch_113">
    <path d="M 573.882353 178.711714 
L 874.485107 178.711714 
L 874.485107 175.605429 
L 573.882353 175.605429 
z
" clip-path="url(#pdb091752fd)" style="fill: #008000"/>
   </g>
   <g id="patch_114">
    <path d="M 573.882353 174.828857 
L 811.200317 174.828857 
L 811.200317 171.722571 
L 573.882353 171.722571 
z
" clip-path="url(#pdb091752fd)" style="fill: #008000"/>
   </g>
   <g id="patch_115">
    <path d="M 573.882353 170.946 
L 872.848432 170.946 
L 872.848432 167.839714 
L 573.882353 167.839714 
z
" clip-path="url(#pdb091752fd)" style="fill: #008000"/>
   </g>
   <g id="patch_116">
    <path d="M 573.882353 167.063143 
L 843.933829 167.063143 
L 843.933829 163.956857 
L 573.882353 163.956857 
z
" clip-path="url(#pdb091752fd)" style="fill: #008000"/>
   </g>
   <g id="patch_117">
    <path d="M 573.882353 163.180286 
L 869.57508 163.180286 
L 869.57508 160.074 
L 573.882353 160.074 
z
" clip-path="url(#pdb091752fd)" style="fill: #008000"/>
   </g>
   <g id="patch_118">
    <path d="M 573.882353 159.297429 
L 872.848432 159.297429 
L 872.848432 156.191143 
L 573.882353 156.191143 
z
" clip-path="url(#pdb091752fd)" style="fill: #008000"/>
   </g>
   <g id="patch_119">
    <path d="M 573.882353 155.414571 
L 848.298297 155.414571 
L 848.298297 152.308286 
L 573.882353 152.308286 
z
" clip-path="url(#pdb091752fd)" style="fill: #008000"/>
   </g>
   <g id="patch_120">
    <path d="M 573.882353 151.531714 
L 883.214044 151.531714 
L 883.214044 148.425429 
L 573.882353 148.425429 
z
" clip-path="url(#pdb091752fd)" style="fill: #008000"/>
   </g>
   <g id="patch_121">
    <path d="M 573.882353 147.648857 
L 848.298297 147.648857 
L 848.298297 144.542571 
L 573.882353 144.542571 
z
" clip-path="url(#pdb091752fd)" style="fill: #008000"/>
   </g>
   <g id="patch_122">
    <path d="M 573.882353 143.766 
L 881.03181 143.766 
L 881.03181 140.659714 
L 573.882353 140.659714 
z
" clip-path="url(#pdb091752fd)" style="fill: #008000"/>
   </g>
   <g id="patch_123">
    <path d="M 573.882353 139.883143 
L 885.941836 139.883143 
L 885.941836 136.776857 
L 573.882353 136.776857 
z
" clip-path="url(#pdb091752fd)" style="fill: #008000"/>
   </g>
   <g id="patch_124">
    <path d="M 573.882353 136.000286 
L 869.57508 136.000286 
L 869.57508 132.894 
L 573.882353 132.894 
z
" clip-path="url(#pdb091752fd)" style="fill: #008000"/>
   </g>
   <g id="patch_125">
    <path d="M 573.882353 132.117429 
L 825.930397 132.117429 
L 825.930397 129.011143 
L 573.882353 129.011143 
z
" clip-path="url(#pdb091752fd)" style="fill: #008000"/>
   </g>
   <g id="patch_126">
    <path d="M 573.882353 128.234571 
L 840.660478 128.234571 
L 840.660478 125.128286 
L 573.882353 125.128286 
z
" clip-path="url(#pdb091752fd)" style="fill: #008000"/>
   </g>
   <g id="patch_127">
    <path d="M 573.882353 124.351714 
L 838.478244 124.351714 
L 838.478244 121.245429 
L 573.882353 121.245429 
z
" clip-path="url(#pdb091752fd)" style="fill: #008000"/>
   </g>
   <g id="patch_128">
    <path d="M 573.882353 120.468857 
L 870.120639 120.468857 
L 870.120639 117.362571 
L 573.882353 117.362571 
z
" clip-path="url(#pdb091752fd)" style="fill: #008000"/>
   </g>
   <g id="patch_129">
    <path d="M 573.882353 116.586 
L 875.030666 116.586 
L 875.030666 113.479714 
L 573.882353 113.479714 
z
" clip-path="url(#pdb091752fd)" style="fill: #008000"/>
   </g>
   <g id="patch_130">
    <path d="M 573.882353 112.703143 
L 806.835848 112.703143 
L 806.835848 109.596857 
L 573.882353 109.596857 
z
" clip-path="url(#pdb091752fd)" style="fill: #008000"/>
   </g>
   <g id="patch_131">
    <path d="M 573.882353 108.820286 
L 823.202605 108.820286 
L 823.202605 105.714 
L 573.882353 105.714 
z
" clip-path="url(#pdb091752fd)" style="fill: #008000"/>
   </g>
   <g id="patch_132">
    <path d="M 573.882353 104.937429 
L 884.305161 104.937429 
L 884.305161 101.831143 
L 573.882353 101.831143 
z
" clip-path="url(#pdb091752fd)" style="fill: #008000"/>
   </g>
   <g id="patch_133">
    <path d="M 573.882353 101.054571 
L 811.745875 101.054571 
L 811.745875 97.948286 
L 573.882353 97.948286 
z
" clip-path="url(#pdb091752fd)" style="fill: #008000"/>
   </g>
   <g id="patch_134">
    <path d="M 573.882353 97.171714 
L 817.747019 97.171714 
L 817.747019 94.065429 
L 573.882353 94.065429 
z
" clip-path="url(#pdb091752fd)" style="fill: #008000"/>
   </g>
   <g id="patch_135">
    <path d="M 573.882353 93.288857 
L 818.292578 93.288857 
L 818.292578 90.182571 
L 573.882353 90.182571 
z
" clip-path="url(#pdb091752fd)" style="fill: #008000"/>
   </g>
   <g id="patch_136">
    <path d="M 573.882353 89.406 
L 866.301729 89.406 
L 866.301729 86.299714 
L 573.882353 86.299714 
z
" clip-path="url(#pdb091752fd)" style="fill: #008000"/>
   </g>
   <g id="patch_137">
    <path d="M 573.882353 85.523143 
L 819.929253 85.523143 
L 819.929253 82.416857 
L 573.882353 82.416857 
z
" clip-path="url(#pdb091752fd)" style="fill: #008000"/>
   </g>
   <g id="patch_138">
    <path d="M 573.882353 81.640286 
L 811.200317 81.640286 
L 811.200317 78.534 
L 573.882353 78.534 
z
" clip-path="url(#pdb091752fd)" style="fill: #008000"/>
   </g>
   <g id="patch_139">
    <path d="M 573.882353 77.757429 
L 824.83928 77.757429 
L 824.83928 74.651143 
L 573.882353 74.651143 
z
" clip-path="url(#pdb091752fd)" style="fill: #008000"/>
   </g>
   <g id="patch_140">
    <path d="M 573.882353 73.874571 
L 884.850719 73.874571 
L 884.850719 70.768286 
L 573.882353 70.768286 
z
" clip-path="url(#pdb091752fd)" style="fill: #008000"/>
   </g>
   <g id="patch_141">
    <path d="M 573.882353 69.991714 
L 824.293722 69.991714 
L 824.293722 66.885429 
L 573.882353 66.885429 
z
" clip-path="url(#pdb091752fd)" style="fill: #008000"/>
   </g>
   <g id="patch_142">
    <path d="M 573.882353 66.108857 
L 885.396278 66.108857 
L 885.396278 63.002571 
L 573.882353 63.002571 
z
" clip-path="url(#pdb091752fd)" style="fill: #008000"/>
   </g>
   <g id="patch_143">
    <path d="M 573.882353 62.226 
L 872.302873 62.226 
L 872.302873 59.119714 
L 573.882353 59.119714 
z
" clip-path="url(#pdb091752fd)" style="fill: #008000"/>
   </g>
   <g id="patch_144">
    <path d="M 573.882353 58.343143 
L 824.83928 58.343143 
L 824.83928 55.236857 
L 573.882353 55.236857 
z
" clip-path="url(#pdb091752fd)" style="fill: #008000"/>
   </g>
   <g id="patch_145">
    <path d="M 573.882353 54.460286 
L 867.938405 54.460286 
L 867.938405 51.354 
L 573.882353 51.354 
z
" clip-path="url(#pdb091752fd)" style="fill: #008000"/>
   </g>
   <g id="patch_146">
    <path d="M 573.882353 50.577429 
L 807.926966 50.577429 
L 807.926966 47.471143 
L 573.882353 47.471143 
z
" clip-path="url(#pdb091752fd)" style="fill: #008000"/>
   </g>
   <g id="patch_147">
    <path d="M 573.882353 46.694571 
L 886.487395 46.694571 
L 886.487395 43.588286 
L 573.882353 43.588286 
z
" clip-path="url(#pdb091752fd)" style="fill: #008000"/>
   </g>
   <g id="matplotlib.axis_3">
    <g id="xtick_7">
     <g id="line2d_14">
      <g>
       <use xlink:href="#ma1b8e5e452" x="573.882353" y="315" style="stroke: #000000; stroke-width: 0.8"/>
      </g>
     </g>
     <g id="text_14">
      <!-- 0 -->
      <g transform="translate(570.701103 329.598437)scale(0.1 -0.1)">
       <use xlink:href="#DejaVuSans-30"/>
      </g>
     </g>
    </g>
    <g id="xtick_8">
     <g id="line2d_15">
      <g>
       <use xlink:href="#ma1b8e5e452" x="628.438207" y="315" style="stroke: #000000; stroke-width: 0.8"/>
      </g>
     </g>
     <g id="text_15">
      <!-- 100 -->
      <g transform="translate(618.894457 329.598437)scale(0.1 -0.1)">
       <use xlink:href="#DejaVuSans-31"/>
       <use xlink:href="#DejaVuSans-30" x="63.623047"/>
       <use xlink:href="#DejaVuSans-30" x="127.246094"/>
      </g>
     </g>
    </g>
    <g id="xtick_9">
     <g id="line2d_16">
      <g>
       <use xlink:href="#ma1b8e5e452" x="682.99406" y="315" style="stroke: #000000; stroke-width: 0.8"/>
      </g>
     </g>
     <g id="text_16">
      <!-- 200 -->
      <g transform="translate(673.45031 329.598437)scale(0.1 -0.1)">
       <use xlink:href="#DejaVuSans-32"/>
       <use xlink:href="#DejaVuSans-30" x="63.623047"/>
       <use xlink:href="#DejaVuSans-30" x="127.246094"/>
      </g>
     </g>
    </g>
    <g id="xtick_10">
     <g id="line2d_17">
      <g>
       <use xlink:href="#ma1b8e5e452" x="737.549914" y="315" style="stroke: #000000; stroke-width: 0.8"/>
      </g>
     </g>
     <g id="text_17">
      <!-- 300 -->
      <g transform="translate(728.006164 329.598437)scale(0.1 -0.1)">
       <use xlink:href="#DejaVuSans-33"/>
       <use xlink:href="#DejaVuSans-30" x="63.623047"/>
       <use xlink:href="#DejaVuSans-30" x="127.246094"/>
      </g>
     </g>
    </g>
    <g id="xtick_11">
     <g id="line2d_18">
      <g>
       <use xlink:href="#ma1b8e5e452" x="792.105768" y="315" style="stroke: #000000; stroke-width: 0.8"/>
      </g>
     </g>
     <g id="text_18">
      <!-- 400 -->
      <g transform="translate(782.562018 329.598437)scale(0.1 -0.1)">
       <use xlink:href="#DejaVuSans-34"/>
       <use xlink:href="#DejaVuSans-30" x="63.623047"/>
       <use xlink:href="#DejaVuSans-30" x="127.246094"/>
      </g>
     </g>
    </g>
    <g id="xtick_12">
     <g id="line2d_19">
      <g>
       <use xlink:href="#ma1b8e5e452" x="846.661622" y="315" style="stroke: #000000; stroke-width: 0.8"/>
      </g>
     </g>
     <g id="text_19">
      <!-- 500 -->
      <g transform="translate(837.117872 329.598437)scale(0.1 -0.1)">
       <use xlink:href="#DejaVuSans-35"/>
       <use xlink:href="#DejaVuSans-30" x="63.623047"/>
       <use xlink:href="#DejaVuSans-30" x="127.246094"/>
      </g>
     </g>
    </g>
    <g id="xtick_13">
     <g id="line2d_20">
      <g>
       <use xlink:href="#ma1b8e5e452" x="901.217475" y="315" style="stroke: #000000; stroke-width: 0.8"/>
      </g>
     </g>
     <g id="text_20">
      <!-- 600 -->
      <g transform="translate(891.673725 329.598437)scale(0.1 -0.1)">
       <use xlink:href="#DejaVuSans-36"/>
       <use xlink:href="#DejaVuSans-30" x="63.623047"/>
       <use xlink:href="#DejaVuSans-30" x="127.246094"/>
      </g>
     </g>
    </g>
   </g>
   <g id="matplotlib.axis_4">
    <g id="ytick_8">
     <g id="line2d_21">
      <g>
       <use xlink:href="#mefc46e47e8" x="573.882353" y="278.112857" style="stroke: #000000; stroke-width: 0.8"/>
      </g>
     </g>
     <g id="text_21">
      <!-- 10 -->
      <g transform="translate(554.157353 281.912076)scale(0.1 -0.1)">
       <use xlink:href="#DejaVuSans-31"/>
       <use xlink:href="#DejaVuSans-30" x="63.623047"/>
      </g>
     </g>
    </g>
    <g id="ytick_9">
     <g id="line2d_22">
      <g>
       <use xlink:href="#mefc46e47e8" x="573.882353" y="239.284286" style="stroke: #000000; stroke-width: 0.8"/>
      </g>
     </g>
     <g id="text_22">
      <!-- 20 -->
      <g transform="translate(554.157353 243.083504)scale(0.1 -0.1)">
       <use xlink:href="#DejaVuSans-32"/>
       <use xlink:href="#DejaVuSans-30" x="63.623047"/>
      </g>
     </g>
    </g>
    <g id="ytick_10">
     <g id="line2d_23">
      <g>
       <use xlink:href="#mefc46e47e8" x="573.882353" y="200.455714" style="stroke: #000000; stroke-width: 0.8"/>
      </g>
     </g>
     <g id="text_23">
      <!-- 30 -->
      <g transform="translate(554.157353 204.254933)scale(0.1 -0.1)">
       <use xlink:href="#DejaVuSans-33"/>
       <use xlink:href="#DejaVuSans-30" x="63.623047"/>
      </g>
     </g>
    </g>
    <g id="ytick_11">
     <g id="line2d_24">
      <g>
       <use xlink:href="#mefc46e47e8" x="573.882353" y="161.627143" style="stroke: #000000; stroke-width: 0.8"/>
      </g>
     </g>
     <g id="text_24">
      <!-- 40 -->
      <g transform="translate(554.157353 165.426362)scale(0.1 -0.1)">
       <use xlink:href="#DejaVuSans-34"/>
       <use xlink:href="#DejaVuSans-30" x="63.623047"/>
      </g>
     </g>
    </g>
    <g id="ytick_12">
     <g id="line2d_25">
      <g>
       <use xlink:href="#mefc46e47e8" x="573.882353" y="122.798571" style="stroke: #000000; stroke-width: 0.8"/>
      </g>
     </g>
     <g id="text_25">
      <!-- 50 -->
      <g transform="translate(554.157353 126.59779)scale(0.1 -0.1)">
       <use xlink:href="#DejaVuSans-35"/>
       <use xlink:href="#DejaVuSans-30" x="63.623047"/>
      </g>
     </g>
    </g>
    <g id="ytick_13">
     <g id="line2d_26">
      <g>
       <use xlink:href="#mefc46e47e8" x="573.882353" y="83.97" style="stroke: #000000; stroke-width: 0.8"/>
      </g>
     </g>
     <g id="text_26">
      <!-- 60 -->
      <g transform="translate(554.157353 87.769219)scale(0.1 -0.1)">
       <use xlink:href="#DejaVuSans-36"/>
       <use xlink:href="#DejaVuSans-30" x="63.623047"/>
      </g>
     </g>
    </g>
    <g id="ytick_14">
     <g id="line2d_27">
      <g>
       <use xlink:href="#mefc46e47e8" x="573.882353" y="45.141429" style="stroke: #000000; stroke-width: 0.8"/>
      </g>
     </g>
     <g id="text_27">
      <!-- 70 -->
      <g transform="translate(554.157353 48.940647)scale(0.1 -0.1)">
       <use xlink:href="#DejaVuSans-37"/>
       <use xlink:href="#DejaVuSans-30" x="63.623047"/>
      </g>
     </g>
    </g>
   </g>
   <g id="patch_148">
    <path d="M 573.882353 315 
L 573.882353 43.2 
" style="fill: none; stroke: #000000; stroke-width: 0.8; stroke-linejoin: miter; stroke-linecap: square"/>
   </g>
   <g id="patch_149">
    <path d="M 902.117647 315 
L 902.117647 43.2 
" style="fill: none; stroke: #000000; stroke-width: 0.8; stroke-linejoin: miter; stroke-linecap: square"/>
   </g>
   <g id="patch_150">
    <path d="M 573.882353 315 
L 902.117647 315 
" style="fill: none; stroke: #000000; stroke-width: 0.8; stroke-linejoin: miter; stroke-linecap: square"/>
   </g>
   <g id="patch_151">
    <path d="M 573.882353 43.2 
L 902.117647 43.2 
" style="fill: none; stroke: #000000; stroke-width: 0.8; stroke-linejoin: miter; stroke-linecap: square"/>
   </g>
  </g>
  <g id="axes_3">
   <g id="patch_152">
    <path d="M 967.764706 315 
L 1296 315 
L 1296 43.2 
L 967.764706 43.2 
z
" style="fill: #ffffff"/>
   </g>
   <g id="patch_153">
    <path d="M 967.764706 314.611714 
L 1141.434174 314.611714 
L 1141.434174 311.505429 
L 967.764706 311.505429 
z
" clip-path="url(#p2b363a0704)" style="fill: #800080"/>
   </g>
   <g id="patch_154">
    <path d="M 967.764706 310.728857 
L 1147.223156 310.728857 
L 1147.223156 307.622571 
L 967.764706 307.622571 
z
" clip-path="url(#p2b363a0704)" style="fill: #800080"/>
   </g>
   <g id="patch_155">
    <path d="M 967.764706 306.846 
L 1142.324786 306.846 
L 1142.324786 303.739714 
L 967.764706 303.739714 
z
" clip-path="url(#p2b363a0704)" style="fill: #800080"/>
   </g>
   <g id="patch_156">
    <path d="M 967.764706 302.963143 
L 1147.668462 302.963143 
L 1147.668462 299.856857 
L 967.764706 299.856857 
z
" clip-path="url(#p2b363a0704)" style="fill: #800080"/>
   </g>
   <g id="patch_157">
    <path d="M 967.764706 299.080286 
L 1150.3403 299.080286 
L 1150.3403 295.974 
L 967.764706 295.974 
z
" clip-path="url(#p2b363a0704)" style="fill: #800080"/>
   </g>
   <g id="patch_158">
    <path d="M 967.764706 295.197429 
L 1149.894994 295.197429 
L 1149.894994 292.091143 
L 967.764706 292.091143 
z
" clip-path="url(#p2b363a0704)" style="fill: #800080"/>
   </g>
   <g id="patch_159">
    <path d="M 967.764706 291.314571 
L 1144.551318 291.314571 
L 1144.551318 288.208286 
L 967.764706 288.208286 
z
" clip-path="url(#p2b363a0704)" style="fill: #800080"/>
   </g>
   <g id="patch_160">
    <path d="M 967.764706 287.431714 
L 1148.113769 287.431714 
L 1148.113769 284.325429 
L 967.764706 284.325429 
z
" clip-path="url(#p2b363a0704)" style="fill: #800080"/>
   </g>
   <g id="patch_161">
    <path d="M 967.764706 283.548857 
L 1149.449688 283.548857 
L 1149.449688 280.442571 
L 967.764706 280.442571 
z
" clip-path="url(#p2b363a0704)" style="fill: #800080"/>
   </g>
   <g id="patch_162">
    <path d="M 967.764706 279.666 
L 1150.3403 279.666 
L 1150.3403 276.559714 
L 967.764706 276.559714 
z
" clip-path="url(#p2b363a0704)" style="fill: #800080"/>
   </g>
   <g id="patch_163">
    <path d="M 967.764706 275.783143 
L 1153.902751 275.783143 
L 1153.902751 272.676857 
L 967.764706 272.676857 
z
" clip-path="url(#p2b363a0704)" style="fill: #800080"/>
   </g>
   <g id="patch_164">
    <path d="M 967.764706 271.900286 
L 1156.574589 271.900286 
L 1156.574589 268.794 
L 967.764706 268.794 
z
" clip-path="url(#p2b363a0704)" style="fill: #800080"/>
   </g>
   <g id="patch_165">
    <path d="M 967.764706 268.017429 
L 1157.019895 268.017429 
L 1157.019895 264.911143 
L 967.764706 264.911143 
z
" clip-path="url(#p2b363a0704)" style="fill: #800080"/>
   </g>
   <g id="patch_166">
    <path d="M 967.764706 264.134571 
L 1145.441931 264.134571 
L 1145.441931 261.028286 
L 967.764706 261.028286 
z
" clip-path="url(#p2b363a0704)" style="fill: #800080"/>
   </g>
   <g id="patch_167">
    <path d="M 967.764706 260.251714 
L 1161.027652 260.251714 
L 1161.027652 257.145429 
L 967.764706 257.145429 
z
" clip-path="url(#p2b363a0704)" style="fill: #800080"/>
   </g>
   <g id="patch_168">
    <path d="M 967.764706 256.368857 
L 1157.019895 256.368857 
L 1157.019895 253.262571 
L 967.764706 253.262571 
z
" clip-path="url(#p2b363a0704)" style="fill: #800080"/>
   </g>
   <g id="patch_169">
    <path d="M 967.764706 252.486 
L 1150.785607 252.486 
L 1150.785607 249.379714 
L 967.764706 249.379714 
z
" clip-path="url(#p2b363a0704)" style="fill: #800080"/>
   </g>
   <g id="patch_170">
    <path d="M 967.764706 248.603143 
L 1152.566832 248.603143 
L 1152.566832 245.496857 
L 967.764706 245.496857 
z
" clip-path="url(#p2b363a0704)" style="fill: #800080"/>
   </g>
   <g id="patch_171">
    <path d="M 967.764706 244.720286 
L 1149.894994 244.720286 
L 1149.894994 241.614 
L 967.764706 241.614 
z
" clip-path="url(#p2b363a0704)" style="fill: #800080"/>
   </g>
   <g id="patch_172">
    <path d="M 967.764706 240.837429 
L 1162.808877 240.837429 
L 1162.808877 237.731143 
L 967.764706 237.731143 
z
" clip-path="url(#p2b363a0704)" style="fill: #800080"/>
   </g>
   <g id="patch_173">
    <path d="M 967.764706 236.954571 
L 1211.792573 236.954571 
L 1211.792573 233.848286 
L 967.764706 233.848286 
z
" clip-path="url(#p2b363a0704)" style="fill: #800080"/>
   </g>
   <g id="patch_174">
    <path d="M 967.764706 233.071714 
L 1154.348057 233.071714 
L 1154.348057 229.965429 
L 967.764706 229.965429 
z
" clip-path="url(#p2b363a0704)" style="fill: #800080"/>
   </g>
   <g id="patch_175">
    <path d="M 967.764706 229.188857 
L 1156.574589 229.188857 
L 1156.574589 226.082571 
L 967.764706 226.082571 
z
" clip-path="url(#p2b363a0704)" style="fill: #800080"/>
   </g>
   <g id="patch_176">
    <path d="M 967.764706 225.306 
L 1221.589313 225.306 
L 1221.589313 222.199714 
L 967.764706 222.199714 
z
" clip-path="url(#p2b363a0704)" style="fill: #800080"/>
   </g>
   <g id="patch_177">
    <path d="M 967.764706 221.423143 
L 1158.80112 221.423143 
L 1158.80112 218.316857 
L 967.764706 218.316857 
z
" clip-path="url(#p2b363a0704)" style="fill: #800080"/>
   </g>
   <g id="patch_178">
    <path d="M 967.764706 217.540286 
L 1163.254184 217.540286 
L 1163.254184 214.434 
L 967.764706 214.434 
z
" clip-path="url(#p2b363a0704)" style="fill: #800080"/>
   </g>
   <g id="patch_179">
    <path d="M 967.764706 213.657429 
L 1181.066437 213.657429 
L 1181.066437 210.551143 
L 967.764706 210.551143 
z
" clip-path="url(#p2b363a0704)" style="fill: #800080"/>
   </g>
   <g id="patch_180">
    <path d="M 967.764706 209.774571 
L 1153.457445 209.774571 
L 1153.457445 206.668286 
L 967.764706 206.668286 
z
" clip-path="url(#p2b363a0704)" style="fill: #800080"/>
   </g>
   <g id="patch_181">
    <path d="M 967.764706 205.891714 
L 1149.449688 205.891714 
L 1149.449688 202.785429 
L 967.764706 202.785429 
z
" clip-path="url(#p2b363a0704)" style="fill: #800080"/>
   </g>
   <g id="patch_182">
    <path d="M 967.764706 202.008857 
L 1167.261941 202.008857 
L 1167.261941 198.902571 
L 967.764706 198.902571 
z
" clip-path="url(#p2b363a0704)" style="fill: #800080"/>
   </g>
   <g id="patch_183">
    <path d="M 967.764706 198.126 
L 1252.315449 198.126 
L 1252.315449 195.019714 
L 967.764706 195.019714 
z
" clip-path="url(#p2b363a0704)" style="fill: #800080"/>
   </g>
   <g id="patch_184">
    <path d="M 967.764706 194.243143 
L 1165.926022 194.243143 
L 1165.926022 191.136857 
L 967.764706 191.136857 
z
" clip-path="url(#p2b363a0704)" style="fill: #800080"/>
   </g>
   <g id="patch_185">
    <path d="M 967.764706 190.360286 
L 1166.816634 190.360286 
L 1166.816634 187.254 
L 967.764706 187.254 
z
" clip-path="url(#p2b363a0704)" style="fill: #800080"/>
   </g>
   <g id="patch_186">
    <path d="M 967.764706 186.477429 
L 1215.80033 186.477429 
L 1215.80033 183.371143 
L 967.764706 183.371143 
z
" clip-path="url(#p2b363a0704)" style="fill: #800080"/>
   </g>
   <g id="patch_187">
    <path d="M 967.764706 182.594571 
L 1163.69949 182.594571 
L 1163.69949 179.488286 
L 967.764706 179.488286 
z
" clip-path="url(#p2b363a0704)" style="fill: #800080"/>
   </g>
   <g id="patch_188">
    <path d="M 967.764706 178.711714 
L 1241.628097 178.711714 
L 1241.628097 175.605429 
L 967.764706 175.605429 
z
" clip-path="url(#p2b363a0704)" style="fill: #800080"/>
   </g>
   <g id="patch_189">
    <path d="M 967.764706 174.828857 
L 1208.675429 174.828857 
L 1208.675429 171.722571 
L 967.764706 171.722571 
z
" clip-path="url(#p2b363a0704)" style="fill: #800080"/>
   </g>
   <g id="patch_190">
    <path d="M 967.764706 170.946 
L 1150.3403 170.946 
L 1150.3403 167.839714 
L 967.764706 167.839714 
z
" clip-path="url(#p2b363a0704)" style="fill: #800080"/>
   </g>
   <g id="patch_191">
    <path d="M 967.764706 167.063143 
L 1274.135459 167.063143 
L 1274.135459 163.956857 
L 967.764706 163.956857 
z
" clip-path="url(#p2b363a0704)" style="fill: #800080"/>
   </g>
   <g id="patch_192">
    <path d="M 967.764706 163.180286 
L 1246.526467 163.180286 
L 1246.526467 160.074 
L 967.764706 160.074 
z
" clip-path="url(#p2b363a0704)" style="fill: #800080"/>
   </g>
   <g id="patch_193">
    <path d="M 967.764706 159.297429 
L 1254.987287 159.297429 
L 1254.987287 156.191143 
L 967.764706 156.191143 
z
" clip-path="url(#p2b363a0704)" style="fill: #800080"/>
   </g>
   <g id="patch_194">
    <path d="M 967.764706 155.414571 
L 1268.791783 155.414571 
L 1268.791783 152.308286 
L 967.764706 152.308286 
z
" clip-path="url(#p2b363a0704)" style="fill: #800080"/>
   </g>
   <g id="patch_195">
    <path d="M 967.764706 151.531714 
L 1226.042376 151.531714 
L 1226.042376 148.425429 
L 967.764706 148.425429 
z
" clip-path="url(#p2b363a0704)" style="fill: #800080"/>
   </g>
   <g id="patch_196">
    <path d="M 967.764706 147.648857 
L 1223.815844 147.648857 
L 1223.815844 144.542571 
L 967.764706 144.542571 
z
" clip-path="url(#p2b363a0704)" style="fill: #800080"/>
   </g>
   <g id="patch_197">
    <path d="M 967.764706 143.766 
L 1221.589313 143.766 
L 1221.589313 140.659714 
L 967.764706 140.659714 
z
" clip-path="url(#p2b363a0704)" style="fill: #800080"/>
   </g>
   <g id="patch_198">
    <path d="M 967.764706 139.883143 
L 1260.776269 139.883143 
L 1260.776269 136.776857 
L 967.764706 136.776857 
z
" clip-path="url(#p2b363a0704)" style="fill: #800080"/>
   </g>
   <g id="patch_199">
    <path d="M 967.764706 136.000286 
L 1210.901961 136.000286 
L 1210.901961 132.894 
L 967.764706 132.894 
z
" clip-path="url(#p2b363a0704)" style="fill: #800080"/>
   </g>
   <g id="patch_200">
    <path d="M 967.764706 132.117429 
L 1267.901171 132.117429 
L 1267.901171 129.011143 
L 967.764706 129.011143 
z
" clip-path="url(#p2b363a0704)" style="fill: #800080"/>
   </g>
   <g id="patch_201">
    <path d="M 967.764706 128.234571 
L 1264.33872 128.234571 
L 1264.33872 125.128286 
L 967.764706 125.128286 
z
" clip-path="url(#p2b363a0704)" style="fill: #800080"/>
   </g>
   <g id="patch_202">
    <path d="M 967.764706 124.351714 
L 1159.691733 124.351714 
L 1159.691733 121.245429 
L 967.764706 121.245429 
z
" clip-path="url(#p2b363a0704)" style="fill: #800080"/>
   </g>
   <g id="patch_203">
    <path d="M 967.764706 120.468857 
L 1193.089708 120.468857 
L 1193.089708 117.362571 
L 967.764706 117.362571 
z
" clip-path="url(#p2b363a0704)" style="fill: #800080"/>
   </g>
   <g id="patch_204">
    <path d="M 967.764706 116.586 
L 1166.371328 116.586 
L 1166.371328 113.479714 
L 967.764706 113.479714 
z
" clip-path="url(#p2b363a0704)" style="fill: #800080"/>
   </g>
   <g id="patch_205">
    <path d="M 967.764706 112.703143 
L 1179.730518 112.703143 
L 1179.730518 109.596857 
L 967.764706 109.596857 
z
" clip-path="url(#p2b363a0704)" style="fill: #800080"/>
   </g>
   <g id="patch_206">
    <path d="M 967.764706 108.820286 
L 1181.511743 108.820286 
L 1181.511743 105.714 
L 967.764706 105.714 
z
" clip-path="url(#p2b363a0704)" style="fill: #800080"/>
   </g>
   <g id="patch_207">
    <path d="M 967.764706 104.937429 
L 1191.753789 104.937429 
L 1191.753789 101.831143 
L 967.764706 101.831143 
z
" clip-path="url(#p2b363a0704)" style="fill: #800080"/>
   </g>
   <g id="patch_208">
    <path d="M 967.764706 101.054571 
L 1176.168067 101.054571 
L 1176.168067 97.948286 
L 967.764706 97.948286 
z
" clip-path="url(#p2b363a0704)" style="fill: #800080"/>
   </g>
   <g id="patch_209">
    <path d="M 967.764706 97.171714 
L 1156.574589 97.171714 
L 1156.574589 94.065429 
L 967.764706 94.065429 
z
" clip-path="url(#p2b363a0704)" style="fill: #800080"/>
   </g>
   <g id="patch_210">
    <path d="M 967.764706 93.288857 
L 1188.191338 93.288857 
L 1188.191338 90.182571 
L 967.764706 90.182571 
z
" clip-path="url(#p2b363a0704)" style="fill: #800080"/>
   </g>
   <g id="patch_211">
    <path d="M 967.764706 89.406 
L 1168.152553 89.406 
L 1168.152553 86.299714 
L 967.764706 86.299714 
z
" clip-path="url(#p2b363a0704)" style="fill: #800080"/>
   </g>
   <g id="patch_212">
    <path d="M 967.764706 85.523143 
L 1238.956259 85.523143 
L 1238.956259 82.416857 
L 967.764706 82.416857 
z
" clip-path="url(#p2b363a0704)" style="fill: #800080"/>
   </g>
   <g id="patch_213">
    <path d="M 967.764706 81.640286 
L 1187.300725 81.640286 
L 1187.300725 78.534 
L 967.764706 78.534 
z
" clip-path="url(#p2b363a0704)" style="fill: #800080"/>
   </g>
   <g id="patch_214">
    <path d="M 967.764706 77.757429 
L 1280.369748 77.757429 
L 1280.369748 74.651143 
L 967.764706 74.651143 
z
" clip-path="url(#p2b363a0704)" style="fill: #800080"/>
   </g>
   <g id="patch_215">
    <path d="M 967.764706 73.874571 
L 1260.330963 73.874571 
L 1260.330963 70.768286 
L 967.764706 70.768286 
z
" clip-path="url(#p2b363a0704)" style="fill: #800080"/>
   </g>
   <g id="patch_216">
    <path d="M 967.764706 69.991714 
L 1270.127702 69.991714 
L 1270.127702 66.885429 
L 967.764706 66.885429 
z
" clip-path="url(#p2b363a0704)" style="fill: #800080"/>
   </g>
   <g id="patch_217">
    <path d="M 967.764706 66.108857 
L 1178.839905 66.108857 
L 1178.839905 63.002571 
L 967.764706 63.002571 
z
" clip-path="url(#p2b363a0704)" style="fill: #800080"/>
   </g>
   <g id="patch_218">
    <path d="M 967.764706 62.226 
L 1271.908928 62.226 
L 1271.908928 59.119714 
L 967.764706 59.119714 
z
" clip-path="url(#p2b363a0704)" style="fill: #800080"/>
   </g>
   <g id="patch_219">
    <path d="M 967.764706 58.343143 
L 1207.784816 58.343143 
L 1207.784816 55.236857 
L 967.764706 55.236857 
z
" clip-path="url(#p2b363a0704)" style="fill: #800080"/>
   </g>
   <g id="patch_220">
    <path d="M 967.764706 54.460286 
L 1268.346477 54.460286 
L 1268.346477 51.354 
L 967.764706 51.354 
z
" clip-path="url(#p2b363a0704)" style="fill: #800080"/>
   </g>
   <g id="patch_221">
    <path d="M 967.764706 50.577429 
L 1216.690943 50.577429 
L 1216.690943 47.471143 
L 967.764706 47.471143 
z
" clip-path="url(#p2b363a0704)" style="fill: #800080"/>
   </g>
   <g id="patch_222">
    <path d="M 967.764706 46.694571 
L 1166.371328 46.694571 
L 1166.371328 43.588286 
L 967.764706 43.588286 
z
" clip-path="url(#p2b363a0704)" style="fill: #800080"/>
   </g>
   <g id="matplotlib.axis_5">
    <g id="xtick_14">
     <g id="line2d_28">
      <g>
       <use xlink:href="#ma1b8e5e452" x="967.764706" y="315" style="stroke: #000000; stroke-width: 0.8"/>
      </g>
     </g>
     <g id="text_28">
      <!-- 0 -->
      <g transform="translate(964.583456 329.598437)scale(0.1 -0.1)">
       <use xlink:href="#DejaVuSans-30"/>
      </g>
     </g>
    </g>
    <g id="xtick_15">
     <g id="line2d_29">
      <g>
       <use xlink:href="#ma1b8e5e452" x="1012.295339" y="315" style="stroke: #000000; stroke-width: 0.8"/>
      </g>
     </g>
     <g id="text_29">
      <!-- 100 -->
      <g transform="translate(1002.751589 329.598437)scale(0.1 -0.1)">
       <use xlink:href="#DejaVuSans-31"/>
       <use xlink:href="#DejaVuSans-30" x="63.623047"/>
       <use xlink:href="#DejaVuSans-30" x="127.246094"/>
      </g>
     </g>
    </g>
    <g id="xtick_16">
     <g id="line2d_30">
      <g>
       <use xlink:href="#ma1b8e5e452" x="1056.825971" y="315" style="stroke: #000000; stroke-width: 0.8"/>
      </g>
     </g>
     <g id="text_30">
      <!-- 200 -->
      <g transform="translate(1047.282221 329.598437)scale(0.1 -0.1)">
       <use xlink:href="#DejaVuSans-32"/>
       <use xlink:href="#DejaVuSans-30" x="63.623047"/>
       <use xlink:href="#DejaVuSans-30" x="127.246094"/>
      </g>
     </g>
    </g>
    <g id="xtick_17">
     <g id="line2d_31">
      <g>
       <use xlink:href="#ma1b8e5e452" x="1101.356604" y="315" style="stroke: #000000; stroke-width: 0.8"/>
      </g>
     </g>
     <g id="text_31">
      <!-- 300 -->
      <g transform="translate(1091.812854 329.598437)scale(0.1 -0.1)">
       <use xlink:href="#DejaVuSans-33"/>
       <use xlink:href="#DejaVuSans-30" x="63.623047"/>
       <use xlink:href="#DejaVuSans-30" x="127.246094"/>
      </g>
     </g>
    </g>
    <g id="xtick_18">
     <g id="line2d_32">
      <g>
       <use xlink:href="#ma1b8e5e452" x="1145.887237" y="315" style="stroke: #000000; stroke-width: 0.8"/>
      </g>
     </g>
     <g id="text_32">
      <!-- 400 -->
      <g transform="translate(1136.343487 329.598437)scale(0.1 -0.1)">
       <use xlink:href="#DejaVuSans-34"/>
       <use xlink:href="#DejaVuSans-30" x="63.623047"/>
       <use xlink:href="#DejaVuSans-30" x="127.246094"/>
      </g>
     </g>
    </g>
    <g id="xtick_19">
     <g id="line2d_33">
      <g>
       <use xlink:href="#ma1b8e5e452" x="1190.41787" y="315" style="stroke: #000000; stroke-width: 0.8"/>
      </g>
     </g>
     <g id="text_33">
      <!-- 500 -->
      <g transform="translate(1180.87412 329.598437)scale(0.1 -0.1)">
       <use xlink:href="#DejaVuSans-35"/>
       <use xlink:href="#DejaVuSans-30" x="63.623047"/>
       <use xlink:href="#DejaVuSans-30" x="127.246094"/>
      </g>
     </g>
    </g>
    <g id="xtick_20">
     <g id="line2d_34">
      <g>
       <use xlink:href="#ma1b8e5e452" x="1234.948502" y="315" style="stroke: #000000; stroke-width: 0.8"/>
      </g>
     </g>
     <g id="text_34">
      <!-- 600 -->
      <g transform="translate(1225.404752 329.598437)scale(0.1 -0.1)">
       <use xlink:href="#DejaVuSans-36"/>
       <use xlink:href="#DejaVuSans-30" x="63.623047"/>
       <use xlink:href="#DejaVuSans-30" x="127.246094"/>
      </g>
     </g>
    </g>
    <g id="xtick_21">
     <g id="line2d_35">
      <g>
       <use xlink:href="#ma1b8e5e452" x="1279.479135" y="315" style="stroke: #000000; stroke-width: 0.8"/>
      </g>
     </g>
     <g id="text_35">
      <!-- 700 -->
      <g transform="translate(1269.935385 329.598437)scale(0.1 -0.1)">
       <use xlink:href="#DejaVuSans-37"/>
       <use xlink:href="#DejaVuSans-30" x="63.623047"/>
       <use xlink:href="#DejaVuSans-30" x="127.246094"/>
      </g>
     </g>
    </g>
   </g>
   <g id="matplotlib.axis_6">
    <g id="ytick_15">
     <g id="line2d_36">
      <g>
       <use xlink:href="#mefc46e47e8" x="967.764706" y="278.112857" style="stroke: #000000; stroke-width: 0.8"/>
      </g>
     </g>
     <g id="text_36">
      <!-- 10 -->
      <g transform="translate(948.039706 281.912076)scale(0.1 -0.1)">
       <use xlink:href="#DejaVuSans-31"/>
       <use xlink:href="#DejaVuSans-30" x="63.623047"/>
      </g>
     </g>
    </g>
    <g id="ytick_16">
     <g id="line2d_37">
      <g>
       <use xlink:href="#mefc46e47e8" x="967.764706" y="239.284286" style="stroke: #000000; stroke-width: 0.8"/>
      </g>
     </g>
     <g id="text_37">
      <!-- 20 -->
      <g transform="translate(948.039706 243.083504)scale(0.1 -0.1)">
       <use xlink:href="#DejaVuSans-32"/>
       <use xlink:href="#DejaVuSans-30" x="63.623047"/>
      </g>
     </g>
    </g>
    <g id="ytick_17">
     <g id="line2d_38">
      <g>
       <use xlink:href="#mefc46e47e8" x="967.764706" y="200.455714" style="stroke: #000000; stroke-width: 0.8"/>
      </g>
     </g>
     <g id="text_38">
      <!-- 30 -->
      <g transform="translate(948.039706 204.254933)scale(0.1 -0.1)">
       <use xlink:href="#DejaVuSans-33"/>
       <use xlink:href="#DejaVuSans-30" x="63.623047"/>
      </g>
     </g>
    </g>
    <g id="ytick_18">
     <g id="line2d_39">
      <g>
       <use xlink:href="#mefc46e47e8" x="967.764706" y="161.627143" style="stroke: #000000; stroke-width: 0.8"/>
      </g>
     </g>
     <g id="text_39">
      <!-- 40 -->
      <g transform="translate(948.039706 165.426362)scale(0.1 -0.1)">
       <use xlink:href="#DejaVuSans-34"/>
       <use xlink:href="#DejaVuSans-30" x="63.623047"/>
      </g>
     </g>
    </g>
    <g id="ytick_19">
     <g id="line2d_40">
      <g>
       <use xlink:href="#mefc46e47e8" x="967.764706" y="122.798571" style="stroke: #000000; stroke-width: 0.8"/>
      </g>
     </g>
     <g id="text_40">
      <!-- 50 -->
      <g transform="translate(948.039706 126.59779)scale(0.1 -0.1)">
       <use xlink:href="#DejaVuSans-35"/>
       <use xlink:href="#DejaVuSans-30" x="63.623047"/>
      </g>
     </g>
    </g>
    <g id="ytick_20">
     <g id="line2d_41">
      <g>
       <use xlink:href="#mefc46e47e8" x="967.764706" y="83.97" style="stroke: #000000; stroke-width: 0.8"/>
      </g>
     </g>
     <g id="text_41">
      <!-- 60 -->
      <g transform="translate(948.039706 87.769219)scale(0.1 -0.1)">
       <use xlink:href="#DejaVuSans-36"/>
       <use xlink:href="#DejaVuSans-30" x="63.623047"/>
      </g>
     </g>
    </g>
    <g id="ytick_21">
     <g id="line2d_42">
      <g>
       <use xlink:href="#mefc46e47e8" x="967.764706" y="45.141429" style="stroke: #000000; stroke-width: 0.8"/>
      </g>
     </g>
     <g id="text_42">
      <!-- 70 -->
      <g transform="translate(948.039706 48.940647)scale(0.1 -0.1)">
       <use xlink:href="#DejaVuSans-37"/>
       <use xlink:href="#DejaVuSans-30" x="63.623047"/>
      </g>
     </g>
    </g>
   </g>
   <g id="patch_223">
    <path d="M 967.764706 315 
L 967.764706 43.2 
" style="fill: none; stroke: #000000; stroke-width: 0.8; stroke-linejoin: miter; stroke-linecap: square"/>
   </g>
   <g id="patch_224">
    <path d="M 1296 315 
L 1296 43.2 
" style="fill: none; stroke: #000000; stroke-width: 0.8; stroke-linejoin: miter; stroke-linecap: square"/>
   </g>
   <g id="patch_225">
    <path d="M 967.764706 315 
L 1296 315 
" style="fill: none; stroke: #000000; stroke-width: 0.8; stroke-linejoin: miter; stroke-linecap: square"/>
   </g>
   <g id="patch_226">
    <path d="M 967.764706 43.2 
L 1296 43.2 
" style="fill: none; stroke: #000000; stroke-width: 0.8; stroke-linejoin: miter; stroke-linecap: square"/>
   </g>
  </g>
  <g id="text_43">
   <!-- nProc - 70   nTask - 350 -->
   <g transform="translate(649.86375 16.318125)scale(0.12 -0.12)">
    <defs>
     <path id="DejaVuSans-6e" d="M 3513 2113 
L 3513 0 
L 2938 0 
L 2938 2094 
Q 2938 2591 2744 2837 
Q 2550 3084 2163 3084 
Q 1697 3084 1428 2787 
Q 1159 2491 1159 1978 
L 1159 0 
L 581 0 
L 581 3500 
L 1159 3500 
L 1159 2956 
Q 1366 3272 1645 3428 
Q 1925 3584 2291 3584 
Q 2894 3584 3203 3211 
Q 3513 2838 3513 2113 
z
" transform="scale(0.015625)"/>
     <path id="DejaVuSans-50" d="M 1259 4147 
L 1259 2394 
L 2053 2394 
Q 2494 2394 2734 2622 
Q 2975 2850 2975 3272 
Q 2975 3691 2734 3919 
Q 2494 4147 2053 4147 
L 1259 4147 
z
M 628 4666 
L 2053 4666 
Q 2838 4666 3239 4311 
Q 3641 3956 3641 3272 
Q 3641 2581 3239 2228 
Q 2838 1875 2053 1875 
L 1259 1875 
L 1259 0 
L 628 0 
L 628 4666 
z
" transform="scale(0.015625)"/>
     <path id="DejaVuSans-72" d="M 2631 2963 
Q 2534 3019 2420 3045 
Q 2306 3072 2169 3072 
Q 1681 3072 1420 2755 
Q 1159 2438 1159 1844 
L 1159 0 
L 581 0 
L 581 3500 
L 1159 3500 
L 1159 2956 
Q 1341 3275 1631 3429 
Q 1922 3584 2338 3584 
Q 2397 3584 2469 3576 
Q 2541 3569 2628 3553 
L 2631 2963 
z
" transform="scale(0.015625)"/>
     <path id="DejaVuSans-6f" d="M 1959 3097 
Q 1497 3097 1228 2736 
Q 959 2375 959 1747 
Q 959 1119 1226 758 
Q 1494 397 1959 397 
Q 2419 397 2687 759 
Q 2956 1122 2956 1747 
Q 2956 2369 2687 2733 
Q 2419 3097 1959 3097 
z
M 1959 3584 
Q 2709 3584 3137 3096 
Q 3566 2609 3566 1747 
Q 3566 888 3137 398 
Q 2709 -91 1959 -91 
Q 1206 -91 779 398 
Q 353 888 353 1747 
Q 353 2609 779 3096 
Q 1206 3584 1959 3584 
z
" transform="scale(0.015625)"/>
     <path id="DejaVuSans-63" d="M 3122 3366 
L 3122 2828 
Q 2878 2963 2633 3030 
Q 2388 3097 2138 3097 
Q 1578 3097 1268 2742 
Q 959 2388 959 1747 
Q 959 1106 1268 751 
Q 1578 397 2138 397 
Q 2388 397 2633 464 
Q 2878 531 3122 666 
L 3122 134 
Q 2881 22 2623 -34 
Q 2366 -91 2075 -91 
Q 1284 -91 818 406 
Q 353 903 353 1747 
Q 353 2603 823 3093 
Q 1294 3584 2113 3584 
Q 2378 3584 2631 3529 
Q 2884 3475 3122 3366 
z
" transform="scale(0.015625)"/>
     <path id="DejaVuSans-20" transform="scale(0.015625)"/>
     <path id="DejaVuSans-2d" d="M 313 2009 
L 1997 2009 
L 1997 1497 
L 313 1497 
L 313 2009 
z
" transform="scale(0.015625)"/>
     <path id="DejaVuSans-54" d="M -19 4666 
L 3928 4666 
L 3928 4134 
L 2272 4134 
L 2272 0 
L 1638 0 
L 1638 4134 
L -19 4134 
L -19 4666 
z
" transform="scale(0.015625)"/>
     <path id="DejaVuSans-61" d="M 2194 1759 
Q 1497 1759 1228 1600 
Q 959 1441 959 1056 
Q 959 750 1161 570 
Q 1363 391 1709 391 
Q 2188 391 2477 730 
Q 2766 1069 2766 1631 
L 2766 1759 
L 2194 1759 
z
M 3341 1997 
L 3341 0 
L 2766 0 
L 2766 531 
Q 2569 213 2275 61 
Q 1981 -91 1556 -91 
Q 1019 -91 701 211 
Q 384 513 384 1019 
Q 384 1609 779 1909 
Q 1175 2209 1959 2209 
L 2766 2209 
L 2766 2266 
Q 2766 2663 2505 2880 
Q 2244 3097 1772 3097 
Q 1472 3097 1187 3025 
Q 903 2953 641 2809 
L 641 3341 
Q 956 3463 1253 3523 
Q 1550 3584 1831 3584 
Q 2591 3584 2966 3190 
Q 3341 2797 3341 1997 
z
" transform="scale(0.015625)"/>
     <path id="DejaVuSans-73" d="M 2834 3397 
L 2834 2853 
Q 2591 2978 2328 3040 
Q 2066 3103 1784 3103 
Q 1356 3103 1142 2972 
Q 928 2841 928 2578 
Q 928 2378 1081 2264 
Q 1234 2150 1697 2047 
L 1894 2003 
Q 2506 1872 2764 1633 
Q 3022 1394 3022 966 
Q 3022 478 2636 193 
Q 2250 -91 1575 -91 
Q 1294 -91 989 -36 
Q 684 19 347 128 
L 347 722 
Q 666 556 975 473 
Q 1284 391 1588 391 
Q 1994 391 2212 530 
Q 2431 669 2431 922 
Q 2431 1156 2273 1281 
Q 2116 1406 1581 1522 
L 1381 1569 
Q 847 1681 609 1914 
Q 372 2147 372 2553 
Q 372 3047 722 3315 
Q 1072 3584 1716 3584 
Q 2034 3584 2315 3537 
Q 2597 3491 2834 3397 
z
" transform="scale(0.015625)"/>
     <path id="DejaVuSans-6b" d="M 581 4863 
L 1159 4863 
L 1159 1991 
L 2875 3500 
L 3609 3500 
L 1753 1863 
L 3688 0 
L 2938 0 
L 1159 1709 
L 1159 0 
L 581 0 
L 581 4863 
z
" transform="scale(0.015625)"/>
    </defs>
    <use xlink:href="#DejaVuSans-6e"/>
    <use xlink:href="#DejaVuSans-50" x="63.378906"/>
    <use xlink:href="#DejaVuSans-72" x="121.931641"/>
    <use xlink:href="#DejaVuSans-6f" x="160.794922"/>
    <use xlink:href="#DejaVuSans-63" x="221.976562"/>
    <use xlink:href="#DejaVuSans-20" x="276.957031"/>
    <use xlink:href="#DejaVuSans-2d" x="308.744141"/>
    <use xlink:href="#DejaVuSans-20" x="344.828125"/>
    <use xlink:href="#DejaVuSans-37" x="376.615234"/>
    <use xlink:href="#DejaVuSans-30" x="440.238281"/>
    <use xlink:href="#DejaVuSans-20" x="503.861328"/>
    <use xlink:href="#DejaVuSans-20" x="535.648438"/>
    <use xlink:href="#DejaVuSans-20" x="567.435547"/>
    <use xlink:href="#DejaVuSans-6e" x="599.222656"/>
    <use xlink:href="#DejaVuSans-54" x="662.601562"/>
    <use xlink:href="#DejaVuSans-61" x="707.185547"/>
    <use xlink:href="#DejaVuSans-73" x="768.464844"/>
    <use xlink:href="#DejaVuSans-6b" x="820.564453"/>
    <use xlink:href="#DejaVuSans-20" x="878.474609"/>
    <use xlink:href="#DejaVuSans-2d" x="910.261719"/>
    <use xlink:href="#DejaVuSans-20" x="946.345703"/>
    <use xlink:href="#DejaVuSans-33" x="978.132812"/>
    <use xlink:href="#DejaVuSans-35" x="1041.755859"/>
    <use xlink:href="#DejaVuSans-30" x="1105.378906"/>
   </g>
  </g>
 </g>
 <defs>
  <clipPath id="p5c77b25007">
   <rect x="180" y="43.2" width="328.235294" height="271.8"/>
  </clipPath>
  <clipPath id="pdb091752fd">
   <rect x="573.882353" y="43.2" width="328.235294" height="271.8"/>
  </clipPath>
  <clipPath id="p2b363a0704">
   <rect x="967.764706" y="43.2" width="328.235294" height="271.8"/>
  </clipPath>
 </defs>
</svg>
