<?xml version="1.0" encoding="utf-8" standalone="no"?>
<!DOCTYPE svg PUBLIC "-//W3C//DTD SVG 1.1//EN"
  "http://www.w3.org/Graphics/SVG/1.1/DTD/svg11.dtd">
<svg xmlns:xlink="http://www.w3.org/1999/xlink" width="1440pt" height="360pt" viewBox="0 0 1440 360" xmlns="http://www.w3.org/2000/svg" version="1.1">
 <metadata>
  <rdf:RDF xmlns:dc="http://purl.org/dc/elements/1.1/" xmlns:cc="http://creativecommons.org/ns#" xmlns:rdf="http://www.w3.org/1999/02/22-rdf-syntax-ns#">
   <cc:Work>
    <dc:type rdf:resource="http://purl.org/dc/dcmitype/StillImage"/>
    <dc:date>2021-12-18T01:23:32.133166</dc:date>
    <dc:format>image/svg+xml</dc:format>
    <dc:creator>
     <cc:Agent>
      <dc:title>Matplotlib v3.5.0, https://matplotlib.org/</dc:title>
     </cc:Agent>
    </dc:creator>
   </cc:Work>
  </rdf:RDF>
 </metadata>
 <defs>
  <style type="text/css">*{stroke-linejoin: round; stroke-linecap: butt}</style>
 </defs>
 <g id="figure_1">
  <g id="patch_1">
   <path d="M 0 360 
L 1440 360 
L 1440 0 
L 0 0 
L 0 360 
z
" style="fill: none"/>
  </g>
  <g id="axes_1">
   <g id="patch_2">
    <path d="M 180 315 
L 508.235294 315 
L 508.235294 43.2 
L 180 43.2 
z
" style="fill: #ffffff"/>
   </g>
   <g id="patch_3">
    <path d="M 180 313.641 
L 492.605042 313.641 
L 492.605042 302.769 
L 180 302.769 
z
" clip-path="url(#p108e76c9d1)" style="fill: #0000ff"/>
   </g>
   <g id="patch_4">
    <path d="M 180 300.051 
L 492.605042 300.051 
L 492.605042 289.179 
L 180 289.179 
z
" clip-path="url(#p108e76c9d1)" style="fill: #0000ff"/>
   </g>
   <g id="patch_5">
    <path d="M 180 286.461 
L 492.605042 286.461 
L 492.605042 275.589 
L 180 275.589 
z
" clip-path="url(#p108e76c9d1)" style="fill: #0000ff"/>
   </g>
   <g id="patch_6">
    <path d="M 180 272.871 
L 492.605042 272.871 
L 492.605042 261.999 
L 180 261.999 
z
" clip-path="url(#p108e76c9d1)" style="fill: #0000ff"/>
   </g>
   <g id="patch_7">
    <path d="M 180 259.281 
L 492.605042 259.281 
L 492.605042 248.409 
L 180 248.409 
z
" clip-path="url(#p108e76c9d1)" style="fill: #0000ff"/>
   </g>
   <g id="patch_8">
    <path d="M 180 245.691 
L 492.605042 245.691 
L 492.605042 234.819 
L 180 234.819 
z
" clip-path="url(#p108e76c9d1)" style="fill: #0000ff"/>
   </g>
   <g id="patch_9">
    <path d="M 180 232.101 
L 492.605042 232.101 
L 492.605042 221.229 
L 180 221.229 
z
" clip-path="url(#p108e76c9d1)" style="fill: #0000ff"/>
   </g>
   <g id="patch_10">
    <path d="M 180 218.511 
L 492.605042 218.511 
L 492.605042 207.639 
L 180 207.639 
z
" clip-path="url(#p108e76c9d1)" style="fill: #0000ff"/>
   </g>
   <g id="patch_11">
    <path d="M 180 204.921 
L 492.605042 204.921 
L 492.605042 194.049 
L 180 194.049 
z
" clip-path="url(#p108e76c9d1)" style="fill: #0000ff"/>
   </g>
   <g id="patch_12">
    <path d="M 180 191.331 
L 492.605042 191.331 
L 492.605042 180.459 
L 180 180.459 
z
" clip-path="url(#p108e76c9d1)" style="fill: #0000ff"/>
   </g>
   <g id="patch_13">
    <path d="M 180 177.741 
L 492.605042 177.741 
L 492.605042 166.869 
L 180 166.869 
z
" clip-path="url(#p108e76c9d1)" style="fill: #0000ff"/>
   </g>
   <g id="patch_14">
    <path d="M 180 164.151 
L 492.605042 164.151 
L 492.605042 153.279 
L 180 153.279 
z
" clip-path="url(#p108e76c9d1)" style="fill: #0000ff"/>
   </g>
   <g id="patch_15">
    <path d="M 180 150.561 
L 492.605042 150.561 
L 492.605042 139.689 
L 180 139.689 
z
" clip-path="url(#p108e76c9d1)" style="fill: #0000ff"/>
   </g>
   <g id="patch_16">
    <path d="M 180 136.971 
L 492.605042 136.971 
L 492.605042 126.099 
L 180 126.099 
z
" clip-path="url(#p108e76c9d1)" style="fill: #0000ff"/>
   </g>
   <g id="patch_17">
    <path d="M 180 123.381 
L 492.605042 123.381 
L 492.605042 112.509 
L 180 112.509 
z
" clip-path="url(#p108e76c9d1)" style="fill: #0000ff"/>
   </g>
   <g id="patch_18">
    <path d="M 180 109.791 
L 492.605042 109.791 
L 492.605042 98.919 
L 180 98.919 
z
" clip-path="url(#p108e76c9d1)" style="fill: #0000ff"/>
   </g>
   <g id="patch_19">
    <path d="M 180 96.201 
L 492.605042 96.201 
L 492.605042 85.329 
L 180 85.329 
z
" clip-path="url(#p108e76c9d1)" style="fill: #0000ff"/>
   </g>
   <g id="patch_20">
    <path d="M 180 82.611 
L 492.605042 82.611 
L 492.605042 71.739 
L 180 71.739 
z
" clip-path="url(#p108e76c9d1)" style="fill: #0000ff"/>
   </g>
   <g id="patch_21">
    <path d="M 180 69.021 
L 492.605042 69.021 
L 492.605042 58.149 
L 180 58.149 
z
" clip-path="url(#p108e76c9d1)" style="fill: #0000ff"/>
   </g>
   <g id="patch_22">
    <path d="M 180 55.431 
L 492.605042 55.431 
L 492.605042 44.559 
L 180 44.559 
z
" clip-path="url(#p108e76c9d1)" style="fill: #0000ff"/>
   </g>
   <g id="matplotlib.axis_1">
    <g id="xtick_1">
     <g id="line2d_1">
      <defs>
       <path id="m601b8e61b2" d="M 0 0 
L 0 3.5 
" style="stroke: #000000; stroke-width: 0.8"/>
      </defs>
      <g>
       <use xlink:href="#m601b8e61b2" x="180" y="315" style="stroke: #000000; stroke-width: 0.8"/>
      </g>
     </g>
     <g id="text_1">
      <!-- 0 -->
      <g transform="translate(176.81875 329.598437)scale(0.1 -0.1)">
       <defs>
        <path id="DejaVuSans-30" d="M 2034 4250 
Q 1547 4250 1301 3770 
Q 1056 3291 1056 2328 
Q 1056 1369 1301 889 
Q 1547 409 2034 409 
Q 2525 409 2770 889 
Q 3016 1369 3016 2328 
Q 3016 3291 2770 3770 
Q 2525 4250 2034 4250 
z
M 2034 4750 
Q 2819 4750 3233 4129 
Q 3647 3509 3647 2328 
Q 3647 1150 3233 529 
Q 2819 -91 2034 -91 
Q 1250 -91 836 529 
Q 422 1150 422 2328 
Q 422 3509 836 4129 
Q 1250 4750 2034 4750 
z
" transform="scale(0.015625)"/>
       </defs>
       <use xlink:href="#DejaVuSans-30"/>
      </g>
     </g>
    </g>
    <g id="xtick_2">
     <g id="line2d_2">
      <g>
       <use xlink:href="#m601b8e61b2" x="242.521008" y="315" style="stroke: #000000; stroke-width: 0.8"/>
      </g>
     </g>
     <g id="text_2">
      <!-- 200 -->
      <g transform="translate(232.977258 329.598437)scale(0.1 -0.1)">
       <defs>
        <path id="DejaVuSans-32" d="M 1228 531 
L 3431 531 
L 3431 0 
L 469 0 
L 469 531 
Q 828 903 1448 1529 
Q 2069 2156 2228 2338 
Q 2531 2678 2651 2914 
Q 2772 3150 2772 3378 
Q 2772 3750 2511 3984 
Q 2250 4219 1831 4219 
Q 1534 4219 1204 4116 
Q 875 4013 500 3803 
L 500 4441 
Q 881 4594 1212 4672 
Q 1544 4750 1819 4750 
Q 2544 4750 2975 4387 
Q 3406 4025 3406 3419 
Q 3406 3131 3298 2873 
Q 3191 2616 2906 2266 
Q 2828 2175 2409 1742 
Q 1991 1309 1228 531 
z
" transform="scale(0.015625)"/>
       </defs>
       <use xlink:href="#DejaVuSans-32"/>
       <use xlink:href="#DejaVuSans-30" x="63.623047"/>
       <use xlink:href="#DejaVuSans-30" x="127.246094"/>
      </g>
     </g>
    </g>
    <g id="xtick_3">
     <g id="line2d_3">
      <g>
       <use xlink:href="#m601b8e61b2" x="305.042017" y="315" style="stroke: #000000; stroke-width: 0.8"/>
      </g>
     </g>
     <g id="text_3">
      <!-- 400 -->
      <g transform="translate(295.498267 329.598437)scale(0.1 -0.1)">
       <defs>
        <path id="DejaVuSans-34" d="M 2419 4116 
L 825 1625 
L 2419 1625 
L 2419 4116 
z
M 2253 4666 
L 3047 4666 
L 3047 1625 
L 3713 1625 
L 3713 1100 
L 3047 1100 
L 3047 0 
L 2419 0 
L 2419 1100 
L 313 1100 
L 313 1709 
L 2253 4666 
z
" transform="scale(0.015625)"/>
       </defs>
       <use xlink:href="#DejaVuSans-34"/>
       <use xlink:href="#DejaVuSans-30" x="63.623047"/>
       <use xlink:href="#DejaVuSans-30" x="127.246094"/>
      </g>
     </g>
    </g>
    <g id="xtick_4">
     <g id="line2d_4">
      <g>
       <use xlink:href="#m601b8e61b2" x="367.563025" y="315" style="stroke: #000000; stroke-width: 0.8"/>
      </g>
     </g>
     <g id="text_4">
      <!-- 600 -->
      <g transform="translate(358.019275 329.598437)scale(0.1 -0.1)">
       <defs>
        <path id="DejaVuSans-36" d="M 2113 2584 
Q 1688 2584 1439 2293 
Q 1191 2003 1191 1497 
Q 1191 994 1439 701 
Q 1688 409 2113 409 
Q 2538 409 2786 701 
Q 3034 994 3034 1497 
Q 3034 2003 2786 2293 
Q 2538 2584 2113 2584 
z
M 3366 4563 
L 3366 3988 
Q 3128 4100 2886 4159 
Q 2644 4219 2406 4219 
Q 1781 4219 1451 3797 
Q 1122 3375 1075 2522 
Q 1259 2794 1537 2939 
Q 1816 3084 2150 3084 
Q 2853 3084 3261 2657 
Q 3669 2231 3669 1497 
Q 3669 778 3244 343 
Q 2819 -91 2113 -91 
Q 1303 -91 875 529 
Q 447 1150 447 2328 
Q 447 3434 972 4092 
Q 1497 4750 2381 4750 
Q 2619 4750 2861 4703 
Q 3103 4656 3366 4563 
z
" transform="scale(0.015625)"/>
       </defs>
       <use xlink:href="#DejaVuSans-36"/>
       <use xlink:href="#DejaVuSans-30" x="63.623047"/>
       <use xlink:href="#DejaVuSans-30" x="127.246094"/>
      </g>
     </g>
    </g>
    <g id="xtick_5">
     <g id="line2d_5">
      <g>
       <use xlink:href="#m601b8e61b2" x="430.084034" y="315" style="stroke: #000000; stroke-width: 0.8"/>
      </g>
     </g>
     <g id="text_5">
      <!-- 800 -->
      <g transform="translate(420.540284 329.598437)scale(0.1 -0.1)">
       <defs>
        <path id="DejaVuSans-38" d="M 2034 2216 
Q 1584 2216 1326 1975 
Q 1069 1734 1069 1313 
Q 1069 891 1326 650 
Q 1584 409 2034 409 
Q 2484 409 2743 651 
Q 3003 894 3003 1313 
Q 3003 1734 2745 1975 
Q 2488 2216 2034 2216 
z
M 1403 2484 
Q 997 2584 770 2862 
Q 544 3141 544 3541 
Q 544 4100 942 4425 
Q 1341 4750 2034 4750 
Q 2731 4750 3128 4425 
Q 3525 4100 3525 3541 
Q 3525 3141 3298 2862 
Q 3072 2584 2669 2484 
Q 3125 2378 3379 2068 
Q 3634 1759 3634 1313 
Q 3634 634 3220 271 
Q 2806 -91 2034 -91 
Q 1263 -91 848 271 
Q 434 634 434 1313 
Q 434 1759 690 2068 
Q 947 2378 1403 2484 
z
M 1172 3481 
Q 1172 3119 1398 2916 
Q 1625 2713 2034 2713 
Q 2441 2713 2670 2916 
Q 2900 3119 2900 3481 
Q 2900 3844 2670 4047 
Q 2441 4250 2034 4250 
Q 1625 4250 1398 4047 
Q 1172 3844 1172 3481 
z
" transform="scale(0.015625)"/>
       </defs>
       <use xlink:href="#DejaVuSans-38"/>
       <use xlink:href="#DejaVuSans-30" x="63.623047"/>
       <use xlink:href="#DejaVuSans-30" x="127.246094"/>
      </g>
     </g>
    </g>
    <g id="xtick_6">
     <g id="line2d_6">
      <g>
       <use xlink:href="#m601b8e61b2" x="492.605042" y="315" style="stroke: #000000; stroke-width: 0.8"/>
      </g>
     </g>
     <g id="text_6">
      <!-- 1000 -->
      <g transform="translate(479.880042 329.598437)scale(0.1 -0.1)">
       <defs>
        <path id="DejaVuSans-31" d="M 794 531 
L 1825 531 
L 1825 4091 
L 703 3866 
L 703 4441 
L 1819 4666 
L 2450 4666 
L 2450 531 
L 3481 531 
L 3481 0 
L 794 0 
L 794 531 
z
" transform="scale(0.015625)"/>
       </defs>
       <use xlink:href="#DejaVuSans-31"/>
       <use xlink:href="#DejaVuSans-30" x="63.623047"/>
       <use xlink:href="#DejaVuSans-30" x="127.246094"/>
       <use xlink:href="#DejaVuSans-30" x="190.869141"/>
      </g>
     </g>
    </g>
   </g>
   <g id="matplotlib.axis_2">
    <g id="ytick_1">
     <g id="line2d_7">
      <defs>
       <path id="mb055f9267c" d="M 0 0 
L -3.5 0 
" style="stroke: #000000; stroke-width: 0.8"/>
      </defs>
      <g>
       <use xlink:href="#mb055f9267c" x="180" y="287.82" style="stroke: #000000; stroke-width: 0.8"/>
      </g>
     </g>
     <g id="text_7">
      <!-- 2.5 -->
      <g transform="translate(157.096875 291.619219)scale(0.1 -0.1)">
       <defs>
        <path id="DejaVuSans-2e" d="M 684 794 
L 1344 794 
L 1344 0 
L 684 0 
L 684 794 
z
" transform="scale(0.015625)"/>
        <path id="DejaVuSans-35" d="M 691 4666 
L 3169 4666 
L 3169 4134 
L 1269 4134 
L 1269 2991 
Q 1406 3038 1543 3061 
Q 1681 3084 1819 3084 
Q 2600 3084 3056 2656 
Q 3513 2228 3513 1497 
Q 3513 744 3044 326 
Q 2575 -91 1722 -91 
Q 1428 -91 1123 -41 
Q 819 9 494 109 
L 494 744 
Q 775 591 1075 516 
Q 1375 441 1709 441 
Q 2250 441 2565 725 
Q 2881 1009 2881 1497 
Q 2881 1984 2565 2268 
Q 2250 2553 1709 2553 
Q 1456 2553 1204 2497 
Q 953 2441 691 2322 
L 691 4666 
z
" transform="scale(0.015625)"/>
       </defs>
       <use xlink:href="#DejaVuSans-32"/>
       <use xlink:href="#DejaVuSans-2e" x="63.623047"/>
       <use xlink:href="#DejaVuSans-35" x="95.410156"/>
      </g>
     </g>
    </g>
    <g id="ytick_2">
     <g id="line2d_8">
      <g>
       <use xlink:href="#mb055f9267c" x="180" y="253.845" style="stroke: #000000; stroke-width: 0.8"/>
      </g>
     </g>
     <g id="text_8">
      <!-- 5.0 -->
      <g transform="translate(157.096875 257.644219)scale(0.1 -0.1)">
       <use xlink:href="#DejaVuSans-35"/>
       <use xlink:href="#DejaVuSans-2e" x="63.623047"/>
       <use xlink:href="#DejaVuSans-30" x="95.410156"/>
      </g>
     </g>
    </g>
    <g id="ytick_3">
     <g id="line2d_9">
      <g>
       <use xlink:href="#mb055f9267c" x="180" y="219.87" style="stroke: #000000; stroke-width: 0.8"/>
      </g>
     </g>
     <g id="text_9">
      <!-- 7.5 -->
      <g transform="translate(157.096875 223.669219)scale(0.1 -0.1)">
       <defs>
        <path id="DejaVuSans-37" d="M 525 4666 
L 3525 4666 
L 3525 4397 
L 1831 0 
L 1172 0 
L 2766 4134 
L 525 4134 
L 525 4666 
z
" transform="scale(0.015625)"/>
       </defs>
       <use xlink:href="#DejaVuSans-37"/>
       <use xlink:href="#DejaVuSans-2e" x="63.623047"/>
       <use xlink:href="#DejaVuSans-35" x="95.410156"/>
      </g>
     </g>
    </g>
    <g id="ytick_4">
     <g id="line2d_10">
      <g>
       <use xlink:href="#mb055f9267c" x="180" y="185.895" style="stroke: #000000; stroke-width: 0.8"/>
      </g>
     </g>
     <g id="text_10">
      <!-- 10.0 -->
      <g transform="translate(150.734375 189.694219)scale(0.1 -0.1)">
       <use xlink:href="#DejaVuSans-31"/>
       <use xlink:href="#DejaVuSans-30" x="63.623047"/>
       <use xlink:href="#DejaVuSans-2e" x="127.246094"/>
       <use xlink:href="#DejaVuSans-30" x="159.033203"/>
      </g>
     </g>
    </g>
    <g id="ytick_5">
     <g id="line2d_11">
      <g>
       <use xlink:href="#mb055f9267c" x="180" y="151.92" style="stroke: #000000; stroke-width: 0.8"/>
      </g>
     </g>
     <g id="text_11">
      <!-- 12.5 -->
      <g transform="translate(150.734375 155.719219)scale(0.1 -0.1)">
       <use xlink:href="#DejaVuSans-31"/>
       <use xlink:href="#DejaVuSans-32" x="63.623047"/>
       <use xlink:href="#DejaVuSans-2e" x="127.246094"/>
       <use xlink:href="#DejaVuSans-35" x="159.033203"/>
      </g>
     </g>
    </g>
    <g id="ytick_6">
     <g id="line2d_12">
      <g>
       <use xlink:href="#mb055f9267c" x="180" y="117.945" style="stroke: #000000; stroke-width: 0.8"/>
      </g>
     </g>
     <g id="text_12">
      <!-- 15.0 -->
      <g transform="translate(150.734375 121.744219)scale(0.1 -0.1)">
       <use xlink:href="#DejaVuSans-31"/>
       <use xlink:href="#DejaVuSans-35" x="63.623047"/>
       <use xlink:href="#DejaVuSans-2e" x="127.246094"/>
       <use xlink:href="#DejaVuSans-30" x="159.033203"/>
      </g>
     </g>
    </g>
    <g id="ytick_7">
     <g id="line2d_13">
      <g>
       <use xlink:href="#mb055f9267c" x="180" y="83.97" style="stroke: #000000; stroke-width: 0.8"/>
      </g>
     </g>
     <g id="text_13">
      <!-- 17.5 -->
      <g transform="translate(150.734375 87.769219)scale(0.1 -0.1)">
       <use xlink:href="#DejaVuSans-31"/>
       <use xlink:href="#DejaVuSans-37" x="63.623047"/>
       <use xlink:href="#DejaVuSans-2e" x="127.246094"/>
       <use xlink:href="#DejaVuSans-35" x="159.033203"/>
      </g>
     </g>
    </g>
    <g id="ytick_8">
     <g id="line2d_14">
      <g>
       <use xlink:href="#mb055f9267c" x="180" y="49.995" style="stroke: #000000; stroke-width: 0.8"/>
      </g>
     </g>
     <g id="text_14">
      <!-- 20.0 -->
      <g transform="translate(150.734375 53.794219)scale(0.1 -0.1)">
       <use xlink:href="#DejaVuSans-32"/>
       <use xlink:href="#DejaVuSans-30" x="63.623047"/>
       <use xlink:href="#DejaVuSans-2e" x="127.246094"/>
       <use xlink:href="#DejaVuSans-30" x="159.033203"/>
      </g>
     </g>
    </g>
   </g>
   <g id="patch_23">
    <path d="M 180 315 
L 180 43.2 
" style="fill: none; stroke: #000000; stroke-width: 0.8; stroke-linejoin: miter; stroke-linecap: square"/>
   </g>
   <g id="patch_24">
    <path d="M 508.235294 315 
L 508.235294 43.2 
" style="fill: none; stroke: #000000; stroke-width: 0.8; stroke-linejoin: miter; stroke-linecap: square"/>
   </g>
   <g id="patch_25">
    <path d="M 180 315 
L 508.235294 315 
" style="fill: none; stroke: #000000; stroke-width: 0.8; stroke-linejoin: miter; stroke-linecap: square"/>
   </g>
   <g id="patch_26">
    <path d="M 180 43.2 
L 508.235294 43.2 
" style="fill: none; stroke: #000000; stroke-width: 0.8; stroke-linejoin: miter; stroke-linecap: square"/>
   </g>
  </g>
  <g id="axes_2">
   <g id="patch_27">
    <path d="M 573.882353 315 
L 902.117647 315 
L 902.117647 43.2 
L 573.882353 43.2 
z
" style="fill: #ffffff"/>
   </g>
   <g id="patch_28">
    <path d="M 573.882353 313.641 
L 867.061651 313.641 
L 867.061651 302.769 
L 573.882353 302.769 
z
" clip-path="url(#p5302ba7c7d)" style="fill: #008000"/>
   </g>
   <g id="patch_29">
    <path d="M 573.882353 300.051 
L 869.153655 300.051 
L 869.153655 289.179 
L 573.882353 289.179 
z
" clip-path="url(#p5302ba7c7d)" style="fill: #008000"/>
   </g>
   <g id="patch_30">
    <path d="M 573.882353 286.461 
L 881.406816 286.461 
L 881.406816 275.589 
L 573.882353 275.589 
z
" clip-path="url(#p5302ba7c7d)" style="fill: #008000"/>
   </g>
   <g id="patch_31">
    <path d="M 573.882353 272.871 
L 881.406816 272.871 
L 881.406816 261.999 
L 573.882353 261.999 
z
" clip-path="url(#p5302ba7c7d)" style="fill: #008000"/>
   </g>
   <g id="patch_32">
    <path d="M 573.882353 259.281 
L 886.487395 259.281 
L 886.487395 248.409 
L 573.882353 248.409 
z
" clip-path="url(#p5302ba7c7d)" style="fill: #008000"/>
   </g>
   <g id="patch_33">
    <path d="M 573.882353 245.691 
L 873.337661 245.691 
L 873.337661 234.819 
L 573.882353 234.819 
z
" clip-path="url(#p5302ba7c7d)" style="fill: #008000"/>
   </g>
   <g id="patch_34">
    <path d="M 573.882353 232.101 
L 878.717098 232.101 
L 878.717098 221.229 
L 573.882353 221.229 
z
" clip-path="url(#p5302ba7c7d)" style="fill: #008000"/>
   </g>
   <g id="patch_35">
    <path d="M 573.882353 218.511 
L 861.383357 218.511 
L 861.383357 207.639 
L 573.882353 207.639 
z
" clip-path="url(#p5302ba7c7d)" style="fill: #008000"/>
   </g>
   <g id="patch_36">
    <path d="M 573.882353 204.921 
L 869.75137 204.921 
L 869.75137 194.049 
L 573.882353 194.049 
z
" clip-path="url(#p5302ba7c7d)" style="fill: #008000"/>
   </g>
   <g id="patch_37">
    <path d="M 573.882353 191.331 
L 886.487395 191.331 
L 886.487395 180.459 
L 573.882353 180.459 
z
" clip-path="url(#p5302ba7c7d)" style="fill: #008000"/>
   </g>
   <g id="patch_38">
    <path d="M 573.882353 177.741 
L 880.211386 177.741 
L 880.211386 166.869 
L 573.882353 166.869 
z
" clip-path="url(#p5302ba7c7d)" style="fill: #008000"/>
   </g>
   <g id="patch_39">
    <path d="M 573.882353 164.151 
L 876.923952 164.151 
L 876.923952 153.279 
L 573.882353 153.279 
z
" clip-path="url(#p5302ba7c7d)" style="fill: #008000"/>
   </g>
   <g id="patch_40">
    <path d="M 573.882353 150.561 
L 857.797066 150.561 
L 857.797066 139.689 
L 573.882353 139.689 
z
" clip-path="url(#p5302ba7c7d)" style="fill: #008000"/>
   </g>
   <g id="patch_41">
    <path d="M 573.882353 136.971 
L 869.75137 136.971 
L 869.75137 126.099 
L 573.882353 126.099 
z
" clip-path="url(#p5302ba7c7d)" style="fill: #008000"/>
   </g>
   <g id="patch_42">
    <path d="M 573.882353 123.381 
L 873.935376 123.381 
L 873.935376 112.509 
L 573.882353 112.509 
z
" clip-path="url(#p5302ba7c7d)" style="fill: #008000"/>
   </g>
   <g id="patch_43">
    <path d="M 573.882353 109.791 
L 860.187927 109.791 
L 860.187927 98.919 
L 573.882353 98.919 
z
" clip-path="url(#p5302ba7c7d)" style="fill: #008000"/>
   </g>
   <g id="patch_44">
    <path d="M 573.882353 96.201 
L 866.463936 96.201 
L 866.463936 85.329 
L 573.882353 85.329 
z
" clip-path="url(#p5302ba7c7d)" style="fill: #008000"/>
   </g>
   <g id="patch_45">
    <path d="M 573.882353 82.611 
L 882.004531 82.611 
L 882.004531 71.739 
L 573.882353 71.739 
z
" clip-path="url(#p5302ba7c7d)" style="fill: #008000"/>
   </g>
   <g id="patch_46">
    <path d="M 573.882353 69.021 
L 863.176503 69.021 
L 863.176503 58.149 
L 573.882353 58.149 
z
" clip-path="url(#p5302ba7c7d)" style="fill: #008000"/>
   </g>
   <g id="patch_47">
    <path d="M 573.882353 55.431 
L 869.153655 55.431 
L 869.153655 44.559 
L 573.882353 44.559 
z
" clip-path="url(#p5302ba7c7d)" style="fill: #008000"/>
   </g>
   <g id="matplotlib.axis_3">
    <g id="xtick_7">
     <g id="line2d_15">
      <g>
       <use xlink:href="#m601b8e61b2" x="573.882353" y="315" style="stroke: #000000; stroke-width: 0.8"/>
      </g>
     </g>
     <g id="text_15">
      <!-- 0 -->
      <g transform="translate(570.701103 329.598437)scale(0.1 -0.1)">
       <use xlink:href="#DejaVuSans-30"/>
      </g>
     </g>
    </g>
    <g id="xtick_8">
     <g id="line2d_16">
      <g>
       <use xlink:href="#m601b8e61b2" x="633.653871" y="315" style="stroke: #000000; stroke-width: 0.8"/>
      </g>
     </g>
     <g id="text_16">
      <!-- 200 -->
      <g transform="translate(624.110121 329.598437)scale(0.1 -0.1)">
       <use xlink:href="#DejaVuSans-32"/>
       <use xlink:href="#DejaVuSans-30" x="63.623047"/>
       <use xlink:href="#DejaVuSans-30" x="127.246094"/>
      </g>
     </g>
    </g>
    <g id="xtick_9">
     <g id="line2d_17">
      <g>
       <use xlink:href="#m601b8e61b2" x="693.42539" y="315" style="stroke: #000000; stroke-width: 0.8"/>
      </g>
     </g>
     <g id="text_17">
      <!-- 400 -->
      <g transform="translate(683.88164 329.598437)scale(0.1 -0.1)">
       <use xlink:href="#DejaVuSans-34"/>
       <use xlink:href="#DejaVuSans-30" x="63.623047"/>
       <use xlink:href="#DejaVuSans-30" x="127.246094"/>
      </g>
     </g>
    </g>
    <g id="xtick_10">
     <g id="line2d_18">
      <g>
       <use xlink:href="#m601b8e61b2" x="753.196909" y="315" style="stroke: #000000; stroke-width: 0.8"/>
      </g>
     </g>
     <g id="text_18">
      <!-- 600 -->
      <g transform="translate(743.653159 329.598437)scale(0.1 -0.1)">
       <use xlink:href="#DejaVuSans-36"/>
       <use xlink:href="#DejaVuSans-30" x="63.623047"/>
       <use xlink:href="#DejaVuSans-30" x="127.246094"/>
      </g>
     </g>
    </g>
    <g id="xtick_11">
     <g id="line2d_19">
      <g>
       <use xlink:href="#m601b8e61b2" x="812.968427" y="315" style="stroke: #000000; stroke-width: 0.8"/>
      </g>
     </g>
     <g id="text_19">
      <!-- 800 -->
      <g transform="translate(803.424677 329.598437)scale(0.1 -0.1)">
       <use xlink:href="#DejaVuSans-38"/>
       <use xlink:href="#DejaVuSans-30" x="63.623047"/>
       <use xlink:href="#DejaVuSans-30" x="127.246094"/>
      </g>
     </g>
    </g>
    <g id="xtick_12">
     <g id="line2d_20">
      <g>
       <use xlink:href="#m601b8e61b2" x="872.739946" y="315" style="stroke: #000000; stroke-width: 0.8"/>
      </g>
     </g>
     <g id="text_20">
      <!-- 1000 -->
      <g transform="translate(860.014946 329.598437)scale(0.1 -0.1)">
       <use xlink:href="#DejaVuSans-31"/>
       <use xlink:href="#DejaVuSans-30" x="63.623047"/>
       <use xlink:href="#DejaVuSans-30" x="127.246094"/>
       <use xlink:href="#DejaVuSans-30" x="190.869141"/>
      </g>
     </g>
    </g>
   </g>
   <g id="matplotlib.axis_4">
    <g id="ytick_9">
     <g id="line2d_21">
      <g>
       <use xlink:href="#mb055f9267c" x="573.882353" y="287.82" style="stroke: #000000; stroke-width: 0.8"/>
      </g>
     </g>
     <g id="text_21">
      <!-- 2.5 -->
      <g transform="translate(550.979228 291.619219)scale(0.1 -0.1)">
       <use xlink:href="#DejaVuSans-32"/>
       <use xlink:href="#DejaVuSans-2e" x="63.623047"/>
       <use xlink:href="#DejaVuSans-35" x="95.410156"/>
      </g>
     </g>
    </g>
    <g id="ytick_10">
     <g id="line2d_22">
      <g>
       <use xlink:href="#mb055f9267c" x="573.882353" y="253.845" style="stroke: #000000; stroke-width: 0.8"/>
      </g>
     </g>
     <g id="text_22">
      <!-- 5.0 -->
      <g transform="translate(550.979228 257.644219)scale(0.1 -0.1)">
       <use xlink:href="#DejaVuSans-35"/>
       <use xlink:href="#DejaVuSans-2e" x="63.623047"/>
       <use xlink:href="#DejaVuSans-30" x="95.410156"/>
      </g>
     </g>
    </g>
    <g id="ytick_11">
     <g id="line2d_23">
      <g>
       <use xlink:href="#mb055f9267c" x="573.882353" y="219.87" style="stroke: #000000; stroke-width: 0.8"/>
      </g>
     </g>
     <g id="text_23">
      <!-- 7.5 -->
      <g transform="translate(550.979228 223.669219)scale(0.1 -0.1)">
       <use xlink:href="#DejaVuSans-37"/>
       <use xlink:href="#DejaVuSans-2e" x="63.623047"/>
       <use xlink:href="#DejaVuSans-35" x="95.410156"/>
      </g>
     </g>
    </g>
    <g id="ytick_12">
     <g id="line2d_24">
      <g>
       <use xlink:href="#mb055f9267c" x="573.882353" y="185.895" style="stroke: #000000; stroke-width: 0.8"/>
      </g>
     </g>
     <g id="text_24">
      <!-- 10.0 -->
      <g transform="translate(544.616728 189.694219)scale(0.1 -0.1)">
       <use xlink:href="#DejaVuSans-31"/>
       <use xlink:href="#DejaVuSans-30" x="63.623047"/>
       <use xlink:href="#DejaVuSans-2e" x="127.246094"/>
       <use xlink:href="#DejaVuSans-30" x="159.033203"/>
      </g>
     </g>
    </g>
    <g id="ytick_13">
     <g id="line2d_25">
      <g>
       <use xlink:href="#mb055f9267c" x="573.882353" y="151.92" style="stroke: #000000; stroke-width: 0.8"/>
      </g>
     </g>
     <g id="text_25">
      <!-- 12.5 -->
      <g transform="translate(544.616728 155.719219)scale(0.1 -0.1)">
       <use xlink:href="#DejaVuSans-31"/>
       <use xlink:href="#DejaVuSans-32" x="63.623047"/>
       <use xlink:href="#DejaVuSans-2e" x="127.246094"/>
       <use xlink:href="#DejaVuSans-35" x="159.033203"/>
      </g>
     </g>
    </g>
    <g id="ytick_14">
     <g id="line2d_26">
      <g>
       <use xlink:href="#mb055f9267c" x="573.882353" y="117.945" style="stroke: #000000; stroke-width: 0.8"/>
      </g>
     </g>
     <g id="text_26">
      <!-- 15.0 -->
      <g transform="translate(544.616728 121.744219)scale(0.1 -0.1)">
       <use xlink:href="#DejaVuSans-31"/>
       <use xlink:href="#DejaVuSans-35" x="63.623047"/>
       <use xlink:href="#DejaVuSans-2e" x="127.246094"/>
       <use xlink:href="#DejaVuSans-30" x="159.033203"/>
      </g>
     </g>
    </g>
    <g id="ytick_15">
     <g id="line2d_27">
      <g>
       <use xlink:href="#mb055f9267c" x="573.882353" y="83.97" style="stroke: #000000; stroke-width: 0.8"/>
      </g>
     </g>
     <g id="text_27">
      <!-- 17.5 -->
      <g transform="translate(544.616728 87.769219)scale(0.1 -0.1)">
       <use xlink:href="#DejaVuSans-31"/>
       <use xlink:href="#DejaVuSans-37" x="63.623047"/>
       <use xlink:href="#DejaVuSans-2e" x="127.246094"/>
       <use xlink:href="#DejaVuSans-35" x="159.033203"/>
      </g>
     </g>
    </g>
    <g id="ytick_16">
     <g id="line2d_28">
      <g>
       <use xlink:href="#mb055f9267c" x="573.882353" y="49.995" style="stroke: #000000; stroke-width: 0.8"/>
      </g>
     </g>
     <g id="text_28">
      <!-- 20.0 -->
      <g transform="translate(544.616728 53.794219)scale(0.1 -0.1)">
       <use xlink:href="#DejaVuSans-32"/>
       <use xlink:href="#DejaVuSans-30" x="63.623047"/>
       <use xlink:href="#DejaVuSans-2e" x="127.246094"/>
       <use xlink:href="#DejaVuSans-30" x="159.033203"/>
      </g>
     </g>
    </g>
   </g>
   <g id="patch_48">
    <path d="M 573.882353 315 
L 573.882353 43.2 
" style="fill: none; stroke: #000000; stroke-width: 0.8; stroke-linejoin: miter; stroke-linecap: square"/>
   </g>
   <g id="patch_49">
    <path d="M 902.117647 315 
L 902.117647 43.2 
" style="fill: none; stroke: #000000; stroke-width: 0.8; stroke-linejoin: miter; stroke-linecap: square"/>
   </g>
   <g id="patch_50">
    <path d="M 573.882353 315 
L 902.117647 315 
" style="fill: none; stroke: #000000; stroke-width: 0.8; stroke-linejoin: miter; stroke-linecap: square"/>
   </g>
   <g id="patch_51">
    <path d="M 573.882353 43.2 
L 902.117647 43.2 
" style="fill: none; stroke: #000000; stroke-width: 0.8; stroke-linejoin: miter; stroke-linecap: square"/>
   </g>
  </g>
  <g id="axes_3">
   <g id="patch_52">
    <path d="M 967.764706 315 
L 1296 315 
L 1296 43.2 
L 967.764706 43.2 
z
" style="fill: #ffffff"/>
   </g>
   <g id="patch_53">
    <path d="M 967.764706 313.641 
L 1171.473543 313.641 
L 1171.473543 302.769 
L 967.764706 302.769 
z
" clip-path="url(#p9fc660b0f9)" style="fill: #800080"/>
   </g>
   <g id="patch_54">
    <path d="M 967.764706 300.051 
L 1176.000406 300.051 
L 1176.000406 289.179 
L 967.764706 289.179 
z
" clip-path="url(#p9fc660b0f9)" style="fill: #800080"/>
   </g>
   <g id="patch_55">
    <path d="M 967.764706 286.461 
L 1172.22802 286.461 
L 1172.22802 275.589 
L 967.764706 275.589 
z
" clip-path="url(#p9fc660b0f9)" style="fill: #800080"/>
   </g>
   <g id="patch_56">
    <path d="M 967.764706 272.871 
L 1182.7907 272.871 
L 1182.7907 261.999 
L 967.764706 261.999 
z
" clip-path="url(#p9fc660b0f9)" style="fill: #800080"/>
   </g>
   <g id="patch_57">
    <path d="M 967.764706 259.281 
L 1223.280975 259.281 
L 1223.280975 248.409 
L 967.764706 248.409 
z
" clip-path="url(#p9fc660b0f9)" style="fill: #800080"/>
   </g>
   <g id="patch_58">
    <path d="M 967.764706 245.691 
L 1188.07204 245.691 
L 1188.07204 234.819 
L 967.764706 234.819 
z
" clip-path="url(#p9fc660b0f9)" style="fill: #800080"/>
   </g>
   <g id="patch_59">
    <path d="M 967.764706 232.101 
L 1196.874274 232.101 
L 1196.874274 221.229 
L 967.764706 221.229 
z
" clip-path="url(#p9fc660b0f9)" style="fill: #800080"/>
   </g>
   <g id="patch_60">
    <path d="M 967.764706 218.511 
L 1186.311594 218.511 
L 1186.311594 207.639 
L 967.764706 207.639 
z
" clip-path="url(#p9fc660b0f9)" style="fill: #800080"/>
   </g>
   <g id="patch_61">
    <path d="M 967.764706 204.921 
L 1187.820548 204.921 
L 1187.820548 194.049 
L 967.764706 194.049 
z
" clip-path="url(#p9fc660b0f9)" style="fill: #800080"/>
   </g>
   <g id="patch_62">
    <path d="M 967.764706 191.331 
L 1272.070499 191.331 
L 1272.070499 180.459 
L 967.764706 180.459 
z
" clip-path="url(#p9fc660b0f9)" style="fill: #800080"/>
   </g>
   <g id="patch_63">
    <path d="M 967.764706 177.741 
L 1266.286174 177.741 
L 1266.286174 166.869 
L 967.764706 166.869 
z
" clip-path="url(#p9fc660b0f9)" style="fill: #800080"/>
   </g>
   <g id="patch_64">
    <path d="M 967.764706 164.151 
L 1280.369748 164.151 
L 1280.369748 153.279 
L 967.764706 153.279 
z
" clip-path="url(#p9fc660b0f9)" style="fill: #800080"/>
   </g>
   <g id="patch_65">
    <path d="M 967.764706 150.561 
L 1190.838457 150.561 
L 1190.838457 139.689 
L 967.764706 139.689 
z
" clip-path="url(#p9fc660b0f9)" style="fill: #800080"/>
   </g>
   <g id="patch_66">
    <path d="M 967.764706 136.971 
L 1201.401137 136.971 
L 1201.401137 126.099 
L 967.764706 126.099 
z
" clip-path="url(#p9fc660b0f9)" style="fill: #800080"/>
   </g>
   <g id="patch_67">
    <path d="M 967.764706 123.381 
L 1198.634721 123.381 
L 1198.634721 112.509 
L 967.764706 112.509 
z
" clip-path="url(#p9fc660b0f9)" style="fill: #800080"/>
   </g>
   <g id="patch_68">
    <path d="M 967.764706 109.791 
L 1213.975757 109.791 
L 1213.975757 98.919 
L 967.764706 98.919 
z
" clip-path="url(#p9fc660b0f9)" style="fill: #800080"/>
   </g>
   <g id="patch_69">
    <path d="M 967.764706 96.201 
L 1271.316022 96.201 
L 1271.316022 85.329 
L 967.764706 85.329 
z
" clip-path="url(#p9fc660b0f9)" style="fill: #800080"/>
   </g>
   <g id="patch_70">
    <path d="M 967.764706 82.611 
L 1262.010803 82.611 
L 1262.010803 71.739 
L 967.764706 71.739 
z
" clip-path="url(#p9fc660b0f9)" style="fill: #800080"/>
   </g>
   <g id="patch_71">
    <path d="M 967.764706 69.021 
L 1267.292144 69.021 
L 1267.292144 58.149 
L 967.764706 58.149 
z
" clip-path="url(#p9fc660b0f9)" style="fill: #800080"/>
   </g>
   <g id="patch_72">
    <path d="M 967.764706 55.431 
L 1276.094377 55.431 
L 1276.094377 44.559 
L 967.764706 44.559 
z
" clip-path="url(#p9fc660b0f9)" style="fill: #800080"/>
   </g>
   <g id="matplotlib.axis_5">
    <g id="xtick_13">
     <g id="line2d_29">
      <g>
       <use xlink:href="#m601b8e61b2" x="967.764706" y="315" style="stroke: #000000; stroke-width: 0.8"/>
      </g>
     </g>
     <g id="text_29">
      <!-- 0 -->
      <g transform="translate(964.583456 329.598437)scale(0.1 -0.1)">
       <use xlink:href="#DejaVuSans-30"/>
      </g>
     </g>
    </g>
    <g id="xtick_14">
     <g id="line2d_30">
      <g>
       <use xlink:href="#m601b8e61b2" x="1018.063184" y="315" style="stroke: #000000; stroke-width: 0.8"/>
      </g>
     </g>
     <g id="text_30">
      <!-- 200 -->
      <g transform="translate(1008.519434 329.598437)scale(0.1 -0.1)">
       <use xlink:href="#DejaVuSans-32"/>
       <use xlink:href="#DejaVuSans-30" x="63.623047"/>
       <use xlink:href="#DejaVuSans-30" x="127.246094"/>
      </g>
     </g>
    </g>
    <g id="xtick_15">
     <g id="line2d_31">
      <g>
       <use xlink:href="#m601b8e61b2" x="1068.361662" y="315" style="stroke: #000000; stroke-width: 0.8"/>
      </g>
     </g>
     <g id="text_31">
      <!-- 400 -->
      <g transform="translate(1058.817912 329.598437)scale(0.1 -0.1)">
       <use xlink:href="#DejaVuSans-34"/>
       <use xlink:href="#DejaVuSans-30" x="63.623047"/>
       <use xlink:href="#DejaVuSans-30" x="127.246094"/>
      </g>
     </g>
    </g>
    <g id="xtick_16">
     <g id="line2d_32">
      <g>
       <use xlink:href="#m601b8e61b2" x="1118.66014" y="315" style="stroke: #000000; stroke-width: 0.8"/>
      </g>
     </g>
     <g id="text_32">
      <!-- 600 -->
      <g transform="translate(1109.11639 329.598437)scale(0.1 -0.1)">
       <use xlink:href="#DejaVuSans-36"/>
       <use xlink:href="#DejaVuSans-30" x="63.623047"/>
       <use xlink:href="#DejaVuSans-30" x="127.246094"/>
      </g>
     </g>
    </g>
    <g id="xtick_17">
     <g id="line2d_33">
      <g>
       <use xlink:href="#m601b8e61b2" x="1168.958619" y="315" style="stroke: #000000; stroke-width: 0.8"/>
      </g>
     </g>
     <g id="text_33">
      <!-- 800 -->
      <g transform="translate(1159.414869 329.598437)scale(0.1 -0.1)">
       <use xlink:href="#DejaVuSans-38"/>
       <use xlink:href="#DejaVuSans-30" x="63.623047"/>
       <use xlink:href="#DejaVuSans-30" x="127.246094"/>
      </g>
     </g>
    </g>
    <g id="xtick_18">
     <g id="line2d_34">
      <g>
       <use xlink:href="#m601b8e61b2" x="1219.257097" y="315" style="stroke: #000000; stroke-width: 0.8"/>
      </g>
     </g>
     <g id="text_34">
      <!-- 1000 -->
      <g transform="translate(1206.532097 329.598437)scale(0.1 -0.1)">
       <use xlink:href="#DejaVuSans-31"/>
       <use xlink:href="#DejaVuSans-30" x="63.623047"/>
       <use xlink:href="#DejaVuSans-30" x="127.246094"/>
       <use xlink:href="#DejaVuSans-30" x="190.869141"/>
      </g>
     </g>
    </g>
    <g id="xtick_19">
     <g id="line2d_35">
      <g>
       <use xlink:href="#m601b8e61b2" x="1269.555575" y="315" style="stroke: #000000; stroke-width: 0.8"/>
      </g>
     </g>
     <g id="text_35">
      <!-- 1200 -->
      <g transform="translate(1256.830575 329.598437)scale(0.1 -0.1)">
       <use xlink:href="#DejaVuSans-31"/>
       <use xlink:href="#DejaVuSans-32" x="63.623047"/>
       <use xlink:href="#DejaVuSans-30" x="127.246094"/>
       <use xlink:href="#DejaVuSans-30" x="190.869141"/>
      </g>
     </g>
    </g>
   </g>
   <g id="matplotlib.axis_6">
    <g id="ytick_17">
     <g id="line2d_36">
      <g>
       <use xlink:href="#mb055f9267c" x="967.764706" y="287.82" style="stroke: #000000; stroke-width: 0.8"/>
      </g>
     </g>
     <g id="text_36">
      <!-- 2.5 -->
      <g transform="translate(944.861581 291.619219)scale(0.1 -0.1)">
       <use xlink:href="#DejaVuSans-32"/>
       <use xlink:href="#DejaVuSans-2e" x="63.623047"/>
       <use xlink:href="#DejaVuSans-35" x="95.410156"/>
      </g>
     </g>
    </g>
    <g id="ytick_18">
     <g id="line2d_37">
      <g>
       <use xlink:href="#mb055f9267c" x="967.764706" y="253.845" style="stroke: #000000; stroke-width: 0.8"/>
      </g>
     </g>
     <g id="text_37">
      <!-- 5.0 -->
      <g transform="translate(944.861581 257.644219)scale(0.1 -0.1)">
       <use xlink:href="#DejaVuSans-35"/>
       <use xlink:href="#DejaVuSans-2e" x="63.623047"/>
       <use xlink:href="#DejaVuSans-30" x="95.410156"/>
      </g>
     </g>
    </g>
    <g id="ytick_19">
     <g id="line2d_38">
      <g>
       <use xlink:href="#mb055f9267c" x="967.764706" y="219.87" style="stroke: #000000; stroke-width: 0.8"/>
      </g>
     </g>
     <g id="text_38">
      <!-- 7.5 -->
      <g transform="translate(944.861581 223.669219)scale(0.1 -0.1)">
       <use xlink:href="#DejaVuSans-37"/>
       <use xlink:href="#DejaVuSans-2e" x="63.623047"/>
       <use xlink:href="#DejaVuSans-35" x="95.410156"/>
      </g>
     </g>
    </g>
    <g id="ytick_20">
     <g id="line2d_39">
      <g>
       <use xlink:href="#mb055f9267c" x="967.764706" y="185.895" style="stroke: #000000; stroke-width: 0.8"/>
      </g>
     </g>
     <g id="text_39">
      <!-- 10.0 -->
      <g transform="translate(938.499081 189.694219)scale(0.1 -0.1)">
       <use xlink:href="#DejaVuSans-31"/>
       <use xlink:href="#DejaVuSans-30" x="63.623047"/>
       <use xlink:href="#DejaVuSans-2e" x="127.246094"/>
       <use xlink:href="#DejaVuSans-30" x="159.033203"/>
      </g>
     </g>
    </g>
    <g id="ytick_21">
     <g id="line2d_40">
      <g>
       <use xlink:href="#mb055f9267c" x="967.764706" y="151.92" style="stroke: #000000; stroke-width: 0.8"/>
      </g>
     </g>
     <g id="text_40">
      <!-- 12.5 -->
      <g transform="translate(938.499081 155.719219)scale(0.1 -0.1)">
       <use xlink:href="#DejaVuSans-31"/>
       <use xlink:href="#DejaVuSans-32" x="63.623047"/>
       <use xlink:href="#DejaVuSans-2e" x="127.246094"/>
       <use xlink:href="#DejaVuSans-35" x="159.033203"/>
      </g>
     </g>
    </g>
    <g id="ytick_22">
     <g id="line2d_41">
      <g>
       <use xlink:href="#mb055f9267c" x="967.764706" y="117.945" style="stroke: #000000; stroke-width: 0.8"/>
      </g>
     </g>
     <g id="text_41">
      <!-- 15.0 -->
      <g transform="translate(938.499081 121.744219)scale(0.1 -0.1)">
       <use xlink:href="#DejaVuSans-31"/>
       <use xlink:href="#DejaVuSans-35" x="63.623047"/>
       <use xlink:href="#DejaVuSans-2e" x="127.246094"/>
       <use xlink:href="#DejaVuSans-30" x="159.033203"/>
      </g>
     </g>
    </g>
    <g id="ytick_23">
     <g id="line2d_42">
      <g>
       <use xlink:href="#mb055f9267c" x="967.764706" y="83.97" style="stroke: #000000; stroke-width: 0.8"/>
      </g>
     </g>
     <g id="text_42">
      <!-- 17.5 -->
      <g transform="translate(938.499081 87.769219)scale(0.1 -0.1)">
       <use xlink:href="#DejaVuSans-31"/>
       <use xlink:href="#DejaVuSans-37" x="63.623047"/>
       <use xlink:href="#DejaVuSans-2e" x="127.246094"/>
       <use xlink:href="#DejaVuSans-35" x="159.033203"/>
      </g>
     </g>
    </g>
    <g id="ytick_24">
     <g id="line2d_43">
      <g>
       <use xlink:href="#mb055f9267c" x="967.764706" y="49.995" style="stroke: #000000; stroke-width: 0.8"/>
      </g>
     </g>
     <g id="text_43">
      <!-- 20.0 -->
      <g transform="translate(938.499081 53.794219)scale(0.1 -0.1)">
       <use xlink:href="#DejaVuSans-32"/>
       <use xlink:href="#DejaVuSans-30" x="63.623047"/>
       <use xlink:href="#DejaVuSans-2e" x="127.246094"/>
       <use xlink:href="#DejaVuSans-30" x="159.033203"/>
      </g>
     </g>
    </g>
   </g>
   <g id="patch_73">
    <path d="M 967.764706 315 
L 967.764706 43.2 
" style="fill: none; stroke: #000000; stroke-width: 0.8; stroke-linejoin: miter; stroke-linecap: square"/>
   </g>
   <g id="patch_74">
    <path d="M 1296 315 
L 1296 43.2 
" style="fill: none; stroke: #000000; stroke-width: 0.8; stroke-linejoin: miter; stroke-linecap: square"/>
   </g>
   <g id="patch_75">
    <path d="M 967.764706 315 
L 1296 315 
" style="fill: none; stroke: #000000; stroke-width: 0.8; stroke-linejoin: miter; stroke-linecap: square"/>
   </g>
   <g id="patch_76">
    <path d="M 967.764706 43.2 
L 1296 43.2 
" style="fill: none; stroke: #000000; stroke-width: 0.8; stroke-linejoin: miter; stroke-linecap: square"/>
   </g>
  </g>
  <g id="text_44">
   <!-- nProc - 20   nTask - 140 -->
   <g transform="translate(649.86375 16.318125)scale(0.12 -0.12)">
    <defs>
     <path id="DejaVuSans-6e" d="M 3513 2113 
L 3513 0 
L 2938 0 
L 2938 2094 
Q 2938 2591 2744 2837 
Q 2550 3084 2163 3084 
Q 1697 3084 1428 2787 
Q 1159 2491 1159 1978 
L 1159 0 
L 581 0 
L 581 3500 
L 1159 3500 
L 1159 2956 
Q 1366 3272 1645 3428 
Q 1925 3584 2291 3584 
Q 2894 3584 3203 3211 
Q 3513 2838 3513 2113 
z
" transform="scale(0.015625)"/>
     <path id="DejaVuSans-50" d="M 1259 4147 
L 1259 2394 
L 2053 2394 
Q 2494 2394 2734 2622 
Q 2975 2850 2975 3272 
Q 2975 3691 2734 3919 
Q 2494 4147 2053 4147 
L 1259 4147 
z
M 628 4666 
L 2053 4666 
Q 2838 4666 3239 4311 
Q 3641 3956 3641 3272 
Q 3641 2581 3239 2228 
Q 2838 1875 2053 1875 
L 1259 1875 
L 1259 0 
L 628 0 
L 628 4666 
z
" transform="scale(0.015625)"/>
     <path id="DejaVuSans-72" d="M 2631 2963 
Q 2534 3019 2420 3045 
Q 2306 3072 2169 3072 
Q 1681 3072 1420 2755 
Q 1159 2438 1159 1844 
L 1159 0 
L 581 0 
L 581 3500 
L 1159 3500 
L 1159 2956 
Q 1341 3275 1631 3429 
Q 1922 3584 2338 3584 
Q 2397 3584 2469 3576 
Q 2541 3569 2628 3553 
L 2631 2963 
z
" transform="scale(0.015625)"/>
     <path id="DejaVuSans-6f" d="M 1959 3097 
Q 1497 3097 1228 2736 
Q 959 2375 959 1747 
Q 959 1119 1226 758 
Q 1494 397 1959 397 
Q 2419 397 2687 759 
Q 2956 1122 2956 1747 
Q 2956 2369 2687 2733 
Q 2419 3097 1959 3097 
z
M 1959 3584 
Q 2709 3584 3137 3096 
Q 3566 2609 3566 1747 
Q 3566 888 3137 398 
Q 2709 -91 1959 -91 
Q 1206 -91 779 398 
Q 353 888 353 1747 
Q 353 2609 779 3096 
Q 1206 3584 1959 3584 
z
" transform="scale(0.015625)"/>
     <path id="DejaVuSans-63" d="M 3122 3366 
L 3122 2828 
Q 2878 2963 2633 3030 
Q 2388 3097 2138 3097 
Q 1578 3097 1268 2742 
Q 959 2388 959 1747 
Q 959 1106 1268 751 
Q 1578 397 2138 397 
Q 2388 397 2633 464 
Q 2878 531 3122 666 
L 3122 134 
Q 2881 22 2623 -34 
Q 2366 -91 2075 -91 
Q 1284 -91 818 406 
Q 353 903 353 1747 
Q 353 2603 823 3093 
Q 1294 3584 2113 3584 
Q 2378 3584 2631 3529 
Q 2884 3475 3122 3366 
z
" transform="scale(0.015625)"/>
     <path id="DejaVuSans-20" transform="scale(0.015625)"/>
     <path id="DejaVuSans-2d" d="M 313 2009 
L 1997 2009 
L 1997 1497 
L 313 1497 
L 313 2009 
z
" transform="scale(0.015625)"/>
     <path id="DejaVuSans-54" d="M -19 4666 
L 3928 4666 
L 3928 4134 
L 2272 4134 
L 2272 0 
L 1638 0 
L 1638 4134 
L -19 4134 
L -19 4666 
z
" transform="scale(0.015625)"/>
     <path id="DejaVuSans-61" d="M 2194 1759 
Q 1497 1759 1228 1600 
Q 959 1441 959 1056 
Q 959 750 1161 570 
Q 1363 391 1709 391 
Q 2188 391 2477 730 
Q 2766 1069 2766 1631 
L 2766 1759 
L 2194 1759 
z
M 3341 1997 
L 3341 0 
L 2766 0 
L 2766 531 
Q 2569 213 2275 61 
Q 1981 -91 1556 -91 
Q 1019 -91 701 211 
Q 384 513 384 1019 
Q 384 1609 779 1909 
Q 1175 2209 1959 2209 
L 2766 2209 
L 2766 2266 
Q 2766 2663 2505 2880 
Q 2244 3097 1772 3097 
Q 1472 3097 1187 3025 
Q 903 2953 641 2809 
L 641 3341 
Q 956 3463 1253 3523 
Q 1550 3584 1831 3584 
Q 2591 3584 2966 3190 
Q 3341 2797 3341 1997 
z
" transform="scale(0.015625)"/>
     <path id="DejaVuSans-73" d="M 2834 3397 
L 2834 2853 
Q 2591 2978 2328 3040 
Q 2066 3103 1784 3103 
Q 1356 3103 1142 2972 
Q 928 2841 928 2578 
Q 928 2378 1081 2264 
Q 1234 2150 1697 2047 
L 1894 2003 
Q 2506 1872 2764 1633 
Q 3022 1394 3022 966 
Q 3022 478 2636 193 
Q 2250 -91 1575 -91 
Q 1294 -91 989 -36 
Q 684 19 347 128 
L 347 722 
Q 666 556 975 473 
Q 1284 391 1588 391 
Q 1994 391 2212 530 
Q 2431 669 2431 922 
Q 2431 1156 2273 1281 
Q 2116 1406 1581 1522 
L 1381 1569 
Q 847 1681 609 1914 
Q 372 2147 372 2553 
Q 372 3047 722 3315 
Q 1072 3584 1716 3584 
Q 2034 3584 2315 3537 
Q 2597 3491 2834 3397 
z
" transform="scale(0.015625)"/>
     <path id="DejaVuSans-6b" d="M 581 4863 
L 1159 4863 
L 1159 1991 
L 2875 3500 
L 3609 3500 
L 1753 1863 
L 3688 0 
L 2938 0 
L 1159 1709 
L 1159 0 
L 581 0 
L 581 4863 
z
" transform="scale(0.015625)"/>
    </defs>
    <use xlink:href="#DejaVuSans-6e"/>
    <use xlink:href="#DejaVuSans-50" x="63.378906"/>
    <use xlink:href="#DejaVuSans-72" x="121.931641"/>
    <use xlink:href="#DejaVuSans-6f" x="160.794922"/>
    <use xlink:href="#DejaVuSans-63" x="221.976562"/>
    <use xlink:href="#DejaVuSans-20" x="276.957031"/>
    <use xlink:href="#DejaVuSans-2d" x="308.744141"/>
    <use xlink:href="#DejaVuSans-20" x="344.828125"/>
    <use xlink:href="#DejaVuSans-32" x="376.615234"/>
    <use xlink:href="#DejaVuSans-30" x="440.238281"/>
    <use xlink:href="#DejaVuSans-20" x="503.861328"/>
    <use xlink:href="#DejaVuSans-20" x="535.648438"/>
    <use xlink:href="#DejaVuSans-20" x="567.435547"/>
    <use xlink:href="#DejaVuSans-6e" x="599.222656"/>
    <use xlink:href="#DejaVuSans-54" x="662.601562"/>
    <use xlink:href="#DejaVuSans-61" x="707.185547"/>
    <use xlink:href="#DejaVuSans-73" x="768.464844"/>
    <use xlink:href="#DejaVuSans-6b" x="820.564453"/>
    <use xlink:href="#DejaVuSans-20" x="878.474609"/>
    <use xlink:href="#DejaVuSans-2d" x="910.261719"/>
    <use xlink:href="#DejaVuSans-20" x="946.345703"/>
    <use xlink:href="#DejaVuSans-31" x="978.132812"/>
    <use xlink:href="#DejaVuSans-34" x="1041.755859"/>
    <use xlink:href="#DejaVuSans-30" x="1105.378906"/>
   </g>
  </g>
 </g>
 <defs>
  <clipPath id="p108e76c9d1">
   <rect x="180" y="43.2" width="328.235294" height="271.8"/>
  </clipPath>
  <clipPath id="p5302ba7c7d">
   <rect x="573.882353" y="43.2" width="328.235294" height="271.8"/>
  </clipPath>
  <clipPath id="p9fc660b0f9">
   <rect x="967.764706" y="43.2" width="328.235294" height="271.8"/>
  </clipPath>
 </defs>
</svg>
