<?xml version="1.0" encoding="utf-8" standalone="no"?>
<!DOCTYPE svg PUBLIC "-//W3C//DTD SVG 1.1//EN"
  "http://www.w3.org/Graphics/SVG/1.1/DTD/svg11.dtd">
<svg xmlns:xlink="http://www.w3.org/1999/xlink" width="1440pt" height="360pt" viewBox="0 0 1440 360" xmlns="http://www.w3.org/2000/svg" version="1.1">
 <metadata>
  <rdf:RDF xmlns:dc="http://purl.org/dc/elements/1.1/" xmlns:cc="http://creativecommons.org/ns#" xmlns:rdf="http://www.w3.org/1999/02/22-rdf-syntax-ns#">
   <cc:Work>
    <dc:type rdf:resource="http://purl.org/dc/dcmitype/StillImage"/>
    <dc:date>2022-01-12T21:19:40.521494</dc:date>
    <dc:format>image/svg+xml</dc:format>
    <dc:creator>
     <cc:Agent>
      <dc:title>Matplotlib v3.5.0, https://matplotlib.org/</dc:title>
     </cc:Agent>
    </dc:creator>
   </cc:Work>
  </rdf:RDF>
 </metadata>
 <defs>
  <style type="text/css">*{stroke-linejoin: round; stroke-linecap: butt}</style>
 </defs>
 <g id="figure_1">
  <g id="patch_1">
   <path d="M 0 360 
L 1440 360 
L 1440 0 
L 0 0 
z
" style="fill: #ffffff"/>
  </g>
  <g id="axes_1">
   <g id="patch_2">
    <path d="M 180 315 
L 508.235294 315 
L 508.235294 43.2 
L 180 43.2 
z
" style="fill: #ffffff"/>
   </g>
   <g id="patch_3">
    <path d="M 180 314.4564 
L 492.605042 314.4564 
L 492.605042 310.1076 
L 180 310.1076 
z
" clip-path="url(#p97367fcd67)" style="fill: #0000ff"/>
   </g>
   <g id="patch_4">
    <path d="M 180 309.0204 
L 492.605042 309.0204 
L 492.605042 304.6716 
L 180 304.6716 
z
" clip-path="url(#p97367fcd67)" style="fill: #0000ff"/>
   </g>
   <g id="patch_5">
    <path d="M 180 303.5844 
L 492.605042 303.5844 
L 492.605042 299.2356 
L 180 299.2356 
z
" clip-path="url(#p97367fcd67)" style="fill: #0000ff"/>
   </g>
   <g id="patch_6">
    <path d="M 180 298.1484 
L 492.605042 298.1484 
L 492.605042 293.7996 
L 180 293.7996 
z
" clip-path="url(#p97367fcd67)" style="fill: #0000ff"/>
   </g>
   <g id="patch_7">
    <path d="M 180 292.7124 
L 492.605042 292.7124 
L 492.605042 288.3636 
L 180 288.3636 
z
" clip-path="url(#p97367fcd67)" style="fill: #0000ff"/>
   </g>
   <g id="patch_8">
    <path d="M 180 287.2764 
L 492.605042 287.2764 
L 492.605042 282.9276 
L 180 282.9276 
z
" clip-path="url(#p97367fcd67)" style="fill: #0000ff"/>
   </g>
   <g id="patch_9">
    <path d="M 180 281.8404 
L 492.605042 281.8404 
L 492.605042 277.4916 
L 180 277.4916 
z
" clip-path="url(#p97367fcd67)" style="fill: #0000ff"/>
   </g>
   <g id="patch_10">
    <path d="M 180 276.4044 
L 492.605042 276.4044 
L 492.605042 272.0556 
L 180 272.0556 
z
" clip-path="url(#p97367fcd67)" style="fill: #0000ff"/>
   </g>
   <g id="patch_11">
    <path d="M 180 270.9684 
L 492.605042 270.9684 
L 492.605042 266.6196 
L 180 266.6196 
z
" clip-path="url(#p97367fcd67)" style="fill: #0000ff"/>
   </g>
   <g id="patch_12">
    <path d="M 180 265.5324 
L 492.605042 265.5324 
L 492.605042 261.1836 
L 180 261.1836 
z
" clip-path="url(#p97367fcd67)" style="fill: #0000ff"/>
   </g>
   <g id="patch_13">
    <path d="M 180 260.0964 
L 492.605042 260.0964 
L 492.605042 255.7476 
L 180 255.7476 
z
" clip-path="url(#p97367fcd67)" style="fill: #0000ff"/>
   </g>
   <g id="patch_14">
    <path d="M 180 254.6604 
L 492.605042 254.6604 
L 492.605042 250.3116 
L 180 250.3116 
z
" clip-path="url(#p97367fcd67)" style="fill: #0000ff"/>
   </g>
   <g id="patch_15">
    <path d="M 180 249.2244 
L 492.605042 249.2244 
L 492.605042 244.8756 
L 180 244.8756 
z
" clip-path="url(#p97367fcd67)" style="fill: #0000ff"/>
   </g>
   <g id="patch_16">
    <path d="M 180 243.7884 
L 492.605042 243.7884 
L 492.605042 239.4396 
L 180 239.4396 
z
" clip-path="url(#p97367fcd67)" style="fill: #0000ff"/>
   </g>
   <g id="patch_17">
    <path d="M 180 238.3524 
L 492.605042 238.3524 
L 492.605042 234.0036 
L 180 234.0036 
z
" clip-path="url(#p97367fcd67)" style="fill: #0000ff"/>
   </g>
   <g id="patch_18">
    <path d="M 180 232.9164 
L 492.605042 232.9164 
L 492.605042 228.5676 
L 180 228.5676 
z
" clip-path="url(#p97367fcd67)" style="fill: #0000ff"/>
   </g>
   <g id="patch_19">
    <path d="M 180 227.4804 
L 492.605042 227.4804 
L 492.605042 223.1316 
L 180 223.1316 
z
" clip-path="url(#p97367fcd67)" style="fill: #0000ff"/>
   </g>
   <g id="patch_20">
    <path d="M 180 222.0444 
L 492.605042 222.0444 
L 492.605042 217.6956 
L 180 217.6956 
z
" clip-path="url(#p97367fcd67)" style="fill: #0000ff"/>
   </g>
   <g id="patch_21">
    <path d="M 180 216.6084 
L 492.605042 216.6084 
L 492.605042 212.2596 
L 180 212.2596 
z
" clip-path="url(#p97367fcd67)" style="fill: #0000ff"/>
   </g>
   <g id="patch_22">
    <path d="M 180 211.1724 
L 492.605042 211.1724 
L 492.605042 206.8236 
L 180 206.8236 
z
" clip-path="url(#p97367fcd67)" style="fill: #0000ff"/>
   </g>
   <g id="patch_23">
    <path d="M 180 205.7364 
L 492.605042 205.7364 
L 492.605042 201.3876 
L 180 201.3876 
z
" clip-path="url(#p97367fcd67)" style="fill: #0000ff"/>
   </g>
   <g id="patch_24">
    <path d="M 180 200.3004 
L 492.605042 200.3004 
L 492.605042 195.9516 
L 180 195.9516 
z
" clip-path="url(#p97367fcd67)" style="fill: #0000ff"/>
   </g>
   <g id="patch_25">
    <path d="M 180 194.8644 
L 492.605042 194.8644 
L 492.605042 190.5156 
L 180 190.5156 
z
" clip-path="url(#p97367fcd67)" style="fill: #0000ff"/>
   </g>
   <g id="patch_26">
    <path d="M 180 189.4284 
L 492.605042 189.4284 
L 492.605042 185.0796 
L 180 185.0796 
z
" clip-path="url(#p97367fcd67)" style="fill: #0000ff"/>
   </g>
   <g id="patch_27">
    <path d="M 180 183.9924 
L 492.605042 183.9924 
L 492.605042 179.6436 
L 180 179.6436 
z
" clip-path="url(#p97367fcd67)" style="fill: #0000ff"/>
   </g>
   <g id="patch_28">
    <path d="M 180 178.5564 
L 492.605042 178.5564 
L 492.605042 174.2076 
L 180 174.2076 
z
" clip-path="url(#p97367fcd67)" style="fill: #0000ff"/>
   </g>
   <g id="patch_29">
    <path d="M 180 173.1204 
L 492.605042 173.1204 
L 492.605042 168.7716 
L 180 168.7716 
z
" clip-path="url(#p97367fcd67)" style="fill: #0000ff"/>
   </g>
   <g id="patch_30">
    <path d="M 180 167.6844 
L 492.605042 167.6844 
L 492.605042 163.3356 
L 180 163.3356 
z
" clip-path="url(#p97367fcd67)" style="fill: #0000ff"/>
   </g>
   <g id="patch_31">
    <path d="M 180 162.2484 
L 492.605042 162.2484 
L 492.605042 157.8996 
L 180 157.8996 
z
" clip-path="url(#p97367fcd67)" style="fill: #0000ff"/>
   </g>
   <g id="patch_32">
    <path d="M 180 156.8124 
L 492.605042 156.8124 
L 492.605042 152.4636 
L 180 152.4636 
z
" clip-path="url(#p97367fcd67)" style="fill: #0000ff"/>
   </g>
   <g id="patch_33">
    <path d="M 180 151.3764 
L 492.605042 151.3764 
L 492.605042 147.0276 
L 180 147.0276 
z
" clip-path="url(#p97367fcd67)" style="fill: #0000ff"/>
   </g>
   <g id="patch_34">
    <path d="M 180 145.9404 
L 492.605042 145.9404 
L 492.605042 141.5916 
L 180 141.5916 
z
" clip-path="url(#p97367fcd67)" style="fill: #0000ff"/>
   </g>
   <g id="patch_35">
    <path d="M 180 140.5044 
L 492.605042 140.5044 
L 492.605042 136.1556 
L 180 136.1556 
z
" clip-path="url(#p97367fcd67)" style="fill: #0000ff"/>
   </g>
   <g id="patch_36">
    <path d="M 180 135.0684 
L 492.605042 135.0684 
L 492.605042 130.7196 
L 180 130.7196 
z
" clip-path="url(#p97367fcd67)" style="fill: #0000ff"/>
   </g>
   <g id="patch_37">
    <path d="M 180 129.6324 
L 492.605042 129.6324 
L 492.605042 125.2836 
L 180 125.2836 
z
" clip-path="url(#p97367fcd67)" style="fill: #0000ff"/>
   </g>
   <g id="patch_38">
    <path d="M 180 124.1964 
L 492.605042 124.1964 
L 492.605042 119.8476 
L 180 119.8476 
z
" clip-path="url(#p97367fcd67)" style="fill: #0000ff"/>
   </g>
   <g id="patch_39">
    <path d="M 180 118.7604 
L 492.605042 118.7604 
L 492.605042 114.4116 
L 180 114.4116 
z
" clip-path="url(#p97367fcd67)" style="fill: #0000ff"/>
   </g>
   <g id="patch_40">
    <path d="M 180 113.3244 
L 492.605042 113.3244 
L 492.605042 108.9756 
L 180 108.9756 
z
" clip-path="url(#p97367fcd67)" style="fill: #0000ff"/>
   </g>
   <g id="patch_41">
    <path d="M 180 107.8884 
L 492.605042 107.8884 
L 492.605042 103.5396 
L 180 103.5396 
z
" clip-path="url(#p97367fcd67)" style="fill: #0000ff"/>
   </g>
   <g id="patch_42">
    <path d="M 180 102.4524 
L 492.605042 102.4524 
L 492.605042 98.1036 
L 180 98.1036 
z
" clip-path="url(#p97367fcd67)" style="fill: #0000ff"/>
   </g>
   <g id="patch_43">
    <path d="M 180 97.0164 
L 492.605042 97.0164 
L 492.605042 92.6676 
L 180 92.6676 
z
" clip-path="url(#p97367fcd67)" style="fill: #0000ff"/>
   </g>
   <g id="patch_44">
    <path d="M 180 91.5804 
L 492.605042 91.5804 
L 492.605042 87.2316 
L 180 87.2316 
z
" clip-path="url(#p97367fcd67)" style="fill: #0000ff"/>
   </g>
   <g id="patch_45">
    <path d="M 180 86.1444 
L 492.605042 86.1444 
L 492.605042 81.7956 
L 180 81.7956 
z
" clip-path="url(#p97367fcd67)" style="fill: #0000ff"/>
   </g>
   <g id="patch_46">
    <path d="M 180 80.7084 
L 492.605042 80.7084 
L 492.605042 76.3596 
L 180 76.3596 
z
" clip-path="url(#p97367fcd67)" style="fill: #0000ff"/>
   </g>
   <g id="patch_47">
    <path d="M 180 75.2724 
L 492.605042 75.2724 
L 492.605042 70.9236 
L 180 70.9236 
z
" clip-path="url(#p97367fcd67)" style="fill: #0000ff"/>
   </g>
   <g id="patch_48">
    <path d="M 180 69.8364 
L 492.605042 69.8364 
L 492.605042 65.4876 
L 180 65.4876 
z
" clip-path="url(#p97367fcd67)" style="fill: #0000ff"/>
   </g>
   <g id="patch_49">
    <path d="M 180 64.4004 
L 492.605042 64.4004 
L 492.605042 60.0516 
L 180 60.0516 
z
" clip-path="url(#p97367fcd67)" style="fill: #0000ff"/>
   </g>
   <g id="patch_50">
    <path d="M 180 58.9644 
L 492.605042 58.9644 
L 492.605042 54.6156 
L 180 54.6156 
z
" clip-path="url(#p97367fcd67)" style="fill: #0000ff"/>
   </g>
   <g id="patch_51">
    <path d="M 180 53.5284 
L 492.605042 53.5284 
L 492.605042 49.1796 
L 180 49.1796 
z
" clip-path="url(#p97367fcd67)" style="fill: #0000ff"/>
   </g>
   <g id="patch_52">
    <path d="M 180 48.0924 
L 492.605042 48.0924 
L 492.605042 43.7436 
L 180 43.7436 
z
" clip-path="url(#p97367fcd67)" style="fill: #0000ff"/>
   </g>
   <g id="matplotlib.axis_1">
    <g id="xtick_1">
     <g id="line2d_1">
      <defs>
       <path id="m371483bb5a" d="M 0 0 
L 0 3.5 
" style="stroke: #000000; stroke-width: 0.8"/>
      </defs>
      <g>
       <use xlink:href="#m371483bb5a" x="180" y="315" style="stroke: #000000; stroke-width: 0.8"/>
      </g>
     </g>
     <g id="text_1">
      <!-- 0 -->
      <g transform="translate(176.81875 329.598437)scale(0.1 -0.1)">
       <defs>
        <path id="DejaVuSans-30" d="M 2034 4250 
Q 1547 4250 1301 3770 
Q 1056 3291 1056 2328 
Q 1056 1369 1301 889 
Q 1547 409 2034 409 
Q 2525 409 2770 889 
Q 3016 1369 3016 2328 
Q 3016 3291 2770 3770 
Q 2525 4250 2034 4250 
z
M 2034 4750 
Q 2819 4750 3233 4129 
Q 3647 3509 3647 2328 
Q 3647 1150 3233 529 
Q 2819 -91 2034 -91 
Q 1250 -91 836 529 
Q 422 1150 422 2328 
Q 422 3509 836 4129 
Q 1250 4750 2034 4750 
z
" transform="scale(0.015625)"/>
       </defs>
       <use xlink:href="#DejaVuSans-30"/>
      </g>
     </g>
    </g>
    <g id="xtick_2">
     <g id="line2d_2">
      <g>
       <use xlink:href="#m371483bb5a" x="216.777064" y="315" style="stroke: #000000; stroke-width: 0.8"/>
      </g>
     </g>
     <g id="text_2">
      <!-- 1000 -->
      <g transform="translate(204.052064 329.598437)scale(0.1 -0.1)">
       <defs>
        <path id="DejaVuSans-31" d="M 794 531 
L 1825 531 
L 1825 4091 
L 703 3866 
L 703 4441 
L 1819 4666 
L 2450 4666 
L 2450 531 
L 3481 531 
L 3481 0 
L 794 0 
L 794 531 
z
" transform="scale(0.015625)"/>
       </defs>
       <use xlink:href="#DejaVuSans-31"/>
       <use xlink:href="#DejaVuSans-30" x="63.623047"/>
       <use xlink:href="#DejaVuSans-30" x="127.246094"/>
       <use xlink:href="#DejaVuSans-30" x="190.869141"/>
      </g>
     </g>
    </g>
    <g id="xtick_3">
     <g id="line2d_3">
      <g>
       <use xlink:href="#m371483bb5a" x="253.554128" y="315" style="stroke: #000000; stroke-width: 0.8"/>
      </g>
     </g>
     <g id="text_3">
      <!-- 2000 -->
      <g transform="translate(240.829128 329.598437)scale(0.1 -0.1)">
       <defs>
        <path id="DejaVuSans-32" d="M 1228 531 
L 3431 531 
L 3431 0 
L 469 0 
L 469 531 
Q 828 903 1448 1529 
Q 2069 2156 2228 2338 
Q 2531 2678 2651 2914 
Q 2772 3150 2772 3378 
Q 2772 3750 2511 3984 
Q 2250 4219 1831 4219 
Q 1534 4219 1204 4116 
Q 875 4013 500 3803 
L 500 4441 
Q 881 4594 1212 4672 
Q 1544 4750 1819 4750 
Q 2544 4750 2975 4387 
Q 3406 4025 3406 3419 
Q 3406 3131 3298 2873 
Q 3191 2616 2906 2266 
Q 2828 2175 2409 1742 
Q 1991 1309 1228 531 
z
" transform="scale(0.015625)"/>
       </defs>
       <use xlink:href="#DejaVuSans-32"/>
       <use xlink:href="#DejaVuSans-30" x="63.623047"/>
       <use xlink:href="#DejaVuSans-30" x="127.246094"/>
       <use xlink:href="#DejaVuSans-30" x="190.869141"/>
      </g>
     </g>
    </g>
    <g id="xtick_4">
     <g id="line2d_4">
      <g>
       <use xlink:href="#m371483bb5a" x="290.331191" y="315" style="stroke: #000000; stroke-width: 0.8"/>
      </g>
     </g>
     <g id="text_4">
      <!-- 3000 -->
      <g transform="translate(277.606191 329.598437)scale(0.1 -0.1)">
       <defs>
        <path id="DejaVuSans-33" d="M 2597 2516 
Q 3050 2419 3304 2112 
Q 3559 1806 3559 1356 
Q 3559 666 3084 287 
Q 2609 -91 1734 -91 
Q 1441 -91 1130 -33 
Q 819 25 488 141 
L 488 750 
Q 750 597 1062 519 
Q 1375 441 1716 441 
Q 2309 441 2620 675 
Q 2931 909 2931 1356 
Q 2931 1769 2642 2001 
Q 2353 2234 1838 2234 
L 1294 2234 
L 1294 2753 
L 1863 2753 
Q 2328 2753 2575 2939 
Q 2822 3125 2822 3475 
Q 2822 3834 2567 4026 
Q 2313 4219 1838 4219 
Q 1578 4219 1281 4162 
Q 984 4106 628 3988 
L 628 4550 
Q 988 4650 1302 4700 
Q 1616 4750 1894 4750 
Q 2613 4750 3031 4423 
Q 3450 4097 3450 3541 
Q 3450 3153 3228 2886 
Q 3006 2619 2597 2516 
z
" transform="scale(0.015625)"/>
       </defs>
       <use xlink:href="#DejaVuSans-33"/>
       <use xlink:href="#DejaVuSans-30" x="63.623047"/>
       <use xlink:href="#DejaVuSans-30" x="127.246094"/>
       <use xlink:href="#DejaVuSans-30" x="190.869141"/>
      </g>
     </g>
    </g>
    <g id="xtick_5">
     <g id="line2d_5">
      <g>
       <use xlink:href="#m371483bb5a" x="327.108255" y="315" style="stroke: #000000; stroke-width: 0.8"/>
      </g>
     </g>
     <g id="text_5">
      <!-- 4000 -->
      <g transform="translate(314.383255 329.598437)scale(0.1 -0.1)">
       <defs>
        <path id="DejaVuSans-34" d="M 2419 4116 
L 825 1625 
L 2419 1625 
L 2419 4116 
z
M 2253 4666 
L 3047 4666 
L 3047 1625 
L 3713 1625 
L 3713 1100 
L 3047 1100 
L 3047 0 
L 2419 0 
L 2419 1100 
L 313 1100 
L 313 1709 
L 2253 4666 
z
" transform="scale(0.015625)"/>
       </defs>
       <use xlink:href="#DejaVuSans-34"/>
       <use xlink:href="#DejaVuSans-30" x="63.623047"/>
       <use xlink:href="#DejaVuSans-30" x="127.246094"/>
       <use xlink:href="#DejaVuSans-30" x="190.869141"/>
      </g>
     </g>
    </g>
    <g id="xtick_6">
     <g id="line2d_6">
      <g>
       <use xlink:href="#m371483bb5a" x="363.885319" y="315" style="stroke: #000000; stroke-width: 0.8"/>
      </g>
     </g>
     <g id="text_6">
      <!-- 5000 -->
      <g transform="translate(351.160319 329.598437)scale(0.1 -0.1)">
       <defs>
        <path id="DejaVuSans-35" d="M 691 4666 
L 3169 4666 
L 3169 4134 
L 1269 4134 
L 1269 2991 
Q 1406 3038 1543 3061 
Q 1681 3084 1819 3084 
Q 2600 3084 3056 2656 
Q 3513 2228 3513 1497 
Q 3513 744 3044 326 
Q 2575 -91 1722 -91 
Q 1428 -91 1123 -41 
Q 819 9 494 109 
L 494 744 
Q 775 591 1075 516 
Q 1375 441 1709 441 
Q 2250 441 2565 725 
Q 2881 1009 2881 1497 
Q 2881 1984 2565 2268 
Q 2250 2553 1709 2553 
Q 1456 2553 1204 2497 
Q 953 2441 691 2322 
L 691 4666 
z
" transform="scale(0.015625)"/>
       </defs>
       <use xlink:href="#DejaVuSans-35"/>
       <use xlink:href="#DejaVuSans-30" x="63.623047"/>
       <use xlink:href="#DejaVuSans-30" x="127.246094"/>
       <use xlink:href="#DejaVuSans-30" x="190.869141"/>
      </g>
     </g>
    </g>
    <g id="xtick_7">
     <g id="line2d_7">
      <g>
       <use xlink:href="#m371483bb5a" x="400.662383" y="315" style="stroke: #000000; stroke-width: 0.8"/>
      </g>
     </g>
     <g id="text_7">
      <!-- 6000 -->
      <g transform="translate(387.937383 329.598437)scale(0.1 -0.1)">
       <defs>
        <path id="DejaVuSans-36" d="M 2113 2584 
Q 1688 2584 1439 2293 
Q 1191 2003 1191 1497 
Q 1191 994 1439 701 
Q 1688 409 2113 409 
Q 2538 409 2786 701 
Q 3034 994 3034 1497 
Q 3034 2003 2786 2293 
Q 2538 2584 2113 2584 
z
M 3366 4563 
L 3366 3988 
Q 3128 4100 2886 4159 
Q 2644 4219 2406 4219 
Q 1781 4219 1451 3797 
Q 1122 3375 1075 2522 
Q 1259 2794 1537 2939 
Q 1816 3084 2150 3084 
Q 2853 3084 3261 2657 
Q 3669 2231 3669 1497 
Q 3669 778 3244 343 
Q 2819 -91 2113 -91 
Q 1303 -91 875 529 
Q 447 1150 447 2328 
Q 447 3434 972 4092 
Q 1497 4750 2381 4750 
Q 2619 4750 2861 4703 
Q 3103 4656 3366 4563 
z
" transform="scale(0.015625)"/>
       </defs>
       <use xlink:href="#DejaVuSans-36"/>
       <use xlink:href="#DejaVuSans-30" x="63.623047"/>
       <use xlink:href="#DejaVuSans-30" x="127.246094"/>
       <use xlink:href="#DejaVuSans-30" x="190.869141"/>
      </g>
     </g>
    </g>
    <g id="xtick_8">
     <g id="line2d_8">
      <g>
       <use xlink:href="#m371483bb5a" x="437.439446" y="315" style="stroke: #000000; stroke-width: 0.8"/>
      </g>
     </g>
     <g id="text_8">
      <!-- 7000 -->
      <g transform="translate(424.714446 329.598437)scale(0.1 -0.1)">
       <defs>
        <path id="DejaVuSans-37" d="M 525 4666 
L 3525 4666 
L 3525 4397 
L 1831 0 
L 1172 0 
L 2766 4134 
L 525 4134 
L 525 4666 
z
" transform="scale(0.015625)"/>
       </defs>
       <use xlink:href="#DejaVuSans-37"/>
       <use xlink:href="#DejaVuSans-30" x="63.623047"/>
       <use xlink:href="#DejaVuSans-30" x="127.246094"/>
       <use xlink:href="#DejaVuSans-30" x="190.869141"/>
      </g>
     </g>
    </g>
    <g id="xtick_9">
     <g id="line2d_9">
      <g>
       <use xlink:href="#m371483bb5a" x="474.21651" y="315" style="stroke: #000000; stroke-width: 0.8"/>
      </g>
     </g>
     <g id="text_9">
      <!-- 8000 -->
      <g transform="translate(461.49151 329.598437)scale(0.1 -0.1)">
       <defs>
        <path id="DejaVuSans-38" d="M 2034 2216 
Q 1584 2216 1326 1975 
Q 1069 1734 1069 1313 
Q 1069 891 1326 650 
Q 1584 409 2034 409 
Q 2484 409 2743 651 
Q 3003 894 3003 1313 
Q 3003 1734 2745 1975 
Q 2488 2216 2034 2216 
z
M 1403 2484 
Q 997 2584 770 2862 
Q 544 3141 544 3541 
Q 544 4100 942 4425 
Q 1341 4750 2034 4750 
Q 2731 4750 3128 4425 
Q 3525 4100 3525 3541 
Q 3525 3141 3298 2862 
Q 3072 2584 2669 2484 
Q 3125 2378 3379 2068 
Q 3634 1759 3634 1313 
Q 3634 634 3220 271 
Q 2806 -91 2034 -91 
Q 1263 -91 848 271 
Q 434 634 434 1313 
Q 434 1759 690 2068 
Q 947 2378 1403 2484 
z
M 1172 3481 
Q 1172 3119 1398 2916 
Q 1625 2713 2034 2713 
Q 2441 2713 2670 2916 
Q 2900 3119 2900 3481 
Q 2900 3844 2670 4047 
Q 2441 4250 2034 4250 
Q 1625 4250 1398 4047 
Q 1172 3844 1172 3481 
z
" transform="scale(0.015625)"/>
       </defs>
       <use xlink:href="#DejaVuSans-38"/>
       <use xlink:href="#DejaVuSans-30" x="63.623047"/>
       <use xlink:href="#DejaVuSans-30" x="127.246094"/>
       <use xlink:href="#DejaVuSans-30" x="190.869141"/>
      </g>
     </g>
    </g>
    <g id="text_10">
     <!-- Cmax values -->
     <g transform="translate(311.880928 343.276563)scale(0.1 -0.1)">
      <defs>
       <path id="DejaVuSans-43" d="M 4122 4306 
L 4122 3641 
Q 3803 3938 3442 4084 
Q 3081 4231 2675 4231 
Q 1875 4231 1450 3742 
Q 1025 3253 1025 2328 
Q 1025 1406 1450 917 
Q 1875 428 2675 428 
Q 3081 428 3442 575 
Q 3803 722 4122 1019 
L 4122 359 
Q 3791 134 3420 21 
Q 3050 -91 2638 -91 
Q 1578 -91 968 557 
Q 359 1206 359 2328 
Q 359 3453 968 4101 
Q 1578 4750 2638 4750 
Q 3056 4750 3426 4639 
Q 3797 4528 4122 4306 
z
" transform="scale(0.015625)"/>
       <path id="DejaVuSans-6d" d="M 3328 2828 
Q 3544 3216 3844 3400 
Q 4144 3584 4550 3584 
Q 5097 3584 5394 3201 
Q 5691 2819 5691 2113 
L 5691 0 
L 5113 0 
L 5113 2094 
Q 5113 2597 4934 2840 
Q 4756 3084 4391 3084 
Q 3944 3084 3684 2787 
Q 3425 2491 3425 1978 
L 3425 0 
L 2847 0 
L 2847 2094 
Q 2847 2600 2669 2842 
Q 2491 3084 2119 3084 
Q 1678 3084 1418 2786 
Q 1159 2488 1159 1978 
L 1159 0 
L 581 0 
L 581 3500 
L 1159 3500 
L 1159 2956 
Q 1356 3278 1631 3431 
Q 1906 3584 2284 3584 
Q 2666 3584 2933 3390 
Q 3200 3197 3328 2828 
z
" transform="scale(0.015625)"/>
       <path id="DejaVuSans-61" d="M 2194 1759 
Q 1497 1759 1228 1600 
Q 959 1441 959 1056 
Q 959 750 1161 570 
Q 1363 391 1709 391 
Q 2188 391 2477 730 
Q 2766 1069 2766 1631 
L 2766 1759 
L 2194 1759 
z
M 3341 1997 
L 3341 0 
L 2766 0 
L 2766 531 
Q 2569 213 2275 61 
Q 1981 -91 1556 -91 
Q 1019 -91 701 211 
Q 384 513 384 1019 
Q 384 1609 779 1909 
Q 1175 2209 1959 2209 
L 2766 2209 
L 2766 2266 
Q 2766 2663 2505 2880 
Q 2244 3097 1772 3097 
Q 1472 3097 1187 3025 
Q 903 2953 641 2809 
L 641 3341 
Q 956 3463 1253 3523 
Q 1550 3584 1831 3584 
Q 2591 3584 2966 3190 
Q 3341 2797 3341 1997 
z
" transform="scale(0.015625)"/>
       <path id="DejaVuSans-78" d="M 3513 3500 
L 2247 1797 
L 3578 0 
L 2900 0 
L 1881 1375 
L 863 0 
L 184 0 
L 1544 1831 
L 300 3500 
L 978 3500 
L 1906 2253 
L 2834 3500 
L 3513 3500 
z
" transform="scale(0.015625)"/>
       <path id="DejaVuSans-20" transform="scale(0.015625)"/>
       <path id="DejaVuSans-76" d="M 191 3500 
L 800 3500 
L 1894 563 
L 2988 3500 
L 3597 3500 
L 2284 0 
L 1503 0 
L 191 3500 
z
" transform="scale(0.015625)"/>
       <path id="DejaVuSans-6c" d="M 603 4863 
L 1178 4863 
L 1178 0 
L 603 0 
L 603 4863 
z
" transform="scale(0.015625)"/>
       <path id="DejaVuSans-75" d="M 544 1381 
L 544 3500 
L 1119 3500 
L 1119 1403 
Q 1119 906 1312 657 
Q 1506 409 1894 409 
Q 2359 409 2629 706 
Q 2900 1003 2900 1516 
L 2900 3500 
L 3475 3500 
L 3475 0 
L 2900 0 
L 2900 538 
Q 2691 219 2414 64 
Q 2138 -91 1772 -91 
Q 1169 -91 856 284 
Q 544 659 544 1381 
z
M 1991 3584 
L 1991 3584 
z
" transform="scale(0.015625)"/>
       <path id="DejaVuSans-65" d="M 3597 1894 
L 3597 1613 
L 953 1613 
Q 991 1019 1311 708 
Q 1631 397 2203 397 
Q 2534 397 2845 478 
Q 3156 559 3463 722 
L 3463 178 
Q 3153 47 2828 -22 
Q 2503 -91 2169 -91 
Q 1331 -91 842 396 
Q 353 884 353 1716 
Q 353 2575 817 3079 
Q 1281 3584 2069 3584 
Q 2775 3584 3186 3129 
Q 3597 2675 3597 1894 
z
M 3022 2063 
Q 3016 2534 2758 2815 
Q 2500 3097 2075 3097 
Q 1594 3097 1305 2825 
Q 1016 2553 972 2059 
L 3022 2063 
z
" transform="scale(0.015625)"/>
       <path id="DejaVuSans-73" d="M 2834 3397 
L 2834 2853 
Q 2591 2978 2328 3040 
Q 2066 3103 1784 3103 
Q 1356 3103 1142 2972 
Q 928 2841 928 2578 
Q 928 2378 1081 2264 
Q 1234 2150 1697 2047 
L 1894 2003 
Q 2506 1872 2764 1633 
Q 3022 1394 3022 966 
Q 3022 478 2636 193 
Q 2250 -91 1575 -91 
Q 1294 -91 989 -36 
Q 684 19 347 128 
L 347 722 
Q 666 556 975 473 
Q 1284 391 1588 391 
Q 1994 391 2212 530 
Q 2431 669 2431 922 
Q 2431 1156 2273 1281 
Q 2116 1406 1581 1522 
L 1381 1569 
Q 847 1681 609 1914 
Q 372 2147 372 2553 
Q 372 3047 722 3315 
Q 1072 3584 1716 3584 
Q 2034 3584 2315 3537 
Q 2597 3491 2834 3397 
z
" transform="scale(0.015625)"/>
      </defs>
      <use xlink:href="#DejaVuSans-43"/>
      <use xlink:href="#DejaVuSans-6d" x="69.824219"/>
      <use xlink:href="#DejaVuSans-61" x="167.236328"/>
      <use xlink:href="#DejaVuSans-78" x="228.515625"/>
      <use xlink:href="#DejaVuSans-20" x="287.695312"/>
      <use xlink:href="#DejaVuSans-76" x="319.482422"/>
      <use xlink:href="#DejaVuSans-61" x="378.662109"/>
      <use xlink:href="#DejaVuSans-6c" x="439.941406"/>
      <use xlink:href="#DejaVuSans-75" x="467.724609"/>
      <use xlink:href="#DejaVuSans-65" x="531.103516"/>
      <use xlink:href="#DejaVuSans-73" x="592.626953"/>
     </g>
    </g>
   </g>
   <g id="matplotlib.axis_2">
    <g id="ytick_1">
     <g id="line2d_10">
      <defs>
       <path id="mf385f6afd2" d="M 0 0 
L -3.5 0 
" style="stroke: #000000; stroke-width: 0.8"/>
      </defs>
      <g>
       <use xlink:href="#mf385f6afd2" x="180" y="263.358" style="stroke: #000000; stroke-width: 0.8"/>
      </g>
     </g>
     <g id="text_11">
      <!-- 10 -->
      <g transform="translate(160.275 267.157219)scale(0.1 -0.1)">
       <use xlink:href="#DejaVuSans-31"/>
       <use xlink:href="#DejaVuSans-30" x="63.623047"/>
      </g>
     </g>
    </g>
    <g id="ytick_2">
     <g id="line2d_11">
      <g>
       <use xlink:href="#mf385f6afd2" x="180" y="208.998" style="stroke: #000000; stroke-width: 0.8"/>
      </g>
     </g>
     <g id="text_12">
      <!-- 20 -->
      <g transform="translate(160.275 212.797219)scale(0.1 -0.1)">
       <use xlink:href="#DejaVuSans-32"/>
       <use xlink:href="#DejaVuSans-30" x="63.623047"/>
      </g>
     </g>
    </g>
    <g id="ytick_3">
     <g id="line2d_12">
      <g>
       <use xlink:href="#mf385f6afd2" x="180" y="154.638" style="stroke: #000000; stroke-width: 0.8"/>
      </g>
     </g>
     <g id="text_13">
      <!-- 30 -->
      <g transform="translate(160.275 158.437219)scale(0.1 -0.1)">
       <use xlink:href="#DejaVuSans-33"/>
       <use xlink:href="#DejaVuSans-30" x="63.623047"/>
      </g>
     </g>
    </g>
    <g id="ytick_4">
     <g id="line2d_13">
      <g>
       <use xlink:href="#mf385f6afd2" x="180" y="100.278" style="stroke: #000000; stroke-width: 0.8"/>
      </g>
     </g>
     <g id="text_14">
      <!-- 40 -->
      <g transform="translate(160.275 104.077219)scale(0.1 -0.1)">
       <use xlink:href="#DejaVuSans-34"/>
       <use xlink:href="#DejaVuSans-30" x="63.623047"/>
      </g>
     </g>
    </g>
    <g id="ytick_5">
     <g id="line2d_14">
      <g>
       <use xlink:href="#mf385f6afd2" x="180" y="45.918" style="stroke: #000000; stroke-width: 0.8"/>
      </g>
     </g>
     <g id="text_15">
      <!-- 50 -->
      <g transform="translate(160.275 49.717219)scale(0.1 -0.1)">
       <use xlink:href="#DejaVuSans-35"/>
       <use xlink:href="#DejaVuSans-30" x="63.623047"/>
      </g>
     </g>
    </g>
    <g id="text_16">
     <!-- Instances -->
     <g transform="translate(154.195312 202.971875)rotate(-90)scale(0.1 -0.1)">
      <defs>
       <path id="DejaVuSans-49" d="M 628 4666 
L 1259 4666 
L 1259 0 
L 628 0 
L 628 4666 
z
" transform="scale(0.015625)"/>
       <path id="DejaVuSans-6e" d="M 3513 2113 
L 3513 0 
L 2938 0 
L 2938 2094 
Q 2938 2591 2744 2837 
Q 2550 3084 2163 3084 
Q 1697 3084 1428 2787 
Q 1159 2491 1159 1978 
L 1159 0 
L 581 0 
L 581 3500 
L 1159 3500 
L 1159 2956 
Q 1366 3272 1645 3428 
Q 1925 3584 2291 3584 
Q 2894 3584 3203 3211 
Q 3513 2838 3513 2113 
z
" transform="scale(0.015625)"/>
       <path id="DejaVuSans-74" d="M 1172 4494 
L 1172 3500 
L 2356 3500 
L 2356 3053 
L 1172 3053 
L 1172 1153 
Q 1172 725 1289 603 
Q 1406 481 1766 481 
L 2356 481 
L 2356 0 
L 1766 0 
Q 1100 0 847 248 
Q 594 497 594 1153 
L 594 3053 
L 172 3053 
L 172 3500 
L 594 3500 
L 594 4494 
L 1172 4494 
z
" transform="scale(0.015625)"/>
       <path id="DejaVuSans-63" d="M 3122 3366 
L 3122 2828 
Q 2878 2963 2633 3030 
Q 2388 3097 2138 3097 
Q 1578 3097 1268 2742 
Q 959 2388 959 1747 
Q 959 1106 1268 751 
Q 1578 397 2138 397 
Q 2388 397 2633 464 
Q 2878 531 3122 666 
L 3122 134 
Q 2881 22 2623 -34 
Q 2366 -91 2075 -91 
Q 1284 -91 818 406 
Q 353 903 353 1747 
Q 353 2603 823 3093 
Q 1294 3584 2113 3584 
Q 2378 3584 2631 3529 
Q 2884 3475 3122 3366 
z
" transform="scale(0.015625)"/>
      </defs>
      <use xlink:href="#DejaVuSans-49"/>
      <use xlink:href="#DejaVuSans-6e" x="29.492188"/>
      <use xlink:href="#DejaVuSans-73" x="92.871094"/>
      <use xlink:href="#DejaVuSans-74" x="144.970703"/>
      <use xlink:href="#DejaVuSans-61" x="184.179688"/>
      <use xlink:href="#DejaVuSans-6e" x="245.458984"/>
      <use xlink:href="#DejaVuSans-63" x="308.837891"/>
      <use xlink:href="#DejaVuSans-65" x="363.818359"/>
      <use xlink:href="#DejaVuSans-73" x="425.341797"/>
     </g>
    </g>
   </g>
   <g id="patch_53">
    <path d="M 180 315 
L 180 43.2 
" style="fill: none; stroke: #000000; stroke-width: 0.8; stroke-linejoin: miter; stroke-linecap: square"/>
   </g>
   <g id="patch_54">
    <path d="M 508.235294 315 
L 508.235294 43.2 
" style="fill: none; stroke: #000000; stroke-width: 0.8; stroke-linejoin: miter; stroke-linecap: square"/>
   </g>
   <g id="patch_55">
    <path d="M 180 315 
L 508.235294 315 
" style="fill: none; stroke: #000000; stroke-width: 0.8; stroke-linejoin: miter; stroke-linecap: square"/>
   </g>
   <g id="patch_56">
    <path d="M 180 43.2 
L 508.235294 43.2 
" style="fill: none; stroke: #000000; stroke-width: 0.8; stroke-linejoin: miter; stroke-linecap: square"/>
   </g>
  </g>
  <g id="axes_2">
   <g id="patch_57">
    <path d="M 573.882353 315 
L 902.117647 315 
L 902.117647 43.2 
L 573.882353 43.2 
z
" style="fill: #ffffff"/>
   </g>
   <g id="patch_58">
    <path d="M 573.882353 314.4564 
L 761.535353 314.4564 
L 761.535353 310.1076 
L 573.882353 310.1076 
z
" clip-path="url(#p94528c7616)" style="fill: #008000"/>
   </g>
   <g id="patch_59">
    <path d="M 573.882353 309.0204 
L 816.616597 309.0204 
L 816.616597 304.6716 
L 573.882353 304.6716 
z
" clip-path="url(#p94528c7616)" style="fill: #008000"/>
   </g>
   <g id="patch_60">
    <path d="M 573.882353 303.5844 
L 809.924746 303.5844 
L 809.924746 299.2356 
L 573.882353 299.2356 
z
" clip-path="url(#p94528c7616)" style="fill: #008000"/>
   </g>
   <g id="patch_61">
    <path d="M 573.882353 298.1484 
L 885.559533 298.1484 
L 885.559533 293.7996 
L 573.882353 293.7996 
z
" clip-path="url(#p94528c7616)" style="fill: #008000"/>
   </g>
   <g id="patch_62">
    <path d="M 573.882353 292.7124 
L 879.430023 292.7124 
L 879.430023 288.3636 
L 573.882353 288.3636 
z
" clip-path="url(#p94528c7616)" style="fill: #008000"/>
   </g>
   <g id="patch_63">
    <path d="M 573.882353 287.2764 
L 785.547289 287.2764 
L 785.547289 282.9276 
L 573.882353 282.9276 
z
" clip-path="url(#p94528c7616)" style="fill: #008000"/>
   </g>
   <g id="patch_64">
    <path d="M 573.882353 281.8404 
L 761.422885 281.8404 
L 761.422885 277.4916 
L 573.882353 277.4916 
z
" clip-path="url(#p94528c7616)" style="fill: #008000"/>
   </g>
   <g id="patch_65">
    <path d="M 573.882353 276.4044 
L 764.318938 276.4044 
L 764.318938 272.0556 
L 573.882353 272.0556 
z
" clip-path="url(#p94528c7616)" style="fill: #008000"/>
   </g>
   <g id="patch_66">
    <path d="M 573.882353 270.9684 
L 764.375172 270.9684 
L 764.375172 266.6196 
L 573.882353 266.6196 
z
" clip-path="url(#p94528c7616)" style="fill: #008000"/>
   </g>
   <g id="patch_67">
    <path d="M 573.882353 265.5324 
L 786.306448 265.5324 
L 786.306448 261.1836 
L 573.882353 261.1836 
z
" clip-path="url(#p94528c7616)" style="fill: #008000"/>
   </g>
   <g id="patch_68">
    <path d="M 573.882353 260.0964 
L 855.783608 260.0964 
L 855.783608 255.7476 
L 573.882353 255.7476 
z
" clip-path="url(#p94528c7616)" style="fill: #008000"/>
   </g>
   <g id="patch_69">
    <path d="M 573.882353 254.6604 
L 810.74014 254.6604 
L 810.74014 250.3116 
L 573.882353 250.3116 
z
" clip-path="url(#p94528c7616)" style="fill: #008000"/>
   </g>
   <g id="patch_70">
    <path d="M 573.882353 249.2244 
L 768.480257 249.2244 
L 768.480257 244.8756 
L 573.882353 244.8756 
z
" clip-path="url(#p94528c7616)" style="fill: #008000"/>
   </g>
   <g id="patch_71">
    <path d="M 573.882353 243.7884 
L 839.644438 243.7884 
L 839.644438 239.4396 
L 573.882353 239.4396 
z
" clip-path="url(#p94528c7616)" style="fill: #008000"/>
   </g>
   <g id="patch_72">
    <path d="M 573.882353 238.3524 
L 760.101385 238.3524 
L 760.101385 234.0036 
L 573.882353 234.0036 
z
" clip-path="url(#p94528c7616)" style="fill: #008000"/>
   </g>
   <g id="patch_73">
    <path d="M 573.882353 232.9164 
L 795.866236 232.9164 
L 795.866236 228.5676 
L 573.882353 228.5676 
z
" clip-path="url(#p94528c7616)" style="fill: #008000"/>
   </g>
   <g id="patch_74">
    <path d="M 573.882353 227.4804 
L 859.213884 227.4804 
L 859.213884 223.1316 
L 573.882353 223.1316 
z
" clip-path="url(#p94528c7616)" style="fill: #008000"/>
   </g>
   <g id="patch_75">
    <path d="M 573.882353 222.0444 
L 801.152236 222.0444 
L 801.152236 217.6956 
L 573.882353 217.6956 
z
" clip-path="url(#p94528c7616)" style="fill: #008000"/>
   </g>
   <g id="patch_76">
    <path d="M 573.882353 216.6084 
L 813.973597 216.6084 
L 813.973597 212.2596 
L 573.882353 212.2596 
z
" clip-path="url(#p94528c7616)" style="fill: #008000"/>
   </g>
   <g id="patch_77">
    <path d="M 573.882353 211.1724 
L 757.036629 211.1724 
L 757.036629 206.8236 
L 573.882353 206.8236 
z
" clip-path="url(#p94528c7616)" style="fill: #008000"/>
   </g>
   <g id="patch_78">
    <path d="M 573.882353 205.7364 
L 740.138299 205.7364 
L 740.138299 201.3876 
L 573.882353 201.3876 
z
" clip-path="url(#p94528c7616)" style="fill: #008000"/>
   </g>
   <g id="patch_79">
    <path d="M 573.882353 200.3004 
L 746.577097 200.3004 
L 746.577097 195.9516 
L 573.882353 195.9516 
z
" clip-path="url(#p94528c7616)" style="fill: #008000"/>
   </g>
   <g id="patch_80">
    <path d="M 573.882353 194.8644 
L 874.397076 194.8644 
L 874.397076 190.5156 
L 573.882353 190.5156 
z
" clip-path="url(#p94528c7616)" style="fill: #008000"/>
   </g>
   <g id="patch_81">
    <path d="M 573.882353 189.4284 
L 877.124427 189.4284 
L 877.124427 185.0796 
L 573.882353 185.0796 
z
" clip-path="url(#p94528c7616)" style="fill: #008000"/>
   </g>
   <g id="patch_82">
    <path d="M 573.882353 183.9924 
L 864.359299 183.9924 
L 864.359299 179.6436 
L 573.882353 179.6436 
z
" clip-path="url(#p94528c7616)" style="fill: #008000"/>
   </g>
   <g id="patch_83">
    <path d="M 573.882353 178.5564 
L 764.431406 178.5564 
L 764.431406 174.2076 
L 573.882353 174.2076 
z
" clip-path="url(#p94528c7616)" style="fill: #008000"/>
   </g>
   <g id="patch_84">
    <path d="M 573.882353 173.1204 
L 829.634778 173.1204 
L 829.634778 168.7716 
L 573.882353 168.7716 
z
" clip-path="url(#p94528c7616)" style="fill: #008000"/>
   </g>
   <g id="patch_85">
    <path d="M 573.882353 167.6844 
L 860.141746 167.6844 
L 860.141746 163.3356 
L 573.882353 163.3356 
z
" clip-path="url(#p94528c7616)" style="fill: #008000"/>
   </g>
   <g id="patch_86">
    <path d="M 573.882353 162.2484 
L 811.358714 162.2484 
L 811.358714 157.8996 
L 573.882353 157.8996 
z
" clip-path="url(#p94528c7616)" style="fill: #008000"/>
   </g>
   <g id="patch_87">
    <path d="M 573.882353 156.8124 
L 781.695257 156.8124 
L 781.695257 152.4636 
L 573.882353 152.4636 
z
" clip-path="url(#p94528c7616)" style="fill: #008000"/>
   </g>
   <g id="patch_88">
    <path d="M 573.882353 151.3764 
L 849.176108 151.3764 
L 849.176108 147.0276 
L 573.882353 147.0276 
z
" clip-path="url(#p94528c7616)" style="fill: #008000"/>
   </g>
   <g id="patch_89">
    <path d="M 573.882353 145.9404 
L 854.433991 145.9404 
L 854.433991 141.5916 
L 573.882353 141.5916 
z
" clip-path="url(#p94528c7616)" style="fill: #008000"/>
   </g>
   <g id="patch_90">
    <path d="M 573.882353 140.5044 
L 814.957693 140.5044 
L 814.957693 136.1556 
L 573.882353 136.1556 
z
" clip-path="url(#p94528c7616)" style="fill: #008000"/>
   </g>
   <g id="patch_91">
    <path d="M 573.882353 135.0684 
L 884.26615 135.0684 
L 884.26615 130.7196 
L 573.882353 130.7196 
z
" clip-path="url(#p94528c7616)" style="fill: #008000"/>
   </g>
   <g id="patch_92">
    <path d="M 573.882353 129.6324 
L 767.608629 129.6324 
L 767.608629 125.2836 
L 573.882353 125.2836 
z
" clip-path="url(#p94528c7616)" style="fill: #008000"/>
   </g>
   <g id="patch_93">
    <path d="M 573.882353 124.1964 
L 886.487395 124.1964 
L 886.487395 119.8476 
L 573.882353 119.8476 
z
" clip-path="url(#p94528c7616)" style="fill: #008000"/>
   </g>
   <g id="patch_94">
    <path d="M 573.882353 118.7604 
L 798.790406 118.7604 
L 798.790406 114.4116 
L 573.882353 114.4116 
z
" clip-path="url(#p94528c7616)" style="fill: #008000"/>
   </g>
   <g id="patch_95">
    <path d="M 573.882353 113.3244 
L 881.145161 113.3244 
L 881.145161 108.9756 
L 573.882353 108.9756 
z
" clip-path="url(#p94528c7616)" style="fill: #008000"/>
   </g>
   <g id="patch_96">
    <path d="M 573.882353 107.8884 
L 878.445927 107.8884 
L 878.445927 103.5396 
L 573.882353 103.5396 
z
" clip-path="url(#p94528c7616)" style="fill: #008000"/>
   </g>
   <g id="patch_97">
    <path d="M 573.882353 102.4524 
L 748.882693 102.4524 
L 748.882693 98.1036 
L 573.882353 98.1036 
z
" clip-path="url(#p94528c7616)" style="fill: #008000"/>
   </g>
   <g id="patch_98">
    <path d="M 573.882353 97.0164 
L 805.875895 97.0164 
L 805.875895 92.6676 
L 573.882353 92.6676 
z
" clip-path="url(#p94528c7616)" style="fill: #008000"/>
   </g>
   <g id="patch_99">
    <path d="M 573.882353 91.5804 
L 881.763735 91.5804 
L 881.763735 87.2316 
L 573.882353 87.2316 
z
" clip-path="url(#p94528c7616)" style="fill: #008000"/>
   </g>
   <g id="patch_100">
    <path d="M 573.882353 86.1444 
L 749.923023 86.1444 
L 749.923023 81.7956 
L 573.882353 81.7956 
z
" clip-path="url(#p94528c7616)" style="fill: #008000"/>
   </g>
   <g id="patch_101">
    <path d="M 573.882353 80.7084 
L 850.300789 80.7084 
L 850.300789 76.3596 
L 573.882353 76.3596 
z
" clip-path="url(#p94528c7616)" style="fill: #008000"/>
   </g>
   <g id="patch_102">
    <path d="M 573.882353 75.2724 
L 795.641299 75.2724 
L 795.641299 70.9236 
L 573.882353 70.9236 
z
" clip-path="url(#p94528c7616)" style="fill: #008000"/>
   </g>
   <g id="patch_103">
    <path d="M 573.882353 69.8364 
L 739.800895 69.8364 
L 739.800895 65.4876 
L 573.882353 65.4876 
z
" clip-path="url(#p94528c7616)" style="fill: #008000"/>
   </g>
   <g id="patch_104">
    <path d="M 573.882353 64.4004 
L 816.785299 64.4004 
L 816.785299 60.0516 
L 573.882353 60.0516 
z
" clip-path="url(#p94528c7616)" style="fill: #008000"/>
   </g>
   <g id="patch_105">
    <path d="M 573.882353 58.9644 
L 862.981565 58.9644 
L 862.981565 54.6156 
L 573.882353 54.6156 
z
" clip-path="url(#p94528c7616)" style="fill: #008000"/>
   </g>
   <g id="patch_106">
    <path d="M 573.882353 53.5284 
L 793.644991 53.5284 
L 793.644991 49.1796 
L 573.882353 49.1796 
z
" clip-path="url(#p94528c7616)" style="fill: #008000"/>
   </g>
   <g id="patch_107">
    <path d="M 573.882353 48.0924 
L 756.052533 48.0924 
L 756.052533 43.7436 
L 573.882353 43.7436 
z
" clip-path="url(#p94528c7616)" style="fill: #008000"/>
   </g>
   <g id="matplotlib.axis_3">
    <g id="xtick_10">
     <g id="line2d_15">
      <g>
       <use xlink:href="#m371483bb5a" x="573.882353" y="315" style="stroke: #000000; stroke-width: 0.8"/>
      </g>
     </g>
     <g id="text_17">
      <!-- 0 -->
      <g transform="translate(570.701103 329.598437)scale(0.1 -0.1)">
       <use xlink:href="#DejaVuSans-30"/>
      </g>
     </g>
    </g>
    <g id="xtick_11">
     <g id="line2d_16">
      <g>
       <use xlink:href="#m371483bb5a" x="630.116395" y="315" style="stroke: #000000; stroke-width: 0.8"/>
      </g>
     </g>
     <g id="text_18">
      <!-- 2000 -->
      <g transform="translate(617.391395 329.598437)scale(0.1 -0.1)">
       <use xlink:href="#DejaVuSans-32"/>
       <use xlink:href="#DejaVuSans-30" x="63.623047"/>
       <use xlink:href="#DejaVuSans-30" x="127.246094"/>
       <use xlink:href="#DejaVuSans-30" x="190.869141"/>
      </g>
     </g>
    </g>
    <g id="xtick_12">
     <g id="line2d_17">
      <g>
       <use xlink:href="#m371483bb5a" x="686.350438" y="315" style="stroke: #000000; stroke-width: 0.8"/>
      </g>
     </g>
     <g id="text_19">
      <!-- 4000 -->
      <g transform="translate(673.625438 329.598437)scale(0.1 -0.1)">
       <use xlink:href="#DejaVuSans-34"/>
       <use xlink:href="#DejaVuSans-30" x="63.623047"/>
       <use xlink:href="#DejaVuSans-30" x="127.246094"/>
       <use xlink:href="#DejaVuSans-30" x="190.869141"/>
      </g>
     </g>
    </g>
    <g id="xtick_13">
     <g id="line2d_18">
      <g>
       <use xlink:href="#m371483bb5a" x="742.58448" y="315" style="stroke: #000000; stroke-width: 0.8"/>
      </g>
     </g>
     <g id="text_20">
      <!-- 6000 -->
      <g transform="translate(729.85948 329.598437)scale(0.1 -0.1)">
       <use xlink:href="#DejaVuSans-36"/>
       <use xlink:href="#DejaVuSans-30" x="63.623047"/>
       <use xlink:href="#DejaVuSans-30" x="127.246094"/>
       <use xlink:href="#DejaVuSans-30" x="190.869141"/>
      </g>
     </g>
    </g>
    <g id="xtick_14">
     <g id="line2d_19">
      <g>
       <use xlink:href="#m371483bb5a" x="798.818523" y="315" style="stroke: #000000; stroke-width: 0.8"/>
      </g>
     </g>
     <g id="text_21">
      <!-- 8000 -->
      <g transform="translate(786.093523 329.598437)scale(0.1 -0.1)">
       <use xlink:href="#DejaVuSans-38"/>
       <use xlink:href="#DejaVuSans-30" x="63.623047"/>
       <use xlink:href="#DejaVuSans-30" x="127.246094"/>
       <use xlink:href="#DejaVuSans-30" x="190.869141"/>
      </g>
     </g>
    </g>
    <g id="xtick_15">
     <g id="line2d_20">
      <g>
       <use xlink:href="#m371483bb5a" x="855.052565" y="315" style="stroke: #000000; stroke-width: 0.8"/>
      </g>
     </g>
     <g id="text_22">
      <!-- 10000 -->
      <g transform="translate(839.146315 329.598437)scale(0.1 -0.1)">
       <use xlink:href="#DejaVuSans-31"/>
       <use xlink:href="#DejaVuSans-30" x="63.623047"/>
       <use xlink:href="#DejaVuSans-30" x="127.246094"/>
       <use xlink:href="#DejaVuSans-30" x="190.869141"/>
       <use xlink:href="#DejaVuSans-30" x="254.492188"/>
      </g>
     </g>
    </g>
    <g id="text_23">
     <!-- Cmax values -->
     <g transform="translate(705.763281 343.276563)scale(0.1 -0.1)">
      <use xlink:href="#DejaVuSans-43"/>
      <use xlink:href="#DejaVuSans-6d" x="69.824219"/>
      <use xlink:href="#DejaVuSans-61" x="167.236328"/>
      <use xlink:href="#DejaVuSans-78" x="228.515625"/>
      <use xlink:href="#DejaVuSans-20" x="287.695312"/>
      <use xlink:href="#DejaVuSans-76" x="319.482422"/>
      <use xlink:href="#DejaVuSans-61" x="378.662109"/>
      <use xlink:href="#DejaVuSans-6c" x="439.941406"/>
      <use xlink:href="#DejaVuSans-75" x="467.724609"/>
      <use xlink:href="#DejaVuSans-65" x="531.103516"/>
      <use xlink:href="#DejaVuSans-73" x="592.626953"/>
     </g>
    </g>
   </g>
   <g id="matplotlib.axis_4">
    <g id="ytick_6">
     <g id="line2d_21">
      <g>
       <use xlink:href="#mf385f6afd2" x="573.882353" y="263.358" style="stroke: #000000; stroke-width: 0.8"/>
      </g>
     </g>
     <g id="text_24">
      <!-- 10 -->
      <g transform="translate(554.157353 267.157219)scale(0.1 -0.1)">
       <use xlink:href="#DejaVuSans-31"/>
       <use xlink:href="#DejaVuSans-30" x="63.623047"/>
      </g>
     </g>
    </g>
    <g id="ytick_7">
     <g id="line2d_22">
      <g>
       <use xlink:href="#mf385f6afd2" x="573.882353" y="208.998" style="stroke: #000000; stroke-width: 0.8"/>
      </g>
     </g>
     <g id="text_25">
      <!-- 20 -->
      <g transform="translate(554.157353 212.797219)scale(0.1 -0.1)">
       <use xlink:href="#DejaVuSans-32"/>
       <use xlink:href="#DejaVuSans-30" x="63.623047"/>
      </g>
     </g>
    </g>
    <g id="ytick_8">
     <g id="line2d_23">
      <g>
       <use xlink:href="#mf385f6afd2" x="573.882353" y="154.638" style="stroke: #000000; stroke-width: 0.8"/>
      </g>
     </g>
     <g id="text_26">
      <!-- 30 -->
      <g transform="translate(554.157353 158.437219)scale(0.1 -0.1)">
       <use xlink:href="#DejaVuSans-33"/>
       <use xlink:href="#DejaVuSans-30" x="63.623047"/>
      </g>
     </g>
    </g>
    <g id="ytick_9">
     <g id="line2d_24">
      <g>
       <use xlink:href="#mf385f6afd2" x="573.882353" y="100.278" style="stroke: #000000; stroke-width: 0.8"/>
      </g>
     </g>
     <g id="text_27">
      <!-- 40 -->
      <g transform="translate(554.157353 104.077219)scale(0.1 -0.1)">
       <use xlink:href="#DejaVuSans-34"/>
       <use xlink:href="#DejaVuSans-30" x="63.623047"/>
      </g>
     </g>
    </g>
    <g id="ytick_10">
     <g id="line2d_25">
      <g>
       <use xlink:href="#mf385f6afd2" x="573.882353" y="45.918" style="stroke: #000000; stroke-width: 0.8"/>
      </g>
     </g>
     <g id="text_28">
      <!-- 50 -->
      <g transform="translate(554.157353 49.717219)scale(0.1 -0.1)">
       <use xlink:href="#DejaVuSans-35"/>
       <use xlink:href="#DejaVuSans-30" x="63.623047"/>
      </g>
     </g>
    </g>
    <g id="text_29">
     <!-- Instances -->
     <g transform="translate(548.077665 202.971875)rotate(-90)scale(0.1 -0.1)">
      <use xlink:href="#DejaVuSans-49"/>
      <use xlink:href="#DejaVuSans-6e" x="29.492188"/>
      <use xlink:href="#DejaVuSans-73" x="92.871094"/>
      <use xlink:href="#DejaVuSans-74" x="144.970703"/>
      <use xlink:href="#DejaVuSans-61" x="184.179688"/>
      <use xlink:href="#DejaVuSans-6e" x="245.458984"/>
      <use xlink:href="#DejaVuSans-63" x="308.837891"/>
      <use xlink:href="#DejaVuSans-65" x="363.818359"/>
      <use xlink:href="#DejaVuSans-73" x="425.341797"/>
     </g>
    </g>
   </g>
   <g id="patch_108">
    <path d="M 573.882353 315 
L 573.882353 43.2 
" style="fill: none; stroke: #000000; stroke-width: 0.8; stroke-linejoin: miter; stroke-linecap: square"/>
   </g>
   <g id="patch_109">
    <path d="M 902.117647 315 
L 902.117647 43.2 
" style="fill: none; stroke: #000000; stroke-width: 0.8; stroke-linejoin: miter; stroke-linecap: square"/>
   </g>
   <g id="patch_110">
    <path d="M 573.882353 315 
L 902.117647 315 
" style="fill: none; stroke: #000000; stroke-width: 0.8; stroke-linejoin: miter; stroke-linecap: square"/>
   </g>
   <g id="patch_111">
    <path d="M 573.882353 43.2 
L 902.117647 43.2 
" style="fill: none; stroke: #000000; stroke-width: 0.8; stroke-linejoin: miter; stroke-linecap: square"/>
   </g>
  </g>
  <g id="axes_3">
   <g id="patch_112">
    <path d="M 967.764706 315 
L 1296 315 
L 1296 43.2 
L 967.764706 43.2 
z
" style="fill: #ffffff"/>
   </g>
   <g id="patch_113">
    <path d="M 967.764706 314.4564 
L 1118.994075 314.4564 
L 1118.994075 310.1076 
L 967.764706 310.1076 
z
" clip-path="url(#p11090407f4)" style="fill: #800080"/>
   </g>
   <g id="patch_114">
    <path d="M 967.764706 309.0204 
L 1121.324664 309.0204 
L 1121.324664 304.6716 
L 967.764706 304.6716 
z
" clip-path="url(#p11090407f4)" style="fill: #800080"/>
   </g>
   <g id="patch_115">
    <path d="M 967.764706 303.5844 
L 1120.194682 303.5844 
L 1120.194682 299.2356 
L 967.764706 299.2356 
z
" clip-path="url(#p11090407f4)" style="fill: #800080"/>
   </g>
   <g id="patch_116">
    <path d="M 967.764706 298.1484 
L 1121.536536 298.1484 
L 1121.536536 293.7996 
L 967.764706 293.7996 
z
" clip-path="url(#p11090407f4)" style="fill: #800080"/>
   </g>
   <g id="patch_117">
    <path d="M 967.764706 292.7124 
L 1123.655254 292.7124 
L 1123.655254 288.3636 
L 967.764706 288.3636 
z
" clip-path="url(#p11090407f4)" style="fill: #800080"/>
   </g>
   <g id="patch_118">
    <path d="M 967.764706 287.2764 
L 1122.384023 287.2764 
L 1122.384023 282.9276 
L 967.764706 282.9276 
z
" clip-path="url(#p11090407f4)" style="fill: #800080"/>
   </g>
   <g id="patch_119">
    <path d="M 967.764706 281.8404 
L 1120.194682 281.8404 
L 1120.194682 277.4916 
L 967.764706 277.4916 
z
" clip-path="url(#p11090407f4)" style="fill: #800080"/>
   </g>
   <g id="patch_120">
    <path d="M 967.764706 276.4044 
L 1130.435151 276.4044 
L 1130.435151 272.0556 
L 967.764706 272.0556 
z
" clip-path="url(#p11090407f4)" style="fill: #800080"/>
   </g>
   <g id="patch_121">
    <path d="M 967.764706 270.9684 
L 1136.461726 270.9684 
L 1136.461726 266.6196 
L 967.764706 266.6196 
z
" clip-path="url(#p11090407f4)" style="fill: #800080"/>
   </g>
   <g id="patch_122">
    <path d="M 967.764706 265.5324 
L 1124.714613 265.5324 
L 1124.714613 261.1836 
L 967.764706 261.1836 
z
" clip-path="url(#p11090407f4)" style="fill: #800080"/>
   </g>
   <g id="patch_123">
    <path d="M 967.764706 260.0964 
L 1123.961291 260.0964 
L 1123.961291 255.7476 
L 967.764706 255.7476 
z
" clip-path="url(#p11090407f4)" style="fill: #800080"/>
   </g>
   <g id="patch_124">
    <path d="M 967.764706 254.6604 
L 1129.187462 254.6604 
L 1129.187462 250.3116 
L 967.764706 250.3116 
z
" clip-path="url(#p11090407f4)" style="fill: #800080"/>
   </g>
   <g id="patch_125">
    <path d="M 967.764706 249.2244 
L 1127.822066 249.2244 
L 1127.822066 244.8756 
L 967.764706 244.8756 
z
" clip-path="url(#p11090407f4)" style="fill: #800080"/>
   </g>
   <g id="patch_126">
    <path d="M 967.764706 243.7884 
L 1137.897746 243.7884 
L 1137.897746 239.4396 
L 967.764706 239.4396 
z
" clip-path="url(#p11090407f4)" style="fill: #800080"/>
   </g>
   <g id="patch_127">
    <path d="M 967.764706 238.3524 
L 1124.596906 238.3524 
L 1124.596906 234.0036 
L 967.764706 234.0036 
z
" clip-path="url(#p11090407f4)" style="fill: #800080"/>
   </g>
   <g id="patch_128">
    <path d="M 967.764706 232.9164 
L 1130.458692 232.9164 
L 1130.458692 228.5676 
L 967.764706 228.5676 
z
" clip-path="url(#p11090407f4)" style="fill: #800080"/>
   </g>
   <g id="patch_129">
    <path d="M 967.764706 227.4804 
L 1133.989889 227.4804 
L 1133.989889 223.1316 
L 967.764706 223.1316 
z
" clip-path="url(#p11090407f4)" style="fill: #800080"/>
   </g>
   <g id="patch_130">
    <path d="M 967.764706 222.0444 
L 1139.263142 222.0444 
L 1139.263142 217.6956 
L 967.764706 217.6956 
z
" clip-path="url(#p11090407f4)" style="fill: #800080"/>
   </g>
   <g id="patch_131">
    <path d="M 967.764706 216.6084 
L 1147.949885 216.6084 
L 1147.949885 212.2596 
L 967.764706 212.2596 
z
" clip-path="url(#p11090407f4)" style="fill: #800080"/>
   </g>
   <g id="patch_132">
    <path d="M 967.764706 211.1724 
L 1130.293903 211.1724 
L 1130.293903 206.8236 
L 967.764706 206.8236 
z
" clip-path="url(#p11090407f4)" style="fill: #800080"/>
   </g>
   <g id="patch_133">
    <path d="M 967.764706 205.7364 
L 1132.977612 205.7364 
L 1132.977612 201.3876 
L 967.764706 201.3876 
z
" clip-path="url(#p11090407f4)" style="fill: #800080"/>
   </g>
   <g id="patch_134">
    <path d="M 967.764706 200.3004 
L 1159.791163 200.3004 
L 1159.791163 195.9516 
L 967.764706 195.9516 
z
" clip-path="url(#p11090407f4)" style="fill: #800080"/>
   </g>
   <g id="patch_135">
    <path d="M 967.764706 194.8644 
L 1127.18645 194.8644 
L 1127.18645 190.5156 
L 967.764706 190.5156 
z
" clip-path="url(#p11090407f4)" style="fill: #800080"/>
   </g>
   <g id="patch_136">
    <path d="M 967.764706 189.4284 
L 1161.556761 189.4284 
L 1161.556761 185.0796 
L 967.764706 185.0796 
z
" clip-path="url(#p11090407f4)" style="fill: #800080"/>
   </g>
   <g id="patch_137">
    <path d="M 967.764706 183.9924 
L 1175.422592 183.9924 
L 1175.422592 179.6436 
L 967.764706 179.6436 
z
" clip-path="url(#p11090407f4)" style="fill: #800080"/>
   </g>
   <g id="patch_138">
    <path d="M 967.764706 178.5564 
L 1235.523554 178.5564 
L 1235.523554 174.2076 
L 967.764706 174.2076 
z
" clip-path="url(#p11090407f4)" style="fill: #800080"/>
   </g>
   <g id="patch_139">
    <path d="M 967.764706 173.1204 
L 1130.176197 173.1204 
L 1130.176197 168.7716 
L 967.764706 168.7716 
z
" clip-path="url(#p11090407f4)" style="fill: #800080"/>
   </g>
   <g id="patch_140">
    <path d="M 967.764706 167.6844 
L 1231.168412 167.6844 
L 1231.168412 163.3356 
L 967.764706 163.3356 
z
" clip-path="url(#p11090407f4)" style="fill: #800080"/>
   </g>
   <g id="patch_141">
    <path d="M 967.764706 162.2484 
L 1158.731804 162.2484 
L 1158.731804 157.8996 
L 967.764706 157.8996 
z
" clip-path="url(#p11090407f4)" style="fill: #800080"/>
   </g>
   <g id="patch_142">
    <path d="M 967.764706 156.8124 
L 1267.869313 156.8124 
L 1267.869313 152.4636 
L 967.764706 152.4636 
z
" clip-path="url(#p11090407f4)" style="fill: #800080"/>
   </g>
   <g id="patch_143">
    <path d="M 967.764706 151.3764 
L 1159.532209 151.3764 
L 1159.532209 147.0276 
L 967.764706 147.0276 
z
" clip-path="url(#p11090407f4)" style="fill: #800080"/>
   </g>
   <g id="patch_144">
    <path d="M 967.764706 145.9404 
L 1195.52687 145.9404 
L 1195.52687 141.5916 
L 967.764706 141.5916 
z
" clip-path="url(#p11090407f4)" style="fill: #800080"/>
   </g>
   <g id="patch_145">
    <path d="M 967.764706 140.5044 
L 1157.790152 140.5044 
L 1157.790152 136.1556 
L 967.764706 136.1556 
z
" clip-path="url(#p11090407f4)" style="fill: #800080"/>
   </g>
   <g id="patch_146">
    <path d="M 967.764706 135.0684 
L 1194.79709 135.0684 
L 1194.79709 130.7196 
L 967.764706 130.7196 
z
" clip-path="url(#p11090407f4)" style="fill: #800080"/>
   </g>
   <g id="patch_147">
    <path d="M 967.764706 129.6324 
L 1272.036125 129.6324 
L 1272.036125 125.2836 
L 967.764706 125.2836 
z
" clip-path="url(#p11090407f4)" style="fill: #800080"/>
   </g>
   <g id="patch_148">
    <path d="M 967.764706 124.1964 
L 1186.981375 124.1964 
L 1186.981375 119.8476 
L 967.764706 119.8476 
z
" clip-path="url(#p11090407f4)" style="fill: #800080"/>
   </g>
   <g id="patch_149">
    <path d="M 967.764706 118.7604 
L 1152.399192 118.7604 
L 1152.399192 114.4116 
L 967.764706 114.4116 
z
" clip-path="url(#p11090407f4)" style="fill: #800080"/>
   </g>
   <g id="patch_150">
    <path d="M 967.764706 113.3244 
L 1156.354132 113.3244 
L 1156.354132 108.9756 
L 967.764706 108.9756 
z
" clip-path="url(#p11090407f4)" style="fill: #800080"/>
   </g>
   <g id="patch_151">
    <path d="M 967.764706 107.8884 
L 1174.786977 107.8884 
L 1174.786977 103.5396 
L 967.764706 103.5396 
z
" clip-path="url(#p11090407f4)" style="fill: #800080"/>
   </g>
   <g id="patch_152">
    <path d="M 967.764706 102.4524 
L 1243.786554 102.4524 
L 1243.786554 98.1036 
L 967.764706 98.1036 
z
" clip-path="url(#p11090407f4)" style="fill: #800080"/>
   </g>
   <g id="patch_153">
    <path d="M 967.764706 97.0164 
L 1151.504623 97.0164 
L 1151.504623 92.6676 
L 967.764706 92.6676 
z
" clip-path="url(#p11090407f4)" style="fill: #800080"/>
   </g>
   <g id="patch_154">
    <path d="M 967.764706 91.5804 
L 1199.693682 91.5804 
L 1199.693682 87.2316 
L 967.764706 87.2316 
z
" clip-path="url(#p11090407f4)" style="fill: #800080"/>
   </g>
   <g id="patch_155">
    <path d="M 967.764706 86.1444 
L 1212.147034 86.1444 
L 1212.147034 81.7956 
L 967.764706 81.7956 
z
" clip-path="url(#p11090407f4)" style="fill: #800080"/>
   </g>
   <g id="patch_156">
    <path d="M 967.764706 80.7084 
L 1255.863245 80.7084 
L 1255.863245 76.3596 
L 967.764706 76.3596 
z
" clip-path="url(#p11090407f4)" style="fill: #800080"/>
   </g>
   <g id="patch_157">
    <path d="M 967.764706 75.2724 
L 1280.369748 75.2724 
L 1280.369748 70.9236 
L 967.764706 70.9236 
z
" clip-path="url(#p11090407f4)" style="fill: #800080"/>
   </g>
   <g id="patch_158">
    <path d="M 967.764706 69.8364 
L 1243.551141 69.8364 
L 1243.551141 65.4876 
L 967.764706 65.4876 
z
" clip-path="url(#p11090407f4)" style="fill: #800080"/>
   </g>
   <g id="patch_159">
    <path d="M 967.764706 64.4004 
L 1171.703066 64.4004 
L 1171.703066 60.0516 
L 967.764706 60.0516 
z
" clip-path="url(#p11090407f4)" style="fill: #800080"/>
   </g>
   <g id="patch_160">
    <path d="M 967.764706 58.9644 
L 1219.44484 58.9644 
L 1219.44484 54.6156 
L 967.764706 54.6156 
z
" clip-path="url(#p11090407f4)" style="fill: #800080"/>
   </g>
   <g id="patch_161">
    <path d="M 967.764706 53.5284 
L 1223.729358 53.5284 
L 1223.729358 49.1796 
L 967.764706 49.1796 
z
" clip-path="url(#p11090407f4)" style="fill: #800080"/>
   </g>
   <g id="patch_162">
    <path d="M 967.764706 48.0924 
L 1195.573953 48.0924 
L 1195.573953 43.7436 
L 967.764706 43.7436 
z
" clip-path="url(#p11090407f4)" style="fill: #800080"/>
   </g>
   <g id="matplotlib.axis_5">
    <g id="xtick_16">
     <g id="line2d_26">
      <g>
       <use xlink:href="#m371483bb5a" x="967.764706" y="315" style="stroke: #000000; stroke-width: 0.8"/>
      </g>
     </g>
     <g id="text_30">
      <!-- 0 -->
      <g transform="translate(964.583456 329.598437)scale(0.1 -0.1)">
       <use xlink:href="#DejaVuSans-30"/>
      </g>
     </g>
    </g>
    <g id="xtick_17">
     <g id="line2d_27">
      <g>
       <use xlink:href="#m371483bb5a" x="1014.847324" y="315" style="stroke: #000000; stroke-width: 0.8"/>
      </g>
     </g>
     <g id="text_31">
      <!-- 2000 -->
      <g transform="translate(1002.122324 329.598437)scale(0.1 -0.1)">
       <use xlink:href="#DejaVuSans-32"/>
       <use xlink:href="#DejaVuSans-30" x="63.623047"/>
       <use xlink:href="#DejaVuSans-30" x="127.246094"/>
       <use xlink:href="#DejaVuSans-30" x="190.869141"/>
      </g>
     </g>
    </g>
    <g id="xtick_18">
     <g id="line2d_28">
      <g>
       <use xlink:href="#m371483bb5a" x="1061.929942" y="315" style="stroke: #000000; stroke-width: 0.8"/>
      </g>
     </g>
     <g id="text_32">
      <!-- 4000 -->
      <g transform="translate(1049.204942 329.598437)scale(0.1 -0.1)">
       <use xlink:href="#DejaVuSans-34"/>
       <use xlink:href="#DejaVuSans-30" x="63.623047"/>
       <use xlink:href="#DejaVuSans-30" x="127.246094"/>
       <use xlink:href="#DejaVuSans-30" x="190.869141"/>
      </g>
     </g>
    </g>
    <g id="xtick_19">
     <g id="line2d_29">
      <g>
       <use xlink:href="#m371483bb5a" x="1109.01256" y="315" style="stroke: #000000; stroke-width: 0.8"/>
      </g>
     </g>
     <g id="text_33">
      <!-- 6000 -->
      <g transform="translate(1096.28756 329.598437)scale(0.1 -0.1)">
       <use xlink:href="#DejaVuSans-36"/>
       <use xlink:href="#DejaVuSans-30" x="63.623047"/>
       <use xlink:href="#DejaVuSans-30" x="127.246094"/>
       <use xlink:href="#DejaVuSans-30" x="190.869141"/>
      </g>
     </g>
    </g>
    <g id="xtick_20">
     <g id="line2d_30">
      <g>
       <use xlink:href="#m371483bb5a" x="1156.095178" y="315" style="stroke: #000000; stroke-width: 0.8"/>
      </g>
     </g>
     <g id="text_34">
      <!-- 8000 -->
      <g transform="translate(1143.370178 329.598437)scale(0.1 -0.1)">
       <use xlink:href="#DejaVuSans-38"/>
       <use xlink:href="#DejaVuSans-30" x="63.623047"/>
       <use xlink:href="#DejaVuSans-30" x="127.246094"/>
       <use xlink:href="#DejaVuSans-30" x="190.869141"/>
      </g>
     </g>
    </g>
    <g id="xtick_21">
     <g id="line2d_31">
      <g>
       <use xlink:href="#m371483bb5a" x="1203.177796" y="315" style="stroke: #000000; stroke-width: 0.8"/>
      </g>
     </g>
     <g id="text_35">
      <!-- 10000 -->
      <g transform="translate(1187.271546 329.598437)scale(0.1 -0.1)">
       <use xlink:href="#DejaVuSans-31"/>
       <use xlink:href="#DejaVuSans-30" x="63.623047"/>
       <use xlink:href="#DejaVuSans-30" x="127.246094"/>
       <use xlink:href="#DejaVuSans-30" x="190.869141"/>
       <use xlink:href="#DejaVuSans-30" x="254.492188"/>
      </g>
     </g>
    </g>
    <g id="xtick_22">
     <g id="line2d_32">
      <g>
       <use xlink:href="#m371483bb5a" x="1250.260414" y="315" style="stroke: #000000; stroke-width: 0.8"/>
      </g>
     </g>
     <g id="text_36">
      <!-- 12000 -->
      <g transform="translate(1234.354164 329.598437)scale(0.1 -0.1)">
       <use xlink:href="#DejaVuSans-31"/>
       <use xlink:href="#DejaVuSans-32" x="63.623047"/>
       <use xlink:href="#DejaVuSans-30" x="127.246094"/>
       <use xlink:href="#DejaVuSans-30" x="190.869141"/>
       <use xlink:href="#DejaVuSans-30" x="254.492188"/>
      </g>
     </g>
    </g>
    <g id="text_37">
     <!-- Cmax values -->
     <g transform="translate(1099.645634 343.276563)scale(0.1 -0.1)">
      <use xlink:href="#DejaVuSans-43"/>
      <use xlink:href="#DejaVuSans-6d" x="69.824219"/>
      <use xlink:href="#DejaVuSans-61" x="167.236328"/>
      <use xlink:href="#DejaVuSans-78" x="228.515625"/>
      <use xlink:href="#DejaVuSans-20" x="287.695312"/>
      <use xlink:href="#DejaVuSans-76" x="319.482422"/>
      <use xlink:href="#DejaVuSans-61" x="378.662109"/>
      <use xlink:href="#DejaVuSans-6c" x="439.941406"/>
      <use xlink:href="#DejaVuSans-75" x="467.724609"/>
      <use xlink:href="#DejaVuSans-65" x="531.103516"/>
      <use xlink:href="#DejaVuSans-73" x="592.626953"/>
     </g>
    </g>
   </g>
   <g id="matplotlib.axis_6">
    <g id="ytick_11">
     <g id="line2d_33">
      <g>
       <use xlink:href="#mf385f6afd2" x="967.764706" y="263.358" style="stroke: #000000; stroke-width: 0.8"/>
      </g>
     </g>
     <g id="text_38">
      <!-- 10 -->
      <g transform="translate(948.039706 267.157219)scale(0.1 -0.1)">
       <use xlink:href="#DejaVuSans-31"/>
       <use xlink:href="#DejaVuSans-30" x="63.623047"/>
      </g>
     </g>
    </g>
    <g id="ytick_12">
     <g id="line2d_34">
      <g>
       <use xlink:href="#mf385f6afd2" x="967.764706" y="208.998" style="stroke: #000000; stroke-width: 0.8"/>
      </g>
     </g>
     <g id="text_39">
      <!-- 20 -->
      <g transform="translate(948.039706 212.797219)scale(0.1 -0.1)">
       <use xlink:href="#DejaVuSans-32"/>
       <use xlink:href="#DejaVuSans-30" x="63.623047"/>
      </g>
     </g>
    </g>
    <g id="ytick_13">
     <g id="line2d_35">
      <g>
       <use xlink:href="#mf385f6afd2" x="967.764706" y="154.638" style="stroke: #000000; stroke-width: 0.8"/>
      </g>
     </g>
     <g id="text_40">
      <!-- 30 -->
      <g transform="translate(948.039706 158.437219)scale(0.1 -0.1)">
       <use xlink:href="#DejaVuSans-33"/>
       <use xlink:href="#DejaVuSans-30" x="63.623047"/>
      </g>
     </g>
    </g>
    <g id="ytick_14">
     <g id="line2d_36">
      <g>
       <use xlink:href="#mf385f6afd2" x="967.764706" y="100.278" style="stroke: #000000; stroke-width: 0.8"/>
      </g>
     </g>
     <g id="text_41">
      <!-- 40 -->
      <g transform="translate(948.039706 104.077219)scale(0.1 -0.1)">
       <use xlink:href="#DejaVuSans-34"/>
       <use xlink:href="#DejaVuSans-30" x="63.623047"/>
      </g>
     </g>
    </g>
    <g id="ytick_15">
     <g id="line2d_37">
      <g>
       <use xlink:href="#mf385f6afd2" x="967.764706" y="45.918" style="stroke: #000000; stroke-width: 0.8"/>
      </g>
     </g>
     <g id="text_42">
      <!-- 50 -->
      <g transform="translate(948.039706 49.717219)scale(0.1 -0.1)">
       <use xlink:href="#DejaVuSans-35"/>
       <use xlink:href="#DejaVuSans-30" x="63.623047"/>
      </g>
     </g>
    </g>
    <g id="text_43">
     <!-- Instances -->
     <g transform="translate(941.960018 202.971875)rotate(-90)scale(0.1 -0.1)">
      <use xlink:href="#DejaVuSans-49"/>
      <use xlink:href="#DejaVuSans-6e" x="29.492188"/>
      <use xlink:href="#DejaVuSans-73" x="92.871094"/>
      <use xlink:href="#DejaVuSans-74" x="144.970703"/>
      <use xlink:href="#DejaVuSans-61" x="184.179688"/>
      <use xlink:href="#DejaVuSans-6e" x="245.458984"/>
      <use xlink:href="#DejaVuSans-63" x="308.837891"/>
      <use xlink:href="#DejaVuSans-65" x="363.818359"/>
      <use xlink:href="#DejaVuSans-73" x="425.341797"/>
     </g>
    </g>
   </g>
   <g id="patch_163">
    <path d="M 967.764706 315 
L 967.764706 43.2 
" style="fill: none; stroke: #000000; stroke-width: 0.8; stroke-linejoin: miter; stroke-linecap: square"/>
   </g>
   <g id="patch_164">
    <path d="M 1296 315 
L 1296 43.2 
" style="fill: none; stroke: #000000; stroke-width: 0.8; stroke-linejoin: miter; stroke-linecap: square"/>
   </g>
   <g id="patch_165">
    <path d="M 967.764706 315 
L 1296 315 
" style="fill: none; stroke: #000000; stroke-width: 0.8; stroke-linejoin: miter; stroke-linecap: square"/>
   </g>
   <g id="patch_166">
    <path d="M 967.764706 43.2 
L 1296 43.2 
" style="fill: none; stroke: #000000; stroke-width: 0.8; stroke-linejoin: miter; stroke-linecap: square"/>
   </g>
  </g>
  <g id="text_44">
   <!-- nProc = 50   nTask = 200 -->
   <g transform="translate(644.1375 16.318125)scale(0.12 -0.12)">
    <defs>
     <path id="DejaVuSans-50" d="M 1259 4147 
L 1259 2394 
L 2053 2394 
Q 2494 2394 2734 2622 
Q 2975 2850 2975 3272 
Q 2975 3691 2734 3919 
Q 2494 4147 2053 4147 
L 1259 4147 
z
M 628 4666 
L 2053 4666 
Q 2838 4666 3239 4311 
Q 3641 3956 3641 3272 
Q 3641 2581 3239 2228 
Q 2838 1875 2053 1875 
L 1259 1875 
L 1259 0 
L 628 0 
L 628 4666 
z
" transform="scale(0.015625)"/>
     <path id="DejaVuSans-72" d="M 2631 2963 
Q 2534 3019 2420 3045 
Q 2306 3072 2169 3072 
Q 1681 3072 1420 2755 
Q 1159 2438 1159 1844 
L 1159 0 
L 581 0 
L 581 3500 
L 1159 3500 
L 1159 2956 
Q 1341 3275 1631 3429 
Q 1922 3584 2338 3584 
Q 2397 3584 2469 3576 
Q 2541 3569 2628 3553 
L 2631 2963 
z
" transform="scale(0.015625)"/>
     <path id="DejaVuSans-6f" d="M 1959 3097 
Q 1497 3097 1228 2736 
Q 959 2375 959 1747 
Q 959 1119 1226 758 
Q 1494 397 1959 397 
Q 2419 397 2687 759 
Q 2956 1122 2956 1747 
Q 2956 2369 2687 2733 
Q 2419 3097 1959 3097 
z
M 1959 3584 
Q 2709 3584 3137 3096 
Q 3566 2609 3566 1747 
Q 3566 888 3137 398 
Q 2709 -91 1959 -91 
Q 1206 -91 779 398 
Q 353 888 353 1747 
Q 353 2609 779 3096 
Q 1206 3584 1959 3584 
z
" transform="scale(0.015625)"/>
     <path id="DejaVuSans-3d" d="M 678 2906 
L 4684 2906 
L 4684 2381 
L 678 2381 
L 678 2906 
z
M 678 1631 
L 4684 1631 
L 4684 1100 
L 678 1100 
L 678 1631 
z
" transform="scale(0.015625)"/>
     <path id="DejaVuSans-54" d="M -19 4666 
L 3928 4666 
L 3928 4134 
L 2272 4134 
L 2272 0 
L 1638 0 
L 1638 4134 
L -19 4134 
L -19 4666 
z
" transform="scale(0.015625)"/>
     <path id="DejaVuSans-6b" d="M 581 4863 
L 1159 4863 
L 1159 1991 
L 2875 3500 
L 3609 3500 
L 1753 1863 
L 3688 0 
L 2938 0 
L 1159 1709 
L 1159 0 
L 581 0 
L 581 4863 
z
" transform="scale(0.015625)"/>
    </defs>
    <use xlink:href="#DejaVuSans-6e"/>
    <use xlink:href="#DejaVuSans-50" x="63.378906"/>
    <use xlink:href="#DejaVuSans-72" x="121.931641"/>
    <use xlink:href="#DejaVuSans-6f" x="160.794922"/>
    <use xlink:href="#DejaVuSans-63" x="221.976562"/>
    <use xlink:href="#DejaVuSans-20" x="276.957031"/>
    <use xlink:href="#DejaVuSans-3d" x="308.744141"/>
    <use xlink:href="#DejaVuSans-20" x="392.533203"/>
    <use xlink:href="#DejaVuSans-35" x="424.320312"/>
    <use xlink:href="#DejaVuSans-30" x="487.943359"/>
    <use xlink:href="#DejaVuSans-20" x="551.566406"/>
    <use xlink:href="#DejaVuSans-20" x="583.353516"/>
    <use xlink:href="#DejaVuSans-20" x="615.140625"/>
    <use xlink:href="#DejaVuSans-6e" x="646.927734"/>
    <use xlink:href="#DejaVuSans-54" x="710.306641"/>
    <use xlink:href="#DejaVuSans-61" x="754.890625"/>
    <use xlink:href="#DejaVuSans-73" x="816.169922"/>
    <use xlink:href="#DejaVuSans-6b" x="868.269531"/>
    <use xlink:href="#DejaVuSans-20" x="926.179688"/>
    <use xlink:href="#DejaVuSans-3d" x="957.966797"/>
    <use xlink:href="#DejaVuSans-20" x="1041.755859"/>
    <use xlink:href="#DejaVuSans-32" x="1073.542969"/>
    <use xlink:href="#DejaVuSans-30" x="1137.166016"/>
    <use xlink:href="#DejaVuSans-30" x="1200.789062"/>
   </g>
   <!--  Optimal: 8500   Result: 11118   Accuracy: 76.453 % -->
   <g transform="translate(562.671562 29.7555)scale(0.12 -0.12)">
    <defs>
     <path id="DejaVuSans-4f" d="M 2522 4238 
Q 1834 4238 1429 3725 
Q 1025 3213 1025 2328 
Q 1025 1447 1429 934 
Q 1834 422 2522 422 
Q 3209 422 3611 934 
Q 4013 1447 4013 2328 
Q 4013 3213 3611 3725 
Q 3209 4238 2522 4238 
z
M 2522 4750 
Q 3503 4750 4090 4092 
Q 4678 3434 4678 2328 
Q 4678 1225 4090 567 
Q 3503 -91 2522 -91 
Q 1538 -91 948 565 
Q 359 1222 359 2328 
Q 359 3434 948 4092 
Q 1538 4750 2522 4750 
z
" transform="scale(0.015625)"/>
     <path id="DejaVuSans-70" d="M 1159 525 
L 1159 -1331 
L 581 -1331 
L 581 3500 
L 1159 3500 
L 1159 2969 
Q 1341 3281 1617 3432 
Q 1894 3584 2278 3584 
Q 2916 3584 3314 3078 
Q 3713 2572 3713 1747 
Q 3713 922 3314 415 
Q 2916 -91 2278 -91 
Q 1894 -91 1617 61 
Q 1341 213 1159 525 
z
M 3116 1747 
Q 3116 2381 2855 2742 
Q 2594 3103 2138 3103 
Q 1681 3103 1420 2742 
Q 1159 2381 1159 1747 
Q 1159 1113 1420 752 
Q 1681 391 2138 391 
Q 2594 391 2855 752 
Q 3116 1113 3116 1747 
z
" transform="scale(0.015625)"/>
     <path id="DejaVuSans-69" d="M 603 3500 
L 1178 3500 
L 1178 0 
L 603 0 
L 603 3500 
z
M 603 4863 
L 1178 4863 
L 1178 4134 
L 603 4134 
L 603 4863 
z
" transform="scale(0.015625)"/>
     <path id="DejaVuSans-3a" d="M 750 794 
L 1409 794 
L 1409 0 
L 750 0 
L 750 794 
z
M 750 3309 
L 1409 3309 
L 1409 2516 
L 750 2516 
L 750 3309 
z
" transform="scale(0.015625)"/>
     <path id="DejaVuSans-52" d="M 2841 2188 
Q 3044 2119 3236 1894 
Q 3428 1669 3622 1275 
L 4263 0 
L 3584 0 
L 2988 1197 
Q 2756 1666 2539 1819 
Q 2322 1972 1947 1972 
L 1259 1972 
L 1259 0 
L 628 0 
L 628 4666 
L 2053 4666 
Q 2853 4666 3247 4331 
Q 3641 3997 3641 3322 
Q 3641 2881 3436 2590 
Q 3231 2300 2841 2188 
z
M 1259 4147 
L 1259 2491 
L 2053 2491 
Q 2509 2491 2742 2702 
Q 2975 2913 2975 3322 
Q 2975 3731 2742 3939 
Q 2509 4147 2053 4147 
L 1259 4147 
z
" transform="scale(0.015625)"/>
     <path id="DejaVuSans-41" d="M 2188 4044 
L 1331 1722 
L 3047 1722 
L 2188 4044 
z
M 1831 4666 
L 2547 4666 
L 4325 0 
L 3669 0 
L 3244 1197 
L 1141 1197 
L 716 0 
L 50 0 
L 1831 4666 
z
" transform="scale(0.015625)"/>
     <path id="DejaVuSans-79" d="M 2059 -325 
Q 1816 -950 1584 -1140 
Q 1353 -1331 966 -1331 
L 506 -1331 
L 506 -850 
L 844 -850 
Q 1081 -850 1212 -737 
Q 1344 -625 1503 -206 
L 1606 56 
L 191 3500 
L 800 3500 
L 1894 763 
L 2988 3500 
L 3597 3500 
L 2059 -325 
z
" transform="scale(0.015625)"/>
     <path id="DejaVuSans-2e" d="M 684 794 
L 1344 794 
L 1344 0 
L 684 0 
L 684 794 
z
" transform="scale(0.015625)"/>
     <path id="DejaVuSans-25" d="M 4653 2053 
Q 4381 2053 4226 1822 
Q 4072 1591 4072 1178 
Q 4072 772 4226 539 
Q 4381 306 4653 306 
Q 4919 306 5073 539 
Q 5228 772 5228 1178 
Q 5228 1588 5073 1820 
Q 4919 2053 4653 2053 
z
M 4653 2450 
Q 5147 2450 5437 2106 
Q 5728 1763 5728 1178 
Q 5728 594 5436 251 
Q 5144 -91 4653 -91 
Q 4153 -91 3862 251 
Q 3572 594 3572 1178 
Q 3572 1766 3864 2108 
Q 4156 2450 4653 2450 
z
M 1428 4353 
Q 1159 4353 1004 4120 
Q 850 3888 850 3481 
Q 850 3069 1003 2837 
Q 1156 2606 1428 2606 
Q 1700 2606 1854 2837 
Q 2009 3069 2009 3481 
Q 2009 3884 1853 4118 
Q 1697 4353 1428 4353 
z
M 4250 4750 
L 4750 4750 
L 1831 -91 
L 1331 -91 
L 4250 4750 
z
M 1428 4750 
Q 1922 4750 2215 4408 
Q 2509 4066 2509 3481 
Q 2509 2891 2217 2550 
Q 1925 2209 1428 2209 
Q 931 2209 642 2551 
Q 353 2894 353 3481 
Q 353 4063 643 4406 
Q 934 4750 1428 4750 
z
" transform="scale(0.015625)"/>
    </defs>
    <use xlink:href="#DejaVuSans-20"/>
    <use xlink:href="#DejaVuSans-4f" x="31.787109"/>
    <use xlink:href="#DejaVuSans-70" x="110.498047"/>
    <use xlink:href="#DejaVuSans-74" x="173.974609"/>
    <use xlink:href="#DejaVuSans-69" x="213.183594"/>
    <use xlink:href="#DejaVuSans-6d" x="240.966797"/>
    <use xlink:href="#DejaVuSans-61" x="338.378906"/>
    <use xlink:href="#DejaVuSans-6c" x="399.658203"/>
    <use xlink:href="#DejaVuSans-3a" x="427.441406"/>
    <use xlink:href="#DejaVuSans-20" x="461.132812"/>
    <use xlink:href="#DejaVuSans-38" x="492.919922"/>
    <use xlink:href="#DejaVuSans-35" x="556.542969"/>
    <use xlink:href="#DejaVuSans-30" x="620.166016"/>
    <use xlink:href="#DejaVuSans-30" x="683.789062"/>
    <use xlink:href="#DejaVuSans-20" x="747.412109"/>
    <use xlink:href="#DejaVuSans-20" x="779.199219"/>
    <use xlink:href="#DejaVuSans-20" x="810.986328"/>
    <use xlink:href="#DejaVuSans-52" x="842.773438"/>
    <use xlink:href="#DejaVuSans-65" x="907.755859"/>
    <use xlink:href="#DejaVuSans-73" x="969.279297"/>
    <use xlink:href="#DejaVuSans-75" x="1021.378906"/>
    <use xlink:href="#DejaVuSans-6c" x="1084.757812"/>
    <use xlink:href="#DejaVuSans-74" x="1112.541016"/>
    <use xlink:href="#DejaVuSans-3a" x="1151.75"/>
    <use xlink:href="#DejaVuSans-20" x="1185.441406"/>
    <use xlink:href="#DejaVuSans-31" x="1217.228516"/>
    <use xlink:href="#DejaVuSans-31" x="1280.851562"/>
    <use xlink:href="#DejaVuSans-31" x="1344.474609"/>
    <use xlink:href="#DejaVuSans-31" x="1408.097656"/>
    <use xlink:href="#DejaVuSans-38" x="1471.720703"/>
    <use xlink:href="#DejaVuSans-20" x="1535.34375"/>
    <use xlink:href="#DejaVuSans-20" x="1567.130859"/>
    <use xlink:href="#DejaVuSans-20" x="1598.917969"/>
    <use xlink:href="#DejaVuSans-41" x="1630.705078"/>
    <use xlink:href="#DejaVuSans-63" x="1697.363281"/>
    <use xlink:href="#DejaVuSans-63" x="1752.34375"/>
    <use xlink:href="#DejaVuSans-75" x="1807.324219"/>
    <use xlink:href="#DejaVuSans-72" x="1870.703125"/>
    <use xlink:href="#DejaVuSans-61" x="1911.816406"/>
    <use xlink:href="#DejaVuSans-63" x="1973.095703"/>
    <use xlink:href="#DejaVuSans-79" x="2028.076172"/>
    <use xlink:href="#DejaVuSans-3a" x="2080.005859"/>
    <use xlink:href="#DejaVuSans-20" x="2113.697266"/>
    <use xlink:href="#DejaVuSans-37" x="2145.484375"/>
    <use xlink:href="#DejaVuSans-36" x="2209.107422"/>
    <use xlink:href="#DejaVuSans-2e" x="2272.730469"/>
    <use xlink:href="#DejaVuSans-34" x="2304.517578"/>
    <use xlink:href="#DejaVuSans-35" x="2368.140625"/>
    <use xlink:href="#DejaVuSans-33" x="2431.763672"/>
    <use xlink:href="#DejaVuSans-20" x="2495.386719"/>
    <use xlink:href="#DejaVuSans-25" x="2527.173828"/>
   </g>
  </g>
 </g>
 <defs>
  <clipPath id="p97367fcd67">
   <rect x="180" y="43.2" width="328.235294" height="271.8"/>
  </clipPath>
  <clipPath id="p94528c7616">
   <rect x="573.882353" y="43.2" width="328.235294" height="271.8"/>
  </clipPath>
  <clipPath id="p11090407f4">
   <rect x="967.764706" y="43.2" width="328.235294" height="271.8"/>
  </clipPath>
 </defs>
</svg>
