<?xml version="1.0" encoding="utf-8" standalone="no"?>
<!DOCTYPE svg PUBLIC "-//W3C//DTD SVG 1.1//EN"
  "http://www.w3.org/Graphics/SVG/1.1/DTD/svg11.dtd">
<svg xmlns:xlink="http://www.w3.org/1999/xlink" width="1440pt" height="360pt" viewBox="0 0 1440 360" xmlns="http://www.w3.org/2000/svg" version="1.1">
 <metadata>
  <rdf:RDF xmlns:dc="http://purl.org/dc/elements/1.1/" xmlns:cc="http://creativecommons.org/ns#" xmlns:rdf="http://www.w3.org/1999/02/22-rdf-syntax-ns#">
   <cc:Work>
    <dc:type rdf:resource="http://purl.org/dc/dcmitype/StillImage"/>
    <dc:date>2022-01-12T20:36:29.045388</dc:date>
    <dc:format>image/svg+xml</dc:format>
    <dc:creator>
     <cc:Agent>
      <dc:title>Matplotlib v3.5.0, https://matplotlib.org/</dc:title>
     </cc:Agent>
    </dc:creator>
   </cc:Work>
  </rdf:RDF>
 </metadata>
 <defs>
  <style type="text/css">*{stroke-linejoin: round; stroke-linecap: butt}</style>
 </defs>
 <g id="figure_1">
  <g id="patch_1">
   <path d="M 0 360 
L 1440 360 
L 1440 0 
L 0 0 
z
" style="fill: #ffffff"/>
  </g>
  <g id="axes_1">
   <g id="patch_2">
    <path d="M 180 315 
L 508.235294 315 
L 508.235294 43.2 
L 180 43.2 
z
" style="fill: #ffffff"/>
   </g>
   <g id="patch_3">
    <path d="M 180 314.611714 
L 492.605042 314.611714 
L 492.605042 311.505429 
L 180 311.505429 
z
" clip-path="url(#p65672daf31)" style="fill: #0000ff"/>
   </g>
   <g id="patch_4">
    <path d="M 180 310.728857 
L 492.605042 310.728857 
L 492.605042 307.622571 
L 180 307.622571 
z
" clip-path="url(#p65672daf31)" style="fill: #0000ff"/>
   </g>
   <g id="patch_5">
    <path d="M 180 306.846 
L 492.605042 306.846 
L 492.605042 303.739714 
L 180 303.739714 
z
" clip-path="url(#p65672daf31)" style="fill: #0000ff"/>
   </g>
   <g id="patch_6">
    <path d="M 180 302.963143 
L 492.605042 302.963143 
L 492.605042 299.856857 
L 180 299.856857 
z
" clip-path="url(#p65672daf31)" style="fill: #0000ff"/>
   </g>
   <g id="patch_7">
    <path d="M 180 299.080286 
L 492.605042 299.080286 
L 492.605042 295.974 
L 180 295.974 
z
" clip-path="url(#p65672daf31)" style="fill: #0000ff"/>
   </g>
   <g id="patch_8">
    <path d="M 180 295.197429 
L 492.605042 295.197429 
L 492.605042 292.091143 
L 180 292.091143 
z
" clip-path="url(#p65672daf31)" style="fill: #0000ff"/>
   </g>
   <g id="patch_9">
    <path d="M 180 291.314571 
L 492.605042 291.314571 
L 492.605042 288.208286 
L 180 288.208286 
z
" clip-path="url(#p65672daf31)" style="fill: #0000ff"/>
   </g>
   <g id="patch_10">
    <path d="M 180 287.431714 
L 492.605042 287.431714 
L 492.605042 284.325429 
L 180 284.325429 
z
" clip-path="url(#p65672daf31)" style="fill: #0000ff"/>
   </g>
   <g id="patch_11">
    <path d="M 180 283.548857 
L 492.605042 283.548857 
L 492.605042 280.442571 
L 180 280.442571 
z
" clip-path="url(#p65672daf31)" style="fill: #0000ff"/>
   </g>
   <g id="patch_12">
    <path d="M 180 279.666 
L 492.605042 279.666 
L 492.605042 276.559714 
L 180 276.559714 
z
" clip-path="url(#p65672daf31)" style="fill: #0000ff"/>
   </g>
   <g id="patch_13">
    <path d="M 180 275.783143 
L 492.605042 275.783143 
L 492.605042 272.676857 
L 180 272.676857 
z
" clip-path="url(#p65672daf31)" style="fill: #0000ff"/>
   </g>
   <g id="patch_14">
    <path d="M 180 271.900286 
L 492.605042 271.900286 
L 492.605042 268.794 
L 180 268.794 
z
" clip-path="url(#p65672daf31)" style="fill: #0000ff"/>
   </g>
   <g id="patch_15">
    <path d="M 180 268.017429 
L 492.605042 268.017429 
L 492.605042 264.911143 
L 180 264.911143 
z
" clip-path="url(#p65672daf31)" style="fill: #0000ff"/>
   </g>
   <g id="patch_16">
    <path d="M 180 264.134571 
L 492.605042 264.134571 
L 492.605042 261.028286 
L 180 261.028286 
z
" clip-path="url(#p65672daf31)" style="fill: #0000ff"/>
   </g>
   <g id="patch_17">
    <path d="M 180 260.251714 
L 492.605042 260.251714 
L 492.605042 257.145429 
L 180 257.145429 
z
" clip-path="url(#p65672daf31)" style="fill: #0000ff"/>
   </g>
   <g id="patch_18">
    <path d="M 180 256.368857 
L 492.605042 256.368857 
L 492.605042 253.262571 
L 180 253.262571 
z
" clip-path="url(#p65672daf31)" style="fill: #0000ff"/>
   </g>
   <g id="patch_19">
    <path d="M 180 252.486 
L 492.605042 252.486 
L 492.605042 249.379714 
L 180 249.379714 
z
" clip-path="url(#p65672daf31)" style="fill: #0000ff"/>
   </g>
   <g id="patch_20">
    <path d="M 180 248.603143 
L 492.605042 248.603143 
L 492.605042 245.496857 
L 180 245.496857 
z
" clip-path="url(#p65672daf31)" style="fill: #0000ff"/>
   </g>
   <g id="patch_21">
    <path d="M 180 244.720286 
L 492.605042 244.720286 
L 492.605042 241.614 
L 180 241.614 
z
" clip-path="url(#p65672daf31)" style="fill: #0000ff"/>
   </g>
   <g id="patch_22">
    <path d="M 180 240.837429 
L 492.605042 240.837429 
L 492.605042 237.731143 
L 180 237.731143 
z
" clip-path="url(#p65672daf31)" style="fill: #0000ff"/>
   </g>
   <g id="patch_23">
    <path d="M 180 236.954571 
L 492.605042 236.954571 
L 492.605042 233.848286 
L 180 233.848286 
z
" clip-path="url(#p65672daf31)" style="fill: #0000ff"/>
   </g>
   <g id="patch_24">
    <path d="M 180 233.071714 
L 492.605042 233.071714 
L 492.605042 229.965429 
L 180 229.965429 
z
" clip-path="url(#p65672daf31)" style="fill: #0000ff"/>
   </g>
   <g id="patch_25">
    <path d="M 180 229.188857 
L 492.605042 229.188857 
L 492.605042 226.082571 
L 180 226.082571 
z
" clip-path="url(#p65672daf31)" style="fill: #0000ff"/>
   </g>
   <g id="patch_26">
    <path d="M 180 225.306 
L 492.605042 225.306 
L 492.605042 222.199714 
L 180 222.199714 
z
" clip-path="url(#p65672daf31)" style="fill: #0000ff"/>
   </g>
   <g id="patch_27">
    <path d="M 180 221.423143 
L 492.605042 221.423143 
L 492.605042 218.316857 
L 180 218.316857 
z
" clip-path="url(#p65672daf31)" style="fill: #0000ff"/>
   </g>
   <g id="patch_28">
    <path d="M 180 217.540286 
L 492.605042 217.540286 
L 492.605042 214.434 
L 180 214.434 
z
" clip-path="url(#p65672daf31)" style="fill: #0000ff"/>
   </g>
   <g id="patch_29">
    <path d="M 180 213.657429 
L 492.605042 213.657429 
L 492.605042 210.551143 
L 180 210.551143 
z
" clip-path="url(#p65672daf31)" style="fill: #0000ff"/>
   </g>
   <g id="patch_30">
    <path d="M 180 209.774571 
L 492.605042 209.774571 
L 492.605042 206.668286 
L 180 206.668286 
z
" clip-path="url(#p65672daf31)" style="fill: #0000ff"/>
   </g>
   <g id="patch_31">
    <path d="M 180 205.891714 
L 492.605042 205.891714 
L 492.605042 202.785429 
L 180 202.785429 
z
" clip-path="url(#p65672daf31)" style="fill: #0000ff"/>
   </g>
   <g id="patch_32">
    <path d="M 180 202.008857 
L 492.605042 202.008857 
L 492.605042 198.902571 
L 180 198.902571 
z
" clip-path="url(#p65672daf31)" style="fill: #0000ff"/>
   </g>
   <g id="patch_33">
    <path d="M 180 198.126 
L 492.605042 198.126 
L 492.605042 195.019714 
L 180 195.019714 
z
" clip-path="url(#p65672daf31)" style="fill: #0000ff"/>
   </g>
   <g id="patch_34">
    <path d="M 180 194.243143 
L 492.605042 194.243143 
L 492.605042 191.136857 
L 180 191.136857 
z
" clip-path="url(#p65672daf31)" style="fill: #0000ff"/>
   </g>
   <g id="patch_35">
    <path d="M 180 190.360286 
L 492.605042 190.360286 
L 492.605042 187.254 
L 180 187.254 
z
" clip-path="url(#p65672daf31)" style="fill: #0000ff"/>
   </g>
   <g id="patch_36">
    <path d="M 180 186.477429 
L 492.605042 186.477429 
L 492.605042 183.371143 
L 180 183.371143 
z
" clip-path="url(#p65672daf31)" style="fill: #0000ff"/>
   </g>
   <g id="patch_37">
    <path d="M 180 182.594571 
L 492.605042 182.594571 
L 492.605042 179.488286 
L 180 179.488286 
z
" clip-path="url(#p65672daf31)" style="fill: #0000ff"/>
   </g>
   <g id="patch_38">
    <path d="M 180 178.711714 
L 492.605042 178.711714 
L 492.605042 175.605429 
L 180 175.605429 
z
" clip-path="url(#p65672daf31)" style="fill: #0000ff"/>
   </g>
   <g id="patch_39">
    <path d="M 180 174.828857 
L 492.605042 174.828857 
L 492.605042 171.722571 
L 180 171.722571 
z
" clip-path="url(#p65672daf31)" style="fill: #0000ff"/>
   </g>
   <g id="patch_40">
    <path d="M 180 170.946 
L 492.605042 170.946 
L 492.605042 167.839714 
L 180 167.839714 
z
" clip-path="url(#p65672daf31)" style="fill: #0000ff"/>
   </g>
   <g id="patch_41">
    <path d="M 180 167.063143 
L 492.605042 167.063143 
L 492.605042 163.956857 
L 180 163.956857 
z
" clip-path="url(#p65672daf31)" style="fill: #0000ff"/>
   </g>
   <g id="patch_42">
    <path d="M 180 163.180286 
L 492.605042 163.180286 
L 492.605042 160.074 
L 180 160.074 
z
" clip-path="url(#p65672daf31)" style="fill: #0000ff"/>
   </g>
   <g id="patch_43">
    <path d="M 180 159.297429 
L 492.605042 159.297429 
L 492.605042 156.191143 
L 180 156.191143 
z
" clip-path="url(#p65672daf31)" style="fill: #0000ff"/>
   </g>
   <g id="patch_44">
    <path d="M 180 155.414571 
L 492.605042 155.414571 
L 492.605042 152.308286 
L 180 152.308286 
z
" clip-path="url(#p65672daf31)" style="fill: #0000ff"/>
   </g>
   <g id="patch_45">
    <path d="M 180 151.531714 
L 492.605042 151.531714 
L 492.605042 148.425429 
L 180 148.425429 
z
" clip-path="url(#p65672daf31)" style="fill: #0000ff"/>
   </g>
   <g id="patch_46">
    <path d="M 180 147.648857 
L 492.605042 147.648857 
L 492.605042 144.542571 
L 180 144.542571 
z
" clip-path="url(#p65672daf31)" style="fill: #0000ff"/>
   </g>
   <g id="patch_47">
    <path d="M 180 143.766 
L 492.605042 143.766 
L 492.605042 140.659714 
L 180 140.659714 
z
" clip-path="url(#p65672daf31)" style="fill: #0000ff"/>
   </g>
   <g id="patch_48">
    <path d="M 180 139.883143 
L 492.605042 139.883143 
L 492.605042 136.776857 
L 180 136.776857 
z
" clip-path="url(#p65672daf31)" style="fill: #0000ff"/>
   </g>
   <g id="patch_49">
    <path d="M 180 136.000286 
L 492.605042 136.000286 
L 492.605042 132.894 
L 180 132.894 
z
" clip-path="url(#p65672daf31)" style="fill: #0000ff"/>
   </g>
   <g id="patch_50">
    <path d="M 180 132.117429 
L 492.605042 132.117429 
L 492.605042 129.011143 
L 180 129.011143 
z
" clip-path="url(#p65672daf31)" style="fill: #0000ff"/>
   </g>
   <g id="patch_51">
    <path d="M 180 128.234571 
L 492.605042 128.234571 
L 492.605042 125.128286 
L 180 125.128286 
z
" clip-path="url(#p65672daf31)" style="fill: #0000ff"/>
   </g>
   <g id="patch_52">
    <path d="M 180 124.351714 
L 492.605042 124.351714 
L 492.605042 121.245429 
L 180 121.245429 
z
" clip-path="url(#p65672daf31)" style="fill: #0000ff"/>
   </g>
   <g id="patch_53">
    <path d="M 180 120.468857 
L 492.605042 120.468857 
L 492.605042 117.362571 
L 180 117.362571 
z
" clip-path="url(#p65672daf31)" style="fill: #0000ff"/>
   </g>
   <g id="patch_54">
    <path d="M 180 116.586 
L 492.605042 116.586 
L 492.605042 113.479714 
L 180 113.479714 
z
" clip-path="url(#p65672daf31)" style="fill: #0000ff"/>
   </g>
   <g id="patch_55">
    <path d="M 180 112.703143 
L 492.605042 112.703143 
L 492.605042 109.596857 
L 180 109.596857 
z
" clip-path="url(#p65672daf31)" style="fill: #0000ff"/>
   </g>
   <g id="patch_56">
    <path d="M 180 108.820286 
L 492.605042 108.820286 
L 492.605042 105.714 
L 180 105.714 
z
" clip-path="url(#p65672daf31)" style="fill: #0000ff"/>
   </g>
   <g id="patch_57">
    <path d="M 180 104.937429 
L 492.605042 104.937429 
L 492.605042 101.831143 
L 180 101.831143 
z
" clip-path="url(#p65672daf31)" style="fill: #0000ff"/>
   </g>
   <g id="patch_58">
    <path d="M 180 101.054571 
L 492.605042 101.054571 
L 492.605042 97.948286 
L 180 97.948286 
z
" clip-path="url(#p65672daf31)" style="fill: #0000ff"/>
   </g>
   <g id="patch_59">
    <path d="M 180 97.171714 
L 492.605042 97.171714 
L 492.605042 94.065429 
L 180 94.065429 
z
" clip-path="url(#p65672daf31)" style="fill: #0000ff"/>
   </g>
   <g id="patch_60">
    <path d="M 180 93.288857 
L 492.605042 93.288857 
L 492.605042 90.182571 
L 180 90.182571 
z
" clip-path="url(#p65672daf31)" style="fill: #0000ff"/>
   </g>
   <g id="patch_61">
    <path d="M 180 89.406 
L 492.605042 89.406 
L 492.605042 86.299714 
L 180 86.299714 
z
" clip-path="url(#p65672daf31)" style="fill: #0000ff"/>
   </g>
   <g id="patch_62">
    <path d="M 180 85.523143 
L 492.605042 85.523143 
L 492.605042 82.416857 
L 180 82.416857 
z
" clip-path="url(#p65672daf31)" style="fill: #0000ff"/>
   </g>
   <g id="patch_63">
    <path d="M 180 81.640286 
L 492.605042 81.640286 
L 492.605042 78.534 
L 180 78.534 
z
" clip-path="url(#p65672daf31)" style="fill: #0000ff"/>
   </g>
   <g id="patch_64">
    <path d="M 180 77.757429 
L 492.605042 77.757429 
L 492.605042 74.651143 
L 180 74.651143 
z
" clip-path="url(#p65672daf31)" style="fill: #0000ff"/>
   </g>
   <g id="patch_65">
    <path d="M 180 73.874571 
L 492.605042 73.874571 
L 492.605042 70.768286 
L 180 70.768286 
z
" clip-path="url(#p65672daf31)" style="fill: #0000ff"/>
   </g>
   <g id="patch_66">
    <path d="M 180 69.991714 
L 492.605042 69.991714 
L 492.605042 66.885429 
L 180 66.885429 
z
" clip-path="url(#p65672daf31)" style="fill: #0000ff"/>
   </g>
   <g id="patch_67">
    <path d="M 180 66.108857 
L 492.605042 66.108857 
L 492.605042 63.002571 
L 180 63.002571 
z
" clip-path="url(#p65672daf31)" style="fill: #0000ff"/>
   </g>
   <g id="patch_68">
    <path d="M 180 62.226 
L 492.605042 62.226 
L 492.605042 59.119714 
L 180 59.119714 
z
" clip-path="url(#p65672daf31)" style="fill: #0000ff"/>
   </g>
   <g id="patch_69">
    <path d="M 180 58.343143 
L 492.605042 58.343143 
L 492.605042 55.236857 
L 180 55.236857 
z
" clip-path="url(#p65672daf31)" style="fill: #0000ff"/>
   </g>
   <g id="patch_70">
    <path d="M 180 54.460286 
L 492.605042 54.460286 
L 492.605042 51.354 
L 180 51.354 
z
" clip-path="url(#p65672daf31)" style="fill: #0000ff"/>
   </g>
   <g id="patch_71">
    <path d="M 180 50.577429 
L 492.605042 50.577429 
L 492.605042 47.471143 
L 180 47.471143 
z
" clip-path="url(#p65672daf31)" style="fill: #0000ff"/>
   </g>
   <g id="patch_72">
    <path d="M 180 46.694571 
L 492.605042 46.694571 
L 492.605042 43.588286 
L 180 43.588286 
z
" clip-path="url(#p65672daf31)" style="fill: #0000ff"/>
   </g>
   <g id="matplotlib.axis_1">
    <g id="xtick_1">
     <g id="line2d_1">
      <defs>
       <path id="me6a0aaac5e" d="M 0 0 
L 0 3.5 
" style="stroke: #000000; stroke-width: 0.8"/>
      </defs>
      <g>
       <use xlink:href="#me6a0aaac5e" x="180" y="315" style="stroke: #000000; stroke-width: 0.8"/>
      </g>
     </g>
     <g id="text_1">
      <!-- 0 -->
      <g transform="translate(176.81875 329.598437)scale(0.1 -0.1)">
       <defs>
        <path id="DejaVuSans-30" d="M 2034 4250 
Q 1547 4250 1301 3770 
Q 1056 3291 1056 2328 
Q 1056 1369 1301 889 
Q 1547 409 2034 409 
Q 2525 409 2770 889 
Q 3016 1369 3016 2328 
Q 3016 3291 2770 3770 
Q 2525 4250 2034 4250 
z
M 2034 4750 
Q 2819 4750 3233 4129 
Q 3647 3509 3647 2328 
Q 3647 1150 3233 529 
Q 2819 -91 2034 -91 
Q 1250 -91 836 529 
Q 422 1150 422 2328 
Q 422 3509 836 4129 
Q 1250 4750 2034 4750 
z
" transform="scale(0.015625)"/>
       </defs>
       <use xlink:href="#DejaVuSans-30"/>
      </g>
     </g>
    </g>
    <g id="xtick_2">
     <g id="line2d_2">
      <g>
       <use xlink:href="#me6a0aaac5e" x="236.83728" y="315" style="stroke: #000000; stroke-width: 0.8"/>
      </g>
     </g>
     <g id="text_2">
      <!-- 1000 -->
      <g transform="translate(224.11228 329.598437)scale(0.1 -0.1)">
       <defs>
        <path id="DejaVuSans-31" d="M 794 531 
L 1825 531 
L 1825 4091 
L 703 3866 
L 703 4441 
L 1819 4666 
L 2450 4666 
L 2450 531 
L 3481 531 
L 3481 0 
L 794 0 
L 794 531 
z
" transform="scale(0.015625)"/>
       </defs>
       <use xlink:href="#DejaVuSans-31"/>
       <use xlink:href="#DejaVuSans-30" x="63.623047"/>
       <use xlink:href="#DejaVuSans-30" x="127.246094"/>
       <use xlink:href="#DejaVuSans-30" x="190.869141"/>
      </g>
     </g>
    </g>
    <g id="xtick_3">
     <g id="line2d_3">
      <g>
       <use xlink:href="#me6a0aaac5e" x="293.674561" y="315" style="stroke: #000000; stroke-width: 0.8"/>
      </g>
     </g>
     <g id="text_3">
      <!-- 2000 -->
      <g transform="translate(280.949561 329.598437)scale(0.1 -0.1)">
       <defs>
        <path id="DejaVuSans-32" d="M 1228 531 
L 3431 531 
L 3431 0 
L 469 0 
L 469 531 
Q 828 903 1448 1529 
Q 2069 2156 2228 2338 
Q 2531 2678 2651 2914 
Q 2772 3150 2772 3378 
Q 2772 3750 2511 3984 
Q 2250 4219 1831 4219 
Q 1534 4219 1204 4116 
Q 875 4013 500 3803 
L 500 4441 
Q 881 4594 1212 4672 
Q 1544 4750 1819 4750 
Q 2544 4750 2975 4387 
Q 3406 4025 3406 3419 
Q 3406 3131 3298 2873 
Q 3191 2616 2906 2266 
Q 2828 2175 2409 1742 
Q 1991 1309 1228 531 
z
" transform="scale(0.015625)"/>
       </defs>
       <use xlink:href="#DejaVuSans-32"/>
       <use xlink:href="#DejaVuSans-30" x="63.623047"/>
       <use xlink:href="#DejaVuSans-30" x="127.246094"/>
       <use xlink:href="#DejaVuSans-30" x="190.869141"/>
      </g>
     </g>
    </g>
    <g id="xtick_4">
     <g id="line2d_4">
      <g>
       <use xlink:href="#me6a0aaac5e" x="350.511841" y="315" style="stroke: #000000; stroke-width: 0.8"/>
      </g>
     </g>
     <g id="text_4">
      <!-- 3000 -->
      <g transform="translate(337.786841 329.598437)scale(0.1 -0.1)">
       <defs>
        <path id="DejaVuSans-33" d="M 2597 2516 
Q 3050 2419 3304 2112 
Q 3559 1806 3559 1356 
Q 3559 666 3084 287 
Q 2609 -91 1734 -91 
Q 1441 -91 1130 -33 
Q 819 25 488 141 
L 488 750 
Q 750 597 1062 519 
Q 1375 441 1716 441 
Q 2309 441 2620 675 
Q 2931 909 2931 1356 
Q 2931 1769 2642 2001 
Q 2353 2234 1838 2234 
L 1294 2234 
L 1294 2753 
L 1863 2753 
Q 2328 2753 2575 2939 
Q 2822 3125 2822 3475 
Q 2822 3834 2567 4026 
Q 2313 4219 1838 4219 
Q 1578 4219 1281 4162 
Q 984 4106 628 3988 
L 628 4550 
Q 988 4650 1302 4700 
Q 1616 4750 1894 4750 
Q 2613 4750 3031 4423 
Q 3450 4097 3450 3541 
Q 3450 3153 3228 2886 
Q 3006 2619 2597 2516 
z
" transform="scale(0.015625)"/>
       </defs>
       <use xlink:href="#DejaVuSans-33"/>
       <use xlink:href="#DejaVuSans-30" x="63.623047"/>
       <use xlink:href="#DejaVuSans-30" x="127.246094"/>
       <use xlink:href="#DejaVuSans-30" x="190.869141"/>
      </g>
     </g>
    </g>
    <g id="xtick_5">
     <g id="line2d_5">
      <g>
       <use xlink:href="#me6a0aaac5e" x="407.349121" y="315" style="stroke: #000000; stroke-width: 0.8"/>
      </g>
     </g>
     <g id="text_5">
      <!-- 4000 -->
      <g transform="translate(394.624121 329.598437)scale(0.1 -0.1)">
       <defs>
        <path id="DejaVuSans-34" d="M 2419 4116 
L 825 1625 
L 2419 1625 
L 2419 4116 
z
M 2253 4666 
L 3047 4666 
L 3047 1625 
L 3713 1625 
L 3713 1100 
L 3047 1100 
L 3047 0 
L 2419 0 
L 2419 1100 
L 313 1100 
L 313 1709 
L 2253 4666 
z
" transform="scale(0.015625)"/>
       </defs>
       <use xlink:href="#DejaVuSans-34"/>
       <use xlink:href="#DejaVuSans-30" x="63.623047"/>
       <use xlink:href="#DejaVuSans-30" x="127.246094"/>
       <use xlink:href="#DejaVuSans-30" x="190.869141"/>
      </g>
     </g>
    </g>
    <g id="xtick_6">
     <g id="line2d_6">
      <g>
       <use xlink:href="#me6a0aaac5e" x="464.186402" y="315" style="stroke: #000000; stroke-width: 0.8"/>
      </g>
     </g>
     <g id="text_6">
      <!-- 5000 -->
      <g transform="translate(451.461402 329.598437)scale(0.1 -0.1)">
       <defs>
        <path id="DejaVuSans-35" d="M 691 4666 
L 3169 4666 
L 3169 4134 
L 1269 4134 
L 1269 2991 
Q 1406 3038 1543 3061 
Q 1681 3084 1819 3084 
Q 2600 3084 3056 2656 
Q 3513 2228 3513 1497 
Q 3513 744 3044 326 
Q 2575 -91 1722 -91 
Q 1428 -91 1123 -41 
Q 819 9 494 109 
L 494 744 
Q 775 591 1075 516 
Q 1375 441 1709 441 
Q 2250 441 2565 725 
Q 2881 1009 2881 1497 
Q 2881 1984 2565 2268 
Q 2250 2553 1709 2553 
Q 1456 2553 1204 2497 
Q 953 2441 691 2322 
L 691 4666 
z
" transform="scale(0.015625)"/>
       </defs>
       <use xlink:href="#DejaVuSans-35"/>
       <use xlink:href="#DejaVuSans-30" x="63.623047"/>
       <use xlink:href="#DejaVuSans-30" x="127.246094"/>
       <use xlink:href="#DejaVuSans-30" x="190.869141"/>
      </g>
     </g>
    </g>
    <g id="text_7">
     <!-- Cmax values -->
     <g transform="translate(311.880928 343.276563)scale(0.1 -0.1)">
      <defs>
       <path id="DejaVuSans-43" d="M 4122 4306 
L 4122 3641 
Q 3803 3938 3442 4084 
Q 3081 4231 2675 4231 
Q 1875 4231 1450 3742 
Q 1025 3253 1025 2328 
Q 1025 1406 1450 917 
Q 1875 428 2675 428 
Q 3081 428 3442 575 
Q 3803 722 4122 1019 
L 4122 359 
Q 3791 134 3420 21 
Q 3050 -91 2638 -91 
Q 1578 -91 968 557 
Q 359 1206 359 2328 
Q 359 3453 968 4101 
Q 1578 4750 2638 4750 
Q 3056 4750 3426 4639 
Q 3797 4528 4122 4306 
z
" transform="scale(0.015625)"/>
       <path id="DejaVuSans-6d" d="M 3328 2828 
Q 3544 3216 3844 3400 
Q 4144 3584 4550 3584 
Q 5097 3584 5394 3201 
Q 5691 2819 5691 2113 
L 5691 0 
L 5113 0 
L 5113 2094 
Q 5113 2597 4934 2840 
Q 4756 3084 4391 3084 
Q 3944 3084 3684 2787 
Q 3425 2491 3425 1978 
L 3425 0 
L 2847 0 
L 2847 2094 
Q 2847 2600 2669 2842 
Q 2491 3084 2119 3084 
Q 1678 3084 1418 2786 
Q 1159 2488 1159 1978 
L 1159 0 
L 581 0 
L 581 3500 
L 1159 3500 
L 1159 2956 
Q 1356 3278 1631 3431 
Q 1906 3584 2284 3584 
Q 2666 3584 2933 3390 
Q 3200 3197 3328 2828 
z
" transform="scale(0.015625)"/>
       <path id="DejaVuSans-61" d="M 2194 1759 
Q 1497 1759 1228 1600 
Q 959 1441 959 1056 
Q 959 750 1161 570 
Q 1363 391 1709 391 
Q 2188 391 2477 730 
Q 2766 1069 2766 1631 
L 2766 1759 
L 2194 1759 
z
M 3341 1997 
L 3341 0 
L 2766 0 
L 2766 531 
Q 2569 213 2275 61 
Q 1981 -91 1556 -91 
Q 1019 -91 701 211 
Q 384 513 384 1019 
Q 384 1609 779 1909 
Q 1175 2209 1959 2209 
L 2766 2209 
L 2766 2266 
Q 2766 2663 2505 2880 
Q 2244 3097 1772 3097 
Q 1472 3097 1187 3025 
Q 903 2953 641 2809 
L 641 3341 
Q 956 3463 1253 3523 
Q 1550 3584 1831 3584 
Q 2591 3584 2966 3190 
Q 3341 2797 3341 1997 
z
" transform="scale(0.015625)"/>
       <path id="DejaVuSans-78" d="M 3513 3500 
L 2247 1797 
L 3578 0 
L 2900 0 
L 1881 1375 
L 863 0 
L 184 0 
L 1544 1831 
L 300 3500 
L 978 3500 
L 1906 2253 
L 2834 3500 
L 3513 3500 
z
" transform="scale(0.015625)"/>
       <path id="DejaVuSans-20" transform="scale(0.015625)"/>
       <path id="DejaVuSans-76" d="M 191 3500 
L 800 3500 
L 1894 563 
L 2988 3500 
L 3597 3500 
L 2284 0 
L 1503 0 
L 191 3500 
z
" transform="scale(0.015625)"/>
       <path id="DejaVuSans-6c" d="M 603 4863 
L 1178 4863 
L 1178 0 
L 603 0 
L 603 4863 
z
" transform="scale(0.015625)"/>
       <path id="DejaVuSans-75" d="M 544 1381 
L 544 3500 
L 1119 3500 
L 1119 1403 
Q 1119 906 1312 657 
Q 1506 409 1894 409 
Q 2359 409 2629 706 
Q 2900 1003 2900 1516 
L 2900 3500 
L 3475 3500 
L 3475 0 
L 2900 0 
L 2900 538 
Q 2691 219 2414 64 
Q 2138 -91 1772 -91 
Q 1169 -91 856 284 
Q 544 659 544 1381 
z
M 1991 3584 
L 1991 3584 
z
" transform="scale(0.015625)"/>
       <path id="DejaVuSans-65" d="M 3597 1894 
L 3597 1613 
L 953 1613 
Q 991 1019 1311 708 
Q 1631 397 2203 397 
Q 2534 397 2845 478 
Q 3156 559 3463 722 
L 3463 178 
Q 3153 47 2828 -22 
Q 2503 -91 2169 -91 
Q 1331 -91 842 396 
Q 353 884 353 1716 
Q 353 2575 817 3079 
Q 1281 3584 2069 3584 
Q 2775 3584 3186 3129 
Q 3597 2675 3597 1894 
z
M 3022 2063 
Q 3016 2534 2758 2815 
Q 2500 3097 2075 3097 
Q 1594 3097 1305 2825 
Q 1016 2553 972 2059 
L 3022 2063 
z
" transform="scale(0.015625)"/>
       <path id="DejaVuSans-73" d="M 2834 3397 
L 2834 2853 
Q 2591 2978 2328 3040 
Q 2066 3103 1784 3103 
Q 1356 3103 1142 2972 
Q 928 2841 928 2578 
Q 928 2378 1081 2264 
Q 1234 2150 1697 2047 
L 1894 2003 
Q 2506 1872 2764 1633 
Q 3022 1394 3022 966 
Q 3022 478 2636 193 
Q 2250 -91 1575 -91 
Q 1294 -91 989 -36 
Q 684 19 347 128 
L 347 722 
Q 666 556 975 473 
Q 1284 391 1588 391 
Q 1994 391 2212 530 
Q 2431 669 2431 922 
Q 2431 1156 2273 1281 
Q 2116 1406 1581 1522 
L 1381 1569 
Q 847 1681 609 1914 
Q 372 2147 372 2553 
Q 372 3047 722 3315 
Q 1072 3584 1716 3584 
Q 2034 3584 2315 3537 
Q 2597 3491 2834 3397 
z
" transform="scale(0.015625)"/>
      </defs>
      <use xlink:href="#DejaVuSans-43"/>
      <use xlink:href="#DejaVuSans-6d" x="69.824219"/>
      <use xlink:href="#DejaVuSans-61" x="167.236328"/>
      <use xlink:href="#DejaVuSans-78" x="228.515625"/>
      <use xlink:href="#DejaVuSans-20" x="287.695312"/>
      <use xlink:href="#DejaVuSans-76" x="319.482422"/>
      <use xlink:href="#DejaVuSans-61" x="378.662109"/>
      <use xlink:href="#DejaVuSans-6c" x="439.941406"/>
      <use xlink:href="#DejaVuSans-75" x="467.724609"/>
      <use xlink:href="#DejaVuSans-65" x="531.103516"/>
      <use xlink:href="#DejaVuSans-73" x="592.626953"/>
     </g>
    </g>
   </g>
   <g id="matplotlib.axis_2">
    <g id="ytick_1">
     <g id="line2d_7">
      <defs>
       <path id="m9b0c51227f" d="M 0 0 
L -3.5 0 
" style="stroke: #000000; stroke-width: 0.8"/>
      </defs>
      <g>
       <use xlink:href="#m9b0c51227f" x="180" y="278.112857" style="stroke: #000000; stroke-width: 0.8"/>
      </g>
     </g>
     <g id="text_8">
      <!-- 10 -->
      <g transform="translate(160.275 281.912076)scale(0.1 -0.1)">
       <use xlink:href="#DejaVuSans-31"/>
       <use xlink:href="#DejaVuSans-30" x="63.623047"/>
      </g>
     </g>
    </g>
    <g id="ytick_2">
     <g id="line2d_8">
      <g>
       <use xlink:href="#m9b0c51227f" x="180" y="239.284286" style="stroke: #000000; stroke-width: 0.8"/>
      </g>
     </g>
     <g id="text_9">
      <!-- 20 -->
      <g transform="translate(160.275 243.083504)scale(0.1 -0.1)">
       <use xlink:href="#DejaVuSans-32"/>
       <use xlink:href="#DejaVuSans-30" x="63.623047"/>
      </g>
     </g>
    </g>
    <g id="ytick_3">
     <g id="line2d_9">
      <g>
       <use xlink:href="#m9b0c51227f" x="180" y="200.455714" style="stroke: #000000; stroke-width: 0.8"/>
      </g>
     </g>
     <g id="text_10">
      <!-- 30 -->
      <g transform="translate(160.275 204.254933)scale(0.1 -0.1)">
       <use xlink:href="#DejaVuSans-33"/>
       <use xlink:href="#DejaVuSans-30" x="63.623047"/>
      </g>
     </g>
    </g>
    <g id="ytick_4">
     <g id="line2d_10">
      <g>
       <use xlink:href="#m9b0c51227f" x="180" y="161.627143" style="stroke: #000000; stroke-width: 0.8"/>
      </g>
     </g>
     <g id="text_11">
      <!-- 40 -->
      <g transform="translate(160.275 165.426362)scale(0.1 -0.1)">
       <use xlink:href="#DejaVuSans-34"/>
       <use xlink:href="#DejaVuSans-30" x="63.623047"/>
      </g>
     </g>
    </g>
    <g id="ytick_5">
     <g id="line2d_11">
      <g>
       <use xlink:href="#m9b0c51227f" x="180" y="122.798571" style="stroke: #000000; stroke-width: 0.8"/>
      </g>
     </g>
     <g id="text_12">
      <!-- 50 -->
      <g transform="translate(160.275 126.59779)scale(0.1 -0.1)">
       <use xlink:href="#DejaVuSans-35"/>
       <use xlink:href="#DejaVuSans-30" x="63.623047"/>
      </g>
     </g>
    </g>
    <g id="ytick_6">
     <g id="line2d_12">
      <g>
       <use xlink:href="#m9b0c51227f" x="180" y="83.97" style="stroke: #000000; stroke-width: 0.8"/>
      </g>
     </g>
     <g id="text_13">
      <!-- 60 -->
      <g transform="translate(160.275 87.769219)scale(0.1 -0.1)">
       <defs>
        <path id="DejaVuSans-36" d="M 2113 2584 
Q 1688 2584 1439 2293 
Q 1191 2003 1191 1497 
Q 1191 994 1439 701 
Q 1688 409 2113 409 
Q 2538 409 2786 701 
Q 3034 994 3034 1497 
Q 3034 2003 2786 2293 
Q 2538 2584 2113 2584 
z
M 3366 4563 
L 3366 3988 
Q 3128 4100 2886 4159 
Q 2644 4219 2406 4219 
Q 1781 4219 1451 3797 
Q 1122 3375 1075 2522 
Q 1259 2794 1537 2939 
Q 1816 3084 2150 3084 
Q 2853 3084 3261 2657 
Q 3669 2231 3669 1497 
Q 3669 778 3244 343 
Q 2819 -91 2113 -91 
Q 1303 -91 875 529 
Q 447 1150 447 2328 
Q 447 3434 972 4092 
Q 1497 4750 2381 4750 
Q 2619 4750 2861 4703 
Q 3103 4656 3366 4563 
z
" transform="scale(0.015625)"/>
       </defs>
       <use xlink:href="#DejaVuSans-36"/>
       <use xlink:href="#DejaVuSans-30" x="63.623047"/>
      </g>
     </g>
    </g>
    <g id="ytick_7">
     <g id="line2d_13">
      <g>
       <use xlink:href="#m9b0c51227f" x="180" y="45.141429" style="stroke: #000000; stroke-width: 0.8"/>
      </g>
     </g>
     <g id="text_14">
      <!-- 70 -->
      <g transform="translate(160.275 48.940647)scale(0.1 -0.1)">
       <defs>
        <path id="DejaVuSans-37" d="M 525 4666 
L 3525 4666 
L 3525 4397 
L 1831 0 
L 1172 0 
L 2766 4134 
L 525 4134 
L 525 4666 
z
" transform="scale(0.015625)"/>
       </defs>
       <use xlink:href="#DejaVuSans-37"/>
       <use xlink:href="#DejaVuSans-30" x="63.623047"/>
      </g>
     </g>
    </g>
    <g id="text_15">
     <!-- Instances -->
     <g transform="translate(154.195312 202.971875)rotate(-90)scale(0.1 -0.1)">
      <defs>
       <path id="DejaVuSans-49" d="M 628 4666 
L 1259 4666 
L 1259 0 
L 628 0 
L 628 4666 
z
" transform="scale(0.015625)"/>
       <path id="DejaVuSans-6e" d="M 3513 2113 
L 3513 0 
L 2938 0 
L 2938 2094 
Q 2938 2591 2744 2837 
Q 2550 3084 2163 3084 
Q 1697 3084 1428 2787 
Q 1159 2491 1159 1978 
L 1159 0 
L 581 0 
L 581 3500 
L 1159 3500 
L 1159 2956 
Q 1366 3272 1645 3428 
Q 1925 3584 2291 3584 
Q 2894 3584 3203 3211 
Q 3513 2838 3513 2113 
z
" transform="scale(0.015625)"/>
       <path id="DejaVuSans-74" d="M 1172 4494 
L 1172 3500 
L 2356 3500 
L 2356 3053 
L 1172 3053 
L 1172 1153 
Q 1172 725 1289 603 
Q 1406 481 1766 481 
L 2356 481 
L 2356 0 
L 1766 0 
Q 1100 0 847 248 
Q 594 497 594 1153 
L 594 3053 
L 172 3053 
L 172 3500 
L 594 3500 
L 594 4494 
L 1172 4494 
z
" transform="scale(0.015625)"/>
       <path id="DejaVuSans-63" d="M 3122 3366 
L 3122 2828 
Q 2878 2963 2633 3030 
Q 2388 3097 2138 3097 
Q 1578 3097 1268 2742 
Q 959 2388 959 1747 
Q 959 1106 1268 751 
Q 1578 397 2138 397 
Q 2388 397 2633 464 
Q 2878 531 3122 666 
L 3122 134 
Q 2881 22 2623 -34 
Q 2366 -91 2075 -91 
Q 1284 -91 818 406 
Q 353 903 353 1747 
Q 353 2603 823 3093 
Q 1294 3584 2113 3584 
Q 2378 3584 2631 3529 
Q 2884 3475 3122 3366 
z
" transform="scale(0.015625)"/>
      </defs>
      <use xlink:href="#DejaVuSans-49"/>
      <use xlink:href="#DejaVuSans-6e" x="29.492188"/>
      <use xlink:href="#DejaVuSans-73" x="92.871094"/>
      <use xlink:href="#DejaVuSans-74" x="144.970703"/>
      <use xlink:href="#DejaVuSans-61" x="184.179688"/>
      <use xlink:href="#DejaVuSans-6e" x="245.458984"/>
      <use xlink:href="#DejaVuSans-63" x="308.837891"/>
      <use xlink:href="#DejaVuSans-65" x="363.818359"/>
      <use xlink:href="#DejaVuSans-73" x="425.341797"/>
     </g>
    </g>
   </g>
   <g id="patch_73">
    <path d="M 180 315 
L 180 43.2 
" style="fill: none; stroke: #000000; stroke-width: 0.8; stroke-linejoin: miter; stroke-linecap: square"/>
   </g>
   <g id="patch_74">
    <path d="M 508.235294 315 
L 508.235294 43.2 
" style="fill: none; stroke: #000000; stroke-width: 0.8; stroke-linejoin: miter; stroke-linecap: square"/>
   </g>
   <g id="patch_75">
    <path d="M 180 315 
L 508.235294 315 
" style="fill: none; stroke: #000000; stroke-width: 0.8; stroke-linejoin: miter; stroke-linecap: square"/>
   </g>
   <g id="patch_76">
    <path d="M 180 43.2 
L 508.235294 43.2 
" style="fill: none; stroke: #000000; stroke-width: 0.8; stroke-linejoin: miter; stroke-linecap: square"/>
   </g>
  </g>
  <g id="axes_2">
   <g id="patch_77">
    <path d="M 573.882353 315 
L 902.117647 315 
L 902.117647 43.2 
L 573.882353 43.2 
z
" style="fill: #ffffff"/>
   </g>
   <g id="patch_78">
    <path d="M 573.882353 314.611714 
L 881.595211 314.611714 
L 881.595211 311.505429 
L 573.882353 311.505429 
z
" clip-path="url(#pc3bf36c87f)" style="fill: #008000"/>
   </g>
   <g id="patch_79">
    <path d="M 573.882353 310.728857 
L 869.996888 310.728857 
L 869.996888 307.622571 
L 573.882353 307.622571 
z
" clip-path="url(#pc3bf36c87f)" style="fill: #008000"/>
   </g>
   <g id="patch_80">
    <path d="M 573.882353 306.846 
L 874.669198 306.846 
L 874.669198 303.739714 
L 573.882353 303.739714 
z
" clip-path="url(#pc3bf36c87f)" style="fill: #008000"/>
   </g>
   <g id="patch_81">
    <path d="M 573.882353 302.963143 
L 885.66287 302.963143 
L 885.66287 299.856857 
L 573.882353 299.856857 
z
" clip-path="url(#pc3bf36c87f)" style="fill: #008000"/>
   </g>
   <g id="patch_82">
    <path d="M 573.882353 299.080286 
L 868.018027 299.080286 
L 868.018027 295.974 
L 573.882353 295.974 
z
" clip-path="url(#pc3bf36c87f)" style="fill: #008000"/>
   </g>
   <g id="patch_83">
    <path d="M 573.882353 295.197429 
L 882.859483 295.197429 
L 882.859483 292.091143 
L 573.882353 292.091143 
z
" clip-path="url(#pc3bf36c87f)" style="fill: #008000"/>
   </g>
   <g id="patch_84">
    <path d="M 573.882353 291.314571 
L 882.474705 291.314571 
L 882.474705 288.208286 
L 573.882353 288.208286 
z
" clip-path="url(#pc3bf36c87f)" style="fill: #008000"/>
   </g>
   <g id="patch_85">
    <path d="M 573.882353 287.431714 
L 882.804515 287.431714 
L 882.804515 284.325429 
L 573.882353 284.325429 
z
" clip-path="url(#pc3bf36c87f)" style="fill: #008000"/>
   </g>
   <g id="patch_86">
    <path d="M 573.882353 283.548857 
L 880.770686 283.548857 
L 880.770686 280.442571 
L 573.882353 280.442571 
z
" clip-path="url(#pc3bf36c87f)" style="fill: #008000"/>
   </g>
   <g id="patch_87">
    <path d="M 573.882353 279.666 
L 877.417616 279.666 
L 877.417616 276.559714 
L 573.882353 276.559714 
z
" clip-path="url(#pc3bf36c87f)" style="fill: #008000"/>
   </g>
   <g id="patch_88">
    <path d="M 573.882353 275.783143 
L 886.377458 275.783143 
L 886.377458 272.676857 
L 573.882353 272.676857 
z
" clip-path="url(#pc3bf36c87f)" style="fill: #008000"/>
   </g>
   <g id="patch_89">
    <path d="M 573.882353 271.900286 
L 886.047648 271.900286 
L 886.047648 268.794 
L 573.882353 268.794 
z
" clip-path="url(#pc3bf36c87f)" style="fill: #008000"/>
   </g>
   <g id="patch_90">
    <path d="M 573.882353 268.017429 
L 886.267522 268.017429 
L 886.267522 264.911143 
L 573.882353 264.911143 
z
" clip-path="url(#pc3bf36c87f)" style="fill: #008000"/>
   </g>
   <g id="patch_91">
    <path d="M 573.882353 264.134571 
L 867.083565 264.134571 
L 867.083565 261.028286 
L 573.882353 261.028286 
z
" clip-path="url(#pc3bf36c87f)" style="fill: #008000"/>
   </g>
   <g id="patch_92">
    <path d="M 573.882353 260.251714 
L 877.252711 260.251714 
L 877.252711 257.145429 
L 573.882353 257.145429 
z
" clip-path="url(#pc3bf36c87f)" style="fill: #008000"/>
   </g>
   <g id="patch_93">
    <path d="M 573.882353 256.368857 
L 882.63961 256.368857 
L 882.63961 253.262571 
L 573.882353 253.262571 
z
" clip-path="url(#pc3bf36c87f)" style="fill: #008000"/>
   </g>
   <g id="patch_94">
    <path d="M 573.882353 252.486 
L 864.335147 252.486 
L 864.335147 249.379714 
L 573.882353 249.379714 
z
" clip-path="url(#pc3bf36c87f)" style="fill: #008000"/>
   </g>
   <g id="patch_95">
    <path d="M 573.882353 248.603143 
L 880.660749 248.603143 
L 880.660749 245.496857 
L 573.882353 245.496857 
z
" clip-path="url(#pc3bf36c87f)" style="fill: #008000"/>
   </g>
   <g id="patch_96">
    <path d="M 573.882353 244.720286 
L 879.891192 244.720286 
L 879.891192 241.614 
L 573.882353 241.614 
z
" clip-path="url(#pc3bf36c87f)" style="fill: #008000"/>
   </g>
   <g id="patch_97">
    <path d="M 573.882353 240.837429 
L 869.996888 240.837429 
L 869.996888 237.731143 
L 573.882353 237.731143 
z
" clip-path="url(#pc3bf36c87f)" style="fill: #008000"/>
   </g>
   <g id="patch_98">
    <path d="M 573.882353 236.954571 
L 880.715718 236.954571 
L 880.715718 233.848286 
L 573.882353 233.848286 
z
" clip-path="url(#pc3bf36c87f)" style="fill: #008000"/>
   </g>
   <g id="patch_99">
    <path d="M 573.882353 233.071714 
L 878.95673 233.071714 
L 878.95673 229.965429 
L 573.882353 229.965429 
z
" clip-path="url(#pc3bf36c87f)" style="fill: #008000"/>
   </g>
   <g id="patch_100">
    <path d="M 573.882353 229.188857 
L 878.132205 229.188857 
L 878.132205 226.082571 
L 573.882353 226.082571 
z
" clip-path="url(#pc3bf36c87f)" style="fill: #008000"/>
   </g>
   <g id="patch_101">
    <path d="M 573.882353 225.306 
L 877.087806 225.306 
L 877.087806 222.199714 
L 573.882353 222.199714 
z
" clip-path="url(#pc3bf36c87f)" style="fill: #008000"/>
   </g>
   <g id="patch_102">
    <path d="M 573.882353 221.423143 
L 868.127964 221.423143 
L 868.127964 218.316857 
L 573.882353 218.316857 
z
" clip-path="url(#pc3bf36c87f)" style="fill: #008000"/>
   </g>
   <g id="patch_103">
    <path d="M 573.882353 217.540286 
L 874.28442 217.540286 
L 874.28442 214.434 
L 573.882353 214.434 
z
" clip-path="url(#pc3bf36c87f)" style="fill: #008000"/>
   </g>
   <g id="patch_104">
    <path d="M 573.882353 213.657429 
L 875.383787 213.657429 
L 875.383787 210.551143 
L 573.882353 210.551143 
z
" clip-path="url(#pc3bf36c87f)" style="fill: #008000"/>
   </g>
   <g id="patch_105">
    <path d="M 573.882353 209.774571 
L 873.899641 209.774571 
L 873.899641 206.668286 
L 573.882353 206.668286 
z
" clip-path="url(#pc3bf36c87f)" style="fill: #008000"/>
   </g>
   <g id="patch_106">
    <path d="M 573.882353 205.891714 
L 866.039166 205.891714 
L 866.039166 202.785429 
L 573.882353 202.785429 
z
" clip-path="url(#pc3bf36c87f)" style="fill: #008000"/>
   </g>
   <g id="patch_107">
    <path d="M 573.882353 202.008857 
L 873.404926 202.008857 
L 873.404926 198.902571 
L 573.882353 198.902571 
z
" clip-path="url(#pc3bf36c87f)" style="fill: #008000"/>
   </g>
   <g id="patch_108">
    <path d="M 573.882353 198.126 
L 874.449325 198.126 
L 874.449325 195.019714 
L 573.882353 195.019714 
z
" clip-path="url(#pc3bf36c87f)" style="fill: #008000"/>
   </g>
   <g id="patch_109">
    <path d="M 573.882353 194.243143 
L 881.870053 194.243143 
L 881.870053 191.136857 
L 573.882353 191.136857 
z
" clip-path="url(#pc3bf36c87f)" style="fill: #008000"/>
   </g>
   <g id="patch_110">
    <path d="M 573.882353 190.360286 
L 881.265401 190.360286 
L 881.265401 187.254 
L 573.882353 187.254 
z
" clip-path="url(#pc3bf36c87f)" style="fill: #008000"/>
   </g>
   <g id="patch_111">
    <path d="M 573.882353 186.477429 
L 884.343629 186.477429 
L 884.343629 183.371143 
L 573.882353 183.371143 
z
" clip-path="url(#pc3bf36c87f)" style="fill: #008000"/>
   </g>
   <g id="patch_112">
    <path d="M 573.882353 182.594571 
L 869.94192 182.594571 
L 869.94192 179.488286 
L 573.882353 179.488286 
z
" clip-path="url(#pc3bf36c87f)" style="fill: #008000"/>
   </g>
   <g id="patch_113">
    <path d="M 573.882353 178.711714 
L 871.975749 178.711714 
L 871.975749 175.605429 
L 573.882353 175.605429 
z
" clip-path="url(#pc3bf36c87f)" style="fill: #008000"/>
   </g>
   <g id="patch_114">
    <path d="M 573.882353 174.828857 
L 869.062426 174.828857 
L 869.062426 171.722571 
L 573.882353 171.722571 
z
" clip-path="url(#pc3bf36c87f)" style="fill: #008000"/>
   </g>
   <g id="patch_115">
    <path d="M 573.882353 170.946 
L 878.462015 170.946 
L 878.462015 167.839714 
L 573.882353 167.839714 
z
" clip-path="url(#pc3bf36c87f)" style="fill: #008000"/>
   </g>
   <g id="patch_116">
    <path d="M 573.882353 167.063143 
L 886.487395 167.063143 
L 886.487395 163.956857 
L 573.882353 163.956857 
z
" clip-path="url(#pc3bf36c87f)" style="fill: #008000"/>
   </g>
   <g id="patch_117">
    <path d="M 573.882353 163.180286 
L 880.550812 163.180286 
L 880.550812 160.074 
L 573.882353 160.074 
z
" clip-path="url(#pc3bf36c87f)" style="fill: #008000"/>
   </g>
   <g id="patch_118">
    <path d="M 573.882353 159.297429 
L 885.113186 159.297429 
L 885.113186 156.191143 
L 573.882353 156.191143 
z
" clip-path="url(#pc3bf36c87f)" style="fill: #008000"/>
   </g>
   <g id="patch_119">
    <path d="M 573.882353 155.414571 
L 865.269609 155.414571 
L 865.269609 152.308286 
L 573.882353 152.308286 
z
" clip-path="url(#pc3bf36c87f)" style="fill: #008000"/>
   </g>
   <g id="patch_120">
    <path d="M 573.882353 151.531714 
L 885.497965 151.531714 
L 885.497965 148.425429 
L 573.882353 148.425429 
z
" clip-path="url(#pc3bf36c87f)" style="fill: #008000"/>
   </g>
   <g id="patch_121">
    <path d="M 573.882353 147.648857 
L 871.041287 147.648857 
L 871.041287 144.542571 
L 573.882353 144.542571 
z
" clip-path="url(#pc3bf36c87f)" style="fill: #008000"/>
   </g>
   <g id="patch_122">
    <path d="M 573.882353 143.766 
L 869.557141 143.766 
L 869.557141 140.659714 
L 573.882353 140.659714 
z
" clip-path="url(#pc3bf36c87f)" style="fill: #008000"/>
   </g>
   <g id="patch_123">
    <path d="M 573.882353 139.883143 
L 864.774894 139.883143 
L 864.774894 136.776857 
L 573.882353 136.776857 
z
" clip-path="url(#pc3bf36c87f)" style="fill: #008000"/>
   </g>
   <g id="patch_124">
    <path d="M 573.882353 136.000286 
L 872.525432 136.000286 
L 872.525432 132.894 
L 573.882353 132.894 
z
" clip-path="url(#pc3bf36c87f)" style="fill: #008000"/>
   </g>
   <g id="patch_125">
    <path d="M 573.882353 132.117429 
L 880.660749 132.117429 
L 880.660749 129.011143 
L 573.882353 129.011143 
z
" clip-path="url(#pc3bf36c87f)" style="fill: #008000"/>
   </g>
   <g id="patch_126">
    <path d="M 573.882353 128.234571 
L 878.516983 128.234571 
L 878.516983 125.128286 
L 573.882353 125.128286 
z
" clip-path="url(#pc3bf36c87f)" style="fill: #008000"/>
   </g>
   <g id="patch_127">
    <path d="M 573.882353 124.351714 
L 870.27173 124.351714 
L 870.27173 121.245429 
L 573.882353 121.245429 
z
" clip-path="url(#pc3bf36c87f)" style="fill: #008000"/>
   </g>
   <g id="patch_128">
    <path d="M 573.882353 120.468857 
L 864.225211 120.468857 
L 864.225211 117.362571 
L 573.882353 117.362571 
z
" clip-path="url(#pc3bf36c87f)" style="fill: #008000"/>
   </g>
   <g id="patch_129">
    <path d="M 573.882353 116.586 
L 886.487395 116.586 
L 886.487395 113.479714 
L 573.882353 113.479714 
z
" clip-path="url(#pc3bf36c87f)" style="fill: #008000"/>
   </g>
   <g id="patch_130">
    <path d="M 573.882353 112.703143 
L 876.428186 112.703143 
L 876.428186 109.596857 
L 573.882353 109.596857 
z
" clip-path="url(#pc3bf36c87f)" style="fill: #008000"/>
   </g>
   <g id="patch_131">
    <path d="M 573.882353 108.820286 
L 874.504293 108.820286 
L 874.504293 105.714 
L 573.882353 105.714 
z
" clip-path="url(#pc3bf36c87f)" style="fill: #008000"/>
   </g>
   <g id="patch_132">
    <path d="M 573.882353 104.937429 
L 885.003249 104.937429 
L 885.003249 101.831143 
L 573.882353 101.831143 
z
" clip-path="url(#pc3bf36c87f)" style="fill: #008000"/>
   </g>
   <g id="patch_133">
    <path d="M 573.882353 101.054571 
L 875.328819 101.054571 
L 875.328819 97.948286 
L 573.882353 97.948286 
z
" clip-path="url(#pc3bf36c87f)" style="fill: #008000"/>
   </g>
   <g id="patch_134">
    <path d="M 573.882353 97.171714 
L 871.645939 97.171714 
L 871.645939 94.065429 
L 573.882353 94.065429 
z
" clip-path="url(#pc3bf36c87f)" style="fill: #008000"/>
   </g>
   <g id="patch_135">
    <path d="M 573.882353 93.288857 
L 876.593091 93.288857 
L 876.593091 90.182571 
L 573.882353 90.182571 
z
" clip-path="url(#pc3bf36c87f)" style="fill: #008000"/>
   </g>
   <g id="patch_136">
    <path d="M 573.882353 89.406 
L 871.481034 89.406 
L 871.481034 86.299714 
L 573.882353 86.299714 
z
" clip-path="url(#pc3bf36c87f)" style="fill: #008000"/>
   </g>
   <g id="patch_137">
    <path d="M 573.882353 85.523143 
L 875.60366 85.523143 
L 875.60366 82.416857 
L 573.882353 82.416857 
z
" clip-path="url(#pc3bf36c87f)" style="fill: #008000"/>
   </g>
   <g id="patch_138">
    <path d="M 573.882353 81.640286 
L 880.111066 81.640286 
L 880.111066 78.534 
L 573.882353 78.534 
z
" clip-path="url(#pc3bf36c87f)" style="fill: #008000"/>
   </g>
   <g id="patch_139">
    <path d="M 573.882353 77.757429 
L 881.870053 77.757429 
L 881.870053 74.651143 
L 573.882353 74.651143 
z
" clip-path="url(#pc3bf36c87f)" style="fill: #008000"/>
   </g>
   <g id="patch_140">
    <path d="M 573.882353 73.874571 
L 870.93135 73.874571 
L 870.93135 70.768286 
L 573.882353 70.768286 
z
" clip-path="url(#pc3bf36c87f)" style="fill: #008000"/>
   </g>
   <g id="patch_141">
    <path d="M 573.882353 69.991714 
L 872.580401 69.991714 
L 872.580401 66.885429 
L 573.882353 66.885429 
z
" clip-path="url(#pc3bf36c87f)" style="fill: #008000"/>
   </g>
   <g id="patch_142">
    <path d="M 573.882353 66.108857 
L 874.834103 66.108857 
L 874.834103 63.002571 
L 573.882353 63.002571 
z
" clip-path="url(#pc3bf36c87f)" style="fill: #008000"/>
   </g>
   <g id="patch_143">
    <path d="M 573.882353 62.226 
L 868.402806 62.226 
L 868.402806 59.119714 
L 573.882353 59.119714 
z
" clip-path="url(#pc3bf36c87f)" style="fill: #008000"/>
   </g>
   <g id="patch_144">
    <path d="M 573.882353 58.343143 
L 870.876382 58.343143 
L 870.876382 55.236857 
L 573.882353 55.236857 
z
" clip-path="url(#pc3bf36c87f)" style="fill: #008000"/>
   </g>
   <g id="patch_145">
    <path d="M 573.882353 54.460286 
L 871.206192 54.460286 
L 871.206192 51.354 
L 573.882353 51.354 
z
" clip-path="url(#pc3bf36c87f)" style="fill: #008000"/>
   </g>
   <g id="patch_146">
    <path d="M 573.882353 50.577429 
L 875.988439 50.577429 
L 875.988439 47.471143 
L 573.882353 47.471143 
z
" clip-path="url(#pc3bf36c87f)" style="fill: #008000"/>
   </g>
   <g id="patch_147">
    <path d="M 573.882353 46.694571 
L 875.988439 46.694571 
L 875.988439 43.588286 
L 573.882353 43.588286 
z
" clip-path="url(#pc3bf36c87f)" style="fill: #008000"/>
   </g>
   <g id="matplotlib.axis_3">
    <g id="xtick_7">
     <g id="line2d_14">
      <g>
       <use xlink:href="#me6a0aaac5e" x="573.882353" y="315" style="stroke: #000000; stroke-width: 0.8"/>
      </g>
     </g>
     <g id="text_16">
      <!-- 0 -->
      <g transform="translate(570.701103 329.598437)scale(0.1 -0.1)">
       <use xlink:href="#DejaVuSans-30"/>
      </g>
     </g>
    </g>
    <g id="xtick_8">
     <g id="line2d_15">
      <g>
       <use xlink:href="#me6a0aaac5e" x="628.850709" y="315" style="stroke: #000000; stroke-width: 0.8"/>
      </g>
     </g>
     <g id="text_17">
      <!-- 1000 -->
      <g transform="translate(616.125709 329.598437)scale(0.1 -0.1)">
       <use xlink:href="#DejaVuSans-31"/>
       <use xlink:href="#DejaVuSans-30" x="63.623047"/>
       <use xlink:href="#DejaVuSans-30" x="127.246094"/>
       <use xlink:href="#DejaVuSans-30" x="190.869141"/>
      </g>
     </g>
    </g>
    <g id="xtick_9">
     <g id="line2d_16">
      <g>
       <use xlink:href="#me6a0aaac5e" x="683.819065" y="315" style="stroke: #000000; stroke-width: 0.8"/>
      </g>
     </g>
     <g id="text_18">
      <!-- 2000 -->
      <g transform="translate(671.094065 329.598437)scale(0.1 -0.1)">
       <use xlink:href="#DejaVuSans-32"/>
       <use xlink:href="#DejaVuSans-30" x="63.623047"/>
       <use xlink:href="#DejaVuSans-30" x="127.246094"/>
       <use xlink:href="#DejaVuSans-30" x="190.869141"/>
      </g>
     </g>
    </g>
    <g id="xtick_10">
     <g id="line2d_17">
      <g>
       <use xlink:href="#me6a0aaac5e" x="738.787422" y="315" style="stroke: #000000; stroke-width: 0.8"/>
      </g>
     </g>
     <g id="text_19">
      <!-- 3000 -->
      <g transform="translate(726.062422 329.598437)scale(0.1 -0.1)">
       <use xlink:href="#DejaVuSans-33"/>
       <use xlink:href="#DejaVuSans-30" x="63.623047"/>
       <use xlink:href="#DejaVuSans-30" x="127.246094"/>
       <use xlink:href="#DejaVuSans-30" x="190.869141"/>
      </g>
     </g>
    </g>
    <g id="xtick_11">
     <g id="line2d_18">
      <g>
       <use xlink:href="#me6a0aaac5e" x="793.755778" y="315" style="stroke: #000000; stroke-width: 0.8"/>
      </g>
     </g>
     <g id="text_20">
      <!-- 4000 -->
      <g transform="translate(781.030778 329.598437)scale(0.1 -0.1)">
       <use xlink:href="#DejaVuSans-34"/>
       <use xlink:href="#DejaVuSans-30" x="63.623047"/>
       <use xlink:href="#DejaVuSans-30" x="127.246094"/>
       <use xlink:href="#DejaVuSans-30" x="190.869141"/>
      </g>
     </g>
    </g>
    <g id="xtick_12">
     <g id="line2d_19">
      <g>
       <use xlink:href="#me6a0aaac5e" x="848.724134" y="315" style="stroke: #000000; stroke-width: 0.8"/>
      </g>
     </g>
     <g id="text_21">
      <!-- 5000 -->
      <g transform="translate(835.999134 329.598437)scale(0.1 -0.1)">
       <use xlink:href="#DejaVuSans-35"/>
       <use xlink:href="#DejaVuSans-30" x="63.623047"/>
       <use xlink:href="#DejaVuSans-30" x="127.246094"/>
       <use xlink:href="#DejaVuSans-30" x="190.869141"/>
      </g>
     </g>
    </g>
    <g id="text_22">
     <!-- Cmax values -->
     <g transform="translate(705.763281 343.276563)scale(0.1 -0.1)">
      <use xlink:href="#DejaVuSans-43"/>
      <use xlink:href="#DejaVuSans-6d" x="69.824219"/>
      <use xlink:href="#DejaVuSans-61" x="167.236328"/>
      <use xlink:href="#DejaVuSans-78" x="228.515625"/>
      <use xlink:href="#DejaVuSans-20" x="287.695312"/>
      <use xlink:href="#DejaVuSans-76" x="319.482422"/>
      <use xlink:href="#DejaVuSans-61" x="378.662109"/>
      <use xlink:href="#DejaVuSans-6c" x="439.941406"/>
      <use xlink:href="#DejaVuSans-75" x="467.724609"/>
      <use xlink:href="#DejaVuSans-65" x="531.103516"/>
      <use xlink:href="#DejaVuSans-73" x="592.626953"/>
     </g>
    </g>
   </g>
   <g id="matplotlib.axis_4">
    <g id="ytick_8">
     <g id="line2d_20">
      <g>
       <use xlink:href="#m9b0c51227f" x="573.882353" y="278.112857" style="stroke: #000000; stroke-width: 0.8"/>
      </g>
     </g>
     <g id="text_23">
      <!-- 10 -->
      <g transform="translate(554.157353 281.912076)scale(0.1 -0.1)">
       <use xlink:href="#DejaVuSans-31"/>
       <use xlink:href="#DejaVuSans-30" x="63.623047"/>
      </g>
     </g>
    </g>
    <g id="ytick_9">
     <g id="line2d_21">
      <g>
       <use xlink:href="#m9b0c51227f" x="573.882353" y="239.284286" style="stroke: #000000; stroke-width: 0.8"/>
      </g>
     </g>
     <g id="text_24">
      <!-- 20 -->
      <g transform="translate(554.157353 243.083504)scale(0.1 -0.1)">
       <use xlink:href="#DejaVuSans-32"/>
       <use xlink:href="#DejaVuSans-30" x="63.623047"/>
      </g>
     </g>
    </g>
    <g id="ytick_10">
     <g id="line2d_22">
      <g>
       <use xlink:href="#m9b0c51227f" x="573.882353" y="200.455714" style="stroke: #000000; stroke-width: 0.8"/>
      </g>
     </g>
     <g id="text_25">
      <!-- 30 -->
      <g transform="translate(554.157353 204.254933)scale(0.1 -0.1)">
       <use xlink:href="#DejaVuSans-33"/>
       <use xlink:href="#DejaVuSans-30" x="63.623047"/>
      </g>
     </g>
    </g>
    <g id="ytick_11">
     <g id="line2d_23">
      <g>
       <use xlink:href="#m9b0c51227f" x="573.882353" y="161.627143" style="stroke: #000000; stroke-width: 0.8"/>
      </g>
     </g>
     <g id="text_26">
      <!-- 40 -->
      <g transform="translate(554.157353 165.426362)scale(0.1 -0.1)">
       <use xlink:href="#DejaVuSans-34"/>
       <use xlink:href="#DejaVuSans-30" x="63.623047"/>
      </g>
     </g>
    </g>
    <g id="ytick_12">
     <g id="line2d_24">
      <g>
       <use xlink:href="#m9b0c51227f" x="573.882353" y="122.798571" style="stroke: #000000; stroke-width: 0.8"/>
      </g>
     </g>
     <g id="text_27">
      <!-- 50 -->
      <g transform="translate(554.157353 126.59779)scale(0.1 -0.1)">
       <use xlink:href="#DejaVuSans-35"/>
       <use xlink:href="#DejaVuSans-30" x="63.623047"/>
      </g>
     </g>
    </g>
    <g id="ytick_13">
     <g id="line2d_25">
      <g>
       <use xlink:href="#m9b0c51227f" x="573.882353" y="83.97" style="stroke: #000000; stroke-width: 0.8"/>
      </g>
     </g>
     <g id="text_28">
      <!-- 60 -->
      <g transform="translate(554.157353 87.769219)scale(0.1 -0.1)">
       <use xlink:href="#DejaVuSans-36"/>
       <use xlink:href="#DejaVuSans-30" x="63.623047"/>
      </g>
     </g>
    </g>
    <g id="ytick_14">
     <g id="line2d_26">
      <g>
       <use xlink:href="#m9b0c51227f" x="573.882353" y="45.141429" style="stroke: #000000; stroke-width: 0.8"/>
      </g>
     </g>
     <g id="text_29">
      <!-- 70 -->
      <g transform="translate(554.157353 48.940647)scale(0.1 -0.1)">
       <use xlink:href="#DejaVuSans-37"/>
       <use xlink:href="#DejaVuSans-30" x="63.623047"/>
      </g>
     </g>
    </g>
    <g id="text_30">
     <!-- Instances -->
     <g transform="translate(548.077665 202.971875)rotate(-90)scale(0.1 -0.1)">
      <use xlink:href="#DejaVuSans-49"/>
      <use xlink:href="#DejaVuSans-6e" x="29.492188"/>
      <use xlink:href="#DejaVuSans-73" x="92.871094"/>
      <use xlink:href="#DejaVuSans-74" x="144.970703"/>
      <use xlink:href="#DejaVuSans-61" x="184.179688"/>
      <use xlink:href="#DejaVuSans-6e" x="245.458984"/>
      <use xlink:href="#DejaVuSans-63" x="308.837891"/>
      <use xlink:href="#DejaVuSans-65" x="363.818359"/>
      <use xlink:href="#DejaVuSans-73" x="425.341797"/>
     </g>
    </g>
   </g>
   <g id="patch_148">
    <path d="M 573.882353 315 
L 573.882353 43.2 
" style="fill: none; stroke: #000000; stroke-width: 0.8; stroke-linejoin: miter; stroke-linecap: square"/>
   </g>
   <g id="patch_149">
    <path d="M 902.117647 315 
L 902.117647 43.2 
" style="fill: none; stroke: #000000; stroke-width: 0.8; stroke-linejoin: miter; stroke-linecap: square"/>
   </g>
   <g id="patch_150">
    <path d="M 573.882353 315 
L 902.117647 315 
" style="fill: none; stroke: #000000; stroke-width: 0.8; stroke-linejoin: miter; stroke-linecap: square"/>
   </g>
   <g id="patch_151">
    <path d="M 573.882353 43.2 
L 902.117647 43.2 
" style="fill: none; stroke: #000000; stroke-width: 0.8; stroke-linejoin: miter; stroke-linecap: square"/>
   </g>
  </g>
  <g id="axes_3">
   <g id="patch_152">
    <path d="M 967.764706 315 
L 1296 315 
L 1296 43.2 
L 967.764706 43.2 
z
" style="fill: #ffffff"/>
   </g>
   <g id="patch_153">
    <path d="M 967.764706 314.611714 
L 1132.959967 314.611714 
L 1132.959967 311.505429 
L 967.764706 311.505429 
z
" clip-path="url(#p03d255e511)" style="fill: #800080"/>
   </g>
   <g id="patch_154">
    <path d="M 967.764706 310.728857 
L 1135.484107 310.728857 
L 1135.484107 307.622571 
L 967.764706 307.622571 
z
" clip-path="url(#p03d255e511)" style="fill: #800080"/>
   </g>
   <g id="patch_155">
    <path d="M 967.764706 306.846 
L 1135.173443 306.846 
L 1135.173443 303.739714 
L 967.764706 303.739714 
z
" clip-path="url(#p03d255e511)" style="fill: #800080"/>
   </g>
   <g id="patch_156">
    <path d="M 967.764706 302.963143 
L 1135.833603 302.963143 
L 1135.833603 299.856857 
L 967.764706 299.856857 
z
" clip-path="url(#p03d255e511)" style="fill: #800080"/>
   </g>
   <g id="patch_157">
    <path d="M 967.764706 299.080286 
L 1141.037215 299.080286 
L 1141.037215 295.974 
L 967.764706 295.974 
z
" clip-path="url(#p03d255e511)" style="fill: #800080"/>
   </g>
   <g id="patch_158">
    <path d="M 967.764706 295.197429 
L 1136.260765 295.197429 
L 1136.260765 292.091143 
L 967.764706 292.091143 
z
" clip-path="url(#p03d255e511)" style="fill: #800080"/>
   </g>
   <g id="patch_159">
    <path d="M 967.764706 291.314571 
L 1140.066392 291.314571 
L 1140.066392 288.208286 
L 967.764706 288.208286 
z
" clip-path="url(#p03d255e511)" style="fill: #800080"/>
   </g>
   <g id="patch_160">
    <path d="M 967.764706 287.431714 
L 1136.183099 287.431714 
L 1136.183099 284.325429 
L 967.764706 284.325429 
z
" clip-path="url(#p03d255e511)" style="fill: #800080"/>
   </g>
   <g id="patch_161">
    <path d="M 967.764706 283.548857 
L 1139.445065 283.548857 
L 1139.445065 280.442571 
L 967.764706 280.442571 
z
" clip-path="url(#p03d255e511)" style="fill: #800080"/>
   </g>
   <g id="patch_162">
    <path d="M 967.764706 279.666 
L 1142.085704 279.666 
L 1142.085704 276.559714 
L 967.764706 276.559714 
z
" clip-path="url(#p03d255e511)" style="fill: #800080"/>
   </g>
   <g id="patch_163">
    <path d="M 967.764706 275.783143 
L 1142.629365 275.783143 
L 1142.629365 272.676857 
L 967.764706 272.676857 
z
" clip-path="url(#p03d255e511)" style="fill: #800080"/>
   </g>
   <g id="patch_164">
    <path d="M 967.764706 271.900286 
L 1150.823112 271.900286 
L 1150.823112 268.794 
L 967.764706 268.794 
z
" clip-path="url(#p03d255e511)" style="fill: #800080"/>
   </g>
   <g id="patch_165">
    <path d="M 967.764706 268.017429 
L 1138.396576 268.017429 
L 1138.396576 264.911143 
L 967.764706 264.911143 
z
" clip-path="url(#p03d255e511)" style="fill: #800080"/>
   </g>
   <g id="patch_166">
    <path d="M 967.764706 264.134571 
L 1154.12391 264.134571 
L 1154.12391 261.028286 
L 967.764706 261.028286 
z
" clip-path="url(#p03d255e511)" style="fill: #800080"/>
   </g>
   <g id="patch_167">
    <path d="M 967.764706 260.251714 
L 1141.192547 260.251714 
L 1141.192547 257.145429 
L 967.764706 257.145429 
z
" clip-path="url(#p03d255e511)" style="fill: #800080"/>
   </g>
   <g id="patch_168">
    <path d="M 967.764706 256.368857 
L 1154.551073 256.368857 
L 1154.551073 253.262571 
L 967.764706 253.262571 
z
" clip-path="url(#p03d255e511)" style="fill: #800080"/>
   </g>
   <g id="patch_169">
    <path d="M 967.764706 252.486 
L 1137.736416 252.486 
L 1137.736416 249.379714 
L 967.764706 249.379714 
z
" clip-path="url(#p03d255e511)" style="fill: #800080"/>
   </g>
   <g id="patch_170">
    <path d="M 967.764706 248.603143 
L 1147.522313 248.603143 
L 1147.522313 245.496857 
L 967.764706 245.496857 
z
" clip-path="url(#p03d255e511)" style="fill: #800080"/>
   </g>
   <g id="patch_171">
    <path d="M 967.764706 244.720286 
L 1146.318493 244.720286 
L 1146.318493 241.614 
L 967.764706 241.614 
z
" clip-path="url(#p03d255e511)" style="fill: #800080"/>
   </g>
   <g id="patch_172">
    <path d="M 967.764706 240.837429 
L 1150.978444 240.837429 
L 1150.978444 237.731143 
L 967.764706 237.731143 
z
" clip-path="url(#p03d255e511)" style="fill: #800080"/>
   </g>
   <g id="patch_173">
    <path d="M 967.764706 236.954571 
L 1184.607756 236.954571 
L 1184.607756 233.848286 
L 967.764706 233.848286 
z
" clip-path="url(#p03d255e511)" style="fill: #800080"/>
   </g>
   <g id="patch_174">
    <path d="M 967.764706 233.071714 
L 1144.881674 233.071714 
L 1144.881674 229.965429 
L 967.764706 229.965429 
z
" clip-path="url(#p03d255e511)" style="fill: #800080"/>
   </g>
   <g id="patch_175">
    <path d="M 967.764706 229.188857 
L 1145.6195 229.188857 
L 1145.6195 226.082571 
L 967.764706 226.082571 
z
" clip-path="url(#p03d255e511)" style="fill: #800080"/>
   </g>
   <g id="patch_176">
    <path d="M 967.764706 225.306 
L 1151.056109 225.306 
L 1151.056109 222.199714 
L 967.764706 222.199714 
z
" clip-path="url(#p03d255e511)" style="fill: #800080"/>
   </g>
   <g id="patch_177">
    <path d="M 967.764706 221.423143 
L 1157.191711 221.423143 
L 1157.191711 218.316857 
L 967.764706 218.316857 
z
" clip-path="url(#p03d255e511)" style="fill: #800080"/>
   </g>
   <g id="patch_178">
    <path d="M 967.764706 217.540286 
L 1142.4352 217.540286 
L 1142.4352 214.434 
L 967.764706 214.434 
z
" clip-path="url(#p03d255e511)" style="fill: #800080"/>
   </g>
   <g id="patch_179">
    <path d="M 967.764706 213.657429 
L 1238.546688 213.657429 
L 1238.546688 210.551143 
L 967.764706 210.551143 
z
" clip-path="url(#p03d255e511)" style="fill: #800080"/>
   </g>
   <g id="patch_180">
    <path d="M 967.764706 209.774571 
L 1180.957461 209.774571 
L 1180.957461 206.668286 
L 967.764706 206.668286 
z
" clip-path="url(#p03d255e511)" style="fill: #800080"/>
   </g>
   <g id="patch_181">
    <path d="M 967.764706 205.891714 
L 1155.560729 205.891714 
L 1155.560729 202.785429 
L 967.764706 202.785429 
z
" clip-path="url(#p03d255e511)" style="fill: #800080"/>
   </g>
   <g id="patch_182">
    <path d="M 967.764706 202.008857 
L 1164.569967 202.008857 
L 1164.569967 198.902571 
L 967.764706 198.902571 
z
" clip-path="url(#p03d255e511)" style="fill: #800080"/>
   </g>
   <g id="patch_183">
    <path d="M 967.764706 198.126 
L 1147.910643 198.126 
L 1147.910643 195.019714 
L 967.764706 195.019714 
z
" clip-path="url(#p03d255e511)" style="fill: #800080"/>
   </g>
   <g id="patch_184">
    <path d="M 967.764706 194.243143 
L 1167.055274 194.243143 
L 1167.055274 191.136857 
L 967.764706 191.136857 
z
" clip-path="url(#p03d255e511)" style="fill: #800080"/>
   </g>
   <g id="patch_185">
    <path d="M 967.764706 190.360286 
L 1194.044157 190.360286 
L 1194.044157 187.254 
L 967.764706 187.254 
z
" clip-path="url(#p03d255e511)" style="fill: #800080"/>
   </g>
   <g id="patch_186">
    <path d="M 967.764706 186.477429 
L 1147.250483 186.477429 
L 1147.250483 183.371143 
L 967.764706 183.371143 
z
" clip-path="url(#p03d255e511)" style="fill: #800080"/>
   </g>
   <g id="patch_187">
    <path d="M 967.764706 182.594571 
L 1158.356699 182.594571 
L 1158.356699 179.488286 
L 967.764706 179.488286 
z
" clip-path="url(#p03d255e511)" style="fill: #800080"/>
   </g>
   <g id="patch_188">
    <path d="M 967.764706 178.711714 
L 1169.773579 178.711714 
L 1169.773579 175.605429 
L 967.764706 175.605429 
z
" clip-path="url(#p03d255e511)" style="fill: #800080"/>
   </g>
   <g id="patch_189">
    <path d="M 967.764706 174.828857 
L 1190.782191 174.828857 
L 1190.782191 171.722571 
L 967.764706 171.722571 
z
" clip-path="url(#p03d255e511)" style="fill: #800080"/>
   </g>
   <g id="patch_190">
    <path d="M 967.764706 170.946 
L 1250.934391 170.946 
L 1250.934391 167.839714 
L 967.764706 167.839714 
z
" clip-path="url(#p03d255e511)" style="fill: #800080"/>
   </g>
   <g id="patch_191">
    <path d="M 967.764706 167.063143 
L 1159.521687 167.063143 
L 1159.521687 163.956857 
L 967.764706 163.956857 
z
" clip-path="url(#p03d255e511)" style="fill: #800080"/>
   </g>
   <g id="patch_192">
    <path d="M 967.764706 163.180286 
L 1201.92724 163.180286 
L 1201.92724 160.074 
L 967.764706 160.074 
z
" clip-path="url(#p03d255e511)" style="fill: #800080"/>
   </g>
   <g id="patch_193">
    <path d="M 967.764706 159.297429 
L 1234.313899 159.297429 
L 1234.313899 156.191143 
L 967.764706 156.191143 
z
" clip-path="url(#p03d255e511)" style="fill: #800080"/>
   </g>
   <g id="patch_194">
    <path d="M 967.764706 155.414571 
L 1280.369748 155.414571 
L 1280.369748 152.308286 
L 967.764706 152.308286 
z
" clip-path="url(#p03d255e511)" style="fill: #800080"/>
   </g>
   <g id="patch_195">
    <path d="M 967.764706 151.531714 
L 1241.187327 151.531714 
L 1241.187327 148.425429 
L 967.764706 148.425429 
z
" clip-path="url(#p03d255e511)" style="fill: #800080"/>
   </g>
   <g id="patch_196">
    <path d="M 967.764706 147.648857 
L 1209.22783 147.648857 
L 1209.22783 144.542571 
L 967.764706 144.542571 
z
" clip-path="url(#p03d255e511)" style="fill: #800080"/>
   </g>
   <g id="patch_197">
    <path d="M 967.764706 143.766 
L 1160.065348 143.766 
L 1160.065348 140.659714 
L 967.764706 140.659714 
z
" clip-path="url(#p03d255e511)" style="fill: #800080"/>
   </g>
   <g id="patch_198">
    <path d="M 967.764706 139.883143 
L 1208.257007 139.883143 
L 1208.257007 136.776857 
L 967.764706 136.776857 
z
" clip-path="url(#p03d255e511)" style="fill: #800080"/>
   </g>
   <g id="patch_199">
    <path d="M 967.764706 136.000286 
L 1167.210606 136.000286 
L 1167.210606 132.894 
L 967.764706 132.894 
z
" clip-path="url(#p03d255e511)" style="fill: #800080"/>
   </g>
   <g id="patch_200">
    <path d="M 967.764706 132.117429 
L 1200.645754 132.117429 
L 1200.645754 129.011143 
L 967.764706 129.011143 
z
" clip-path="url(#p03d255e511)" style="fill: #800080"/>
   </g>
   <g id="patch_201">
    <path d="M 967.764706 128.234571 
L 1253.380865 128.234571 
L 1253.380865 125.128286 
L 967.764706 125.128286 
z
" clip-path="url(#p03d255e511)" style="fill: #800080"/>
   </g>
   <g id="patch_202">
    <path d="M 967.764706 124.351714 
L 1266.389895 124.351714 
L 1266.389895 121.245429 
L 967.764706 121.245429 
z
" clip-path="url(#p03d255e511)" style="fill: #800080"/>
   </g>
   <g id="patch_203">
    <path d="M 967.764706 120.468857 
L 1170.9774 120.468857 
L 1170.9774 117.362571 
L 967.764706 117.362571 
z
" clip-path="url(#p03d255e511)" style="fill: #800080"/>
   </g>
   <g id="patch_204">
    <path d="M 967.764706 116.586 
L 1180.996294 116.586 
L 1180.996294 113.479714 
L 967.764706 113.479714 
z
" clip-path="url(#p03d255e511)" style="fill: #800080"/>
   </g>
   <g id="patch_205">
    <path d="M 967.764706 112.703143 
L 1197.189624 112.703143 
L 1197.189624 109.596857 
L 967.764706 109.596857 
z
" clip-path="url(#p03d255e511)" style="fill: #800080"/>
   </g>
   <g id="patch_206">
    <path d="M 967.764706 108.820286 
L 1239.206848 108.820286 
L 1239.206848 105.714 
L 967.764706 105.714 
z
" clip-path="url(#p03d255e511)" style="fill: #800080"/>
   </g>
   <g id="patch_207">
    <path d="M 967.764706 104.937429 
L 1254.041025 104.937429 
L 1254.041025 101.831143 
L 967.764706 101.831143 
z
" clip-path="url(#p03d255e511)" style="fill: #800080"/>
   </g>
   <g id="patch_208">
    <path d="M 967.764706 101.054571 
L 1183.442768 101.054571 
L 1183.442768 97.948286 
L 967.764706 97.948286 
z
" clip-path="url(#p03d255e511)" style="fill: #800080"/>
   </g>
   <g id="patch_209">
    <path d="M 967.764706 97.171714 
L 1243.09014 97.171714 
L 1243.09014 94.065429 
L 967.764706 94.065429 
z
" clip-path="url(#p03d255e511)" style="fill: #800080"/>
   </g>
   <g id="patch_210">
    <path d="M 967.764706 93.288857 
L 1230.585939 93.288857 
L 1230.585939 90.182571 
L 967.764706 90.182571 
z
" clip-path="url(#p03d255e511)" style="fill: #800080"/>
   </g>
   <g id="patch_211">
    <path d="M 967.764706 89.406 
L 1270.70035 89.406 
L 1270.70035 86.299714 
L 967.764706 86.299714 
z
" clip-path="url(#p03d255e511)" style="fill: #800080"/>
   </g>
   <g id="patch_212">
    <path d="M 967.764706 85.523143 
L 1168.686257 85.523143 
L 1168.686257 82.416857 
L 967.764706 82.416857 
z
" clip-path="url(#p03d255e511)" style="fill: #800080"/>
   </g>
   <g id="patch_213">
    <path d="M 967.764706 81.640286 
L 1277.34078 81.640286 
L 1277.34078 78.534 
L 967.764706 78.534 
z
" clip-path="url(#p03d255e511)" style="fill: #800080"/>
   </g>
   <g id="patch_214">
    <path d="M 967.764706 77.757429 
L 1152.143431 77.757429 
L 1152.143431 74.651143 
L 967.764706 74.651143 
z
" clip-path="url(#p03d255e511)" style="fill: #800080"/>
   </g>
   <g id="patch_215">
    <path d="M 967.764706 73.874571 
L 1193.42283 73.874571 
L 1193.42283 70.768286 
L 967.764706 70.768286 
z
" clip-path="url(#p03d255e511)" style="fill: #800080"/>
   </g>
   <g id="patch_216">
    <path d="M 967.764706 69.991714 
L 1252.565374 69.991714 
L 1252.565374 66.885429 
L 967.764706 66.885429 
z
" clip-path="url(#p03d255e511)" style="fill: #800080"/>
   </g>
   <g id="patch_217">
    <path d="M 967.764706 66.108857 
L 1198.276946 66.108857 
L 1198.276946 63.002571 
L 967.764706 63.002571 
z
" clip-path="url(#p03d255e511)" style="fill: #800080"/>
   </g>
   <g id="patch_218">
    <path d="M 967.764706 62.226 
L 1243.944465 62.226 
L 1243.944465 59.119714 
L 967.764706 59.119714 
z
" clip-path="url(#p03d255e511)" style="fill: #800080"/>
   </g>
   <g id="patch_219">
    <path d="M 967.764706 58.343143 
L 1225.498826 58.343143 
L 1225.498826 55.236857 
L 967.764706 55.236857 
z
" clip-path="url(#p03d255e511)" style="fill: #800080"/>
   </g>
   <g id="patch_220">
    <path d="M 967.764706 54.460286 
L 1154.434574 54.460286 
L 1154.434574 51.354 
L 967.764706 51.354 
z
" clip-path="url(#p03d255e511)" style="fill: #800080"/>
   </g>
   <g id="patch_221">
    <path d="M 967.764706 50.577429 
L 1150.66778 50.577429 
L 1150.66778 47.471143 
L 967.764706 47.471143 
z
" clip-path="url(#p03d255e511)" style="fill: #800080"/>
   </g>
   <g id="patch_222">
    <path d="M 967.764706 46.694571 
L 1194.160656 46.694571 
L 1194.160656 43.588286 
L 967.764706 43.588286 
z
" clip-path="url(#p03d255e511)" style="fill: #800080"/>
   </g>
   <g id="matplotlib.axis_5">
    <g id="xtick_13">
     <g id="line2d_27">
      <g>
       <use xlink:href="#me6a0aaac5e" x="967.764706" y="315" style="stroke: #000000; stroke-width: 0.8"/>
      </g>
     </g>
     <g id="text_31">
      <!-- 0 -->
      <g transform="translate(964.583456 329.598437)scale(0.1 -0.1)">
       <use xlink:href="#DejaVuSans-30"/>
      </g>
     </g>
    </g>
    <g id="xtick_14">
     <g id="line2d_28">
      <g>
       <use xlink:href="#me6a0aaac5e" x="1006.59763" y="315" style="stroke: #000000; stroke-width: 0.8"/>
      </g>
     </g>
     <g id="text_32">
      <!-- 1000 -->
      <g transform="translate(993.87263 329.598437)scale(0.1 -0.1)">
       <use xlink:href="#DejaVuSans-31"/>
       <use xlink:href="#DejaVuSans-30" x="63.623047"/>
       <use xlink:href="#DejaVuSans-30" x="127.246094"/>
       <use xlink:href="#DejaVuSans-30" x="190.869141"/>
      </g>
     </g>
    </g>
    <g id="xtick_15">
     <g id="line2d_29">
      <g>
       <use xlink:href="#me6a0aaac5e" x="1045.430555" y="315" style="stroke: #000000; stroke-width: 0.8"/>
      </g>
     </g>
     <g id="text_33">
      <!-- 2000 -->
      <g transform="translate(1032.705555 329.598437)scale(0.1 -0.1)">
       <use xlink:href="#DejaVuSans-32"/>
       <use xlink:href="#DejaVuSans-30" x="63.623047"/>
       <use xlink:href="#DejaVuSans-30" x="127.246094"/>
       <use xlink:href="#DejaVuSans-30" x="190.869141"/>
      </g>
     </g>
    </g>
    <g id="xtick_16">
     <g id="line2d_30">
      <g>
       <use xlink:href="#me6a0aaac5e" x="1084.263479" y="315" style="stroke: #000000; stroke-width: 0.8"/>
      </g>
     </g>
     <g id="text_34">
      <!-- 3000 -->
      <g transform="translate(1071.538479 329.598437)scale(0.1 -0.1)">
       <use xlink:href="#DejaVuSans-33"/>
       <use xlink:href="#DejaVuSans-30" x="63.623047"/>
       <use xlink:href="#DejaVuSans-30" x="127.246094"/>
       <use xlink:href="#DejaVuSans-30" x="190.869141"/>
      </g>
     </g>
    </g>
    <g id="xtick_17">
     <g id="line2d_31">
      <g>
       <use xlink:href="#me6a0aaac5e" x="1123.096404" y="315" style="stroke: #000000; stroke-width: 0.8"/>
      </g>
     </g>
     <g id="text_35">
      <!-- 4000 -->
      <g transform="translate(1110.371404 329.598437)scale(0.1 -0.1)">
       <use xlink:href="#DejaVuSans-34"/>
       <use xlink:href="#DejaVuSans-30" x="63.623047"/>
       <use xlink:href="#DejaVuSans-30" x="127.246094"/>
       <use xlink:href="#DejaVuSans-30" x="190.869141"/>
      </g>
     </g>
    </g>
    <g id="xtick_18">
     <g id="line2d_32">
      <g>
       <use xlink:href="#me6a0aaac5e" x="1161.929328" y="315" style="stroke: #000000; stroke-width: 0.8"/>
      </g>
     </g>
     <g id="text_36">
      <!-- 5000 -->
      <g transform="translate(1149.204328 329.598437)scale(0.1 -0.1)">
       <use xlink:href="#DejaVuSans-35"/>
       <use xlink:href="#DejaVuSans-30" x="63.623047"/>
       <use xlink:href="#DejaVuSans-30" x="127.246094"/>
       <use xlink:href="#DejaVuSans-30" x="190.869141"/>
      </g>
     </g>
    </g>
    <g id="xtick_19">
     <g id="line2d_33">
      <g>
       <use xlink:href="#me6a0aaac5e" x="1200.762253" y="315" style="stroke: #000000; stroke-width: 0.8"/>
      </g>
     </g>
     <g id="text_37">
      <!-- 6000 -->
      <g transform="translate(1188.037253 329.598437)scale(0.1 -0.1)">
       <use xlink:href="#DejaVuSans-36"/>
       <use xlink:href="#DejaVuSans-30" x="63.623047"/>
       <use xlink:href="#DejaVuSans-30" x="127.246094"/>
       <use xlink:href="#DejaVuSans-30" x="190.869141"/>
      </g>
     </g>
    </g>
    <g id="xtick_20">
     <g id="line2d_34">
      <g>
       <use xlink:href="#me6a0aaac5e" x="1239.595177" y="315" style="stroke: #000000; stroke-width: 0.8"/>
      </g>
     </g>
     <g id="text_38">
      <!-- 7000 -->
      <g transform="translate(1226.870177 329.598437)scale(0.1 -0.1)">
       <use xlink:href="#DejaVuSans-37"/>
       <use xlink:href="#DejaVuSans-30" x="63.623047"/>
       <use xlink:href="#DejaVuSans-30" x="127.246094"/>
       <use xlink:href="#DejaVuSans-30" x="190.869141"/>
      </g>
     </g>
    </g>
    <g id="xtick_21">
     <g id="line2d_35">
      <g>
       <use xlink:href="#me6a0aaac5e" x="1278.428102" y="315" style="stroke: #000000; stroke-width: 0.8"/>
      </g>
     </g>
     <g id="text_39">
      <!-- 8000 -->
      <g transform="translate(1265.703102 329.598437)scale(0.1 -0.1)">
       <defs>
        <path id="DejaVuSans-38" d="M 2034 2216 
Q 1584 2216 1326 1975 
Q 1069 1734 1069 1313 
Q 1069 891 1326 650 
Q 1584 409 2034 409 
Q 2484 409 2743 651 
Q 3003 894 3003 1313 
Q 3003 1734 2745 1975 
Q 2488 2216 2034 2216 
z
M 1403 2484 
Q 997 2584 770 2862 
Q 544 3141 544 3541 
Q 544 4100 942 4425 
Q 1341 4750 2034 4750 
Q 2731 4750 3128 4425 
Q 3525 4100 3525 3541 
Q 3525 3141 3298 2862 
Q 3072 2584 2669 2484 
Q 3125 2378 3379 2068 
Q 3634 1759 3634 1313 
Q 3634 634 3220 271 
Q 2806 -91 2034 -91 
Q 1263 -91 848 271 
Q 434 634 434 1313 
Q 434 1759 690 2068 
Q 947 2378 1403 2484 
z
M 1172 3481 
Q 1172 3119 1398 2916 
Q 1625 2713 2034 2713 
Q 2441 2713 2670 2916 
Q 2900 3119 2900 3481 
Q 2900 3844 2670 4047 
Q 2441 4250 2034 4250 
Q 1625 4250 1398 4047 
Q 1172 3844 1172 3481 
z
" transform="scale(0.015625)"/>
       </defs>
       <use xlink:href="#DejaVuSans-38"/>
       <use xlink:href="#DejaVuSans-30" x="63.623047"/>
       <use xlink:href="#DejaVuSans-30" x="127.246094"/>
       <use xlink:href="#DejaVuSans-30" x="190.869141"/>
      </g>
     </g>
    </g>
    <g id="text_40">
     <!-- Cmax values -->
     <g transform="translate(1099.645634 343.276563)scale(0.1 -0.1)">
      <use xlink:href="#DejaVuSans-43"/>
      <use xlink:href="#DejaVuSans-6d" x="69.824219"/>
      <use xlink:href="#DejaVuSans-61" x="167.236328"/>
      <use xlink:href="#DejaVuSans-78" x="228.515625"/>
      <use xlink:href="#DejaVuSans-20" x="287.695312"/>
      <use xlink:href="#DejaVuSans-76" x="319.482422"/>
      <use xlink:href="#DejaVuSans-61" x="378.662109"/>
      <use xlink:href="#DejaVuSans-6c" x="439.941406"/>
      <use xlink:href="#DejaVuSans-75" x="467.724609"/>
      <use xlink:href="#DejaVuSans-65" x="531.103516"/>
      <use xlink:href="#DejaVuSans-73" x="592.626953"/>
     </g>
    </g>
   </g>
   <g id="matplotlib.axis_6">
    <g id="ytick_15">
     <g id="line2d_36">
      <g>
       <use xlink:href="#m9b0c51227f" x="967.764706" y="278.112857" style="stroke: #000000; stroke-width: 0.8"/>
      </g>
     </g>
     <g id="text_41">
      <!-- 10 -->
      <g transform="translate(948.039706 281.912076)scale(0.1 -0.1)">
       <use xlink:href="#DejaVuSans-31"/>
       <use xlink:href="#DejaVuSans-30" x="63.623047"/>
      </g>
     </g>
    </g>
    <g id="ytick_16">
     <g id="line2d_37">
      <g>
       <use xlink:href="#m9b0c51227f" x="967.764706" y="239.284286" style="stroke: #000000; stroke-width: 0.8"/>
      </g>
     </g>
     <g id="text_42">
      <!-- 20 -->
      <g transform="translate(948.039706 243.083504)scale(0.1 -0.1)">
       <use xlink:href="#DejaVuSans-32"/>
       <use xlink:href="#DejaVuSans-30" x="63.623047"/>
      </g>
     </g>
    </g>
    <g id="ytick_17">
     <g id="line2d_38">
      <g>
       <use xlink:href="#m9b0c51227f" x="967.764706" y="200.455714" style="stroke: #000000; stroke-width: 0.8"/>
      </g>
     </g>
     <g id="text_43">
      <!-- 30 -->
      <g transform="translate(948.039706 204.254933)scale(0.1 -0.1)">
       <use xlink:href="#DejaVuSans-33"/>
       <use xlink:href="#DejaVuSans-30" x="63.623047"/>
      </g>
     </g>
    </g>
    <g id="ytick_18">
     <g id="line2d_39">
      <g>
       <use xlink:href="#m9b0c51227f" x="967.764706" y="161.627143" style="stroke: #000000; stroke-width: 0.8"/>
      </g>
     </g>
     <g id="text_44">
      <!-- 40 -->
      <g transform="translate(948.039706 165.426362)scale(0.1 -0.1)">
       <use xlink:href="#DejaVuSans-34"/>
       <use xlink:href="#DejaVuSans-30" x="63.623047"/>
      </g>
     </g>
    </g>
    <g id="ytick_19">
     <g id="line2d_40">
      <g>
       <use xlink:href="#m9b0c51227f" x="967.764706" y="122.798571" style="stroke: #000000; stroke-width: 0.8"/>
      </g>
     </g>
     <g id="text_45">
      <!-- 50 -->
      <g transform="translate(948.039706 126.59779)scale(0.1 -0.1)">
       <use xlink:href="#DejaVuSans-35"/>
       <use xlink:href="#DejaVuSans-30" x="63.623047"/>
      </g>
     </g>
    </g>
    <g id="ytick_20">
     <g id="line2d_41">
      <g>
       <use xlink:href="#m9b0c51227f" x="967.764706" y="83.97" style="stroke: #000000; stroke-width: 0.8"/>
      </g>
     </g>
     <g id="text_46">
      <!-- 60 -->
      <g transform="translate(948.039706 87.769219)scale(0.1 -0.1)">
       <use xlink:href="#DejaVuSans-36"/>
       <use xlink:href="#DejaVuSans-30" x="63.623047"/>
      </g>
     </g>
    </g>
    <g id="ytick_21">
     <g id="line2d_42">
      <g>
       <use xlink:href="#m9b0c51227f" x="967.764706" y="45.141429" style="stroke: #000000; stroke-width: 0.8"/>
      </g>
     </g>
     <g id="text_47">
      <!-- 70 -->
      <g transform="translate(948.039706 48.940647)scale(0.1 -0.1)">
       <use xlink:href="#DejaVuSans-37"/>
       <use xlink:href="#DejaVuSans-30" x="63.623047"/>
      </g>
     </g>
    </g>
    <g id="text_48">
     <!-- Instances -->
     <g transform="translate(941.960018 202.971875)rotate(-90)scale(0.1 -0.1)">
      <use xlink:href="#DejaVuSans-49"/>
      <use xlink:href="#DejaVuSans-6e" x="29.492188"/>
      <use xlink:href="#DejaVuSans-73" x="92.871094"/>
      <use xlink:href="#DejaVuSans-74" x="144.970703"/>
      <use xlink:href="#DejaVuSans-61" x="184.179688"/>
      <use xlink:href="#DejaVuSans-6e" x="245.458984"/>
      <use xlink:href="#DejaVuSans-63" x="308.837891"/>
      <use xlink:href="#DejaVuSans-65" x="363.818359"/>
      <use xlink:href="#DejaVuSans-73" x="425.341797"/>
     </g>
    </g>
   </g>
   <g id="patch_223">
    <path d="M 967.764706 315 
L 967.764706 43.2 
" style="fill: none; stroke: #000000; stroke-width: 0.8; stroke-linejoin: miter; stroke-linecap: square"/>
   </g>
   <g id="patch_224">
    <path d="M 1296 315 
L 1296 43.2 
" style="fill: none; stroke: #000000; stroke-width: 0.8; stroke-linejoin: miter; stroke-linecap: square"/>
   </g>
   <g id="patch_225">
    <path d="M 967.764706 315 
L 1296 315 
" style="fill: none; stroke: #000000; stroke-width: 0.8; stroke-linejoin: miter; stroke-linecap: square"/>
   </g>
   <g id="patch_226">
    <path d="M 967.764706 43.2 
L 1296 43.2 
" style="fill: none; stroke: #000000; stroke-width: 0.8; stroke-linejoin: miter; stroke-linecap: square"/>
   </g>
  </g>
  <g id="text_49">
   <!-- nProc = 70   nTask = 350 -->
   <g transform="translate(644.1375 16.318125)scale(0.12 -0.12)">
    <defs>
     <path id="DejaVuSans-50" d="M 1259 4147 
L 1259 2394 
L 2053 2394 
Q 2494 2394 2734 2622 
Q 2975 2850 2975 3272 
Q 2975 3691 2734 3919 
Q 2494 4147 2053 4147 
L 1259 4147 
z
M 628 4666 
L 2053 4666 
Q 2838 4666 3239 4311 
Q 3641 3956 3641 3272 
Q 3641 2581 3239 2228 
Q 2838 1875 2053 1875 
L 1259 1875 
L 1259 0 
L 628 0 
L 628 4666 
z
" transform="scale(0.015625)"/>
     <path id="DejaVuSans-72" d="M 2631 2963 
Q 2534 3019 2420 3045 
Q 2306 3072 2169 3072 
Q 1681 3072 1420 2755 
Q 1159 2438 1159 1844 
L 1159 0 
L 581 0 
L 581 3500 
L 1159 3500 
L 1159 2956 
Q 1341 3275 1631 3429 
Q 1922 3584 2338 3584 
Q 2397 3584 2469 3576 
Q 2541 3569 2628 3553 
L 2631 2963 
z
" transform="scale(0.015625)"/>
     <path id="DejaVuSans-6f" d="M 1959 3097 
Q 1497 3097 1228 2736 
Q 959 2375 959 1747 
Q 959 1119 1226 758 
Q 1494 397 1959 397 
Q 2419 397 2687 759 
Q 2956 1122 2956 1747 
Q 2956 2369 2687 2733 
Q 2419 3097 1959 3097 
z
M 1959 3584 
Q 2709 3584 3137 3096 
Q 3566 2609 3566 1747 
Q 3566 888 3137 398 
Q 2709 -91 1959 -91 
Q 1206 -91 779 398 
Q 353 888 353 1747 
Q 353 2609 779 3096 
Q 1206 3584 1959 3584 
z
" transform="scale(0.015625)"/>
     <path id="DejaVuSans-3d" d="M 678 2906 
L 4684 2906 
L 4684 2381 
L 678 2381 
L 678 2906 
z
M 678 1631 
L 4684 1631 
L 4684 1100 
L 678 1100 
L 678 1631 
z
" transform="scale(0.015625)"/>
     <path id="DejaVuSans-54" d="M -19 4666 
L 3928 4666 
L 3928 4134 
L 2272 4134 
L 2272 0 
L 1638 0 
L 1638 4134 
L -19 4134 
L -19 4666 
z
" transform="scale(0.015625)"/>
     <path id="DejaVuSans-6b" d="M 581 4863 
L 1159 4863 
L 1159 1991 
L 2875 3500 
L 3609 3500 
L 1753 1863 
L 3688 0 
L 2938 0 
L 1159 1709 
L 1159 0 
L 581 0 
L 581 4863 
z
" transform="scale(0.015625)"/>
    </defs>
    <use xlink:href="#DejaVuSans-6e"/>
    <use xlink:href="#DejaVuSans-50" x="63.378906"/>
    <use xlink:href="#DejaVuSans-72" x="121.931641"/>
    <use xlink:href="#DejaVuSans-6f" x="160.794922"/>
    <use xlink:href="#DejaVuSans-63" x="221.976562"/>
    <use xlink:href="#DejaVuSans-20" x="276.957031"/>
    <use xlink:href="#DejaVuSans-3d" x="308.744141"/>
    <use xlink:href="#DejaVuSans-20" x="392.533203"/>
    <use xlink:href="#DejaVuSans-37" x="424.320312"/>
    <use xlink:href="#DejaVuSans-30" x="487.943359"/>
    <use xlink:href="#DejaVuSans-20" x="551.566406"/>
    <use xlink:href="#DejaVuSans-20" x="583.353516"/>
    <use xlink:href="#DejaVuSans-20" x="615.140625"/>
    <use xlink:href="#DejaVuSans-6e" x="646.927734"/>
    <use xlink:href="#DejaVuSans-54" x="710.306641"/>
    <use xlink:href="#DejaVuSans-61" x="754.890625"/>
    <use xlink:href="#DejaVuSans-73" x="816.169922"/>
    <use xlink:href="#DejaVuSans-6b" x="868.269531"/>
    <use xlink:href="#DejaVuSans-20" x="926.179688"/>
    <use xlink:href="#DejaVuSans-3d" x="957.966797"/>
    <use xlink:href="#DejaVuSans-20" x="1041.755859"/>
    <use xlink:href="#DejaVuSans-33" x="1073.542969"/>
    <use xlink:href="#DejaVuSans-35" x="1137.166016"/>
    <use xlink:href="#DejaVuSans-30" x="1200.789062"/>
   </g>
   <!--  Optimal: 5500   Result: 5687   Accuracy: 96.712 % -->
   <g transform="translate(566.489063 29.7555)scale(0.12 -0.12)">
    <defs>
     <path id="DejaVuSans-4f" d="M 2522 4238 
Q 1834 4238 1429 3725 
Q 1025 3213 1025 2328 
Q 1025 1447 1429 934 
Q 1834 422 2522 422 
Q 3209 422 3611 934 
Q 4013 1447 4013 2328 
Q 4013 3213 3611 3725 
Q 3209 4238 2522 4238 
z
M 2522 4750 
Q 3503 4750 4090 4092 
Q 4678 3434 4678 2328 
Q 4678 1225 4090 567 
Q 3503 -91 2522 -91 
Q 1538 -91 948 565 
Q 359 1222 359 2328 
Q 359 3434 948 4092 
Q 1538 4750 2522 4750 
z
" transform="scale(0.015625)"/>
     <path id="DejaVuSans-70" d="M 1159 525 
L 1159 -1331 
L 581 -1331 
L 581 3500 
L 1159 3500 
L 1159 2969 
Q 1341 3281 1617 3432 
Q 1894 3584 2278 3584 
Q 2916 3584 3314 3078 
Q 3713 2572 3713 1747 
Q 3713 922 3314 415 
Q 2916 -91 2278 -91 
Q 1894 -91 1617 61 
Q 1341 213 1159 525 
z
M 3116 1747 
Q 3116 2381 2855 2742 
Q 2594 3103 2138 3103 
Q 1681 3103 1420 2742 
Q 1159 2381 1159 1747 
Q 1159 1113 1420 752 
Q 1681 391 2138 391 
Q 2594 391 2855 752 
Q 3116 1113 3116 1747 
z
" transform="scale(0.015625)"/>
     <path id="DejaVuSans-69" d="M 603 3500 
L 1178 3500 
L 1178 0 
L 603 0 
L 603 3500 
z
M 603 4863 
L 1178 4863 
L 1178 4134 
L 603 4134 
L 603 4863 
z
" transform="scale(0.015625)"/>
     <path id="DejaVuSans-3a" d="M 750 794 
L 1409 794 
L 1409 0 
L 750 0 
L 750 794 
z
M 750 3309 
L 1409 3309 
L 1409 2516 
L 750 2516 
L 750 3309 
z
" transform="scale(0.015625)"/>
     <path id="DejaVuSans-52" d="M 2841 2188 
Q 3044 2119 3236 1894 
Q 3428 1669 3622 1275 
L 4263 0 
L 3584 0 
L 2988 1197 
Q 2756 1666 2539 1819 
Q 2322 1972 1947 1972 
L 1259 1972 
L 1259 0 
L 628 0 
L 628 4666 
L 2053 4666 
Q 2853 4666 3247 4331 
Q 3641 3997 3641 3322 
Q 3641 2881 3436 2590 
Q 3231 2300 2841 2188 
z
M 1259 4147 
L 1259 2491 
L 2053 2491 
Q 2509 2491 2742 2702 
Q 2975 2913 2975 3322 
Q 2975 3731 2742 3939 
Q 2509 4147 2053 4147 
L 1259 4147 
z
" transform="scale(0.015625)"/>
     <path id="DejaVuSans-41" d="M 2188 4044 
L 1331 1722 
L 3047 1722 
L 2188 4044 
z
M 1831 4666 
L 2547 4666 
L 4325 0 
L 3669 0 
L 3244 1197 
L 1141 1197 
L 716 0 
L 50 0 
L 1831 4666 
z
" transform="scale(0.015625)"/>
     <path id="DejaVuSans-79" d="M 2059 -325 
Q 1816 -950 1584 -1140 
Q 1353 -1331 966 -1331 
L 506 -1331 
L 506 -850 
L 844 -850 
Q 1081 -850 1212 -737 
Q 1344 -625 1503 -206 
L 1606 56 
L 191 3500 
L 800 3500 
L 1894 763 
L 2988 3500 
L 3597 3500 
L 2059 -325 
z
" transform="scale(0.015625)"/>
     <path id="DejaVuSans-39" d="M 703 97 
L 703 672 
Q 941 559 1184 500 
Q 1428 441 1663 441 
Q 2288 441 2617 861 
Q 2947 1281 2994 2138 
Q 2813 1869 2534 1725 
Q 2256 1581 1919 1581 
Q 1219 1581 811 2004 
Q 403 2428 403 3163 
Q 403 3881 828 4315 
Q 1253 4750 1959 4750 
Q 2769 4750 3195 4129 
Q 3622 3509 3622 2328 
Q 3622 1225 3098 567 
Q 2575 -91 1691 -91 
Q 1453 -91 1209 -44 
Q 966 3 703 97 
z
M 1959 2075 
Q 2384 2075 2632 2365 
Q 2881 2656 2881 3163 
Q 2881 3666 2632 3958 
Q 2384 4250 1959 4250 
Q 1534 4250 1286 3958 
Q 1038 3666 1038 3163 
Q 1038 2656 1286 2365 
Q 1534 2075 1959 2075 
z
" transform="scale(0.015625)"/>
     <path id="DejaVuSans-2e" d="M 684 794 
L 1344 794 
L 1344 0 
L 684 0 
L 684 794 
z
" transform="scale(0.015625)"/>
     <path id="DejaVuSans-25" d="M 4653 2053 
Q 4381 2053 4226 1822 
Q 4072 1591 4072 1178 
Q 4072 772 4226 539 
Q 4381 306 4653 306 
Q 4919 306 5073 539 
Q 5228 772 5228 1178 
Q 5228 1588 5073 1820 
Q 4919 2053 4653 2053 
z
M 4653 2450 
Q 5147 2450 5437 2106 
Q 5728 1763 5728 1178 
Q 5728 594 5436 251 
Q 5144 -91 4653 -91 
Q 4153 -91 3862 251 
Q 3572 594 3572 1178 
Q 3572 1766 3864 2108 
Q 4156 2450 4653 2450 
z
M 1428 4353 
Q 1159 4353 1004 4120 
Q 850 3888 850 3481 
Q 850 3069 1003 2837 
Q 1156 2606 1428 2606 
Q 1700 2606 1854 2837 
Q 2009 3069 2009 3481 
Q 2009 3884 1853 4118 
Q 1697 4353 1428 4353 
z
M 4250 4750 
L 4750 4750 
L 1831 -91 
L 1331 -91 
L 4250 4750 
z
M 1428 4750 
Q 1922 4750 2215 4408 
Q 2509 4066 2509 3481 
Q 2509 2891 2217 2550 
Q 1925 2209 1428 2209 
Q 931 2209 642 2551 
Q 353 2894 353 3481 
Q 353 4063 643 4406 
Q 934 4750 1428 4750 
z
" transform="scale(0.015625)"/>
    </defs>
    <use xlink:href="#DejaVuSans-20"/>
    <use xlink:href="#DejaVuSans-4f" x="31.787109"/>
    <use xlink:href="#DejaVuSans-70" x="110.498047"/>
    <use xlink:href="#DejaVuSans-74" x="173.974609"/>
    <use xlink:href="#DejaVuSans-69" x="213.183594"/>
    <use xlink:href="#DejaVuSans-6d" x="240.966797"/>
    <use xlink:href="#DejaVuSans-61" x="338.378906"/>
    <use xlink:href="#DejaVuSans-6c" x="399.658203"/>
    <use xlink:href="#DejaVuSans-3a" x="427.441406"/>
    <use xlink:href="#DejaVuSans-20" x="461.132812"/>
    <use xlink:href="#DejaVuSans-35" x="492.919922"/>
    <use xlink:href="#DejaVuSans-35" x="556.542969"/>
    <use xlink:href="#DejaVuSans-30" x="620.166016"/>
    <use xlink:href="#DejaVuSans-30" x="683.789062"/>
    <use xlink:href="#DejaVuSans-20" x="747.412109"/>
    <use xlink:href="#DejaVuSans-20" x="779.199219"/>
    <use xlink:href="#DejaVuSans-20" x="810.986328"/>
    <use xlink:href="#DejaVuSans-52" x="842.773438"/>
    <use xlink:href="#DejaVuSans-65" x="907.755859"/>
    <use xlink:href="#DejaVuSans-73" x="969.279297"/>
    <use xlink:href="#DejaVuSans-75" x="1021.378906"/>
    <use xlink:href="#DejaVuSans-6c" x="1084.757812"/>
    <use xlink:href="#DejaVuSans-74" x="1112.541016"/>
    <use xlink:href="#DejaVuSans-3a" x="1151.75"/>
    <use xlink:href="#DejaVuSans-20" x="1185.441406"/>
    <use xlink:href="#DejaVuSans-35" x="1217.228516"/>
    <use xlink:href="#DejaVuSans-36" x="1280.851562"/>
    <use xlink:href="#DejaVuSans-38" x="1344.474609"/>
    <use xlink:href="#DejaVuSans-37" x="1408.097656"/>
    <use xlink:href="#DejaVuSans-20" x="1471.720703"/>
    <use xlink:href="#DejaVuSans-20" x="1503.507812"/>
    <use xlink:href="#DejaVuSans-20" x="1535.294922"/>
    <use xlink:href="#DejaVuSans-41" x="1567.082031"/>
    <use xlink:href="#DejaVuSans-63" x="1633.740234"/>
    <use xlink:href="#DejaVuSans-63" x="1688.720703"/>
    <use xlink:href="#DejaVuSans-75" x="1743.701172"/>
    <use xlink:href="#DejaVuSans-72" x="1807.080078"/>
    <use xlink:href="#DejaVuSans-61" x="1848.193359"/>
    <use xlink:href="#DejaVuSans-63" x="1909.472656"/>
    <use xlink:href="#DejaVuSans-79" x="1964.453125"/>
    <use xlink:href="#DejaVuSans-3a" x="2016.382812"/>
    <use xlink:href="#DejaVuSans-20" x="2050.074219"/>
    <use xlink:href="#DejaVuSans-39" x="2081.861328"/>
    <use xlink:href="#DejaVuSans-36" x="2145.484375"/>
    <use xlink:href="#DejaVuSans-2e" x="2209.107422"/>
    <use xlink:href="#DejaVuSans-37" x="2240.894531"/>
    <use xlink:href="#DejaVuSans-31" x="2304.517578"/>
    <use xlink:href="#DejaVuSans-32" x="2368.140625"/>
    <use xlink:href="#DejaVuSans-20" x="2431.763672"/>
    <use xlink:href="#DejaVuSans-25" x="2463.550781"/>
   </g>
  </g>
 </g>
 <defs>
  <clipPath id="p65672daf31">
   <rect x="180" y="43.2" width="328.235294" height="271.8"/>
  </clipPath>
  <clipPath id="pc3bf36c87f">
   <rect x="573.882353" y="43.2" width="328.235294" height="271.8"/>
  </clipPath>
  <clipPath id="p03d255e511">
   <rect x="967.764706" y="43.2" width="328.235294" height="271.8"/>
  </clipPath>
 </defs>
</svg>
